<?xml version="1.0" encoding="UTF-8" standalone="no"?>
<!DOCTYPE svg PUBLIC "-//W3C//DTD SVG 1.1//EN"
 "http://www.w3.org/Graphics/SVG/1.1/DTD/svg11.dtd">
<!-- Generated by graphviz version 2.43.0 (0)
 -->
<!-- Title: snakemake_dag Pages: 1 -->
<svg width="273pt" height="564pt"
 viewBox="0.00 0.00 272.50 564.00" xmlns="http://www.w3.org/2000/svg" xmlns:xlink="http://www.w3.org/1999/xlink">
<g id="graph0" class="graph" transform="scale(1 1) rotate(0) translate(4 560)">
<title>snakemake_dag</title>
<polygon fill="white" stroke="transparent" points="-4,4 -4,-560 268.5,-560 268.5,4 -4,4"/>
<!-- 0 -->
<g id="node1" class="node">
<title>0</title>
<path fill="none" stroke="#97d856" stroke-width="2" d="M134,-36C134,-36 104,-36 104,-36 98,-36 92,-30 92,-24 92,-24 92,-12 92,-12 92,-6 98,0 104,0 104,0 134,0 134,0 140,0 146,-6 146,-12 146,-12 146,-24 146,-24 146,-30 140,-36 134,-36"/>
<text text-anchor="middle" x="119" y="-15.5" font-family="sans" font-size="10.00">all</text>
</g>
<!-- 1 -->
<g id="node2" class="node">
<title>1</title>
<path fill="none" stroke="#56d8d8" stroke-width="2" d="M98,-108C98,-108 68,-108 68,-108 62,-108 56,-102 56,-96 56,-96 56,-84 56,-84 56,-78 62,-72 68,-72 68,-72 98,-72 98,-72 104,-72 110,-78 110,-84 110,-84 110,-96 110,-96 110,-102 104,-108 98,-108"/>
<text text-anchor="middle" x="83" y="-87.5" font-family="sans" font-size="10.00">recover</text>
</g>
<!-- 1&#45;&gt;0 -->
<g id="edge1" class="edge">
<title>1&#45;&gt;0</title>
<path fill="none" stroke="grey" stroke-width="2" d="M91.9,-71.7C96,-63.73 100.95,-54.1 105.49,-45.26"/>
<polygon fill="grey" stroke="grey" stroke-width="2" points="108.74,-46.6 110.2,-36.1 102.52,-43.4 108.74,-46.6"/>
</g>
<!-- 2 -->
<g id="node3" class="node">
<title>2</title>
<path fill="none" stroke="#56d89a" stroke-width="2" d="M42,-252C42,-252 12,-252 12,-252 6,-252 0,-246 0,-240 0,-240 0,-228 0,-228 0,-222 6,-216 12,-216 12,-216 42,-216 42,-216 48,-216 54,-222 54,-228 54,-228 54,-240 54,-240 54,-246 48,-252 42,-252"/>
<text text-anchor="middle" x="27" y="-231.5" font-family="sans" font-size="10.00">postlog</text>
</g>
<!-- 2&#45;&gt;1 -->
<g id="edge3" class="edge">
<title>2&#45;&gt;1</title>
<path fill="none" stroke="grey" stroke-width="2" d="M28.6,-215.99C30.78,-197.61 35.67,-167.76 46,-144 50.18,-134.38 56.25,-124.71 62.26,-116.32"/>
<polygon fill="grey" stroke="grey" stroke-width="2" points="65.23,-118.19 68.43,-108.09 59.63,-113.99 65.23,-118.19"/>
</g>
<!-- 7 -->
<g id="node8" class="node">
<title>7</title>
<path fill="none" stroke="#d6d856" stroke-width="2" d="M99,-180C99,-180 67,-180 67,-180 61,-180 55,-174 55,-168 55,-168 55,-156 55,-156 55,-150 61,-144 67,-144 67,-144 99,-144 99,-144 105,-144 111,-150 111,-156 111,-156 111,-168 111,-168 111,-174 105,-180 99,-180"/>
<text text-anchor="middle" x="83" y="-159.5" font-family="sans" font-size="10.00">damage</text>
</g>
<!-- 2&#45;&gt;7 -->
<g id="edge11" class="edge">
<title>2&#45;&gt;7</title>
<path fill="none" stroke="grey" stroke-width="2" d="M40.84,-215.7C47.49,-207.39 55.58,-197.28 62.89,-188.14"/>
<polygon fill="grey" stroke="grey" stroke-width="2" points="65.8,-190.1 69.32,-180.1 60.34,-185.73 65.8,-190.1"/>
</g>
<!-- 3 -->
<g id="node4" class="node">
<title>3</title>
<path fill="none" stroke="#59d856" stroke-width="2" d="M130,-412C130,-412 100,-412 100,-412 94,-412 88,-406 88,-400 88,-400 88,-388 88,-388 88,-382 94,-376 100,-376 100,-376 130,-376 130,-376 136,-376 142,-382 142,-388 142,-388 142,-400 142,-400 142,-406 136,-412 130,-412"/>
<text text-anchor="middle" x="115" y="-391.5" font-family="sans" font-size="10.00">spinup</text>
</g>
<!-- 3&#45;&gt;2 -->
<g id="edge5" class="edge">
<title>3&#45;&gt;2</title>
<path fill="none" stroke="grey" stroke-width="2" d="M87.68,-384.49C67.26,-376.53 40.75,-362.45 28,-340 14.55,-316.33 16.46,-284.54 20.37,-262.16"/>
<polygon fill="grey" stroke="grey" stroke-width="2" points="23.82,-262.8 22.33,-252.31 16.95,-261.43 23.82,-262.8"/>
</g>
<!-- 6 -->
<g id="node7" class="node">
<title>6</title>
<path fill="none" stroke="#569ad8" stroke-width="2" d="M110.5,-340C110.5,-340 49.5,-340 49.5,-340 43.5,-340 37.5,-334 37.5,-328 37.5,-328 37.5,-300 37.5,-300 37.5,-294 43.5,-288 49.5,-288 49.5,-288 110.5,-288 110.5,-288 116.5,-288 122.5,-294 122.5,-300 122.5,-300 122.5,-328 122.5,-328 122.5,-334 116.5,-340 110.5,-340"/>
<text text-anchor="middle" x="80" y="-328" font-family="sans" font-size="10.00">log</text>
<text text-anchor="middle" x="80" y="-317" font-family="sans" font-size="10.00">cycle: 1</text>
<text text-anchor="middle" x="80" y="-306" font-family="sans" font-size="10.00">duration: 65</text>
<text text-anchor="middle" x="80" y="-295" font-family="sans" font-size="10.00">scenario: RIL1</text>
</g>
<!-- 3&#45;&gt;6 -->
<g id="edge9" class="edge">
<title>3&#45;&gt;6</title>
<path fill="none" stroke="grey" stroke-width="2" d="M107.23,-375.69C103.76,-367.96 99.55,-358.57 95.48,-349.5"/>
<polygon fill="grey" stroke="grey" stroke-width="2" points="98.62,-347.95 91.33,-340.26 92.23,-350.81 98.62,-347.95"/>
</g>
<!-- 9 -->
<g id="node10" class="node">
<title>9</title>
<path fill="none" stroke="#56d89a" stroke-width="2" d="M177,-252C177,-252 147,-252 147,-252 141,-252 135,-246 135,-240 135,-240 135,-228 135,-228 135,-222 141,-216 147,-216 147,-216 177,-216 177,-216 183,-216 189,-222 189,-228 189,-228 189,-240 189,-240 189,-246 183,-252 177,-252"/>
<text text-anchor="middle" x="162" y="-231.5" font-family="sans" font-size="10.00">postlog</text>
</g>
<!-- 3&#45;&gt;9 -->
<g id="edge14" class="edge">
<title>3&#45;&gt;9</title>
<path fill="none" stroke="grey" stroke-width="2" d="M120.21,-375.82C123.36,-365.45 127.43,-351.97 131,-340 138.94,-313.39 147.92,-282.96 154.16,-261.73"/>
<polygon fill="grey" stroke="grey" stroke-width="2" points="157.52,-262.69 156.98,-252.11 150.81,-260.71 157.52,-262.69"/>
</g>
<!-- 10 -->
<g id="node11" class="node">
<title>10</title>
<path fill="none" stroke="#569ad8" stroke-width="2" d="M252.5,-340C252.5,-340 191.5,-340 191.5,-340 185.5,-340 179.5,-334 179.5,-328 179.5,-328 179.5,-300 179.5,-300 179.5,-294 185.5,-288 191.5,-288 191.5,-288 252.5,-288 252.5,-288 258.5,-288 264.5,-294 264.5,-300 264.5,-300 264.5,-328 264.5,-328 264.5,-334 258.5,-340 252.5,-340"/>
<text text-anchor="middle" x="222" y="-328" font-family="sans" font-size="10.00">log</text>
<text text-anchor="middle" x="222" y="-317" font-family="sans" font-size="10.00">cycle: 1</text>
<text text-anchor="middle" x="222" y="-306" font-family="sans" font-size="10.00">duration: 65</text>
<text text-anchor="middle" x="222" y="-295" font-family="sans" font-size="10.00">scenario: RIL2</text>
</g>
<!-- 3&#45;&gt;10 -->
<g id="edge16" class="edge">
<title>3&#45;&gt;10</title>
<path fill="none" stroke="grey" stroke-width="2" d="M138.48,-375.88C150.4,-367.19 165.26,-356.36 179.13,-346.25"/>
<polygon fill="grey" stroke="grey" stroke-width="2" points="181.58,-348.79 187.6,-340.07 177.46,-343.14 181.58,-348.79"/>
</g>
<!-- 4 -->
<g id="node5" class="node">
<title>4</title>
<path fill="none" stroke="#d89556" stroke-width="2" d="M149,-484C149,-484 81,-484 81,-484 75,-484 69,-478 69,-472 69,-472 69,-460 69,-460 69,-454 75,-448 81,-448 81,-448 149,-448 149,-448 155,-448 161,-454 161,-460 161,-460 161,-472 161,-472 161,-478 155,-484 149,-484"/>
<text text-anchor="middle" x="115" y="-463.5" font-family="sans" font-size="10.00">prepare_spinup</text>
</g>
<!-- 4&#45;&gt;3 -->
<g id="edge7" class="edge">
<title>4&#45;&gt;3</title>
<path fill="none" stroke="grey" stroke-width="2" d="M115,-447.7C115,-439.98 115,-430.71 115,-422.11"/>
<polygon fill="grey" stroke="grey" stroke-width="2" points="118.5,-422.1 115,-412.1 111.5,-422.1 118.5,-422.1"/>
</g>
<!-- 5 -->
<g id="node6" class="node">
<title>5</title>
<path fill="none" stroke="#d85656" stroke-width="2" d="M143.5,-556C143.5,-556 86.5,-556 86.5,-556 80.5,-556 74.5,-550 74.5,-544 74.5,-544 74.5,-532 74.5,-532 74.5,-526 80.5,-520 86.5,-520 86.5,-520 143.5,-520 143.5,-520 149.5,-520 155.5,-526 155.5,-532 155.5,-532 155.5,-544 155.5,-544 155.5,-550 149.5,-556 143.5,-556"/>
<text text-anchor="middle" x="115" y="-535.5" font-family="sans" font-size="10.00">spinup_years</text>
</g>
<!-- 5&#45;&gt;4 -->
<g id="edge8" class="edge">
<title>5&#45;&gt;4</title>
<path fill="none" stroke="grey" stroke-width="2" d="M115,-519.7C115,-511.98 115,-502.71 115,-494.11"/>
<polygon fill="grey" stroke="grey" stroke-width="2" points="118.5,-494.1 115,-484.1 111.5,-494.1 118.5,-494.1"/>
</g>
<!-- 6&#45;&gt;2 -->
<g id="edge6" class="edge">
<title>6&#45;&gt;2</title>
<path fill="none" stroke="grey" stroke-width="2" d="M62.94,-287.89C57.04,-279.21 50.42,-269.47 44.48,-260.73"/>
<polygon fill="grey" stroke="grey" stroke-width="2" points="47.35,-258.71 38.83,-252.41 41.56,-262.65 47.35,-258.71"/>
</g>
<!-- 6&#45;&gt;7 -->
<g id="edge10" class="edge">
<title>6&#45;&gt;7</title>
<path fill="none" stroke="grey" stroke-width="2" d="M80.5,-287.89C81.04,-260.95 81.89,-218.27 82.45,-190.45"/>
<polygon fill="grey" stroke="grey" stroke-width="2" points="85.95,-190.3 82.66,-180.23 78.96,-190.16 85.95,-190.3"/>
</g>
<!-- 7&#45;&gt;1 -->
<g id="edge4" class="edge">
<title>7&#45;&gt;1</title>
<path fill="none" stroke="grey" stroke-width="2" d="M83,-143.7C83,-135.98 83,-126.71 83,-118.11"/>
<polygon fill="grey" stroke="grey" stroke-width="2" points="86.5,-118.1 83,-108.1 79.5,-118.1 86.5,-118.1"/>
</g>
<!-- 8 -->
<g id="node9" class="node">
<title>8</title>
<path fill="none" stroke="#56d8d8" stroke-width="2" d="M177,-108C177,-108 147,-108 147,-108 141,-108 135,-102 135,-96 135,-96 135,-84 135,-84 135,-78 141,-72 147,-72 147,-72 177,-72 177,-72 183,-72 189,-78 189,-84 189,-84 189,-96 189,-96 189,-102 183,-108 177,-108"/>
<text text-anchor="middle" x="162" y="-87.5" font-family="sans" font-size="10.00">recover</text>
</g>
<!-- 8&#45;&gt;0 -->
<g id="edge2" class="edge">
<title>8&#45;&gt;0</title>
<path fill="none" stroke="grey" stroke-width="2" d="M151.37,-71.7C146.37,-63.56 140.31,-53.69 134.79,-44.7"/>
<polygon fill="grey" stroke="grey" stroke-width="2" points="137.72,-42.79 129.51,-36.1 131.76,-46.46 137.72,-42.79"/>
</g>
<!-- 9&#45;&gt;8 -->
<g id="edge12" class="edge">
<title>9&#45;&gt;8</title>
<path fill="none" stroke="grey" stroke-width="2" d="M162,-215.87C162,-191.67 162,-147.21 162,-118.39"/>
<polygon fill="grey" stroke="grey" stroke-width="2" points="165.5,-118.19 162,-108.19 158.5,-118.19 165.5,-118.19"/>
</g>
<!-- 11 -->
<g id="node12" class="node">
<title>11</title>
<path fill="none" stroke="#d6d856" stroke-width="2" d="M234,-180C234,-180 202,-180 202,-180 196,-180 190,-174 190,-168 190,-168 190,-156 190,-156 190,-150 196,-144 202,-144 202,-144 234,-144 234,-144 240,-144 246,-150 246,-156 246,-156 246,-168 246,-168 246,-174 240,-180 234,-180"/>
<text text-anchor="middle" x="218" y="-159.5" font-family="sans" font-size="10.00">damage</text>
</g>
<!-- 9&#45;&gt;11 -->
<g id="edge18" class="edge">
<title>9&#45;&gt;11</title>
<path fill="none" stroke="grey" stroke-width="2" d="M175.84,-215.7C182.49,-207.39 190.58,-197.28 197.89,-188.14"/>
<polygon fill="grey" stroke="grey" stroke-width="2" points="200.8,-190.1 204.32,-180.1 195.34,-185.73 200.8,-190.1"/>
</g>
<!-- 10&#45;&gt;9 -->
<g id="edge15" class="edge">
<title>10&#45;&gt;9</title>
<path fill="none" stroke="grey" stroke-width="2" d="M202.69,-287.89C195.94,-279.12 188.36,-269.26 181.58,-260.46"/>
<polygon fill="grey" stroke="grey" stroke-width="2" points="184.26,-258.2 175.39,-252.41 178.72,-262.47 184.26,-258.2"/>
</g>
<!-- 10&#45;&gt;11 -->
<g id="edge17" class="edge">
<title>10&#45;&gt;11</title>
<path fill="none" stroke="grey" stroke-width="2" d="M221.33,-287.89C220.61,-260.95 219.47,-218.27 218.73,-190.45"/>
<polygon fill="grey" stroke="grey" stroke-width="2" points="222.22,-190.13 218.46,-180.23 215.23,-190.32 222.22,-190.13"/>
</g>
<!-- 11&#45;&gt;8 -->
<g id="edge13" class="edge">
<title>11&#45;&gt;8</title>
<path fill="none" stroke="grey" stroke-width="2" d="M204.16,-143.7C197.51,-135.39 189.42,-125.28 182.11,-116.14"/>
<polygon fill="grey" stroke="grey" stroke-width="2" points="184.66,-113.73 175.68,-108.1 179.2,-118.1 184.66,-113.73"/>
</g>
</g>
</svg>
