<?xml version="1.0" encoding="UTF-8" standalone="no"?>
<!DOCTYPE svg PUBLIC "-//W3C//DTD SVG 1.1//EN"
 "http://www.w3.org/Graphics/SVG/1.1/DTD/svg11.dtd">
<!-- Generated by graphviz version 2.43.0 (0)
 -->
<!-- Title: snakemake_dag Pages: 1 -->
<svg width="342pt" height="337pt"
 viewBox="0.00 0.00 342.00 337.00" xmlns="http://www.w3.org/2000/svg" xmlns:xlink="http://www.w3.org/1999/xlink">
<g id="graph0" class="graph" transform="scale(1 1) rotate(0) translate(4 333)">
<title>snakemake_dag</title>
<polygon fill="white" stroke="transparent" points="-4,4 -4,-333 338,-333 338,4 -4,4"/>
<!-- 0 -->
<g id="node1" class="node">
<title>0</title>
<path fill="none" stroke="#56d87b" stroke-width="2" d="M182,-36C182,-36 152,-36 152,-36 146,-36 140,-30 140,-24 140,-24 140,-12 140,-12 140,-6 146,0 152,0 152,0 182,0 182,0 188,0 194,-6 194,-12 194,-12 194,-24 194,-24 194,-30 188,-36 182,-36"/>
<text text-anchor="middle" x="167" y="-15.5" font-family="sans" font-size="10.00">all</text>
</g>
<!-- 1 -->
<g id="node2" class="node">
<title>1</title>
<path fill="none" stroke="#56d8c9" stroke-width="2" d="M228,-108C228,-108 198,-108 198,-108 192,-108 186,-102 186,-96 186,-96 186,-84 186,-84 186,-78 192,-72 198,-72 198,-72 228,-72 228,-72 234,-72 240,-78 240,-84 240,-84 240,-96 240,-96 240,-102 234,-108 228,-108"/>
<text text-anchor="middle" x="213" y="-87.5" font-family="sans" font-size="10.00">troll</text>
</g>
<!-- 1&#45;&gt;0 -->
<g id="edge1" class="edge">
<title>1&#45;&gt;0</title>
<path fill="none" stroke="grey" stroke-width="2" d="M201.63,-71.7C196.28,-63.56 189.8,-53.69 183.89,-44.7"/>
<polygon fill="grey" stroke="grey" stroke-width="2" points="186.66,-42.54 178.24,-36.1 180.81,-46.38 186.66,-42.54"/>
</g>
<!-- 2 -->
<g id="node3" class="node">
<title>2</title>
<path fill="none" stroke="#c6d856" stroke-width="2" d="M260,-180C260,-180 188,-180 188,-180 182,-180 176,-174 176,-168 176,-168 176,-156 176,-156 176,-150 182,-144 188,-144 188,-144 260,-144 260,-144 266,-144 272,-150 272,-156 272,-156 272,-168 272,-168 272,-174 266,-180 260,-180"/>
<text text-anchor="middle" x="224" y="-159.5" font-family="sans" font-size="10.00">prepare_climate</text>
</g>
<!-- 2&#45;&gt;1 -->
<g id="edge3" class="edge">
<title>2&#45;&gt;1</title>
<path fill="none" stroke="grey" stroke-width="2" d="M221.28,-143.7C220.07,-135.98 218.61,-126.71 217.26,-118.11"/>
<polygon fill="grey" stroke="grey" stroke-width="2" points="220.7,-117.44 215.69,-108.1 213.78,-118.53 220.7,-117.44"/>
</g>
<!-- 3 -->
<g id="node4" class="node">
<title>3</title>
<path fill="none" stroke="#78d856" stroke-width="2" d="M322,-252C322,-252 238,-252 238,-252 232,-252 226,-246 226,-240 226,-240 226,-228 226,-228 226,-222 232,-216 238,-216 238,-216 322,-216 322,-216 328,-216 334,-222 334,-228 334,-228 334,-240 334,-240 334,-246 328,-252 322,-252"/>
<text text-anchor="middle" x="280" y="-237" font-family="sans" font-size="10.00">prepare_projection</text>
<text text-anchor="middle" x="280" y="-226" font-family="sans" font-size="10.00">exp: rcp26</text>
</g>
<!-- 3&#45;&gt;2 -->
<g id="edge4" class="edge">
<title>3&#45;&gt;2</title>
<path fill="none" stroke="grey" stroke-width="2" d="M266.16,-215.7C259.51,-207.39 251.42,-197.28 244.11,-188.14"/>
<polygon fill="grey" stroke="grey" stroke-width="2" points="246.66,-185.73 237.68,-180.1 241.2,-190.1 246.66,-185.73"/>
</g>
<!-- 4 -->
<g id="node5" class="node">
<title>4</title>
<path fill="none" stroke="#56a2d8" stroke-width="2" d="M154.5,-329C154.5,-329 43.5,-329 43.5,-329 37.5,-329 31.5,-323 31.5,-317 31.5,-317 31.5,-300 31.5,-300 31.5,-294 37.5,-288 43.5,-288 43.5,-288 154.5,-288 154.5,-288 160.5,-288 166.5,-294 166.5,-300 166.5,-300 166.5,-317 166.5,-317 166.5,-323 160.5,-329 154.5,-329"/>
<text text-anchor="middle" x="99" y="-317" font-family="sans" font-size="10.00">prepare_cordex</text>
<text text-anchor="middle" x="99" y="-306" font-family="sans" font-size="10.00">model: NCC&#45;NorESM1&#45;M</text>
<text text-anchor="middle" x="99" y="-295" font-family="sans" font-size="10.00">rcm: REMO2015</text>
</g>
<!-- 4&#45;&gt;3 -->
<g id="edge6" class="edge">
<title>4&#45;&gt;3</title>
<path fill="none" stroke="grey" stroke-width="2" d="M147.98,-287.88C172.77,-277.95 202.86,-265.9 228.05,-255.81"/>
<polygon fill="grey" stroke="grey" stroke-width="2" points="229.46,-259.01 237.44,-252.05 226.86,-252.51 229.46,-259.01"/>
</g>
<!-- 9 -->
<g id="node10" class="node">
<title>9</title>
<path fill="none" stroke="#78d856" stroke-width="2" d="M96,-252C96,-252 12,-252 12,-252 6,-252 0,-246 0,-240 0,-240 0,-228 0,-228 0,-222 6,-216 12,-216 12,-216 96,-216 96,-216 102,-216 108,-222 108,-228 108,-228 108,-240 108,-240 108,-246 102,-252 96,-252"/>
<text text-anchor="middle" x="54" y="-237" font-family="sans" font-size="10.00">prepare_projection</text>
<text text-anchor="middle" x="54" y="-226" font-family="sans" font-size="10.00">exp: rcp85</text>
</g>
<!-- 4&#45;&gt;9 -->
<g id="edge11" class="edge">
<title>4&#45;&gt;9</title>
<path fill="none" stroke="grey" stroke-width="2" d="M86.7,-287.69C81.6,-279.47 75.62,-269.83 70.17,-261.05"/>
<polygon fill="grey" stroke="grey" stroke-width="2" points="73,-258.97 64.75,-252.32 67.05,-262.66 73,-258.97"/>
</g>
<!-- 5 -->
<g id="node6" class="node">
<title>5</title>
<path fill="none" stroke="#d85656" stroke-width="2" d="M294,-326.5C294,-326.5 220,-326.5 220,-326.5 214,-326.5 208,-320.5 208,-314.5 208,-314.5 208,-302.5 208,-302.5 208,-296.5 214,-290.5 220,-290.5 220,-290.5 294,-290.5 294,-290.5 300,-290.5 306,-296.5 306,-302.5 306,-302.5 306,-314.5 306,-314.5 306,-320.5 300,-326.5 294,-326.5"/>
<text text-anchor="middle" x="257" y="-306" font-family="sans" font-size="10.00">projection_years</text>
</g>
<!-- 5&#45;&gt;3 -->
<g id="edge7" class="edge">
<title>5&#45;&gt;3</title>
<path fill="none" stroke="grey" stroke-width="2" d="M262.45,-290.32C265.14,-281.83 268.45,-271.39 271.47,-261.88"/>
<polygon fill="grey" stroke="grey" stroke-width="2" points="274.9,-262.65 274.59,-252.06 268.23,-260.53 274.9,-262.65"/>
</g>
<!-- 5&#45;&gt;9 -->
<g id="edge12" class="edge">
<title>5&#45;&gt;9</title>
<path fill="none" stroke="grey" stroke-width="2" d="M209.15,-290.41C179.96,-279.98 142.45,-266.59 111.63,-255.58"/>
<polygon fill="grey" stroke="grey" stroke-width="2" points="112.48,-252.17 101.88,-252.1 110.12,-258.76 112.48,-252.17"/>
</g>
<!-- 6 -->
<g id="node7" class="node">
<title>6</title>
<path fill="none" stroke="#d8a456" stroke-width="2" d="M195.5,-252C195.5,-252 138.5,-252 138.5,-252 132.5,-252 126.5,-246 126.5,-240 126.5,-240 126.5,-228 126.5,-228 126.5,-222 132.5,-216 138.5,-216 138.5,-216 195.5,-216 195.5,-216 201.5,-216 207.5,-222 207.5,-228 207.5,-228 207.5,-240 207.5,-240 207.5,-246 201.5,-252 195.5,-252"/>
<text text-anchor="middle" x="167" y="-231.5" font-family="sans" font-size="10.00">spinup_years</text>
</g>
<!-- 6&#45;&gt;2 -->
<g id="edge5" class="edge">
<title>6&#45;&gt;2</title>
<path fill="none" stroke="grey" stroke-width="2" d="M181.09,-215.7C187.92,-207.3 196.26,-197.07 203.76,-187.86"/>
<polygon fill="grey" stroke="grey" stroke-width="2" points="206.47,-190.07 210.07,-180.1 201.04,-185.65 206.47,-190.07"/>
</g>
<!-- 8 -->
<g id="node9" class="node">
<title>8</title>
<path fill="none" stroke="#c6d856" stroke-width="2" d="M146,-180C146,-180 74,-180 74,-180 68,-180 62,-174 62,-168 62,-168 62,-156 62,-156 62,-150 68,-144 74,-144 74,-144 146,-144 146,-144 152,-144 158,-150 158,-156 158,-156 158,-168 158,-168 158,-174 152,-180 146,-180"/>
<text text-anchor="middle" x="110" y="-159.5" font-family="sans" font-size="10.00">prepare_climate</text>
</g>
<!-- 6&#45;&gt;8 -->
<g id="edge10" class="edge">
<title>6&#45;&gt;8</title>
<path fill="none" stroke="grey" stroke-width="2" d="M152.91,-215.7C146.08,-207.3 137.74,-197.07 130.24,-187.86"/>
<polygon fill="grey" stroke="grey" stroke-width="2" points="132.96,-185.65 123.93,-180.1 127.53,-190.07 132.96,-185.65"/>
</g>
<!-- 7 -->
<g id="node8" class="node">
<title>7</title>
<path fill="none" stroke="#56d8c9" stroke-width="2" d="M146,-108C146,-108 116,-108 116,-108 110,-108 104,-102 104,-96 104,-96 104,-84 104,-84 104,-78 110,-72 116,-72 116,-72 146,-72 146,-72 152,-72 158,-78 158,-84 158,-84 158,-96 158,-96 158,-102 152,-108 146,-108"/>
<text text-anchor="middle" x="131" y="-87.5" font-family="sans" font-size="10.00">troll</text>
</g>
<!-- 7&#45;&gt;0 -->
<g id="edge2" class="edge">
<title>7&#45;&gt;0</title>
<path fill="none" stroke="grey" stroke-width="2" d="M139.9,-71.7C144,-63.73 148.95,-54.1 153.49,-45.26"/>
<polygon fill="grey" stroke="grey" stroke-width="2" points="156.74,-46.6 158.2,-36.1 150.52,-43.4 156.74,-46.6"/>
</g>
<!-- 8&#45;&gt;7 -->
<g id="edge8" class="edge">
<title>8&#45;&gt;7</title>
<path fill="none" stroke="grey" stroke-width="2" d="M115.19,-143.7C117.53,-135.9 120.35,-126.51 122.95,-117.83"/>
<polygon fill="grey" stroke="grey" stroke-width="2" points="126.35,-118.69 125.87,-108.1 119.64,-116.68 126.35,-118.69"/>
</g>
<!-- 9&#45;&gt;8 -->
<g id="edge9" class="edge">
<title>9&#45;&gt;8</title>
<path fill="none" stroke="grey" stroke-width="2" d="M67.84,-215.7C74.49,-207.39 82.58,-197.28 89.89,-188.14"/>
<polygon fill="grey" stroke="grey" stroke-width="2" points="92.8,-190.1 96.32,-180.1 87.34,-185.73 92.8,-190.1"/>
</g>
</g>
</svg>
