<?xml version="1.0" encoding="UTF-8" standalone="no"?>
<!DOCTYPE svg PUBLIC "-//W3C//DTD SVG 1.1//EN"
 "http://www.w3.org/Graphics/SVG/1.1/DTD/svg11.dtd">
<!-- Generated by graphviz version 2.43.0 (0)
 -->
<!-- Title: snakemake_dag Pages: 1 -->
<svg width="558pt" height="436pt"
 viewBox="0.00 0.00 558.00 436.00" xmlns="http://www.w3.org/2000/svg" xmlns:xlink="http://www.w3.org/1999/xlink">
<g id="graph0" class="graph" transform="scale(1 1) rotate(0) translate(4 432)">
<title>snakemake_dag</title>
<polygon fill="white" stroke="transparent" points="-4,4 -4,-432 554,-432 554,4 -4,4"/>
<!-- 0 -->
<g id="node1" class="node">
<title>0</title>
<path fill="none" stroke="#d88d56" stroke-width="2" d="M287.5,-36C287.5,-36 257.5,-36 257.5,-36 251.5,-36 245.5,-30 245.5,-24 245.5,-24 245.5,-12 245.5,-12 245.5,-6 251.5,0 257.5,0 257.5,0 287.5,0 287.5,0 293.5,0 299.5,-6 299.5,-12 299.5,-12 299.5,-24 299.5,-24 299.5,-30 293.5,-36 287.5,-36"/>
<text text-anchor="middle" x="272.5" y="-15.5" font-family="sans" font-size="10.00">all</text>
</g>
<!-- 1 -->
<g id="node2" class="node">
<title>1</title>
<path fill="none" stroke="#56c9d8" stroke-width="2" d="M251.5,-108C251.5,-108 221.5,-108 221.5,-108 215.5,-108 209.5,-102 209.5,-96 209.5,-96 209.5,-84 209.5,-84 209.5,-78 215.5,-72 221.5,-72 221.5,-72 251.5,-72 251.5,-72 257.5,-72 263.5,-78 263.5,-84 263.5,-84 263.5,-96 263.5,-96 263.5,-102 257.5,-108 251.5,-108"/>
<text text-anchor="middle" x="236.5" y="-87.5" font-family="sans" font-size="10.00">post</text>
</g>
<!-- 1&#45;&gt;0 -->
<g id="edge1" class="edge">
<title>1&#45;&gt;0</title>
<path fill="none" stroke="grey" stroke-width="2" d="M245.4,-71.7C249.5,-63.73 254.45,-54.1 258.99,-45.26"/>
<polygon fill="grey" stroke="grey" stroke-width="2" points="262.24,-46.6 263.7,-36.1 256.02,-43.4 262.24,-46.6"/>
</g>
<!-- 2 -->
<g id="node3" class="node">
<title>2</title>
<path fill="none" stroke="#56d873" stroke-width="2" d="M385,-196C385,-196 274,-196 274,-196 268,-196 262,-190 262,-184 262,-184 262,-156 262,-156 262,-150 268,-144 274,-144 274,-144 385,-144 385,-144 391,-144 397,-150 397,-156 397,-156 397,-184 397,-184 397,-190 391,-196 385,-196"/>
<text text-anchor="middle" x="329.5" y="-184" font-family="sans" font-size="10.00">prepare_post</text>
<text text-anchor="middle" x="329.5" y="-173" font-family="sans" font-size="10.00">exp: rcp26</text>
<text text-anchor="middle" x="329.5" y="-162" font-family="sans" font-size="10.00">model: NCC&#45;NorESM1&#45;M</text>
<text text-anchor="middle" x="329.5" y="-151" font-family="sans" font-size="10.00">rcm: REMO2015</text>
</g>
<!-- 2&#45;&gt;1 -->
<g id="edge3" class="edge">
<title>2&#45;&gt;1</title>
<path fill="none" stroke="grey" stroke-width="2" d="M299.56,-143.89C288.37,-134.5 275.7,-123.88 264.67,-114.63"/>
<polygon fill="grey" stroke="grey" stroke-width="2" points="266.88,-111.91 256.97,-108.17 262.38,-117.28 266.88,-111.91"/>
</g>
<!-- 3 -->
<g id="node4" class="node">
<title>3</title>
<path fill="none" stroke="#70d856" stroke-width="2" d="M489.5,-276C489.5,-276 443.5,-276 443.5,-276 437.5,-276 431.5,-270 431.5,-264 431.5,-264 431.5,-252 431.5,-252 431.5,-246 437.5,-240 443.5,-240 443.5,-240 489.5,-240 489.5,-240 495.5,-240 501.5,-246 501.5,-252 501.5,-252 501.5,-264 501.5,-264 501.5,-270 495.5,-276 489.5,-276"/>
<text text-anchor="middle" x="466.5" y="-255.5" font-family="sans" font-size="10.00">post_years</text>
</g>
<!-- 3&#45;&gt;2 -->
<g id="edge5" class="edge">
<title>3&#45;&gt;2</title>
<path fill="none" stroke="grey" stroke-width="2" d="M439.11,-239.8C421.68,-228.87 398.63,-214.4 378.16,-201.55"/>
<polygon fill="grey" stroke="grey" stroke-width="2" points="379.9,-198.51 369.57,-196.16 376.18,-204.44 379.9,-198.51"/>
</g>
<!-- 10 -->
<g id="node11" class="node">
<title>10</title>
<path fill="none" stroke="#56d873" stroke-width="2" d="M538,-196C538,-196 427,-196 427,-196 421,-196 415,-190 415,-184 415,-184 415,-156 415,-156 415,-150 421,-144 427,-144 427,-144 538,-144 538,-144 544,-144 550,-150 550,-156 550,-156 550,-184 550,-184 550,-190 544,-196 538,-196"/>
<text text-anchor="middle" x="482.5" y="-184" font-family="sans" font-size="10.00">prepare_post</text>
<text text-anchor="middle" x="482.5" y="-173" font-family="sans" font-size="10.00">exp: rcp85</text>
<text text-anchor="middle" x="482.5" y="-162" font-family="sans" font-size="10.00">model: NCC&#45;NorESM1&#45;M</text>
<text text-anchor="middle" x="482.5" y="-151" font-family="sans" font-size="10.00">rcm: REMO2015</text>
</g>
<!-- 3&#45;&gt;10 -->
<g id="edge12" class="edge">
<title>3&#45;&gt;10</title>
<path fill="none" stroke="grey" stroke-width="2" d="M469.74,-239.6C471.53,-229.95 473.83,-217.61 475.98,-206.06"/>
<polygon fill="grey" stroke="grey" stroke-width="2" points="479.42,-206.68 477.81,-196.2 472.54,-205.39 479.42,-206.68"/>
</g>
<!-- 4 -->
<g id="node5" class="node">
<title>4</title>
<path fill="none" stroke="#56d8a9" stroke-width="2" stroke-dasharray="5,2" d="M159.5,-188C159.5,-188 129.5,-188 129.5,-188 123.5,-188 117.5,-182 117.5,-176 117.5,-176 117.5,-164 117.5,-164 117.5,-158 123.5,-152 129.5,-152 129.5,-152 159.5,-152 159.5,-152 165.5,-152 171.5,-158 171.5,-164 171.5,-164 171.5,-176 171.5,-176 171.5,-182 165.5,-188 159.5,-188"/>
<text text-anchor="middle" x="144.5" y="-167.5" font-family="sans" font-size="10.00">run</text>
</g>
<!-- 4&#45;&gt;1 -->
<g id="edge4" class="edge">
<title>4&#45;&gt;1</title>
<path fill="none" stroke="grey" stroke-width="2" d="M164.92,-151.69C177.66,-140.88 194.25,-126.82 208.25,-114.95"/>
<polygon fill="grey" stroke="grey" stroke-width="2" points="210.78,-117.4 216.14,-108.26 206.25,-112.06 210.78,-117.4"/>
</g>
<!-- 5 -->
<g id="node6" class="node">
<title>5</title>
<path fill="none" stroke="#d85656" stroke-width="2" stroke-dasharray="5,2" d="M123,-284C123,-284 12,-284 12,-284 6,-284 0,-278 0,-272 0,-272 0,-244 0,-244 0,-238 6,-232 12,-232 12,-232 123,-232 123,-232 129,-232 135,-238 135,-244 135,-244 135,-272 135,-272 135,-278 129,-284 123,-284"/>
<text text-anchor="middle" x="67.5" y="-272" font-family="sans" font-size="10.00">prepare_run</text>
<text text-anchor="middle" x="67.5" y="-261" font-family="sans" font-size="10.00">exp: rcp26</text>
<text text-anchor="middle" x="67.5" y="-250" font-family="sans" font-size="10.00">model: NCC&#45;NorESM1&#45;M</text>
<text text-anchor="middle" x="67.5" y="-239" font-family="sans" font-size="10.00">rcm: REMO2015</text>
</g>
<!-- 5&#45;&gt;4 -->
<g id="edge6" class="edge">
<title>5&#45;&gt;4</title>
<path fill="none" stroke="grey" stroke-width="2" d="M90.19,-231.66C100.42,-220.23 112.46,-206.78 122.6,-195.45"/>
<polygon fill="grey" stroke="grey" stroke-width="2" points="125.21,-197.79 129.28,-188 120,-193.12 125.21,-197.79"/>
</g>
<!-- 6 -->
<g id="node7" class="node">
<title>6</title>
<path fill="none" stroke="#d8cb56" stroke-width="2" stroke-dasharray="5,2" d="M195.5,-276C195.5,-276 165.5,-276 165.5,-276 159.5,-276 153.5,-270 153.5,-264 153.5,-264 153.5,-252 153.5,-252 153.5,-246 159.5,-240 165.5,-240 165.5,-240 195.5,-240 195.5,-240 201.5,-240 207.5,-246 207.5,-252 207.5,-252 207.5,-264 207.5,-264 207.5,-270 201.5,-276 195.5,-276"/>
<text text-anchor="middle" x="180.5" y="-255.5" font-family="sans" font-size="10.00">spinup</text>
</g>
<!-- 6&#45;&gt;4 -->
<g id="edge7" class="edge">
<title>6&#45;&gt;4</title>
<path fill="none" stroke="grey" stroke-width="2" d="M173.21,-239.6C168.16,-227.51 161.32,-211.18 155.59,-197.49"/>
<polygon fill="grey" stroke="grey" stroke-width="2" points="158.74,-195.96 151.65,-188.08 152.28,-198.66 158.74,-195.96"/>
</g>
<!-- 11 -->
<g id="node12" class="node">
<title>11</title>
<path fill="none" stroke="#56d8a9" stroke-width="2" stroke-dasharray="5,2" d="M231.5,-188C231.5,-188 201.5,-188 201.5,-188 195.5,-188 189.5,-182 189.5,-176 189.5,-176 189.5,-164 189.5,-164 189.5,-158 195.5,-152 201.5,-152 201.5,-152 231.5,-152 231.5,-152 237.5,-152 243.5,-158 243.5,-164 243.5,-164 243.5,-176 243.5,-176 243.5,-182 237.5,-188 231.5,-188"/>
<text text-anchor="middle" x="216.5" y="-167.5" font-family="sans" font-size="10.00">run</text>
</g>
<!-- 6&#45;&gt;11 -->
<g id="edge14" class="edge">
<title>6&#45;&gt;11</title>
<path fill="none" stroke="grey" stroke-width="2" d="M187.79,-239.6C192.84,-227.51 199.68,-211.18 205.41,-197.49"/>
<polygon fill="grey" stroke="grey" stroke-width="2" points="208.72,-198.66 209.35,-188.08 202.26,-195.96 208.72,-198.66"/>
</g>
<!-- 7 -->
<g id="node8" class="node">
<title>7</title>
<path fill="none" stroke="#5692d8" stroke-width="2" stroke-dasharray="5,2" d="M214.5,-356C214.5,-356 146.5,-356 146.5,-356 140.5,-356 134.5,-350 134.5,-344 134.5,-344 134.5,-332 134.5,-332 134.5,-326 140.5,-320 146.5,-320 146.5,-320 214.5,-320 214.5,-320 220.5,-320 226.5,-326 226.5,-332 226.5,-332 226.5,-344 226.5,-344 226.5,-350 220.5,-356 214.5,-356"/>
<text text-anchor="middle" x="180.5" y="-335.5" font-family="sans" font-size="10.00">prepare_spinup</text>
</g>
<!-- 7&#45;&gt;6 -->
<g id="edge8" class="edge">
<title>7&#45;&gt;6</title>
<path fill="none" stroke="grey" stroke-width="2" d="M180.5,-319.69C180.5,-309.89 180.5,-297.42 180.5,-286.33"/>
<polygon fill="grey" stroke="grey" stroke-width="2" points="184,-286.26 180.5,-276.26 177,-286.26 184,-286.26"/>
</g>
<!-- 8 -->
<g id="node9" class="node">
<title>8</title>
<path fill="none" stroke="#afd856" stroke-width="2" stroke-dasharray="5,2" d="M209,-428C209,-428 152,-428 152,-428 146,-428 140,-422 140,-416 140,-416 140,-404 140,-404 140,-398 146,-392 152,-392 152,-392 209,-392 209,-392 215,-392 221,-398 221,-404 221,-404 221,-416 221,-416 221,-422 215,-428 209,-428"/>
<text text-anchor="middle" x="180.5" y="-407.5" font-family="sans" font-size="10.00">spinup_years</text>
</g>
<!-- 8&#45;&gt;7 -->
<g id="edge9" class="edge">
<title>8&#45;&gt;7</title>
<path fill="none" stroke="grey" stroke-width="2" d="M180.5,-391.7C180.5,-383.98 180.5,-374.71 180.5,-366.11"/>
<polygon fill="grey" stroke="grey" stroke-width="2" points="184,-366.1 180.5,-356.1 177,-366.1 184,-366.1"/>
</g>
<!-- 9 -->
<g id="node10" class="node">
<title>9</title>
<path fill="none" stroke="#56c9d8" stroke-width="2" d="M323.5,-108C323.5,-108 293.5,-108 293.5,-108 287.5,-108 281.5,-102 281.5,-96 281.5,-96 281.5,-84 281.5,-84 281.5,-78 287.5,-72 293.5,-72 293.5,-72 323.5,-72 323.5,-72 329.5,-72 335.5,-78 335.5,-84 335.5,-84 335.5,-96 335.5,-96 335.5,-102 329.5,-108 323.5,-108"/>
<text text-anchor="middle" x="308.5" y="-87.5" font-family="sans" font-size="10.00">post</text>
</g>
<!-- 9&#45;&gt;0 -->
<g id="edge2" class="edge">
<title>9&#45;&gt;0</title>
<path fill="none" stroke="grey" stroke-width="2" d="M299.6,-71.7C295.5,-63.73 290.55,-54.1 286.01,-45.26"/>
<polygon fill="grey" stroke="grey" stroke-width="2" points="288.98,-43.4 281.3,-36.1 282.76,-46.6 288.98,-43.4"/>
</g>
<!-- 10&#45;&gt;9 -->
<g id="edge10" class="edge">
<title>10&#45;&gt;9</title>
<path fill="none" stroke="grey" stroke-width="2" d="M426.49,-143.89C399.77,-131.91 368.56,-117.93 344.96,-107.34"/>
<polygon fill="grey" stroke="grey" stroke-width="2" points="346.22,-104.07 335.67,-103.18 343.36,-110.46 346.22,-104.07"/>
</g>
<!-- 11&#45;&gt;9 -->
<g id="edge11" class="edge">
<title>11&#45;&gt;9</title>
<path fill="none" stroke="grey" stroke-width="2" d="M236.92,-151.69C249.66,-140.88 266.25,-126.82 280.25,-114.95"/>
<polygon fill="grey" stroke="grey" stroke-width="2" points="282.78,-117.4 288.14,-108.26 278.25,-112.06 282.78,-117.4"/>
</g>
<!-- 12 -->
<g id="node13" class="node">
<title>12</title>
<path fill="none" stroke="#d85656" stroke-width="2" stroke-dasharray="5,2" d="M349,-284C349,-284 238,-284 238,-284 232,-284 226,-278 226,-272 226,-272 226,-244 226,-244 226,-238 232,-232 238,-232 238,-232 349,-232 349,-232 355,-232 361,-238 361,-244 361,-244 361,-272 361,-272 361,-278 355,-284 349,-284"/>
<text text-anchor="middle" x="293.5" y="-272" font-family="sans" font-size="10.00">prepare_run</text>
<text text-anchor="middle" x="293.5" y="-261" font-family="sans" font-size="10.00">exp: rcp85</text>
<text text-anchor="middle" x="293.5" y="-250" font-family="sans" font-size="10.00">model: NCC&#45;NorESM1&#45;M</text>
<text text-anchor="middle" x="293.5" y="-239" font-family="sans" font-size="10.00">rcm: REMO2015</text>
</g>
<!-- 12&#45;&gt;11 -->
<g id="edge13" class="edge">
<title>12&#45;&gt;11</title>
<path fill="none" stroke="grey" stroke-width="2" d="M270.81,-231.66C260.58,-220.23 248.54,-206.78 238.4,-195.45"/>
<polygon fill="grey" stroke="grey" stroke-width="2" points="241,-193.12 231.72,-188 235.79,-197.79 241,-193.12"/>
</g>
</g>
</svg>
