<?xml version="1.0" encoding="UTF-8" standalone="no"?>
<!DOCTYPE svg PUBLIC "-//W3C//DTD SVG 1.1//EN"
 "http://www.w3.org/Graphics/SVG/1.1/DTD/svg11.dtd">
<!-- Generated by graphviz version 2.43.0 (0)
 -->
<!-- Title: snakemake_dag Pages: 1 -->
<svg width="683pt" height="353pt"
 viewBox="0.00 0.00 683.00 353.00" xmlns="http://www.w3.org/2000/svg" xmlns:xlink="http://www.w3.org/1999/xlink">
<g id="graph0" class="graph" transform="scale(1 1) rotate(0) translate(4 349)">
<title>snakemake_dag</title>
<polygon fill="white" stroke="transparent" points="-4,4 -4,-349 679,-349 679,4 -4,4"/>
<!-- 0 -->
<g id="node1" class="node">
<title>0</title>
<path fill="none" stroke="#56c1d8" stroke-width="2" d="M352.5,-36C352.5,-36 322.5,-36 322.5,-36 316.5,-36 310.5,-30 310.5,-24 310.5,-24 310.5,-12 310.5,-12 310.5,-6 316.5,0 322.5,0 322.5,0 352.5,0 352.5,0 358.5,0 364.5,-6 364.5,-12 364.5,-12 364.5,-24 364.5,-24 364.5,-30 358.5,-36 352.5,-36"/>
<text text-anchor="middle" x="337.5" y="-15.5" font-family="sans" font-size="10.00">all</text>
</g>
<!-- 1 -->
<g id="node2" class="node">
<title>1</title>
<path fill="none" stroke="#56d88a" stroke-width="2" d="M366,-108C366,-108 309,-108 309,-108 303,-108 297,-102 297,-96 297,-96 297,-84 297,-84 297,-78 303,-72 309,-72 309,-72 366,-72 366,-72 372,-72 378,-78 378,-84 378,-84 378,-96 378,-96 378,-102 372,-108 366,-108"/>
<text text-anchor="middle" x="337.5" y="-87.5" font-family="sans" font-size="10.00">gather_warm</text>
</g>
<!-- 1&#45;&gt;0 -->
<g id="edge1" class="edge">
<title>1&#45;&gt;0</title>
<path fill="none" stroke="grey" stroke-width="2" d="M337.5,-71.7C337.5,-63.98 337.5,-54.71 337.5,-46.11"/>
<polygon fill="grey" stroke="grey" stroke-width="2" points="341,-46.1 337.5,-36.1 334,-46.1 341,-46.1"/>
</g>
<!-- 2 -->
<g id="node3" class="node">
<title>2</title>
<path fill="none" stroke="#d8bc56" stroke-width="2" d="M313,-196C313,-196 256,-196 256,-196 250,-196 244,-190 244,-184 244,-184 244,-156 244,-156 244,-150 250,-144 256,-144 256,-144 313,-144 313,-144 319,-144 325,-150 325,-156 325,-156 325,-184 325,-184 325,-190 319,-196 313,-196"/>
<text text-anchor="middle" x="284.5" y="-184" font-family="sans" font-size="10.00">troll_warm</text>
<text text-anchor="middle" x="284.5" y="-173" font-family="sans" font-size="10.00">depth: 0&#45;5cm</text>
<text text-anchor="middle" x="284.5" y="-162" font-family="sans" font-size="10.00">plot: Paracou</text>
<text text-anchor="middle" x="284.5" y="-151" font-family="sans" font-size="10.00">rep: 1</text>
</g>
<!-- 2&#45;&gt;1 -->
<g id="edge2" class="edge">
<title>2&#45;&gt;1</title>
<path fill="none" stroke="grey" stroke-width="2" d="M301.56,-143.89C307.46,-135.21 314.08,-125.47 320.02,-116.73"/>
<polygon fill="grey" stroke="grey" stroke-width="2" points="322.94,-118.65 325.67,-108.41 317.15,-114.71 322.94,-118.65"/>
</g>
<!-- 3 -->
<g id="node4" class="node">
<title>3</title>
<path fill="none" stroke="#d85656" stroke-width="2" d="M362.5,-268C362.5,-268 312.5,-268 312.5,-268 306.5,-268 300.5,-262 300.5,-256 300.5,-256 300.5,-244 300.5,-244 300.5,-238 306.5,-232 312.5,-232 312.5,-232 362.5,-232 362.5,-232 368.5,-232 374.5,-238 374.5,-244 374.5,-244 374.5,-256 374.5,-256 374.5,-262 368.5,-268 362.5,-268"/>
<text text-anchor="middle" x="337.5" y="-247.5" font-family="sans" font-size="10.00">extract_soil</text>
</g>
<!-- 3&#45;&gt;2 -->
<g id="edge4" class="edge">
<title>3&#45;&gt;2</title>
<path fill="none" stroke="grey" stroke-width="2" d="M325.74,-231.69C320.32,-223.72 313.7,-213.97 307.36,-204.64"/>
<polygon fill="grey" stroke="grey" stroke-width="2" points="310.18,-202.56 301.66,-196.26 304.39,-206.5 310.18,-202.56"/>
</g>
<!-- 11 -->
<g id="node12" class="node">
<title>11</title>
<path fill="none" stroke="#d8bc56" stroke-width="2" d="M425.5,-196C425.5,-196 355.5,-196 355.5,-196 349.5,-196 343.5,-190 343.5,-184 343.5,-184 343.5,-156 343.5,-156 343.5,-150 349.5,-144 355.5,-144 355.5,-144 425.5,-144 425.5,-144 431.5,-144 437.5,-150 437.5,-156 437.5,-156 437.5,-184 437.5,-184 437.5,-190 431.5,-196 425.5,-196"/>
<text text-anchor="middle" x="390.5" y="-184" font-family="sans" font-size="10.00">troll_warm</text>
<text text-anchor="middle" x="390.5" y="-173" font-family="sans" font-size="10.00">depth: 0&#45;5cm</text>
<text text-anchor="middle" x="390.5" y="-162" font-family="sans" font-size="10.00">plot: Nouragues</text>
<text text-anchor="middle" x="390.5" y="-151" font-family="sans" font-size="10.00">rep: 1</text>
</g>
<!-- 3&#45;&gt;11 -->
<g id="edge12" class="edge">
<title>3&#45;&gt;11</title>
<path fill="none" stroke="grey" stroke-width="2" d="M349.26,-231.69C354.68,-223.72 361.3,-213.97 367.64,-204.64"/>
<polygon fill="grey" stroke="grey" stroke-width="2" points="370.61,-206.5 373.34,-196.26 364.82,-202.56 370.61,-206.5"/>
</g>
<!-- 4 -->
<g id="node5" class="node">
<title>4</title>
<path fill="none" stroke="#88d856" stroke-width="2" d="M69,-345C69,-345 12,-345 12,-345 6,-345 0,-339 0,-333 0,-333 0,-316 0,-316 0,-310 6,-304 12,-304 12,-304 69,-304 69,-304 75,-304 81,-310 81,-316 81,-316 81,-333 81,-333 81,-339 75,-345 69,-345"/>
<text text-anchor="middle" x="40.5" y="-333" font-family="sans" font-size="10.00">get_soil</text>
<text text-anchor="middle" x="40.5" y="-322" font-family="sans" font-size="10.00">depth: 0&#45;5cm</text>
<text text-anchor="middle" x="40.5" y="-311" font-family="sans" font-size="10.00">par: silt</text>
</g>
<!-- 4&#45;&gt;3 -->
<g id="edge5" class="edge">
<title>4&#45;&gt;3</title>
<path fill="none" stroke="grey" stroke-width="2" d="M81.22,-306.7C84.01,-305.73 86.78,-304.82 89.5,-304 158.28,-283.13 240.19,-267.32 290.51,-258.61"/>
<polygon fill="grey" stroke="grey" stroke-width="2" points="291.18,-262.05 300.45,-256.91 290,-255.15 291.18,-262.05"/>
</g>
<!-- 5 -->
<g id="node6" class="node">
<title>5</title>
<path fill="none" stroke="#88d856" stroke-width="2" d="M168,-345C168,-345 111,-345 111,-345 105,-345 99,-339 99,-333 99,-333 99,-316 99,-316 99,-310 105,-304 111,-304 111,-304 168,-304 168,-304 174,-304 180,-310 180,-316 180,-316 180,-333 180,-333 180,-339 174,-345 168,-345"/>
<text text-anchor="middle" x="139.5" y="-333" font-family="sans" font-size="10.00">get_soil</text>
<text text-anchor="middle" x="139.5" y="-322" font-family="sans" font-size="10.00">depth: 0&#45;5cm</text>
<text text-anchor="middle" x="139.5" y="-311" font-family="sans" font-size="10.00">par: clay</text>
</g>
<!-- 5&#45;&gt;3 -->
<g id="edge6" class="edge">
<title>5&#45;&gt;3</title>
<path fill="none" stroke="grey" stroke-width="2" d="M180.1,-307.21C182.94,-306.11 185.76,-305.03 188.5,-304 222.55,-291.17 261.27,-277.42 290.71,-267.15"/>
<polygon fill="grey" stroke="grey" stroke-width="2" points="292.02,-270.39 300.32,-263.8 289.72,-263.78 292.02,-270.39"/>
</g>
<!-- 6 -->
<g id="node7" class="node">
<title>6</title>
<path fill="none" stroke="#88d856" stroke-width="2" d="M267,-345C267,-345 210,-345 210,-345 204,-345 198,-339 198,-333 198,-333 198,-316 198,-316 198,-310 204,-304 210,-304 210,-304 267,-304 267,-304 273,-304 279,-310 279,-316 279,-316 279,-333 279,-333 279,-339 273,-345 267,-345"/>
<text text-anchor="middle" x="238.5" y="-333" font-family="sans" font-size="10.00">get_soil</text>
<text text-anchor="middle" x="238.5" y="-322" font-family="sans" font-size="10.00">depth: 0&#45;5cm</text>
<text text-anchor="middle" x="238.5" y="-311" font-family="sans" font-size="10.00">par: sand</text>
</g>
<!-- 6&#45;&gt;3 -->
<g id="edge7" class="edge">
<title>6&#45;&gt;3</title>
<path fill="none" stroke="grey" stroke-width="2" d="M265.29,-303.88C277.79,-294.73 292.75,-283.77 305.8,-274.21"/>
<polygon fill="grey" stroke="grey" stroke-width="2" points="308.06,-276.9 314.06,-268.17 303.92,-271.25 308.06,-276.9"/>
</g>
<!-- 7 -->
<g id="node8" class="node">
<title>7</title>
<path fill="none" stroke="#88d856" stroke-width="2" d="M366,-345C366,-345 309,-345 309,-345 303,-345 297,-339 297,-333 297,-333 297,-316 297,-316 297,-310 303,-304 309,-304 309,-304 366,-304 366,-304 372,-304 378,-310 378,-316 378,-316 378,-333 378,-333 378,-339 372,-345 366,-345"/>
<text text-anchor="middle" x="337.5" y="-333" font-family="sans" font-size="10.00">get_soil</text>
<text text-anchor="middle" x="337.5" y="-322" font-family="sans" font-size="10.00">depth: 0&#45;5cm</text>
<text text-anchor="middle" x="337.5" y="-311" font-family="sans" font-size="10.00">par: soc</text>
</g>
<!-- 7&#45;&gt;3 -->
<g id="edge8" class="edge">
<title>7&#45;&gt;3</title>
<path fill="none" stroke="grey" stroke-width="2" d="M337.5,-303.69C337.5,-295.91 337.5,-286.84 337.5,-278.45"/>
<polygon fill="grey" stroke="grey" stroke-width="2" points="341,-278.32 337.5,-268.32 334,-278.32 341,-278.32"/>
</g>
<!-- 8 -->
<g id="node9" class="node">
<title>8</title>
<path fill="none" stroke="#88d856" stroke-width="2" d="M465,-345C465,-345 408,-345 408,-345 402,-345 396,-339 396,-333 396,-333 396,-316 396,-316 396,-310 402,-304 408,-304 408,-304 465,-304 465,-304 471,-304 477,-310 477,-316 477,-316 477,-333 477,-333 477,-339 471,-345 465,-345"/>
<text text-anchor="middle" x="436.5" y="-333" font-family="sans" font-size="10.00">get_soil</text>
<text text-anchor="middle" x="436.5" y="-322" font-family="sans" font-size="10.00">depth: 0&#45;5cm</text>
<text text-anchor="middle" x="436.5" y="-311" font-family="sans" font-size="10.00">par: bdod</text>
</g>
<!-- 8&#45;&gt;3 -->
<g id="edge9" class="edge">
<title>8&#45;&gt;3</title>
<path fill="none" stroke="grey" stroke-width="2" d="M409.71,-303.88C397.21,-294.73 382.25,-283.77 369.2,-274.21"/>
<polygon fill="grey" stroke="grey" stroke-width="2" points="371.08,-271.25 360.94,-268.17 366.94,-276.9 371.08,-271.25"/>
</g>
<!-- 9 -->
<g id="node10" class="node">
<title>9</title>
<path fill="none" stroke="#88d856" stroke-width="2" d="M564,-345C564,-345 507,-345 507,-345 501,-345 495,-339 495,-333 495,-333 495,-316 495,-316 495,-310 501,-304 507,-304 507,-304 564,-304 564,-304 570,-304 576,-310 576,-316 576,-316 576,-333 576,-333 576,-339 570,-345 564,-345"/>
<text text-anchor="middle" x="535.5" y="-333" font-family="sans" font-size="10.00">get_soil</text>
<text text-anchor="middle" x="535.5" y="-322" font-family="sans" font-size="10.00">depth: 0&#45;5cm</text>
<text text-anchor="middle" x="535.5" y="-311" font-family="sans" font-size="10.00">par: phh2o</text>
</g>
<!-- 9&#45;&gt;3 -->
<g id="edge10" class="edge">
<title>9&#45;&gt;3</title>
<path fill="none" stroke="grey" stroke-width="2" d="M494.9,-307.21C492.06,-306.11 489.24,-305.03 486.5,-304 452.45,-291.17 413.73,-277.42 384.29,-267.15"/>
<polygon fill="grey" stroke="grey" stroke-width="2" points="385.28,-263.78 374.68,-263.8 382.98,-270.39 385.28,-263.78"/>
</g>
<!-- 10 -->
<g id="node11" class="node">
<title>10</title>
<path fill="none" stroke="#88d856" stroke-width="2" d="M663,-345C663,-345 606,-345 606,-345 600,-345 594,-339 594,-333 594,-333 594,-316 594,-316 594,-310 600,-304 606,-304 606,-304 663,-304 663,-304 669,-304 675,-310 675,-316 675,-316 675,-333 675,-333 675,-339 669,-345 663,-345"/>
<text text-anchor="middle" x="634.5" y="-333" font-family="sans" font-size="10.00">get_soil</text>
<text text-anchor="middle" x="634.5" y="-322" font-family="sans" font-size="10.00">depth: 0&#45;5cm</text>
<text text-anchor="middle" x="634.5" y="-311" font-family="sans" font-size="10.00">par: cec</text>
</g>
<!-- 10&#45;&gt;3 -->
<g id="edge11" class="edge">
<title>10&#45;&gt;3</title>
<path fill="none" stroke="grey" stroke-width="2" d="M593.78,-306.7C590.99,-305.73 588.22,-304.82 585.5,-304 516.72,-283.13 434.81,-267.32 384.49,-258.61"/>
<polygon fill="grey" stroke="grey" stroke-width="2" points="385,-255.15 374.55,-256.91 383.82,-262.05 385,-255.15"/>
</g>
<!-- 11&#45;&gt;1 -->
<g id="edge3" class="edge">
<title>11&#45;&gt;1</title>
<path fill="none" stroke="grey" stroke-width="2" d="M373.44,-143.89C367.54,-135.21 360.92,-125.47 354.98,-116.73"/>
<polygon fill="grey" stroke="grey" stroke-width="2" points="357.85,-114.71 349.33,-108.41 352.06,-118.65 357.85,-114.71"/>
</g>
</g>
</svg>
