<?xml version="1.0" encoding="UTF-8" standalone="no"?>
<!DOCTYPE svg PUBLIC "-//W3C//DTD SVG 1.1//EN"
 "http://www.w3.org/Graphics/SVG/1.1/DTD/svg11.dtd">
<!-- Generated by graphviz version 2.43.0 (0)
 -->
<!-- Title: snakemake_dag Pages: 1 -->
<svg width="92pt" height="193pt"
 viewBox="0.00 0.00 92.00 193.00" xmlns="http://www.w3.org/2000/svg" xmlns:xlink="http://www.w3.org/1999/xlink">
<g id="graph0" class="graph" transform="scale(1 1) rotate(0) translate(4 189)">
<title>snakemake_dag</title>
<polygon fill="white" stroke="transparent" points="-4,4 -4,-189 88,-189 88,4 -4,4"/>
<!-- 0 -->
<g id="node1" class="node">
<title>0</title>
<path fill="none" stroke="#afd856" stroke-width="2" d="M57,-36C57,-36 27,-36 27,-36 21,-36 15,-30 15,-24 15,-24 15,-12 15,-12 15,-6 21,0 27,0 27,0 57,0 57,0 63,0 69,-6 69,-12 69,-12 69,-24 69,-24 69,-30 63,-36 57,-36"/>
<text text-anchor="middle" x="42" y="-15.5" font-family="sans" font-size="10.00">all</text>
</g>
<!-- 1 -->
<g id="node2" class="node">
<title>1</title>
<path fill="none" stroke="#d85656" stroke-width="2" d="M70.5,-113C70.5,-113 13.5,-113 13.5,-113 7.5,-113 1.5,-107 1.5,-101 1.5,-101 1.5,-84 1.5,-84 1.5,-78 7.5,-72 13.5,-72 13.5,-72 70.5,-72 70.5,-72 76.5,-72 82.5,-78 82.5,-84 82.5,-84 82.5,-101 82.5,-101 82.5,-107 76.5,-113 70.5,-113"/>
<text text-anchor="middle" x="42" y="-101" font-family="sans" font-size="10.00">spinup</text>
<text text-anchor="middle" x="42" y="-90" font-family="sans" font-size="10.00">rep: 1</text>
<text text-anchor="middle" x="42" y="-79" font-family="sans" font-size="10.00">richness: 500</text>
</g>
<!-- 1&#45;&gt;0 -->
<g id="edge1" class="edge">
<title>1&#45;&gt;0</title>
<path fill="none" stroke="grey" stroke-width="2" d="M42,-71.69C42,-63.91 42,-54.84 42,-46.45"/>
<polygon fill="grey" stroke="grey" stroke-width="2" points="45.5,-46.32 42,-36.32 38.5,-46.32 45.5,-46.32"/>
</g>
<!-- 2 -->
<g id="node3" class="node">
<title>2</title>
<path fill="none" stroke="#56d8a9" stroke-width="2" d="M72,-185C72,-185 12,-185 12,-185 6,-185 0,-179 0,-173 0,-173 0,-161 0,-161 0,-155 6,-149 12,-149 12,-149 72,-149 72,-149 78,-149 84,-155 84,-161 84,-161 84,-173 84,-173 84,-179 78,-185 72,-185"/>
<text text-anchor="middle" x="42" y="-164.5" font-family="sans" font-size="10.00">sample_coms</text>
</g>
<!-- 2&#45;&gt;1 -->
<g id="edge2" class="edge">
<title>2&#45;&gt;1</title>
<path fill="none" stroke="grey" stroke-width="2" d="M42,-148.82C42,-141.2 42,-132 42,-123.32"/>
<polygon fill="grey" stroke="grey" stroke-width="2" points="45.5,-123.12 42,-113.12 38.5,-123.12 45.5,-123.12"/>
</g>
</g>
</svg>
