<?xml version="1.0" encoding="UTF-8" standalone="no"?>
<!DOCTYPE svg PUBLIC "-//W3C//DTD SVG 1.1//EN"
 "http://www.w3.org/Graphics/SVG/1.1/DTD/svg11.dtd">
<!-- Generated by graphviz version 2.43.0 (0)
 -->
<!-- Title: snakemake_dag Pages: 1 -->
<svg width="734pt" height="337pt"
 viewBox="0.00 0.00 734.00 337.00" xmlns="http://www.w3.org/2000/svg" xmlns:xlink="http://www.w3.org/1999/xlink">
<g id="graph0" class="graph" transform="scale(1 1) rotate(0) translate(4 333)">
<title>snakemake_dag</title>
<polygon fill="white" stroke="transparent" points="-4,4 -4,-333 730,-333 730,4 -4,4"/>
<!-- 0 -->
<g id="node1" class="node">
<title>0</title>
<path fill="none" stroke="#d85656" stroke-width="2" d="M408.5,-36C408.5,-36 378.5,-36 378.5,-36 372.5,-36 366.5,-30 366.5,-24 366.5,-24 366.5,-12 366.5,-12 366.5,-6 372.5,0 378.5,0 378.5,0 408.5,0 408.5,0 414.5,0 420.5,-6 420.5,-12 420.5,-12 420.5,-24 420.5,-24 420.5,-30 414.5,-36 408.5,-36"/>
<text text-anchor="middle" x="393.5" y="-15.5" font-family="sans" font-size="10.00">all</text>
</g>
<!-- 1 -->
<g id="node2" class="node">
<title>1</title>
<path fill="none" stroke="#88d856" stroke-width="2" d="M121.5,-108C121.5,-108 59.5,-108 59.5,-108 53.5,-108 47.5,-102 47.5,-96 47.5,-96 47.5,-84 47.5,-84 47.5,-78 53.5,-72 59.5,-72 59.5,-72 121.5,-72 121.5,-72 127.5,-72 133.5,-78 133.5,-84 133.5,-84 133.5,-96 133.5,-96 133.5,-102 127.5,-108 121.5,-108"/>
<text text-anchor="middle" x="90.5" y="-93" font-family="sans" font-size="10.00">troll_exp</text>
<text text-anchor="middle" x="90.5" y="-82" font-family="sans" font-size="10.00">exp: historical</text>
</g>
<!-- 1&#45;&gt;0 -->
<g id="edge1" class="edge">
<title>1&#45;&gt;0</title>
<path fill="none" stroke="grey" stroke-width="2" d="M133.59,-79.05C193.27,-65.26 300.08,-40.58 356.4,-27.57"/>
<polygon fill="grey" stroke="grey" stroke-width="2" points="357.35,-30.94 366.3,-25.28 355.77,-24.12 357.35,-30.94"/>
</g>
<!-- 2 -->
<g id="node3" class="node">
<title>2</title>
<path fill="none" stroke="#d8bc56" stroke-width="2" d="M79,-180C79,-180 34,-180 34,-180 28,-180 22,-174 22,-168 22,-168 22,-156 22,-156 22,-150 28,-144 34,-144 34,-144 79,-144 79,-144 85,-144 91,-150 91,-156 91,-156 91,-168 91,-168 91,-174 85,-180 79,-180"/>
<text text-anchor="middle" x="56.5" y="-165" font-family="sans" font-size="10.00">troll_warm</text>
<text text-anchor="middle" x="56.5" y="-154" font-family="sans" font-size="10.00">rep: 1</text>
</g>
<!-- 2&#45;&gt;1 -->
<g id="edge7" class="edge">
<title>2&#45;&gt;1</title>
<path fill="none" stroke="grey" stroke-width="2" d="M64.9,-143.7C68.77,-135.73 73.45,-126.1 77.74,-117.26"/>
<polygon fill="grey" stroke="grey" stroke-width="2" points="80.97,-118.63 82.19,-108.1 74.67,-115.57 80.97,-118.63"/>
</g>
<!-- 3 -->
<g id="node4" class="node">
<title>3</title>
<path fill="none" stroke="#56d88a" stroke-width="2" d="M89,-252C89,-252 12,-252 12,-252 6,-252 0,-246 0,-240 0,-240 0,-228 0,-228 0,-222 6,-216 12,-216 12,-216 89,-216 89,-216 95,-216 101,-222 101,-228 101,-228 101,-240 101,-240 101,-246 95,-252 89,-252"/>
<text text-anchor="middle" x="50.5" y="-237" font-family="sans" font-size="10.00">prepare_climate</text>
<text text-anchor="middle" x="50.5" y="-226" font-family="sans" font-size="10.00">climate: guyaflux</text>
</g>
<!-- 3&#45;&gt;2 -->
<g id="edge8" class="edge">
<title>3&#45;&gt;2</title>
<path fill="none" stroke="grey" stroke-width="2" d="M51.98,-215.7C52.64,-207.98 53.44,-198.71 54.18,-190.11"/>
<polygon fill="grey" stroke="grey" stroke-width="2" points="57.67,-190.37 55.03,-180.1 50.69,-189.77 57.67,-190.37"/>
</g>
<!-- 4 -->
<g id="node5" class="node">
<title>4</title>
<path fill="none" stroke="#56c1d8" stroke-width="2" d="M203,-329C203,-329 132,-329 132,-329 126,-329 120,-323 120,-317 120,-317 120,-300 120,-300 120,-294 126,-288 132,-288 132,-288 203,-288 203,-288 209,-288 215,-294 215,-300 215,-300 215,-317 215,-317 215,-323 209,-329 203,-329"/>
<text text-anchor="middle" x="167.5" y="-317" font-family="sans" font-size="10.00">select_years</text>
<text text-anchor="middle" x="167.5" y="-306" font-family="sans" font-size="10.00">period: 10 years</text>
<text text-anchor="middle" x="167.5" y="-295" font-family="sans" font-size="10.00">type: current</text>
</g>
<!-- 4&#45;&gt;3 -->
<g id="edge9" class="edge">
<title>4&#45;&gt;3</title>
<path fill="none" stroke="grey" stroke-width="2" d="M135.84,-287.88C120.79,-278.56 102.72,-267.36 87.08,-257.67"/>
<polygon fill="grey" stroke="grey" stroke-width="2" points="88.55,-254.46 78.2,-252.17 84.86,-260.41 88.55,-254.46"/>
</g>
<!-- 7 -->
<g id="node8" class="node">
<title>7</title>
<path fill="none" stroke="#56d88a" stroke-width="2" d="M203.5,-252C203.5,-252 131.5,-252 131.5,-252 125.5,-252 119.5,-246 119.5,-240 119.5,-240 119.5,-228 119.5,-228 119.5,-222 125.5,-216 131.5,-216 131.5,-216 203.5,-216 203.5,-216 209.5,-216 215.5,-222 215.5,-228 215.5,-228 215.5,-240 215.5,-240 215.5,-246 209.5,-252 203.5,-252"/>
<text text-anchor="middle" x="167.5" y="-237" font-family="sans" font-size="10.00">prepare_climate</text>
<text text-anchor="middle" x="167.5" y="-226" font-family="sans" font-size="10.00">climate: era</text>
</g>
<!-- 4&#45;&gt;7 -->
<g id="edge12" class="edge">
<title>4&#45;&gt;7</title>
<path fill="none" stroke="grey" stroke-width="2" d="M167.5,-287.69C167.5,-279.91 167.5,-270.84 167.5,-262.45"/>
<polygon fill="grey" stroke="grey" stroke-width="2" points="171,-262.32 167.5,-252.32 164,-262.32 171,-262.32"/>
</g>
<!-- 10 -->
<g id="node11" class="node">
<title>10</title>
<path fill="none" stroke="#56d88a" stroke-width="2" d="M459,-252C459,-252 246,-252 246,-252 240,-252 234,-246 234,-240 234,-240 234,-228 234,-228 234,-222 240,-216 246,-216 246,-216 459,-216 459,-216 465,-216 471,-222 471,-228 471,-228 471,-240 471,-240 471,-246 465,-252 459,-252"/>
<text text-anchor="middle" x="352.5" y="-237" font-family="sans" font-size="10.00">prepare_climate</text>
<text text-anchor="middle" x="352.5" y="-226" font-family="sans" font-size="10.00">climate: MPI&#45;M&#45;MPI&#45;ESM&#45;MR_ICTP&#45;RegCM4&#45;7</text>
</g>
<!-- 4&#45;&gt;10 -->
<g id="edge15" class="edge">
<title>4&#45;&gt;10</title>
<path fill="none" stroke="grey" stroke-width="2" d="M215.14,-288.83C240.89,-278.74 272.75,-266.25 299.3,-255.85"/>
<polygon fill="grey" stroke="grey" stroke-width="2" points="300.79,-259.02 308.82,-252.12 298.23,-252.51 300.79,-259.02"/>
</g>
<!-- 5 -->
<g id="node6" class="node">
<title>5</title>
<path fill="none" stroke="#88d856" stroke-width="2" d="M248.5,-108C248.5,-108 186.5,-108 186.5,-108 180.5,-108 174.5,-102 174.5,-96 174.5,-96 174.5,-84 174.5,-84 174.5,-78 180.5,-72 186.5,-72 186.5,-72 248.5,-72 248.5,-72 254.5,-72 260.5,-78 260.5,-84 260.5,-84 260.5,-96 260.5,-96 260.5,-102 254.5,-108 248.5,-108"/>
<text text-anchor="middle" x="217.5" y="-93" font-family="sans" font-size="10.00">troll_exp</text>
<text text-anchor="middle" x="217.5" y="-82" font-family="sans" font-size="10.00">exp: historical</text>
</g>
<!-- 5&#45;&gt;0 -->
<g id="edge2" class="edge">
<title>5&#45;&gt;0</title>
<path fill="none" stroke="grey" stroke-width="2" d="M260.55,-71.88C290.14,-60.11 328.99,-44.66 357.05,-33.5"/>
<polygon fill="grey" stroke="grey" stroke-width="2" points="358.49,-36.69 366.49,-29.74 355.9,-30.19 358.49,-36.69"/>
</g>
<!-- 6 -->
<g id="node7" class="node">
<title>6</title>
<path fill="none" stroke="#d8bc56" stroke-width="2" d="M200,-180C200,-180 155,-180 155,-180 149,-180 143,-174 143,-168 143,-168 143,-156 143,-156 143,-150 149,-144 155,-144 155,-144 200,-144 200,-144 206,-144 212,-150 212,-156 212,-156 212,-168 212,-168 212,-174 206,-180 200,-180"/>
<text text-anchor="middle" x="177.5" y="-165" font-family="sans" font-size="10.00">troll_warm</text>
<text text-anchor="middle" x="177.5" y="-154" font-family="sans" font-size="10.00">rep: 1</text>
</g>
<!-- 6&#45;&gt;5 -->
<g id="edge10" class="edge">
<title>6&#45;&gt;5</title>
<path fill="none" stroke="grey" stroke-width="2" d="M187.39,-143.7C191.99,-135.64 197.56,-125.89 202.65,-116.98"/>
<polygon fill="grey" stroke="grey" stroke-width="2" points="205.8,-118.52 207.73,-108.1 199.73,-115.05 205.8,-118.52"/>
</g>
<!-- 7&#45;&gt;6 -->
<g id="edge11" class="edge">
<title>7&#45;&gt;6</title>
<path fill="none" stroke="grey" stroke-width="2" d="M169.97,-215.7C171.07,-207.98 172.4,-198.71 173.63,-190.11"/>
<polygon fill="grey" stroke="grey" stroke-width="2" points="177.11,-190.5 175.06,-180.1 170.18,-189.51 177.11,-190.5"/>
</g>
<!-- 8 -->
<g id="node9" class="node">
<title>8</title>
<path fill="none" stroke="#88d856" stroke-width="2" d="M372.5,-108C372.5,-108 310.5,-108 310.5,-108 304.5,-108 298.5,-102 298.5,-96 298.5,-96 298.5,-84 298.5,-84 298.5,-78 304.5,-72 310.5,-72 310.5,-72 372.5,-72 372.5,-72 378.5,-72 384.5,-78 384.5,-84 384.5,-84 384.5,-96 384.5,-96 384.5,-102 378.5,-108 372.5,-108"/>
<text text-anchor="middle" x="341.5" y="-93" font-family="sans" font-size="10.00">troll_exp</text>
<text text-anchor="middle" x="341.5" y="-82" font-family="sans" font-size="10.00">exp: historical</text>
</g>
<!-- 8&#45;&gt;0 -->
<g id="edge3" class="edge">
<title>8&#45;&gt;0</title>
<path fill="none" stroke="grey" stroke-width="2" d="M354.35,-71.7C360.53,-63.39 368.04,-53.28 374.82,-44.14"/>
<polygon fill="grey" stroke="grey" stroke-width="2" points="377.64,-46.22 380.79,-36.1 372.02,-42.04 377.64,-46.22"/>
</g>
<!-- 9 -->
<g id="node10" class="node">
<title>9</title>
<path fill="none" stroke="#d8bc56" stroke-width="2" d="M369,-180C369,-180 324,-180 324,-180 318,-180 312,-174 312,-168 312,-168 312,-156 312,-156 312,-150 318,-144 324,-144 324,-144 369,-144 369,-144 375,-144 381,-150 381,-156 381,-156 381,-168 381,-168 381,-174 375,-180 369,-180"/>
<text text-anchor="middle" x="346.5" y="-165" font-family="sans" font-size="10.00">troll_warm</text>
<text text-anchor="middle" x="346.5" y="-154" font-family="sans" font-size="10.00">rep: 1</text>
</g>
<!-- 9&#45;&gt;8 -->
<g id="edge13" class="edge">
<title>9&#45;&gt;8</title>
<path fill="none" stroke="grey" stroke-width="2" d="M345.26,-143.7C344.71,-135.98 344.05,-126.71 343.44,-118.11"/>
<polygon fill="grey" stroke="grey" stroke-width="2" points="346.93,-117.83 342.72,-108.1 339.94,-118.33 346.93,-117.83"/>
</g>
<!-- 10&#45;&gt;9 -->
<g id="edge14" class="edge">
<title>10&#45;&gt;9</title>
<path fill="none" stroke="grey" stroke-width="2" d="M351.02,-215.7C350.36,-207.98 349.56,-198.71 348.82,-190.11"/>
<polygon fill="grey" stroke="grey" stroke-width="2" points="352.31,-189.77 347.97,-180.1 345.33,-190.37 352.31,-189.77"/>
</g>
<!-- 11 -->
<g id="node12" class="node">
<title>11</title>
<path fill="none" stroke="#88d856" stroke-width="2" d="M476.5,-108C476.5,-108 414.5,-108 414.5,-108 408.5,-108 402.5,-102 402.5,-96 402.5,-96 402.5,-84 402.5,-84 402.5,-78 408.5,-72 414.5,-72 414.5,-72 476.5,-72 476.5,-72 482.5,-72 488.5,-78 488.5,-84 488.5,-84 488.5,-96 488.5,-96 488.5,-102 482.5,-108 476.5,-108"/>
<text text-anchor="middle" x="445.5" y="-93" font-family="sans" font-size="10.00">troll_exp</text>
<text text-anchor="middle" x="445.5" y="-82" font-family="sans" font-size="10.00">exp: historical</text>
</g>
<!-- 11&#45;&gt;0 -->
<g id="edge4" class="edge">
<title>11&#45;&gt;0</title>
<path fill="none" stroke="grey" stroke-width="2" d="M432.65,-71.7C426.47,-63.39 418.96,-53.28 412.18,-44.14"/>
<polygon fill="grey" stroke="grey" stroke-width="2" points="414.98,-42.04 406.21,-36.1 409.36,-46.22 414.98,-42.04"/>
</g>
<!-- 12 -->
<g id="node13" class="node">
<title>12</title>
<path fill="none" stroke="#d8bc56" stroke-width="2" d="M596,-180C596,-180 551,-180 551,-180 545,-180 539,-174 539,-168 539,-168 539,-156 539,-156 539,-150 545,-144 551,-144 551,-144 596,-144 596,-144 602,-144 608,-150 608,-156 608,-156 608,-168 608,-168 608,-174 602,-180 596,-180"/>
<text text-anchor="middle" x="573.5" y="-165" font-family="sans" font-size="10.00">troll_warm</text>
<text text-anchor="middle" x="573.5" y="-154" font-family="sans" font-size="10.00">rep: 1</text>
</g>
<!-- 12&#45;&gt;11 -->
<g id="edge16" class="edge">
<title>12&#45;&gt;11</title>
<path fill="none" stroke="grey" stroke-width="2" d="M542.19,-143.88C525.3,-134.64 504.25,-123.13 486.12,-113.21"/>
<polygon fill="grey" stroke="grey" stroke-width="2" points="487.39,-109.92 476.93,-108.19 484.03,-116.06 487.39,-109.92"/>
</g>
<!-- 15 -->
<g id="node16" class="node">
<title>15</title>
<path fill="none" stroke="#88d856" stroke-width="2" d="M562.5,-108C562.5,-108 518.5,-108 518.5,-108 512.5,-108 506.5,-102 506.5,-96 506.5,-96 506.5,-84 506.5,-84 506.5,-78 512.5,-72 518.5,-72 518.5,-72 562.5,-72 562.5,-72 568.5,-72 574.5,-78 574.5,-84 574.5,-84 574.5,-96 574.5,-96 574.5,-102 568.5,-108 562.5,-108"/>
<text text-anchor="middle" x="540.5" y="-93" font-family="sans" font-size="10.00">troll_exp</text>
<text text-anchor="middle" x="540.5" y="-82" font-family="sans" font-size="10.00">exp: rcp26</text>
</g>
<!-- 12&#45;&gt;15 -->
<g id="edge19" class="edge">
<title>12&#45;&gt;15</title>
<path fill="none" stroke="grey" stroke-width="2" d="M565.34,-143.7C561.59,-135.73 557.05,-126.1 552.88,-117.26"/>
<polygon fill="grey" stroke="grey" stroke-width="2" points="555.99,-115.66 548.56,-108.1 549.66,-118.64 555.99,-115.66"/>
</g>
<!-- 16 -->
<g id="node17" class="node">
<title>16</title>
<path fill="none" stroke="#88d856" stroke-width="2" d="M648.5,-108C648.5,-108 604.5,-108 604.5,-108 598.5,-108 592.5,-102 592.5,-96 592.5,-96 592.5,-84 592.5,-84 592.5,-78 598.5,-72 604.5,-72 604.5,-72 648.5,-72 648.5,-72 654.5,-72 660.5,-78 660.5,-84 660.5,-84 660.5,-96 660.5,-96 660.5,-102 654.5,-108 648.5,-108"/>
<text text-anchor="middle" x="626.5" y="-93" font-family="sans" font-size="10.00">troll_exp</text>
<text text-anchor="middle" x="626.5" y="-82" font-family="sans" font-size="10.00">exp: rcp85</text>
</g>
<!-- 12&#45;&gt;16 -->
<g id="edge20" class="edge">
<title>12&#45;&gt;16</title>
<path fill="none" stroke="grey" stroke-width="2" d="M586.6,-143.7C592.89,-135.39 600.55,-125.28 607.46,-116.14"/>
<polygon fill="grey" stroke="grey" stroke-width="2" points="610.3,-118.19 613.55,-108.1 604.72,-113.96 610.3,-118.19"/>
</g>
<!-- 13 -->
<g id="node14" class="node">
<title>13</title>
<path fill="none" stroke="#56d88a" stroke-width="2" d="M714,-252C714,-252 501,-252 501,-252 495,-252 489,-246 489,-240 489,-240 489,-228 489,-228 489,-222 495,-216 501,-216 501,-216 714,-216 714,-216 720,-216 726,-222 726,-228 726,-228 726,-240 726,-240 726,-246 720,-252 714,-252"/>
<text text-anchor="middle" x="607.5" y="-237" font-family="sans" font-size="10.00">prepare_climate</text>
<text text-anchor="middle" x="607.5" y="-226" font-family="sans" font-size="10.00">climate: MPI&#45;M&#45;MPI&#45;ESM&#45;MR_ICTP&#45;RegCM4&#45;7</text>
</g>
<!-- 13&#45;&gt;12 -->
<g id="edge17" class="edge">
<title>13&#45;&gt;12</title>
<path fill="none" stroke="grey" stroke-width="2" d="M599.1,-215.7C595.23,-207.73 590.55,-198.1 586.26,-189.26"/>
<polygon fill="grey" stroke="grey" stroke-width="2" points="589.33,-187.57 581.81,-180.1 583.03,-190.63 589.33,-187.57"/>
</g>
<!-- 14 -->
<g id="node15" class="node">
<title>14</title>
<path fill="none" stroke="#56c1d8" stroke-width="2" d="M644.5,-329C644.5,-329 570.5,-329 570.5,-329 564.5,-329 558.5,-323 558.5,-317 558.5,-317 558.5,-300 558.5,-300 558.5,-294 564.5,-288 570.5,-288 570.5,-288 644.5,-288 644.5,-288 650.5,-288 656.5,-294 656.5,-300 656.5,-300 656.5,-317 656.5,-317 656.5,-323 650.5,-329 644.5,-329"/>
<text text-anchor="middle" x="607.5" y="-317" font-family="sans" font-size="10.00">select_years</text>
<text text-anchor="middle" x="607.5" y="-306" font-family="sans" font-size="10.00">period: full</text>
<text text-anchor="middle" x="607.5" y="-295" font-family="sans" font-size="10.00">type: projections</text>
</g>
<!-- 14&#45;&gt;13 -->
<g id="edge18" class="edge">
<title>14&#45;&gt;13</title>
<path fill="none" stroke="grey" stroke-width="2" d="M607.5,-287.69C607.5,-279.91 607.5,-270.84 607.5,-262.45"/>
<polygon fill="grey" stroke="grey" stroke-width="2" points="611,-262.32 607.5,-252.32 604,-262.32 611,-262.32"/>
</g>
<!-- 15&#45;&gt;0 -->
<g id="edge5" class="edge">
<title>15&#45;&gt;0</title>
<path fill="none" stroke="grey" stroke-width="2" d="M506.41,-72.76C483.45,-61.83 453.2,-47.43 429.8,-36.28"/>
<polygon fill="grey" stroke="grey" stroke-width="2" points="431.08,-33.02 420.55,-31.88 428.07,-39.34 431.08,-33.02"/>
</g>
<!-- 16&#45;&gt;0 -->
<g id="edge6" class="edge">
<title>16&#45;&gt;0</title>
<path fill="none" stroke="grey" stroke-width="2" d="M592.35,-75.13C589.37,-74.03 586.39,-72.97 583.5,-72 530.91,-54.32 468.78,-37.79 430.25,-28.04"/>
<polygon fill="grey" stroke="grey" stroke-width="2" points="431.07,-24.63 420.51,-25.59 429.36,-31.42 431.07,-24.63"/>
</g>
</g>
</svg>
