<?xml version="1.0" encoding="UTF-8" standalone="no"?>
<!DOCTYPE svg PUBLIC "-//W3C//DTD SVG 1.1//EN"
 "http://www.w3.org/Graphics/SVG/1.1/DTD/svg11.dtd">
<!-- Generated by graphviz version 2.43.0 (0)
 -->
<!-- Title: snakemake_dag Pages: 1 -->
<svg width="683pt" height="193pt"
 viewBox="0.00 0.00 683.00 193.00" xmlns="http://www.w3.org/2000/svg" xmlns:xlink="http://www.w3.org/1999/xlink">
<g id="graph0" class="graph" transform="scale(1 1) rotate(0) translate(4 189)">
<title>snakemake_dag</title>
<polygon fill="white" stroke="transparent" points="-4,4 -4,-189 679,-189 679,4 -4,4"/>
<!-- 0 -->
<g id="node1" class="node">
<title>0</title>
<path fill="none" stroke="#56d8a9" stroke-width="2" d="M352.5,-36C352.5,-36 322.5,-36 322.5,-36 316.5,-36 310.5,-30 310.5,-24 310.5,-24 310.5,-12 310.5,-12 310.5,-6 316.5,0 322.5,0 322.5,0 352.5,0 352.5,0 358.5,0 364.5,-6 364.5,-12 364.5,-12 364.5,-24 364.5,-24 364.5,-30 358.5,-36 352.5,-36"/>
<text text-anchor="middle" x="337.5" y="-15.5" font-family="sans" font-size="10.00">all</text>
</g>
<!-- 1 -->
<g id="node2" class="node">
<title>1</title>
<path fill="none" stroke="#afd856" stroke-width="2" d="M382.5,-108C382.5,-108 292.5,-108 292.5,-108 286.5,-108 280.5,-102 280.5,-96 280.5,-96 280.5,-84 280.5,-84 280.5,-78 286.5,-72 292.5,-72 292.5,-72 382.5,-72 382.5,-72 388.5,-72 394.5,-78 394.5,-84 394.5,-84 394.5,-96 394.5,-96 394.5,-102 388.5,-108 382.5,-108"/>
<text text-anchor="middle" x="337.5" y="-93" font-family="sans" font-size="10.00">extract_soil</text>
<text text-anchor="middle" x="337.5" y="-82" font-family="sans" font-size="10.00">area: French Guiana</text>
</g>
<!-- 1&#45;&gt;0 -->
<g id="edge1" class="edge">
<title>1&#45;&gt;0</title>
<path fill="none" stroke="grey" stroke-width="2" d="M337.5,-71.7C337.5,-63.98 337.5,-54.71 337.5,-46.11"/>
<polygon fill="grey" stroke="grey" stroke-width="2" points="341,-46.1 337.5,-36.1 334,-46.1 341,-46.1"/>
</g>
<!-- 2 -->
<g id="node3" class="node">
<title>2</title>
<path fill="none" stroke="#d85656" stroke-width="2" d="M69,-185C69,-185 12,-185 12,-185 6,-185 0,-179 0,-173 0,-173 0,-156 0,-156 0,-150 6,-144 12,-144 12,-144 69,-144 69,-144 75,-144 81,-150 81,-156 81,-156 81,-173 81,-173 81,-179 75,-185 69,-185"/>
<text text-anchor="middle" x="40.5" y="-173" font-family="sans" font-size="10.00">get_soil</text>
<text text-anchor="middle" x="40.5" y="-162" font-family="sans" font-size="10.00">depth: 0&#45;5cm</text>
<text text-anchor="middle" x="40.5" y="-151" font-family="sans" font-size="10.00">par: silt</text>
</g>
<!-- 2&#45;&gt;1 -->
<g id="edge2" class="edge">
<title>2&#45;&gt;1</title>
<path fill="none" stroke="grey" stroke-width="2" d="M81.22,-146.7C84.01,-145.73 86.78,-144.82 89.5,-144 149.61,-125.76 219.75,-111.39 270.06,-102.24"/>
<polygon fill="grey" stroke="grey" stroke-width="2" points="270.95,-105.64 280.17,-100.42 269.71,-98.75 270.95,-105.64"/>
</g>
<!-- 3 -->
<g id="node4" class="node">
<title>3</title>
<path fill="none" stroke="#d85656" stroke-width="2" d="M168,-185C168,-185 111,-185 111,-185 105,-185 99,-179 99,-173 99,-173 99,-156 99,-156 99,-150 105,-144 111,-144 111,-144 168,-144 168,-144 174,-144 180,-150 180,-156 180,-156 180,-173 180,-173 180,-179 174,-185 168,-185"/>
<text text-anchor="middle" x="139.5" y="-173" font-family="sans" font-size="10.00">get_soil</text>
<text text-anchor="middle" x="139.5" y="-162" font-family="sans" font-size="10.00">depth: 0&#45;5cm</text>
<text text-anchor="middle" x="139.5" y="-151" font-family="sans" font-size="10.00">par: clay</text>
</g>
<!-- 3&#45;&gt;1 -->
<g id="edge3" class="edge">
<title>3&#45;&gt;1</title>
<path fill="none" stroke="grey" stroke-width="2" d="M180.1,-147.21C182.94,-146.11 185.76,-145.03 188.5,-144 218.03,-132.88 251.09,-121.06 278.54,-111.41"/>
<polygon fill="grey" stroke="grey" stroke-width="2" points="279.73,-114.7 288.01,-108.09 277.41,-108.1 279.73,-114.7"/>
</g>
<!-- 4 -->
<g id="node5" class="node">
<title>4</title>
<path fill="none" stroke="#d85656" stroke-width="2" d="M267,-185C267,-185 210,-185 210,-185 204,-185 198,-179 198,-173 198,-173 198,-156 198,-156 198,-150 204,-144 210,-144 210,-144 267,-144 267,-144 273,-144 279,-150 279,-156 279,-156 279,-173 279,-173 279,-179 273,-185 267,-185"/>
<text text-anchor="middle" x="238.5" y="-173" font-family="sans" font-size="10.00">get_soil</text>
<text text-anchor="middle" x="238.5" y="-162" font-family="sans" font-size="10.00">depth: 0&#45;5cm</text>
<text text-anchor="middle" x="238.5" y="-151" font-family="sans" font-size="10.00">par: sand</text>
</g>
<!-- 4&#45;&gt;1 -->
<g id="edge4" class="edge">
<title>4&#45;&gt;1</title>
<path fill="none" stroke="grey" stroke-width="2" d="M265.29,-143.88C277.79,-134.73 292.75,-123.77 305.8,-114.21"/>
<polygon fill="grey" stroke="grey" stroke-width="2" points="308.06,-116.9 314.06,-108.17 303.92,-111.25 308.06,-116.9"/>
</g>
<!-- 5 -->
<g id="node6" class="node">
<title>5</title>
<path fill="none" stroke="#d85656" stroke-width="2" d="M366,-185C366,-185 309,-185 309,-185 303,-185 297,-179 297,-173 297,-173 297,-156 297,-156 297,-150 303,-144 309,-144 309,-144 366,-144 366,-144 372,-144 378,-150 378,-156 378,-156 378,-173 378,-173 378,-179 372,-185 366,-185"/>
<text text-anchor="middle" x="337.5" y="-173" font-family="sans" font-size="10.00">get_soil</text>
<text text-anchor="middle" x="337.5" y="-162" font-family="sans" font-size="10.00">depth: 0&#45;5cm</text>
<text text-anchor="middle" x="337.5" y="-151" font-family="sans" font-size="10.00">par: soc</text>
</g>
<!-- 5&#45;&gt;1 -->
<g id="edge5" class="edge">
<title>5&#45;&gt;1</title>
<path fill="none" stroke="grey" stroke-width="2" d="M337.5,-143.69C337.5,-135.91 337.5,-126.84 337.5,-118.45"/>
<polygon fill="grey" stroke="grey" stroke-width="2" points="341,-118.32 337.5,-108.32 334,-118.32 341,-118.32"/>
</g>
<!-- 6 -->
<g id="node7" class="node">
<title>6</title>
<path fill="none" stroke="#d85656" stroke-width="2" d="M465,-185C465,-185 408,-185 408,-185 402,-185 396,-179 396,-173 396,-173 396,-156 396,-156 396,-150 402,-144 408,-144 408,-144 465,-144 465,-144 471,-144 477,-150 477,-156 477,-156 477,-173 477,-173 477,-179 471,-185 465,-185"/>
<text text-anchor="middle" x="436.5" y="-173" font-family="sans" font-size="10.00">get_soil</text>
<text text-anchor="middle" x="436.5" y="-162" font-family="sans" font-size="10.00">depth: 0&#45;5cm</text>
<text text-anchor="middle" x="436.5" y="-151" font-family="sans" font-size="10.00">par: bdod</text>
</g>
<!-- 6&#45;&gt;1 -->
<g id="edge6" class="edge">
<title>6&#45;&gt;1</title>
<path fill="none" stroke="grey" stroke-width="2" d="M409.71,-143.88C397.21,-134.73 382.25,-123.77 369.2,-114.21"/>
<polygon fill="grey" stroke="grey" stroke-width="2" points="371.08,-111.25 360.94,-108.17 366.94,-116.9 371.08,-111.25"/>
</g>
<!-- 7 -->
<g id="node8" class="node">
<title>7</title>
<path fill="none" stroke="#d85656" stroke-width="2" d="M564,-185C564,-185 507,-185 507,-185 501,-185 495,-179 495,-173 495,-173 495,-156 495,-156 495,-150 501,-144 507,-144 507,-144 564,-144 564,-144 570,-144 576,-150 576,-156 576,-156 576,-173 576,-173 576,-179 570,-185 564,-185"/>
<text text-anchor="middle" x="535.5" y="-173" font-family="sans" font-size="10.00">get_soil</text>
<text text-anchor="middle" x="535.5" y="-162" font-family="sans" font-size="10.00">depth: 0&#45;5cm</text>
<text text-anchor="middle" x="535.5" y="-151" font-family="sans" font-size="10.00">par: phh2o</text>
</g>
<!-- 7&#45;&gt;1 -->
<g id="edge7" class="edge">
<title>7&#45;&gt;1</title>
<path fill="none" stroke="grey" stroke-width="2" d="M494.9,-147.21C492.06,-146.11 489.24,-145.03 486.5,-144 456.97,-132.88 423.91,-121.06 396.46,-111.41"/>
<polygon fill="grey" stroke="grey" stroke-width="2" points="397.59,-108.1 386.99,-108.09 395.27,-114.7 397.59,-108.1"/>
</g>
<!-- 8 -->
<g id="node9" class="node">
<title>8</title>
<path fill="none" stroke="#d85656" stroke-width="2" d="M663,-185C663,-185 606,-185 606,-185 600,-185 594,-179 594,-173 594,-173 594,-156 594,-156 594,-150 600,-144 606,-144 606,-144 663,-144 663,-144 669,-144 675,-150 675,-156 675,-156 675,-173 675,-173 675,-179 669,-185 663,-185"/>
<text text-anchor="middle" x="634.5" y="-173" font-family="sans" font-size="10.00">get_soil</text>
<text text-anchor="middle" x="634.5" y="-162" font-family="sans" font-size="10.00">depth: 0&#45;5cm</text>
<text text-anchor="middle" x="634.5" y="-151" font-family="sans" font-size="10.00">par: cec</text>
</g>
<!-- 8&#45;&gt;1 -->
<g id="edge8" class="edge">
<title>8&#45;&gt;1</title>
<path fill="none" stroke="grey" stroke-width="2" d="M593.78,-146.7C590.99,-145.73 588.22,-144.82 585.5,-144 525.39,-125.76 455.25,-111.39 404.94,-102.24"/>
<polygon fill="grey" stroke="grey" stroke-width="2" points="405.29,-98.75 394.83,-100.42 404.05,-105.64 405.29,-98.75"/>
</g>
</g>
</svg>
