<?xml version="1.0" encoding="UTF-8" standalone="no"?>
<!DOCTYPE svg PUBLIC "-//W3C//DTD SVG 1.1//EN"
 "http://www.w3.org/Graphics/SVG/1.1/DTD/svg11.dtd">
<!-- Generated by graphviz version 2.43.0 (0)
 -->
<!-- Title: snakemake_dag Pages: 1 -->
<svg width="438pt" height="332pt"
 viewBox="0.00 0.00 437.50 332.00" xmlns="http://www.w3.org/2000/svg" xmlns:xlink="http://www.w3.org/1999/xlink">
<g id="graph0" class="graph" transform="scale(1 1) rotate(0) translate(4 328)">
<title>snakemake_dag</title>
<polygon fill="white" stroke="transparent" points="-4,4 -4,-328 433.5,-328 433.5,4 -4,4"/>
<!-- 0 -->
<g id="node1" class="node">
<title>0</title>
<path fill="none" stroke="#56a2d8" stroke-width="2" d="M193.5,-36C193.5,-36 163.5,-36 163.5,-36 157.5,-36 151.5,-30 151.5,-24 151.5,-24 151.5,-12 151.5,-12 151.5,-6 157.5,0 163.5,0 163.5,0 193.5,0 193.5,0 199.5,0 205.5,-6 205.5,-12 205.5,-12 205.5,-24 205.5,-24 205.5,-30 199.5,-36 193.5,-36"/>
<text text-anchor="middle" x="178.5" y="-15.5" font-family="sans" font-size="10.00">all</text>
</g>
<!-- 1 -->
<g id="node2" class="node">
<title>1</title>
<path fill="none" stroke="#56d87b" stroke-width="2" d="M142.5,-108C142.5,-108 112.5,-108 112.5,-108 106.5,-108 100.5,-102 100.5,-96 100.5,-96 100.5,-84 100.5,-84 100.5,-78 106.5,-72 112.5,-72 112.5,-72 142.5,-72 142.5,-72 148.5,-72 154.5,-78 154.5,-84 154.5,-84 154.5,-96 154.5,-96 154.5,-102 148.5,-108 142.5,-108"/>
<text text-anchor="middle" x="127.5" y="-87.5" font-family="sans" font-size="10.00">run</text>
</g>
<!-- 1&#45;&gt;0 -->
<g id="edge1" class="edge">
<title>1&#45;&gt;0</title>
<path fill="none" stroke="grey" stroke-width="2" d="M140.11,-71.7C146.1,-63.47 153.38,-53.48 159.98,-44.42"/>
<polygon fill="grey" stroke="grey" stroke-width="2" points="162.98,-46.25 166.04,-36.1 157.32,-42.13 162.98,-46.25"/>
</g>
<!-- 2 -->
<g id="node3" class="node">
<title>2</title>
<path fill="none" stroke="#78d856" stroke-width="2" d="M63,-180C63,-180 12,-180 12,-180 6,-180 0,-174 0,-168 0,-168 0,-156 0,-156 0,-150 6,-144 12,-144 12,-144 63,-144 63,-144 69,-144 75,-150 75,-156 75,-156 75,-168 75,-168 75,-174 69,-180 63,-180"/>
<text text-anchor="middle" x="37.5" y="-159.5" font-family="sans" font-size="10.00">prepare_run</text>
</g>
<!-- 2&#45;&gt;1 -->
<g id="edge3" class="edge">
<title>2&#45;&gt;1</title>
<path fill="none" stroke="grey" stroke-width="2" d="M59.75,-143.7C71.08,-134.88 85.03,-124.03 97.32,-114.47"/>
<polygon fill="grey" stroke="grey" stroke-width="2" points="99.76,-117.01 105.51,-108.1 95.47,-111.48 99.76,-117.01"/>
</g>
<!-- 3 -->
<g id="node4" class="node">
<title>3</title>
<path fill="none" stroke="#c6d856" stroke-width="2" d="M95,-324C95,-324 40,-324 40,-324 34,-324 28,-318 28,-312 28,-312 28,-300 28,-300 28,-294 34,-288 40,-288 40,-288 95,-288 95,-288 101,-288 107,-294 107,-300 107,-300 107,-312 107,-312 107,-318 101,-324 95,-324"/>
<text text-anchor="middle" x="67.5" y="-309" font-family="sans" font-size="10.00">format</text>
<text text-anchor="middle" x="67.5" y="-298" font-family="sans" font-size="10.00">site: Paracou</text>
</g>
<!-- 3&#45;&gt;2 -->
<g id="edge5" class="edge">
<title>3&#45;&gt;2</title>
<path fill="none" stroke="grey" stroke-width="2" d="M62.61,-287.9C59.74,-277.56 56.18,-264.08 53.5,-252 48.94,-231.44 44.77,-207.98 41.83,-190.32"/>
<polygon fill="grey" stroke="grey" stroke-width="2" points="45.23,-189.45 40.16,-180.14 38.32,-190.58 45.23,-189.45"/>
</g>
<!-- 4 -->
<g id="node5" class="node">
<title>4</title>
<path fill="none" stroke="#56d8c9" stroke-width="2" d="M142.5,-180C142.5,-180 112.5,-180 112.5,-180 106.5,-180 100.5,-174 100.5,-168 100.5,-168 100.5,-156 100.5,-156 100.5,-150 106.5,-144 112.5,-144 112.5,-144 142.5,-144 142.5,-144 148.5,-144 154.5,-150 154.5,-156 154.5,-156 154.5,-168 154.5,-168 154.5,-174 148.5,-180 142.5,-180"/>
<text text-anchor="middle" x="127.5" y="-159.5" font-family="sans" font-size="10.00">spinup</text>
</g>
<!-- 3&#45;&gt;4 -->
<g id="edge7" class="edge">
<title>3&#45;&gt;4</title>
<path fill="none" stroke="grey" stroke-width="2" d="M68.87,-287.89C70.86,-269.42 75.6,-239.5 86.5,-216 91.05,-206.19 97.71,-196.51 104.34,-188.16"/>
<polygon fill="grey" stroke="grey" stroke-width="2" points="107.17,-190.23 110.88,-180.3 101.79,-185.75 107.17,-190.23"/>
</g>
<!-- 5 -->
<g id="node6" class="node">
<title>5</title>
<path fill="none" stroke="#d8a456" stroke-width="2" d="M175.5,-252C175.5,-252 107.5,-252 107.5,-252 101.5,-252 95.5,-246 95.5,-240 95.5,-240 95.5,-228 95.5,-228 95.5,-222 101.5,-216 107.5,-216 107.5,-216 175.5,-216 175.5,-216 181.5,-216 187.5,-222 187.5,-228 187.5,-228 187.5,-240 187.5,-240 187.5,-246 181.5,-252 175.5,-252"/>
<text text-anchor="middle" x="141.5" y="-231.5" font-family="sans" font-size="10.00">prepare_spinup</text>
</g>
<!-- 3&#45;&gt;5 -->
<g id="edge8" class="edge">
<title>3&#45;&gt;5</title>
<path fill="none" stroke="grey" stroke-width="2" d="M85.79,-287.7C94.93,-279.05 106.14,-268.45 116.1,-259.03"/>
<polygon fill="grey" stroke="grey" stroke-width="2" points="118.56,-261.52 123.42,-252.1 113.75,-256.43 118.56,-261.52"/>
</g>
<!-- 4&#45;&gt;1 -->
<g id="edge4" class="edge">
<title>4&#45;&gt;1</title>
<path fill="none" stroke="grey" stroke-width="2" d="M127.5,-143.7C127.5,-135.98 127.5,-126.71 127.5,-118.11"/>
<polygon fill="grey" stroke="grey" stroke-width="2" points="131,-118.1 127.5,-108.1 124,-118.1 131,-118.1"/>
</g>
<!-- 5&#45;&gt;4 -->
<g id="edge6" class="edge">
<title>5&#45;&gt;4</title>
<path fill="none" stroke="grey" stroke-width="2" d="M138.04,-215.7C136.5,-207.98 134.64,-198.71 132.92,-190.11"/>
<polygon fill="grey" stroke="grey" stroke-width="2" points="136.31,-189.22 130.92,-180.1 129.45,-190.6 136.31,-189.22"/>
</g>
<!-- 6 -->
<g id="node7" class="node">
<title>6</title>
<path fill="none" stroke="#56d87b" stroke-width="2" d="M258.5,-108C258.5,-108 228.5,-108 228.5,-108 222.5,-108 216.5,-102 216.5,-96 216.5,-96 216.5,-84 216.5,-84 216.5,-78 222.5,-72 228.5,-72 228.5,-72 258.5,-72 258.5,-72 264.5,-72 270.5,-78 270.5,-84 270.5,-84 270.5,-96 270.5,-96 270.5,-102 264.5,-108 258.5,-108"/>
<text text-anchor="middle" x="243.5" y="-87.5" font-family="sans" font-size="10.00">run</text>
</g>
<!-- 6&#45;&gt;0 -->
<g id="edge2" class="edge">
<title>6&#45;&gt;0</title>
<path fill="none" stroke="grey" stroke-width="2" d="M227.43,-71.7C219.56,-63.22 209.94,-52.86 201.33,-43.58"/>
<polygon fill="grey" stroke="grey" stroke-width="2" points="203.75,-41.05 194.38,-36.1 198.62,-45.81 203.75,-41.05"/>
</g>
<!-- 7 -->
<g id="node8" class="node">
<title>7</title>
<path fill="none" stroke="#78d856" stroke-width="2" d="M269,-252C269,-252 218,-252 218,-252 212,-252 206,-246 206,-240 206,-240 206,-228 206,-228 206,-222 212,-216 218,-216 218,-216 269,-216 269,-216 275,-216 281,-222 281,-228 281,-228 281,-240 281,-240 281,-246 275,-252 269,-252"/>
<text text-anchor="middle" x="243.5" y="-231.5" font-family="sans" font-size="10.00">prepare_run</text>
</g>
<!-- 7&#45;&gt;6 -->
<g id="edge9" class="edge">
<title>7&#45;&gt;6</title>
<path fill="none" stroke="grey" stroke-width="2" d="M243.5,-215.87C243.5,-191.67 243.5,-147.21 243.5,-118.39"/>
<polygon fill="grey" stroke="grey" stroke-width="2" points="247,-118.19 243.5,-108.19 240,-118.19 247,-118.19"/>
</g>
<!-- 8 -->
<g id="node9" class="node">
<title>8</title>
<path fill="none" stroke="#c6d856" stroke-width="2" d="M336,-324C336,-324 283,-324 283,-324 277,-324 271,-318 271,-312 271,-312 271,-300 271,-300 271,-294 277,-288 283,-288 283,-288 336,-288 336,-288 342,-288 348,-294 348,-300 348,-300 348,-312 348,-312 348,-318 342,-324 336,-324"/>
<text text-anchor="middle" x="309.5" y="-309" font-family="sans" font-size="10.00">format</text>
<text text-anchor="middle" x="309.5" y="-298" font-family="sans" font-size="10.00">site: Tapajos</text>
</g>
<!-- 8&#45;&gt;7 -->
<g id="edge11" class="edge">
<title>8&#45;&gt;7</title>
<path fill="none" stroke="grey" stroke-width="2" d="M293.19,-287.7C285.19,-279.22 275.43,-268.86 266.68,-259.58"/>
<polygon fill="grey" stroke="grey" stroke-width="2" points="269.03,-256.98 259.63,-252.1 263.94,-261.78 269.03,-256.98"/>
</g>
<!-- 9 -->
<g id="node10" class="node">
<title>9</title>
<path fill="none" stroke="#56d8c9" stroke-width="2" d="M324.5,-180C324.5,-180 294.5,-180 294.5,-180 288.5,-180 282.5,-174 282.5,-168 282.5,-168 282.5,-156 282.5,-156 282.5,-150 288.5,-144 294.5,-144 294.5,-144 324.5,-144 324.5,-144 330.5,-144 336.5,-150 336.5,-156 336.5,-156 336.5,-168 336.5,-168 336.5,-174 330.5,-180 324.5,-180"/>
<text text-anchor="middle" x="309.5" y="-159.5" font-family="sans" font-size="10.00">spinup</text>
</g>
<!-- 8&#45;&gt;9 -->
<g id="edge13" class="edge">
<title>8&#45;&gt;9</title>
<path fill="none" stroke="grey" stroke-width="2" d="M309.5,-287.87C309.5,-263.67 309.5,-219.21 309.5,-190.39"/>
<polygon fill="grey" stroke="grey" stroke-width="2" points="313,-190.19 309.5,-180.19 306,-190.19 313,-190.19"/>
</g>
<!-- 10 -->
<g id="node11" class="node">
<title>10</title>
<path fill="none" stroke="#d8a456" stroke-width="2" d="M417.5,-252C417.5,-252 349.5,-252 349.5,-252 343.5,-252 337.5,-246 337.5,-240 337.5,-240 337.5,-228 337.5,-228 337.5,-222 343.5,-216 349.5,-216 349.5,-216 417.5,-216 417.5,-216 423.5,-216 429.5,-222 429.5,-228 429.5,-228 429.5,-240 429.5,-240 429.5,-246 423.5,-252 417.5,-252"/>
<text text-anchor="middle" x="383.5" y="-231.5" font-family="sans" font-size="10.00">prepare_spinup</text>
</g>
<!-- 8&#45;&gt;10 -->
<g id="edge14" class="edge">
<title>8&#45;&gt;10</title>
<path fill="none" stroke="grey" stroke-width="2" d="M327.79,-287.7C336.93,-279.05 348.14,-268.45 358.1,-259.03"/>
<polygon fill="grey" stroke="grey" stroke-width="2" points="360.56,-261.52 365.42,-252.1 355.75,-256.43 360.56,-261.52"/>
</g>
<!-- 9&#45;&gt;6 -->
<g id="edge10" class="edge">
<title>9&#45;&gt;6</title>
<path fill="none" stroke="grey" stroke-width="2" d="M293.19,-143.7C285.19,-135.22 275.43,-124.86 266.68,-115.58"/>
<polygon fill="grey" stroke="grey" stroke-width="2" points="269.03,-112.98 259.63,-108.1 263.94,-117.78 269.03,-112.98"/>
</g>
<!-- 10&#45;&gt;9 -->
<g id="edge12" class="edge">
<title>10&#45;&gt;9</title>
<path fill="none" stroke="grey" stroke-width="2" d="M365.21,-215.7C356.07,-207.05 344.86,-196.45 334.9,-187.03"/>
<polygon fill="grey" stroke="grey" stroke-width="2" points="337.25,-184.43 327.58,-180.1 332.44,-189.52 337.25,-184.43"/>
</g>
</g>
</svg>
