<?xml version="1.0" encoding="UTF-8" standalone="no"?>
<!DOCTYPE svg PUBLIC "-//W3C//DTD SVG 1.1//EN"
 "http://www.w3.org/Graphics/SVG/1.1/DTD/svg11.dtd">
<!-- Generated by graphviz version 2.43.0 (0)
 -->
<!-- Title: snakemake_dag Pages: 1 -->
<svg width="597pt" height="265pt"
 viewBox="0.00 0.00 596.50 265.00" xmlns="http://www.w3.org/2000/svg" xmlns:xlink="http://www.w3.org/1999/xlink">
<g id="graph0" class="graph" transform="scale(1 1) rotate(0) translate(4 261)">
<title>snakemake_dag</title>
<polygon fill="white" stroke="transparent" points="-4,4 -4,-261 592.5,-261 592.5,4 -4,4"/>
<!-- 0 -->
<g id="node1" class="node">
<title>0</title>
<path fill="none" stroke="#d6d856" stroke-width="2" d="M310,-36C310,-36 280,-36 280,-36 274,-36 268,-30 268,-24 268,-24 268,-12 268,-12 268,-6 274,0 280,0 280,0 310,0 310,0 316,0 322,-6 322,-12 322,-12 322,-24 322,-24 322,-30 316,-36 310,-36"/>
<text text-anchor="middle" x="295" y="-15.5" font-family="sans" font-size="10.00">all</text>
</g>
<!-- 1 -->
<g id="node2" class="node">
<title>1</title>
<path fill="none" stroke="#d85656" stroke-width="2" d="M274,-108C274,-108 244,-108 244,-108 238,-108 232,-102 232,-96 232,-96 232,-84 232,-84 232,-78 238,-72 244,-72 244,-72 274,-72 274,-72 280,-72 286,-78 286,-84 286,-84 286,-96 286,-96 286,-102 280,-108 274,-108"/>
<text text-anchor="middle" x="259" y="-87.5" font-family="sans" font-size="10.00">troll</text>
</g>
<!-- 1&#45;&gt;0 -->
<g id="edge1" class="edge">
<title>1&#45;&gt;0</title>
<path fill="none" stroke="grey" stroke-width="2" d="M267.9,-71.7C272,-63.73 276.95,-54.1 281.49,-45.26"/>
<polygon fill="grey" stroke="grey" stroke-width="2" points="284.74,-46.6 286.2,-36.1 278.52,-43.4 284.74,-46.6"/>
</g>
<!-- 2 -->
<g id="node3" class="node">
<title>2</title>
<path fill="none" stroke="#56d8d8" stroke-width="2" d="M255,-180C255,-180 183,-180 183,-180 177,-180 171,-174 171,-168 171,-168 171,-156 171,-156 171,-150 177,-144 183,-144 183,-144 255,-144 255,-144 261,-144 267,-150 267,-156 267,-156 267,-168 267,-168 267,-174 261,-180 255,-180"/>
<text text-anchor="middle" x="219" y="-159.5" font-family="sans" font-size="10.00">prepare_climate</text>
</g>
<!-- 2&#45;&gt;1 -->
<g id="edge3" class="edge">
<title>2&#45;&gt;1</title>
<path fill="none" stroke="grey" stroke-width="2" d="M228.89,-143.7C233.49,-135.64 239.06,-125.89 244.15,-116.98"/>
<polygon fill="grey" stroke="grey" stroke-width="2" points="247.3,-118.52 249.23,-108.1 241.23,-115.05 247.3,-118.52"/>
</g>
<!-- 3 -->
<g id="node4" class="node">
<title>3</title>
<path fill="none" stroke="#59d856" stroke-width="2" d="M122,-257C122,-257 12,-257 12,-257 6,-257 0,-251 0,-245 0,-245 0,-228 0,-228 0,-222 6,-216 12,-216 12,-216 122,-216 122,-216 128,-216 134,-222 134,-228 134,-228 134,-245 134,-245 134,-251 128,-257 122,-257"/>
<text text-anchor="middle" x="67" y="-245" font-family="sans" font-size="10.00">get_data</text>
<text text-anchor="middle" x="67" y="-234" font-family="sans" font-size="10.00">site: GF&#45;Guy_2004&#45;2014</text>
<text text-anchor="middle" x="67" y="-223" font-family="sans" font-size="10.00">type: Met</text>
</g>
<!-- 3&#45;&gt;2 -->
<g id="edge4" class="edge">
<title>3&#45;&gt;2</title>
<path fill="none" stroke="grey" stroke-width="2" d="M108.13,-215.88C128.49,-206.17 153.11,-194.43 173.97,-184.48"/>
<polygon fill="grey" stroke="grey" stroke-width="2" points="175.74,-187.51 183.26,-180.05 172.73,-181.19 175.74,-187.51"/>
</g>
<!-- 4 -->
<g id="node5" class="node">
<title>4</title>
<path fill="none" stroke="#59d856" stroke-width="2" d="M274,-257C274,-257 164,-257 164,-257 158,-257 152,-251 152,-245 152,-245 152,-228 152,-228 152,-222 158,-216 164,-216 164,-216 274,-216 274,-216 280,-216 286,-222 286,-228 286,-228 286,-245 286,-245 286,-251 280,-257 274,-257"/>
<text text-anchor="middle" x="219" y="-245" font-family="sans" font-size="10.00">get_data</text>
<text text-anchor="middle" x="219" y="-234" font-family="sans" font-size="10.00">site: GF&#45;Guy_2004&#45;2014</text>
<text text-anchor="middle" x="219" y="-223" font-family="sans" font-size="10.00">type: Flux</text>
</g>
<!-- 4&#45;&gt;2 -->
<g id="edge5" class="edge">
<title>4&#45;&gt;2</title>
<path fill="none" stroke="grey" stroke-width="2" d="M219,-215.69C219,-207.91 219,-198.84 219,-190.45"/>
<polygon fill="grey" stroke="grey" stroke-width="2" points="222.5,-190.32 219,-180.32 215.5,-190.32 222.5,-190.32"/>
</g>
<!-- 5 -->
<g id="node6" class="node">
<title>5</title>
<path fill="none" stroke="#d85656" stroke-width="2" d="M366,-108C366,-108 336,-108 336,-108 330,-108 324,-102 324,-96 324,-96 324,-84 324,-84 324,-78 330,-72 336,-72 336,-72 366,-72 366,-72 372,-72 378,-78 378,-84 378,-84 378,-96 378,-96 378,-102 372,-108 366,-108"/>
<text text-anchor="middle" x="351" y="-87.5" font-family="sans" font-size="10.00">troll</text>
</g>
<!-- 5&#45;&gt;0 -->
<g id="edge2" class="edge">
<title>5&#45;&gt;0</title>
<path fill="none" stroke="grey" stroke-width="2" d="M337.16,-71.7C330.51,-63.39 322.42,-53.28 315.11,-44.14"/>
<polygon fill="grey" stroke="grey" stroke-width="2" points="317.66,-41.73 308.68,-36.1 312.2,-46.1 317.66,-41.73"/>
</g>
<!-- 6 -->
<g id="node7" class="node">
<title>6</title>
<path fill="none" stroke="#56d8d8" stroke-width="2" d="M407,-180C407,-180 335,-180 335,-180 329,-180 323,-174 323,-168 323,-168 323,-156 323,-156 323,-150 329,-144 335,-144 335,-144 407,-144 407,-144 413,-144 419,-150 419,-156 419,-156 419,-168 419,-168 419,-174 413,-180 407,-180"/>
<text text-anchor="middle" x="371" y="-159.5" font-family="sans" font-size="10.00">prepare_climate</text>
</g>
<!-- 6&#45;&gt;5 -->
<g id="edge6" class="edge">
<title>6&#45;&gt;5</title>
<path fill="none" stroke="grey" stroke-width="2" d="M366.06,-143.7C363.83,-135.9 361.15,-126.51 358.67,-117.83"/>
<polygon fill="grey" stroke="grey" stroke-width="2" points="362,-116.76 355.89,-108.1 355.27,-118.68 362,-116.76"/>
</g>
<!-- 7 -->
<g id="node8" class="node">
<title>7</title>
<path fill="none" stroke="#59d856" stroke-width="2" d="M425.5,-257C425.5,-257 316.5,-257 316.5,-257 310.5,-257 304.5,-251 304.5,-245 304.5,-245 304.5,-228 304.5,-228 304.5,-222 310.5,-216 316.5,-216 316.5,-216 425.5,-216 425.5,-216 431.5,-216 437.5,-222 437.5,-228 437.5,-228 437.5,-245 437.5,-245 437.5,-251 431.5,-257 425.5,-257"/>
<text text-anchor="middle" x="371" y="-245" font-family="sans" font-size="10.00">get_data</text>
<text text-anchor="middle" x="371" y="-234" font-family="sans" font-size="10.00">site: BR&#45;Sa3_2001&#45;2003</text>
<text text-anchor="middle" x="371" y="-223" font-family="sans" font-size="10.00">type: Met</text>
</g>
<!-- 7&#45;&gt;6 -->
<g id="edge7" class="edge">
<title>7&#45;&gt;6</title>
<path fill="none" stroke="grey" stroke-width="2" d="M371,-215.69C371,-207.91 371,-198.84 371,-190.45"/>
<polygon fill="grey" stroke="grey" stroke-width="2" points="374.5,-190.32 371,-180.32 367.5,-190.32 374.5,-190.32"/>
</g>
<!-- 8 -->
<g id="node9" class="node">
<title>8</title>
<path fill="none" stroke="#59d856" stroke-width="2" d="M576.5,-257C576.5,-257 467.5,-257 467.5,-257 461.5,-257 455.5,-251 455.5,-245 455.5,-245 455.5,-228 455.5,-228 455.5,-222 461.5,-216 467.5,-216 467.5,-216 576.5,-216 576.5,-216 582.5,-216 588.5,-222 588.5,-228 588.5,-228 588.5,-245 588.5,-245 588.5,-251 582.5,-257 576.5,-257"/>
<text text-anchor="middle" x="522" y="-245" font-family="sans" font-size="10.00">get_data</text>
<text text-anchor="middle" x="522" y="-234" font-family="sans" font-size="10.00">site: BR&#45;Sa3_2001&#45;2003</text>
<text text-anchor="middle" x="522" y="-223" font-family="sans" font-size="10.00">type: Flux</text>
</g>
<!-- 8&#45;&gt;6 -->
<g id="edge8" class="edge">
<title>8&#45;&gt;6</title>
<path fill="none" stroke="grey" stroke-width="2" d="M481.14,-215.88C460.91,-206.17 436.46,-194.43 415.73,-184.48"/>
<polygon fill="grey" stroke="grey" stroke-width="2" points="417.03,-181.22 406.5,-180.05 414,-187.53 417.03,-181.22"/>
</g>
</g>
</svg>
