<?xml version="1.0" encoding="UTF-8" standalone="no"?>
<!DOCTYPE svg PUBLIC "-//W3C//DTD SVG 1.1//EN"
 "http://www.w3.org/Graphics/SVG/1.1/DTD/svg11.dtd">
<!-- Generated by graphviz version 2.43.0 (0)
 -->
<!-- Title: snakemake_dag Pages: 1 -->
<svg width="531pt" height="404pt"
 viewBox="0.00 0.00 530.50 404.00" xmlns="http://www.w3.org/2000/svg" xmlns:xlink="http://www.w3.org/1999/xlink">
<g id="graph0" class="graph" transform="scale(1 1) rotate(0) translate(4 400)">
<title>snakemake_dag</title>
<polygon fill="white" stroke="transparent" points="-4,4 -4,-400 526.5,-400 526.5,4 -4,4"/>
<!-- 0 -->
<g id="node1" class="node">
<title>0</title>
<path fill="none" stroke="#56d87b" stroke-width="2" d="M259.5,-36C259.5,-36 229.5,-36 229.5,-36 223.5,-36 217.5,-30 217.5,-24 217.5,-24 217.5,-12 217.5,-12 217.5,-6 223.5,0 229.5,0 229.5,0 259.5,0 259.5,0 265.5,0 271.5,-6 271.5,-12 271.5,-12 271.5,-24 271.5,-24 271.5,-30 265.5,-36 259.5,-36"/>
<text text-anchor="middle" x="244.5" y="-15.5" font-family="sans" font-size="10.00">all</text>
</g>
<!-- 1 -->
<g id="node2" class="node">
<title>1</title>
<path fill="none" stroke="#d8a456" stroke-width="2" d="M135.5,-108C135.5,-108 105.5,-108 105.5,-108 99.5,-108 93.5,-102 93.5,-96 93.5,-96 93.5,-84 93.5,-84 93.5,-78 99.5,-72 105.5,-72 105.5,-72 135.5,-72 135.5,-72 141.5,-72 147.5,-78 147.5,-84 147.5,-84 147.5,-96 147.5,-96 147.5,-102 141.5,-108 135.5,-108"/>
<text text-anchor="middle" x="120.5" y="-87.5" font-family="sans" font-size="10.00">run</text>
</g>
<!-- 1&#45;&gt;0 -->
<g id="edge1" class="edge">
<title>1&#45;&gt;0</title>
<path fill="none" stroke="grey" stroke-width="2" d="M147.71,-73.64C165.56,-63.56 189.1,-50.28 208.49,-39.33"/>
<polygon fill="grey" stroke="grey" stroke-width="2" points="210.36,-42.29 217.35,-34.33 206.92,-36.19 210.36,-42.29"/>
</g>
<!-- 2 -->
<g id="node3" class="node">
<title>2</title>
<path fill="none" stroke="#78d856" stroke-width="2" d="M63,-180C63,-180 12,-180 12,-180 6,-180 0,-174 0,-168 0,-168 0,-156 0,-156 0,-150 6,-144 12,-144 12,-144 63,-144 63,-144 69,-144 75,-150 75,-156 75,-156 75,-168 75,-168 75,-174 69,-180 63,-180"/>
<text text-anchor="middle" x="37.5" y="-159.5" font-family="sans" font-size="10.00">prepare_run</text>
</g>
<!-- 2&#45;&gt;1 -->
<g id="edge4" class="edge">
<title>2&#45;&gt;1</title>
<path fill="none" stroke="grey" stroke-width="2" d="M58.02,-143.7C68.37,-134.97 81.09,-124.24 92.34,-114.75"/>
<polygon fill="grey" stroke="grey" stroke-width="2" points="94.83,-117.23 100.22,-108.1 90.32,-111.88 94.83,-117.23"/>
</g>
<!-- 3 -->
<g id="node4" class="node">
<title>3</title>
<path fill="none" stroke="#56a2d8" stroke-width="2" d="M147,-324C147,-324 94,-324 94,-324 88,-324 82,-318 82,-312 82,-312 82,-300 82,-300 82,-294 88,-288 94,-288 94,-288 147,-288 147,-288 153,-288 159,-294 159,-300 159,-300 159,-312 159,-312 159,-318 153,-324 147,-324"/>
<text text-anchor="middle" x="120.5" y="-309" font-family="sans" font-size="10.00">format</text>
<text text-anchor="middle" x="120.5" y="-298" font-family="sans" font-size="10.00">site: GF&#45;Guy</text>
</g>
<!-- 3&#45;&gt;2 -->
<g id="edge6" class="edge">
<title>3&#45;&gt;2</title>
<path fill="none" stroke="grey" stroke-width="2" d="M98.07,-287.94C86.91,-278.44 74.02,-265.76 65.5,-252 53.68,-232.92 46.46,-208.41 42.31,-189.95"/>
<polygon fill="grey" stroke="grey" stroke-width="2" points="45.73,-189.2 40.27,-180.13 38.88,-190.63 45.73,-189.2"/>
</g>
<!-- 6 -->
<g id="node7" class="node">
<title>6</title>
<path fill="none" stroke="#56d8c9" stroke-width="2" d="M154.5,-252C154.5,-252 86.5,-252 86.5,-252 80.5,-252 74.5,-246 74.5,-240 74.5,-240 74.5,-228 74.5,-228 74.5,-222 80.5,-216 86.5,-216 86.5,-216 154.5,-216 154.5,-216 160.5,-216 166.5,-222 166.5,-228 166.5,-228 166.5,-240 166.5,-240 166.5,-246 160.5,-252 154.5,-252"/>
<text text-anchor="middle" x="120.5" y="-231.5" font-family="sans" font-size="10.00">prepare_spinup</text>
</g>
<!-- 3&#45;&gt;6 -->
<g id="edge9" class="edge">
<title>3&#45;&gt;6</title>
<path fill="none" stroke="grey" stroke-width="2" d="M120.5,-287.7C120.5,-279.98 120.5,-270.71 120.5,-262.11"/>
<polygon fill="grey" stroke="grey" stroke-width="2" points="124,-262.1 120.5,-252.1 117,-262.1 124,-262.1"/>
</g>
<!-- 4 -->
<g id="node5" class="node">
<title>4</title>
<path fill="none" stroke="#d85656" stroke-width="2" d="M261.5,-396C261.5,-396 231.5,-396 231.5,-396 225.5,-396 219.5,-390 219.5,-384 219.5,-384 219.5,-372 219.5,-372 219.5,-366 225.5,-360 231.5,-360 231.5,-360 261.5,-360 261.5,-360 267.5,-360 273.5,-366 273.5,-372 273.5,-372 273.5,-384 273.5,-384 273.5,-390 267.5,-396 261.5,-396"/>
<text text-anchor="middle" x="246.5" y="-375.5" font-family="sans" font-size="10.00">rename</text>
</g>
<!-- 4&#45;&gt;3 -->
<g id="edge7" class="edge">
<title>4&#45;&gt;3</title>
<path fill="none" stroke="grey" stroke-width="2" d="M219.47,-361.98C202.24,-352.41 179.61,-339.84 160.34,-329.14"/>
<polygon fill="grey" stroke="grey" stroke-width="2" points="161.92,-326.01 151.48,-324.21 158.52,-332.13 161.92,-326.01"/>
</g>
<!-- 9 -->
<g id="node10" class="node">
<title>9</title>
<path fill="none" stroke="#56a2d8" stroke-width="2" d="M272.5,-324C272.5,-324 220.5,-324 220.5,-324 214.5,-324 208.5,-318 208.5,-312 208.5,-312 208.5,-300 208.5,-300 208.5,-294 214.5,-288 220.5,-288 220.5,-288 272.5,-288 272.5,-288 278.5,-288 284.5,-294 284.5,-300 284.5,-300 284.5,-312 284.5,-312 284.5,-318 278.5,-324 272.5,-324"/>
<text text-anchor="middle" x="246.5" y="-309" font-family="sans" font-size="10.00">format</text>
<text text-anchor="middle" x="246.5" y="-298" font-family="sans" font-size="10.00">site: BR&#45;Sa1</text>
</g>
<!-- 4&#45;&gt;9 -->
<g id="edge13" class="edge">
<title>4&#45;&gt;9</title>
<path fill="none" stroke="grey" stroke-width="2" d="M246.5,-359.7C246.5,-351.98 246.5,-342.71 246.5,-334.11"/>
<polygon fill="grey" stroke="grey" stroke-width="2" points="250,-334.1 246.5,-324.1 243,-334.1 250,-334.1"/>
</g>
<!-- 14 -->
<g id="node15" class="node">
<title>14</title>
<path fill="none" stroke="#56a2d8" stroke-width="2" d="M400.5,-324C400.5,-324 348.5,-324 348.5,-324 342.5,-324 336.5,-318 336.5,-312 336.5,-312 336.5,-300 336.5,-300 336.5,-294 342.5,-288 348.5,-288 348.5,-288 400.5,-288 400.5,-288 406.5,-288 412.5,-294 412.5,-300 412.5,-300 412.5,-312 412.5,-312 412.5,-318 406.5,-324 400.5,-324"/>
<text text-anchor="middle" x="374.5" y="-309" font-family="sans" font-size="10.00">format</text>
<text text-anchor="middle" x="374.5" y="-298" font-family="sans" font-size="10.00">site: BR&#45;Sa3</text>
</g>
<!-- 4&#45;&gt;14 -->
<g id="edge19" class="edge">
<title>4&#45;&gt;14</title>
<path fill="none" stroke="grey" stroke-width="2" d="M273.65,-362.15C291.34,-352.48 314.73,-339.69 334.53,-328.86"/>
<polygon fill="grey" stroke="grey" stroke-width="2" points="336.25,-331.91 343.34,-324.04 332.89,-325.77 336.25,-331.91"/>
</g>
<!-- 5 -->
<g id="node6" class="node">
<title>5</title>
<path fill="none" stroke="#c6d856" stroke-width="2" d="M135.5,-180C135.5,-180 105.5,-180 105.5,-180 99.5,-180 93.5,-174 93.5,-168 93.5,-168 93.5,-156 93.5,-156 93.5,-150 99.5,-144 105.5,-144 105.5,-144 135.5,-144 135.5,-144 141.5,-144 147.5,-150 147.5,-156 147.5,-156 147.5,-168 147.5,-168 147.5,-174 141.5,-180 135.5,-180"/>
<text text-anchor="middle" x="120.5" y="-159.5" font-family="sans" font-size="10.00">spinup</text>
</g>
<!-- 5&#45;&gt;1 -->
<g id="edge5" class="edge">
<title>5&#45;&gt;1</title>
<path fill="none" stroke="grey" stroke-width="2" d="M120.5,-143.7C120.5,-135.98 120.5,-126.71 120.5,-118.11"/>
<polygon fill="grey" stroke="grey" stroke-width="2" points="124,-118.1 120.5,-108.1 117,-118.1 124,-118.1"/>
</g>
<!-- 6&#45;&gt;5 -->
<g id="edge8" class="edge">
<title>6&#45;&gt;5</title>
<path fill="none" stroke="grey" stroke-width="2" d="M120.5,-215.7C120.5,-207.98 120.5,-198.71 120.5,-190.11"/>
<polygon fill="grey" stroke="grey" stroke-width="2" points="124,-190.1 120.5,-180.1 117,-190.1 124,-190.1"/>
</g>
<!-- 7 -->
<g id="node8" class="node">
<title>7</title>
<path fill="none" stroke="#d8a456" stroke-width="2" d="M259.5,-108C259.5,-108 229.5,-108 229.5,-108 223.5,-108 217.5,-102 217.5,-96 217.5,-96 217.5,-84 217.5,-84 217.5,-78 223.5,-72 229.5,-72 229.5,-72 259.5,-72 259.5,-72 265.5,-72 271.5,-78 271.5,-84 271.5,-84 271.5,-96 271.5,-96 271.5,-102 265.5,-108 259.5,-108"/>
<text text-anchor="middle" x="244.5" y="-87.5" font-family="sans" font-size="10.00">run</text>
</g>
<!-- 7&#45;&gt;0 -->
<g id="edge2" class="edge">
<title>7&#45;&gt;0</title>
<path fill="none" stroke="grey" stroke-width="2" d="M244.5,-71.7C244.5,-63.98 244.5,-54.71 244.5,-46.11"/>
<polygon fill="grey" stroke="grey" stroke-width="2" points="248,-46.1 244.5,-36.1 241,-46.1 248,-46.1"/>
</g>
<!-- 8 -->
<g id="node9" class="node">
<title>8</title>
<path fill="none" stroke="#78d856" stroke-width="2" d="M229,-180C229,-180 178,-180 178,-180 172,-180 166,-174 166,-168 166,-168 166,-156 166,-156 166,-150 172,-144 178,-144 178,-144 229,-144 229,-144 235,-144 241,-150 241,-156 241,-156 241,-168 241,-168 241,-174 235,-180 229,-180"/>
<text text-anchor="middle" x="203.5" y="-159.5" font-family="sans" font-size="10.00">prepare_run</text>
</g>
<!-- 8&#45;&gt;7 -->
<g id="edge10" class="edge">
<title>8&#45;&gt;7</title>
<path fill="none" stroke="grey" stroke-width="2" d="M213.63,-143.7C218.35,-135.64 224.06,-125.89 229.28,-116.98"/>
<polygon fill="grey" stroke="grey" stroke-width="2" points="232.45,-118.5 234.48,-108.1 226.41,-114.96 232.45,-118.5"/>
</g>
<!-- 9&#45;&gt;8 -->
<g id="edge12" class="edge">
<title>9&#45;&gt;8</title>
<path fill="none" stroke="grey" stroke-width="2" d="M234.96,-287.56C228.85,-277.54 221.76,-264.51 217.5,-252 210.66,-231.92 207.14,-208.14 205.34,-190.21"/>
<polygon fill="grey" stroke="grey" stroke-width="2" points="208.82,-189.8 204.45,-180.15 201.84,-190.42 208.82,-189.8"/>
</g>
<!-- 11 -->
<g id="node12" class="node">
<title>11</title>
<path fill="none" stroke="#56d8c9" stroke-width="2" d="M306.5,-252C306.5,-252 238.5,-252 238.5,-252 232.5,-252 226.5,-246 226.5,-240 226.5,-240 226.5,-228 226.5,-228 226.5,-222 232.5,-216 238.5,-216 238.5,-216 306.5,-216 306.5,-216 312.5,-216 318.5,-222 318.5,-228 318.5,-228 318.5,-240 318.5,-240 318.5,-246 312.5,-252 306.5,-252"/>
<text text-anchor="middle" x="272.5" y="-231.5" font-family="sans" font-size="10.00">prepare_spinup</text>
</g>
<!-- 9&#45;&gt;11 -->
<g id="edge15" class="edge">
<title>9&#45;&gt;11</title>
<path fill="none" stroke="grey" stroke-width="2" d="M252.93,-287.7C255.86,-279.81 259.39,-270.3 262.64,-261.55"/>
<polygon fill="grey" stroke="grey" stroke-width="2" points="265.95,-262.7 266.15,-252.1 259.38,-260.26 265.95,-262.7"/>
</g>
<!-- 10 -->
<g id="node11" class="node">
<title>10</title>
<path fill="none" stroke="#c6d856" stroke-width="2" d="M301.5,-180C301.5,-180 271.5,-180 271.5,-180 265.5,-180 259.5,-174 259.5,-168 259.5,-168 259.5,-156 259.5,-156 259.5,-150 265.5,-144 271.5,-144 271.5,-144 301.5,-144 301.5,-144 307.5,-144 313.5,-150 313.5,-156 313.5,-156 313.5,-168 313.5,-168 313.5,-174 307.5,-180 301.5,-180"/>
<text text-anchor="middle" x="286.5" y="-159.5" font-family="sans" font-size="10.00">spinup</text>
</g>
<!-- 10&#45;&gt;7 -->
<g id="edge11" class="edge">
<title>10&#45;&gt;7</title>
<path fill="none" stroke="grey" stroke-width="2" d="M276.12,-143.7C271.24,-135.56 265.31,-125.69 259.92,-116.7"/>
<polygon fill="grey" stroke="grey" stroke-width="2" points="262.91,-114.88 254.76,-108.1 256.91,-118.48 262.91,-114.88"/>
</g>
<!-- 11&#45;&gt;10 -->
<g id="edge14" class="edge">
<title>11&#45;&gt;10</title>
<path fill="none" stroke="grey" stroke-width="2" d="M275.96,-215.7C277.5,-207.98 279.36,-198.71 281.08,-190.11"/>
<polygon fill="grey" stroke="grey" stroke-width="2" points="284.55,-190.6 283.08,-180.1 277.69,-189.22 284.55,-190.6"/>
</g>
<!-- 12 -->
<g id="node13" class="node">
<title>12</title>
<path fill="none" stroke="#d8a456" stroke-width="2" d="M389.5,-108C389.5,-108 359.5,-108 359.5,-108 353.5,-108 347.5,-102 347.5,-96 347.5,-96 347.5,-84 347.5,-84 347.5,-78 353.5,-72 359.5,-72 359.5,-72 389.5,-72 389.5,-72 395.5,-72 401.5,-78 401.5,-84 401.5,-84 401.5,-96 401.5,-96 401.5,-102 395.5,-108 389.5,-108"/>
<text text-anchor="middle" x="374.5" y="-87.5" font-family="sans" font-size="10.00">run</text>
</g>
<!-- 12&#45;&gt;0 -->
<g id="edge3" class="edge">
<title>12&#45;&gt;0</title>
<path fill="none" stroke="grey" stroke-width="2" d="M347.25,-74.33C327.92,-63.92 301.78,-49.84 280.7,-38.49"/>
<polygon fill="grey" stroke="grey" stroke-width="2" points="282.18,-35.31 271.72,-33.65 278.86,-41.48 282.18,-35.31"/>
</g>
<!-- 13 -->
<g id="node14" class="node">
<title>13</title>
<path fill="none" stroke="#78d856" stroke-width="2" d="M400,-252C400,-252 349,-252 349,-252 343,-252 337,-246 337,-240 337,-240 337,-228 337,-228 337,-222 343,-216 349,-216 349,-216 400,-216 400,-216 406,-216 412,-222 412,-228 412,-228 412,-240 412,-240 412,-246 406,-252 400,-252"/>
<text text-anchor="middle" x="374.5" y="-231.5" font-family="sans" font-size="10.00">prepare_run</text>
</g>
<!-- 13&#45;&gt;12 -->
<g id="edge16" class="edge">
<title>13&#45;&gt;12</title>
<path fill="none" stroke="grey" stroke-width="2" d="M374.5,-215.87C374.5,-191.67 374.5,-147.21 374.5,-118.39"/>
<polygon fill="grey" stroke="grey" stroke-width="2" points="378,-118.19 374.5,-108.19 371,-118.19 378,-118.19"/>
</g>
<!-- 14&#45;&gt;13 -->
<g id="edge18" class="edge">
<title>14&#45;&gt;13</title>
<path fill="none" stroke="grey" stroke-width="2" d="M374.5,-287.7C374.5,-279.98 374.5,-270.71 374.5,-262.11"/>
<polygon fill="grey" stroke="grey" stroke-width="2" points="378,-262.1 374.5,-252.1 371,-262.1 378,-262.1"/>
</g>
<!-- 16 -->
<g id="node17" class="node">
<title>16</title>
<path fill="none" stroke="#56d8c9" stroke-width="2" d="M510.5,-252C510.5,-252 442.5,-252 442.5,-252 436.5,-252 430.5,-246 430.5,-240 430.5,-240 430.5,-228 430.5,-228 430.5,-222 436.5,-216 442.5,-216 442.5,-216 510.5,-216 510.5,-216 516.5,-216 522.5,-222 522.5,-228 522.5,-228 522.5,-240 522.5,-240 522.5,-246 516.5,-252 510.5,-252"/>
<text text-anchor="middle" x="476.5" y="-231.5" font-family="sans" font-size="10.00">prepare_spinup</text>
</g>
<!-- 14&#45;&gt;16 -->
<g id="edge21" class="edge">
<title>14&#45;&gt;16</title>
<path fill="none" stroke="grey" stroke-width="2" d="M399.45,-287.88C412.54,-278.89 428.76,-267.76 442.94,-258.03"/>
<polygon fill="grey" stroke="grey" stroke-width="2" points="445.19,-260.73 451.45,-252.19 441.23,-254.96 445.19,-260.73"/>
</g>
<!-- 15 -->
<g id="node16" class="node">
<title>15</title>
<path fill="none" stroke="#c6d856" stroke-width="2" d="M467.5,-180C467.5,-180 437.5,-180 437.5,-180 431.5,-180 425.5,-174 425.5,-168 425.5,-168 425.5,-156 425.5,-156 425.5,-150 431.5,-144 437.5,-144 437.5,-144 467.5,-144 467.5,-144 473.5,-144 479.5,-150 479.5,-156 479.5,-156 479.5,-168 479.5,-168 479.5,-174 473.5,-180 467.5,-180"/>
<text text-anchor="middle" x="452.5" y="-159.5" font-family="sans" font-size="10.00">spinup</text>
</g>
<!-- 15&#45;&gt;12 -->
<g id="edge17" class="edge">
<title>15&#45;&gt;12</title>
<path fill="none" stroke="grey" stroke-width="2" d="M433.22,-143.7C423.58,-135.05 411.77,-124.45 401.27,-115.03"/>
<polygon fill="grey" stroke="grey" stroke-width="2" points="403.34,-112.18 393.56,-108.1 398.66,-117.39 403.34,-112.18"/>
</g>
<!-- 16&#45;&gt;15 -->
<g id="edge20" class="edge">
<title>16&#45;&gt;15</title>
<path fill="none" stroke="grey" stroke-width="2" d="M470.57,-215.7C467.89,-207.9 464.67,-198.51 461.7,-189.83"/>
<polygon fill="grey" stroke="grey" stroke-width="2" points="464.92,-188.43 458.36,-180.1 458.3,-190.7 464.92,-188.43"/>
</g>
</g>
</svg>
