<?xml version="1.0" encoding="UTF-8" standalone="no"?>
<!DOCTYPE svg PUBLIC "-//W3C//DTD SVG 1.1//EN"
 "http://www.w3.org/Graphics/SVG/1.1/DTD/svg11.dtd">
<!-- Generated by graphviz version 2.43.0 (0)
 -->
<!-- Title: snakemake_dag Pages: 1 -->
<svg width="700pt" height="265pt"
 viewBox="0.00 0.00 699.50 265.00" xmlns="http://www.w3.org/2000/svg" xmlns:xlink="http://www.w3.org/1999/xlink">
<g id="graph0" class="graph" transform="scale(1 1) rotate(0) translate(4 261)">
<title>snakemake_dag</title>
<polygon fill="white" stroke="transparent" points="-4,4 -4,-261 695.5,-261 695.5,4 -4,4"/>
<!-- 0 -->
<g id="node1" class="node">
<title>0</title>
<path fill="none" stroke="#56d8a9" stroke-width="2" d="M448,-36C448,-36 418,-36 418,-36 412,-36 406,-30 406,-24 406,-24 406,-12 406,-12 406,-6 412,0 418,0 418,0 448,0 448,0 454,0 460,-6 460,-12 460,-12 460,-24 460,-24 460,-30 454,-36 448,-36"/>
<text text-anchor="middle" x="433" y="-15.5" font-family="sans" font-size="10.00">all</text>
</g>
<!-- 1 -->
<g id="node2" class="node">
<title>1</title>
<path fill="none" stroke="#afd856" stroke-width="2" stroke-dasharray="5,2" d="M280,-108C280,-108 250,-108 250,-108 244,-108 238,-102 238,-96 238,-96 238,-84 238,-84 238,-78 244,-72 250,-72 250,-72 280,-72 280,-72 286,-72 292,-78 292,-84 292,-84 292,-96 292,-96 292,-102 286,-108 280,-108"/>
<text text-anchor="middle" x="265" y="-87.5" font-family="sans" font-size="10.00">troll</text>
</g>
<!-- 1&#45;&gt;0 -->
<g id="edge1" class="edge">
<title>1&#45;&gt;0</title>
<path fill="none" stroke="grey" stroke-width="2" d="M292.37,-77.6C320.76,-65.77 365.32,-47.2 396.66,-34.14"/>
<polygon fill="grey" stroke="grey" stroke-width="2" points="398.04,-37.36 405.92,-30.28 395.35,-30.9 398.04,-37.36"/>
</g>
<!-- 2 -->
<g id="node3" class="node">
<title>2</title>
<path fill="none" stroke="#d85656" stroke-width="2" stroke-dasharray="5,2" d="M255,-180C255,-180 183,-180 183,-180 177,-180 171,-174 171,-168 171,-168 171,-156 171,-156 171,-150 177,-144 183,-144 183,-144 255,-144 255,-144 261,-144 267,-150 267,-156 267,-156 267,-168 267,-168 267,-174 261,-180 255,-180"/>
<text text-anchor="middle" x="219" y="-159.5" font-family="sans" font-size="10.00">prepare_climate</text>
</g>
<!-- 2&#45;&gt;1 -->
<g id="edge5" class="edge">
<title>2&#45;&gt;1</title>
<path fill="none" stroke="grey" stroke-width="2" d="M230.37,-143.7C235.72,-135.56 242.2,-125.69 248.11,-116.7"/>
<polygon fill="grey" stroke="grey" stroke-width="2" points="251.19,-118.38 253.76,-108.1 245.34,-114.54 251.19,-118.38"/>
</g>
<!-- 3 -->
<g id="node4" class="node">
<title>3</title>
<path fill="none" stroke="#56a9d8" stroke-width="2" stroke-dasharray="5,2" d="M122,-257C122,-257 12,-257 12,-257 6,-257 0,-251 0,-245 0,-245 0,-228 0,-228 0,-222 6,-216 12,-216 12,-216 122,-216 122,-216 128,-216 134,-222 134,-228 134,-228 134,-245 134,-245 134,-251 128,-257 122,-257"/>
<text text-anchor="middle" x="67" y="-245" font-family="sans" font-size="10.00">get_data</text>
<text text-anchor="middle" x="67" y="-234" font-family="sans" font-size="10.00">site: GF&#45;Guy_2004&#45;2014</text>
<text text-anchor="middle" x="67" y="-223" font-family="sans" font-size="10.00">type: Met</text>
</g>
<!-- 3&#45;&gt;2 -->
<g id="edge6" class="edge">
<title>3&#45;&gt;2</title>
<path fill="none" stroke="grey" stroke-width="2" d="M108.13,-215.88C128.49,-206.17 153.11,-194.43 173.97,-184.48"/>
<polygon fill="grey" stroke="grey" stroke-width="2" points="175.74,-187.51 183.26,-180.05 172.73,-181.19 175.74,-187.51"/>
</g>
<!-- 4 -->
<g id="node5" class="node">
<title>4</title>
<path fill="none" stroke="#56a9d8" stroke-width="2" stroke-dasharray="5,2" d="M274,-257C274,-257 164,-257 164,-257 158,-257 152,-251 152,-245 152,-245 152,-228 152,-228 152,-222 158,-216 164,-216 164,-216 274,-216 274,-216 280,-216 286,-222 286,-228 286,-228 286,-245 286,-245 286,-251 280,-257 274,-257"/>
<text text-anchor="middle" x="219" y="-245" font-family="sans" font-size="10.00">get_data</text>
<text text-anchor="middle" x="219" y="-234" font-family="sans" font-size="10.00">site: GF&#45;Guy_2004&#45;2014</text>
<text text-anchor="middle" x="219" y="-223" font-family="sans" font-size="10.00">type: Flux</text>
</g>
<!-- 4&#45;&gt;2 -->
<g id="edge7" class="edge">
<title>4&#45;&gt;2</title>
<path fill="none" stroke="grey" stroke-width="2" d="M219,-215.69C219,-207.91 219,-198.84 219,-190.45"/>
<polygon fill="grey" stroke="grey" stroke-width="2" points="222.5,-190.32 219,-180.32 215.5,-190.32 222.5,-190.32"/>
</g>
<!-- 5 -->
<g id="node6" class="node">
<title>5</title>
<path fill="none" stroke="#afd856" stroke-width="2" stroke-dasharray="5,2" d="M392,-108C392,-108 362,-108 362,-108 356,-108 350,-102 350,-96 350,-96 350,-84 350,-84 350,-78 356,-72 362,-72 362,-72 392,-72 392,-72 398,-72 404,-78 404,-84 404,-84 404,-96 404,-96 404,-102 398,-108 392,-108"/>
<text text-anchor="middle" x="377" y="-87.5" font-family="sans" font-size="10.00">troll</text>
</g>
<!-- 5&#45;&gt;0 -->
<g id="edge2" class="edge">
<title>5&#45;&gt;0</title>
<path fill="none" stroke="grey" stroke-width="2" d="M390.84,-71.7C397.49,-63.39 405.58,-53.28 412.89,-44.14"/>
<polygon fill="grey" stroke="grey" stroke-width="2" points="415.8,-46.1 419.32,-36.1 410.34,-41.73 415.8,-46.1"/>
</g>
<!-- 6 -->
<g id="node7" class="node">
<title>6</title>
<path fill="none" stroke="#d85656" stroke-width="2" stroke-dasharray="5,2" d="M407,-180C407,-180 335,-180 335,-180 329,-180 323,-174 323,-168 323,-168 323,-156 323,-156 323,-150 329,-144 335,-144 335,-144 407,-144 407,-144 413,-144 419,-150 419,-156 419,-156 419,-168 419,-168 419,-174 413,-180 407,-180"/>
<text text-anchor="middle" x="371" y="-159.5" font-family="sans" font-size="10.00">prepare_climate</text>
</g>
<!-- 6&#45;&gt;5 -->
<g id="edge8" class="edge">
<title>6&#45;&gt;5</title>
<path fill="none" stroke="grey" stroke-width="2" d="M372.48,-143.7C373.14,-135.98 373.94,-126.71 374.68,-118.11"/>
<polygon fill="grey" stroke="grey" stroke-width="2" points="378.17,-118.37 375.53,-108.1 371.19,-117.77 378.17,-118.37"/>
</g>
<!-- 7 -->
<g id="node8" class="node">
<title>7</title>
<path fill="none" stroke="#56a9d8" stroke-width="2" stroke-dasharray="5,2" d="M425.5,-257C425.5,-257 316.5,-257 316.5,-257 310.5,-257 304.5,-251 304.5,-245 304.5,-245 304.5,-228 304.5,-228 304.5,-222 310.5,-216 316.5,-216 316.5,-216 425.5,-216 425.5,-216 431.5,-216 437.5,-222 437.5,-228 437.5,-228 437.5,-245 437.5,-245 437.5,-251 431.5,-257 425.5,-257"/>
<text text-anchor="middle" x="371" y="-245" font-family="sans" font-size="10.00">get_data</text>
<text text-anchor="middle" x="371" y="-234" font-family="sans" font-size="10.00">site: BR&#45;Sa3_2001&#45;2003</text>
<text text-anchor="middle" x="371" y="-223" font-family="sans" font-size="10.00">type: Met</text>
</g>
<!-- 7&#45;&gt;6 -->
<g id="edge9" class="edge">
<title>7&#45;&gt;6</title>
<path fill="none" stroke="grey" stroke-width="2" d="M371,-215.69C371,-207.91 371,-198.84 371,-190.45"/>
<polygon fill="grey" stroke="grey" stroke-width="2" points="374.5,-190.32 371,-180.32 367.5,-190.32 374.5,-190.32"/>
</g>
<!-- 8 -->
<g id="node9" class="node">
<title>8</title>
<path fill="none" stroke="#56a9d8" stroke-width="2" stroke-dasharray="5,2" d="M576.5,-257C576.5,-257 467.5,-257 467.5,-257 461.5,-257 455.5,-251 455.5,-245 455.5,-245 455.5,-228 455.5,-228 455.5,-222 461.5,-216 467.5,-216 467.5,-216 576.5,-216 576.5,-216 582.5,-216 588.5,-222 588.5,-228 588.5,-228 588.5,-245 588.5,-245 588.5,-251 582.5,-257 576.5,-257"/>
<text text-anchor="middle" x="522" y="-245" font-family="sans" font-size="10.00">get_data</text>
<text text-anchor="middle" x="522" y="-234" font-family="sans" font-size="10.00">site: BR&#45;Sa3_2001&#45;2003</text>
<text text-anchor="middle" x="522" y="-223" font-family="sans" font-size="10.00">type: Flux</text>
</g>
<!-- 8&#45;&gt;6 -->
<g id="edge10" class="edge">
<title>8&#45;&gt;6</title>
<path fill="none" stroke="grey" stroke-width="2" d="M481.14,-215.88C460.91,-206.17 436.46,-194.43 415.73,-184.48"/>
<polygon fill="grey" stroke="grey" stroke-width="2" points="417.03,-181.22 406.5,-180.05 414,-187.53 417.03,-181.22"/>
</g>
<!-- 9 -->
<g id="node10" class="node">
<title>9</title>
<path fill="none" stroke="#afd856" stroke-width="2" d="M530.5,-108C530.5,-108 447.5,-108 447.5,-108 441.5,-108 435.5,-102 435.5,-96 435.5,-96 435.5,-84 435.5,-84 435.5,-78 441.5,-72 447.5,-72 447.5,-72 530.5,-72 530.5,-72 536.5,-72 542.5,-78 542.5,-84 542.5,-84 542.5,-96 542.5,-96 542.5,-102 536.5,-108 530.5,-108"/>
<text text-anchor="middle" x="489" y="-93" font-family="sans" font-size="10.00">troll</text>
<text text-anchor="middle" x="489" y="-82" font-family="sans" font-size="10.00">site: GF&#45;Guy&#45;ERA5</text>
</g>
<!-- 9&#45;&gt;0 -->
<g id="edge3" class="edge">
<title>9&#45;&gt;0</title>
<path fill="none" stroke="grey" stroke-width="2" d="M475.16,-71.7C468.51,-63.39 460.42,-53.28 453.11,-44.14"/>
<polygon fill="grey" stroke="grey" stroke-width="2" points="455.66,-41.73 446.68,-36.1 450.2,-46.1 455.66,-41.73"/>
</g>
<!-- 10 -->
<g id="node11" class="node">
<title>10</title>
<path fill="none" stroke="#d8ac56" stroke-width="2" d="M542.5,-180C542.5,-180 449.5,-180 449.5,-180 443.5,-180 437.5,-174 437.5,-168 437.5,-168 437.5,-156 437.5,-156 437.5,-150 443.5,-144 449.5,-144 449.5,-144 542.5,-144 542.5,-144 548.5,-144 554.5,-150 554.5,-156 554.5,-156 554.5,-168 554.5,-168 554.5,-174 548.5,-180 542.5,-180"/>
<text text-anchor="middle" x="496" y="-159.5" font-family="sans" font-size="10.00">prepare_climate_era</text>
</g>
<!-- 10&#45;&gt;9 -->
<g id="edge11" class="edge">
<title>10&#45;&gt;9</title>
<path fill="none" stroke="grey" stroke-width="2" d="M494.27,-143.7C493.5,-135.98 492.57,-126.71 491.71,-118.11"/>
<polygon fill="grey" stroke="grey" stroke-width="2" points="495.19,-117.71 490.71,-108.1 488.22,-118.4 495.19,-117.71"/>
</g>
<!-- 11 -->
<g id="node12" class="node">
<title>11</title>
<path fill="none" stroke="#afd856" stroke-width="2" d="M664,-108C664,-108 586,-108 586,-108 580,-108 574,-102 574,-96 574,-96 574,-84 574,-84 574,-78 580,-72 586,-72 586,-72 664,-72 664,-72 670,-72 676,-78 676,-84 676,-84 676,-96 676,-96 676,-102 670,-108 664,-108"/>
<text text-anchor="middle" x="625" y="-93" font-family="sans" font-size="10.00">troll</text>
<text text-anchor="middle" x="625" y="-82" font-family="sans" font-size="10.00">site: GF&#45;Guy&#45;Raw</text>
</g>
<!-- 11&#45;&gt;0 -->
<g id="edge4" class="edge">
<title>11&#45;&gt;0</title>
<path fill="none" stroke="grey" stroke-width="2" d="M578.03,-71.88C544.67,-59.71 500.52,-43.62 469.73,-32.39"/>
<polygon fill="grey" stroke="grey" stroke-width="2" points="470.82,-29.06 460.23,-28.93 468.43,-35.64 470.82,-29.06"/>
</g>
<!-- 12 -->
<g id="node13" class="node">
<title>12</title>
<path fill="none" stroke="#59d856" stroke-width="2" d="M679.5,-180C679.5,-180 584.5,-180 584.5,-180 578.5,-180 572.5,-174 572.5,-168 572.5,-168 572.5,-156 572.5,-156 572.5,-150 578.5,-144 584.5,-144 584.5,-144 679.5,-144 679.5,-144 685.5,-144 691.5,-150 691.5,-156 691.5,-156 691.5,-168 691.5,-168 691.5,-174 685.5,-180 679.5,-180"/>
<text text-anchor="middle" x="632" y="-159.5" font-family="sans" font-size="10.00">prepare_climate_raw</text>
</g>
<!-- 12&#45;&gt;11 -->
<g id="edge12" class="edge">
<title>12&#45;&gt;11</title>
<path fill="none" stroke="grey" stroke-width="2" d="M630.27,-143.7C629.5,-135.98 628.57,-126.71 627.71,-118.11"/>
<polygon fill="grey" stroke="grey" stroke-width="2" points="631.19,-117.71 626.71,-108.1 624.22,-118.4 631.19,-117.71"/>
</g>
</g>
</svg>
