<?xml version="1.0" encoding="UTF-8" standalone="no"?>
<!DOCTYPE svg PUBLIC "-//W3C//DTD SVG 1.1//EN"
 "http://www.w3.org/Graphics/SVG/1.1/DTD/svg11.dtd">
<!-- Generated by graphviz version 2.43.0 (0)
 -->
<!-- Title: snakemake_dag Pages: 1 -->
<svg width="1358pt" height="337pt"
 viewBox="0.00 0.00 1358.00 337.00" xmlns="http://www.w3.org/2000/svg" xmlns:xlink="http://www.w3.org/1999/xlink">
<g id="graph0" class="graph" transform="scale(1 1) rotate(0) translate(4 333)">
<title>snakemake_dag</title>
<polygon fill="white" stroke="transparent" points="-4,4 -4,-333 1354,-333 1354,4 -4,4"/>
<!-- 0 -->
<g id="node1" class="node">
<title>0</title>
<path fill="none" stroke="#56a9d8" stroke-width="2" d="M689,-36C689,-36 659,-36 659,-36 653,-36 647,-30 647,-24 647,-24 647,-12 647,-12 647,-6 653,0 659,0 659,0 689,0 689,0 695,0 701,-6 701,-12 701,-12 701,-24 701,-24 701,-30 695,-36 689,-36"/>
<text text-anchor="middle" x="674" y="-15.5" font-family="sans" font-size="10.00">all</text>
</g>
<!-- 1 -->
<g id="node2" class="node">
<title>1</title>
<path fill="none" stroke="#d8ac56" stroke-width="2" d="M105,-108C105,-108 75,-108 75,-108 69,-108 63,-102 63,-96 63,-96 63,-84 63,-84 63,-78 69,-72 75,-72 75,-72 105,-72 105,-72 111,-72 117,-78 117,-84 117,-84 117,-96 117,-96 117,-102 111,-108 105,-108"/>
<text text-anchor="middle" x="90" y="-87.5" font-family="sans" font-size="10.00">troll</text>
</g>
<!-- 1&#45;&gt;0 -->
<g id="edge1" class="edge">
<title>1&#45;&gt;0</title>
<path fill="none" stroke="grey" stroke-width="2" d="M117.28,-79.72C126.61,-76.85 137.17,-73.94 147,-72 328.43,-36.16 550.04,-23.92 636.73,-20.32"/>
<polygon fill="grey" stroke="grey" stroke-width="2" points="637.01,-23.81 646.86,-19.92 636.73,-16.82 637.01,-23.81"/>
</g>
<!-- 2 -->
<g id="node3" class="node">
<title>2</title>
<path fill="none" stroke="#59d856" stroke-width="2" d="M84,-180C84,-180 12,-180 12,-180 6,-180 0,-174 0,-168 0,-168 0,-156 0,-156 0,-150 6,-144 12,-144 12,-144 84,-144 84,-144 90,-144 96,-150 96,-156 96,-156 96,-168 96,-168 96,-174 90,-180 84,-180"/>
<text text-anchor="middle" x="48" y="-165" font-family="sans" font-size="10.00">prepare_climate</text>
<text text-anchor="middle" x="48" y="-154" font-family="sans" font-size="10.00">exp: rcp26</text>
</g>
<!-- 2&#45;&gt;1 -->
<g id="edge13" class="edge">
<title>2&#45;&gt;1</title>
<path fill="none" stroke="grey" stroke-width="2" d="M58.38,-143.7C63.26,-135.56 69.19,-125.69 74.58,-116.7"/>
<polygon fill="grey" stroke="grey" stroke-width="2" points="77.59,-118.48 79.74,-108.1 71.59,-114.88 77.59,-118.48"/>
</g>
<!-- 3 -->
<g id="node4" class="node">
<title>3</title>
<path fill="none" stroke="#d85656" stroke-width="2" d="M226,-257C226,-257 98,-257 98,-257 92,-257 86,-251 86,-245 86,-245 86,-228 86,-228 86,-222 92,-216 98,-216 98,-216 226,-216 226,-216 232,-216 238,-222 238,-228 238,-228 238,-245 238,-245 238,-251 232,-257 226,-257"/>
<text text-anchor="middle" x="162" y="-245" font-family="sans" font-size="10.00">prepare_model</text>
<text text-anchor="middle" x="162" y="-234" font-family="sans" font-size="10.00">model: MOHC&#45;HadGEM2&#45;ES</text>
<text text-anchor="middle" x="162" y="-223" font-family="sans" font-size="10.00">rcm: ICTP&#45;RegCM4&#45;7</text>
</g>
<!-- 3&#45;&gt;2 -->
<g id="edge14" class="edge">
<title>3&#45;&gt;2</title>
<path fill="none" stroke="grey" stroke-width="2" d="M131.15,-215.88C116.49,-206.56 98.88,-195.36 83.65,-185.67"/>
<polygon fill="grey" stroke="grey" stroke-width="2" points="85.31,-182.58 74.99,-180.17 81.55,-188.49 85.31,-182.58"/>
</g>
<!-- 7 -->
<g id="node8" class="node">
<title>7</title>
<path fill="none" stroke="#59d856" stroke-width="2" d="M198,-180C198,-180 126,-180 126,-180 120,-180 114,-174 114,-168 114,-168 114,-156 114,-156 114,-150 120,-144 126,-144 126,-144 198,-144 198,-144 204,-144 210,-150 210,-156 210,-156 210,-168 210,-168 210,-174 204,-180 198,-180"/>
<text text-anchor="middle" x="162" y="-165" font-family="sans" font-size="10.00">prepare_climate</text>
<text text-anchor="middle" x="162" y="-154" font-family="sans" font-size="10.00">exp: rcp85</text>
</g>
<!-- 3&#45;&gt;7 -->
<g id="edge19" class="edge">
<title>3&#45;&gt;7</title>
<path fill="none" stroke="grey" stroke-width="2" d="M162,-215.69C162,-207.91 162,-198.84 162,-190.45"/>
<polygon fill="grey" stroke="grey" stroke-width="2" points="165.5,-190.32 162,-180.32 158.5,-190.32 165.5,-190.32"/>
</g>
<!-- 4 -->
<g id="node5" class="node">
<title>4</title>
<path fill="none" stroke="#56d8a9" stroke-width="2" d="M713,-329C713,-329 645,-329 645,-329 639,-329 633,-323 633,-317 633,-317 633,-305 633,-305 633,-299 639,-293 645,-293 645,-293 713,-293 713,-293 719,-293 725,-299 725,-305 725,-305 725,-317 725,-317 725,-323 719,-329 713,-329"/>
<text text-anchor="middle" x="679" y="-308.5" font-family="sans" font-size="10.00">prepare_cordex</text>
</g>
<!-- 4&#45;&gt;3 -->
<g id="edge16" class="edge">
<title>4&#45;&gt;3</title>
<path fill="none" stroke="grey" stroke-width="2" d="M632.66,-303.5C546.14,-291.37 358.79,-265.1 248.34,-249.61"/>
<polygon fill="grey" stroke="grey" stroke-width="2" points="248.61,-246.11 238.22,-248.19 247.64,-253.04 248.61,-246.11"/>
</g>
<!-- 5 -->
<g id="node6" class="node">
<title>5</title>
<path fill="none" stroke="#afd856" stroke-width="2" d="M706,-254.5C706,-254.5 652,-254.5 652,-254.5 646,-254.5 640,-248.5 640,-242.5 640,-242.5 640,-230.5 640,-230.5 640,-224.5 646,-218.5 652,-218.5 652,-218.5 706,-218.5 706,-218.5 712,-218.5 718,-224.5 718,-230.5 718,-230.5 718,-242.5 718,-242.5 718,-248.5 712,-254.5 706,-254.5"/>
<text text-anchor="middle" x="679" y="-234" font-family="sans" font-size="10.00">select_years</text>
</g>
<!-- 4&#45;&gt;5 -->
<g id="edge17" class="edge">
<title>4&#45;&gt;5</title>
<path fill="none" stroke="grey" stroke-width="2" d="M679,-292.82C679,-284.42 679,-274.12 679,-264.69"/>
<polygon fill="grey" stroke="grey" stroke-width="2" points="682.5,-264.56 679,-254.56 675.5,-264.56 682.5,-264.56"/>
</g>
<!-- 10 -->
<g id="node11" class="node">
<title>10</title>
<path fill="none" stroke="#d85656" stroke-width="2" d="M454,-257C454,-257 326,-257 326,-257 320,-257 314,-251 314,-245 314,-245 314,-228 314,-228 314,-222 320,-216 326,-216 326,-216 454,-216 454,-216 460,-216 466,-222 466,-228 466,-228 466,-245 466,-245 466,-251 460,-257 454,-257"/>
<text text-anchor="middle" x="390" y="-245" font-family="sans" font-size="10.00">prepare_model</text>
<text text-anchor="middle" x="390" y="-234" font-family="sans" font-size="10.00">model: MOHC&#45;HadGEM2&#45;ES</text>
<text text-anchor="middle" x="390" y="-223" font-family="sans" font-size="10.00">rcm: REMO2015</text>
</g>
<!-- 4&#45;&gt;10 -->
<g id="edge24" class="edge">
<title>4&#45;&gt;10</title>
<path fill="none" stroke="grey" stroke-width="2" d="M632.89,-298.43C590.74,-287.86 527.34,-271.95 475.87,-259.04"/>
<polygon fill="grey" stroke="grey" stroke-width="2" points="476.63,-255.62 466.08,-256.59 474.93,-262.41 476.63,-255.62"/>
</g>
<!-- 15 -->
<g id="node16" class="node">
<title>15</title>
<path fill="none" stroke="#d85656" stroke-width="2" d="M609.5,-257C609.5,-257 502.5,-257 502.5,-257 496.5,-257 490.5,-251 490.5,-245 490.5,-245 490.5,-228 490.5,-228 490.5,-222 496.5,-216 502.5,-216 502.5,-216 609.5,-216 609.5,-216 615.5,-216 621.5,-222 621.5,-228 621.5,-228 621.5,-245 621.5,-245 621.5,-251 615.5,-257 609.5,-257"/>
<text text-anchor="middle" x="556" y="-245" font-family="sans" font-size="10.00">prepare_model</text>
<text text-anchor="middle" x="556" y="-234" font-family="sans" font-size="10.00">model: MPI&#45;M&#45;MPI&#45;ESM</text>
<text text-anchor="middle" x="556" y="-223" font-family="sans" font-size="10.00">rcm: ICTP&#45;RegCM4&#45;7</text>
</g>
<!-- 4&#45;&gt;15 -->
<g id="edge31" class="edge">
<title>4&#45;&gt;15</title>
<path fill="none" stroke="grey" stroke-width="2" d="M649.85,-292.82C634.36,-283.69 615.05,-272.31 597.98,-262.24"/>
<polygon fill="grey" stroke="grey" stroke-width="2" points="599.68,-259.18 589.29,-257.12 596.12,-265.21 599.68,-259.18"/>
</g>
<!-- 20 -->
<g id="node21" class="node">
<title>20</title>
<path fill="none" stroke="#d85656" stroke-width="2" d="M855.5,-257C855.5,-257 748.5,-257 748.5,-257 742.5,-257 736.5,-251 736.5,-245 736.5,-245 736.5,-228 736.5,-228 736.5,-222 742.5,-216 748.5,-216 748.5,-216 855.5,-216 855.5,-216 861.5,-216 867.5,-222 867.5,-228 867.5,-228 867.5,-245 867.5,-245 867.5,-251 861.5,-257 855.5,-257"/>
<text text-anchor="middle" x="802" y="-245" font-family="sans" font-size="10.00">prepare_model</text>
<text text-anchor="middle" x="802" y="-234" font-family="sans" font-size="10.00">model: MPI&#45;M&#45;MPI&#45;ESM</text>
<text text-anchor="middle" x="802" y="-223" font-family="sans" font-size="10.00">rcm: REMO2015</text>
</g>
<!-- 4&#45;&gt;20 -->
<g id="edge38" class="edge">
<title>4&#45;&gt;20</title>
<path fill="none" stroke="grey" stroke-width="2" d="M708.15,-292.82C723.64,-283.69 742.95,-272.31 760.02,-262.24"/>
<polygon fill="grey" stroke="grey" stroke-width="2" points="761.88,-265.21 768.71,-257.12 758.32,-259.18 761.88,-265.21"/>
</g>
<!-- 25 -->
<g id="node26" class="node">
<title>25</title>
<path fill="none" stroke="#d85656" stroke-width="2" d="M1015.5,-257C1015.5,-257 904.5,-257 904.5,-257 898.5,-257 892.5,-251 892.5,-245 892.5,-245 892.5,-228 892.5,-228 892.5,-222 898.5,-216 904.5,-216 904.5,-216 1015.5,-216 1015.5,-216 1021.5,-216 1027.5,-222 1027.5,-228 1027.5,-228 1027.5,-245 1027.5,-245 1027.5,-251 1021.5,-257 1015.5,-257"/>
<text text-anchor="middle" x="960" y="-245" font-family="sans" font-size="10.00">prepare_model</text>
<text text-anchor="middle" x="960" y="-234" font-family="sans" font-size="10.00">model: NCC&#45;NorESM1&#45;M</text>
<text text-anchor="middle" x="960" y="-223" font-family="sans" font-size="10.00">rcm: ICTP&#45;RegCM4&#45;7</text>
</g>
<!-- 4&#45;&gt;25 -->
<g id="edge45" class="edge">
<title>4&#45;&gt;25</title>
<path fill="none" stroke="grey" stroke-width="2" d="M725.09,-298.11C767.71,-287.11 831.91,-270.55 882.43,-257.51"/>
<polygon fill="grey" stroke="grey" stroke-width="2" points="883.53,-260.84 892.34,-254.96 881.78,-254.07 883.53,-260.84"/>
</g>
<!-- 30 -->
<g id="node31" class="node">
<title>30</title>
<path fill="none" stroke="#d85656" stroke-width="2" d="M1243.5,-257C1243.5,-257 1132.5,-257 1132.5,-257 1126.5,-257 1120.5,-251 1120.5,-245 1120.5,-245 1120.5,-228 1120.5,-228 1120.5,-222 1126.5,-216 1132.5,-216 1132.5,-216 1243.5,-216 1243.5,-216 1249.5,-216 1255.5,-222 1255.5,-228 1255.5,-228 1255.5,-245 1255.5,-245 1255.5,-251 1249.5,-257 1243.5,-257"/>
<text text-anchor="middle" x="1188" y="-245" font-family="sans" font-size="10.00">prepare_model</text>
<text text-anchor="middle" x="1188" y="-234" font-family="sans" font-size="10.00">model: NCC&#45;NorESM1&#45;M</text>
<text text-anchor="middle" x="1188" y="-223" font-family="sans" font-size="10.00">rcm: REMO2015</text>
</g>
<!-- 4&#45;&gt;30 -->
<g id="edge52" class="edge">
<title>4&#45;&gt;30</title>
<path fill="none" stroke="grey" stroke-width="2" d="M725.07,-303.44C812.31,-291.01 1002.5,-263.92 1109.98,-248.61"/>
<polygon fill="grey" stroke="grey" stroke-width="2" points="1110.71,-252.04 1120.11,-247.17 1109.72,-245.11 1110.71,-252.04"/>
</g>
<!-- 5&#45;&gt;2 -->
<g id="edge15" class="edge">
<title>5&#45;&gt;2</title>
<path fill="none" stroke="grey" stroke-width="2" d="M639.76,-218.67C636.49,-217.64 633.21,-216.73 630,-216 405.17,-164.87 337.06,-220.07 106.08,-179.93"/>
<polygon fill="grey" stroke="grey" stroke-width="2" points="106.48,-176.44 96.02,-178.14 105.25,-183.33 106.48,-176.44"/>
</g>
<!-- 5&#45;&gt;7 -->
<g id="edge20" class="edge">
<title>5&#45;&gt;7</title>
<path fill="none" stroke="grey" stroke-width="2" d="M639.74,-218.73C636.48,-217.69 633.21,-216.76 630,-216 454.73,-174.4 401,-212.97 219.88,-179.91"/>
<polygon fill="grey" stroke="grey" stroke-width="2" points="220.51,-176.47 210.03,-178.07 219.22,-183.35 220.51,-176.47"/>
</g>
<!-- 9 -->
<g id="node10" class="node">
<title>9</title>
<path fill="none" stroke="#59d856" stroke-width="2" d="M312,-180C312,-180 240,-180 240,-180 234,-180 228,-174 228,-168 228,-168 228,-156 228,-156 228,-150 234,-144 240,-144 240,-144 312,-144 312,-144 318,-144 324,-150 324,-156 324,-156 324,-168 324,-168 324,-174 318,-180 312,-180"/>
<text text-anchor="middle" x="276" y="-165" font-family="sans" font-size="10.00">prepare_climate</text>
<text text-anchor="middle" x="276" y="-154" font-family="sans" font-size="10.00">exp: rcp26</text>
</g>
<!-- 5&#45;&gt;9 -->
<g id="edge23" class="edge">
<title>5&#45;&gt;9</title>
<path fill="none" stroke="grey" stroke-width="2" d="M639.98,-218.94C636.64,-217.84 633.28,-216.84 630,-216 504.3,-183.95 465.08,-205.96 334.07,-180"/>
<polygon fill="grey" stroke="grey" stroke-width="2" points="334.55,-176.52 324.06,-177.96 333.15,-183.38 334.55,-176.52"/>
</g>
<!-- 12 -->
<g id="node13" class="node">
<title>12</title>
<path fill="none" stroke="#59d856" stroke-width="2" d="M426,-180C426,-180 354,-180 354,-180 348,-180 342,-174 342,-168 342,-168 342,-156 342,-156 342,-150 348,-144 354,-144 354,-144 426,-144 426,-144 432,-144 438,-150 438,-156 438,-156 438,-168 438,-168 438,-174 432,-180 426,-180"/>
<text text-anchor="middle" x="390" y="-165" font-family="sans" font-size="10.00">prepare_climate</text>
<text text-anchor="middle" x="390" y="-154" font-family="sans" font-size="10.00">exp: rcp85</text>
</g>
<!-- 5&#45;&gt;12 -->
<g id="edge27" class="edge">
<title>5&#45;&gt;12</title>
<path fill="none" stroke="grey" stroke-width="2" d="M639.91,-219.21C636.58,-218.05 633.25,-216.96 630,-216 553.59,-193.49 529.36,-199.35 448.29,-180.17"/>
<polygon fill="grey" stroke="grey" stroke-width="2" points="448.66,-176.66 438.11,-177.7 447.01,-183.46 448.66,-176.66"/>
</g>
<!-- 14 -->
<g id="node15" class="node">
<title>14</title>
<path fill="none" stroke="#59d856" stroke-width="2" d="M540,-180C540,-180 468,-180 468,-180 462,-180 456,-174 456,-168 456,-168 456,-156 456,-156 456,-150 462,-144 468,-144 468,-144 540,-144 540,-144 546,-144 552,-150 552,-156 552,-156 552,-168 552,-168 552,-174 546,-180 540,-180"/>
<text text-anchor="middle" x="504" y="-165" font-family="sans" font-size="10.00">prepare_climate</text>
<text text-anchor="middle" x="504" y="-154" font-family="sans" font-size="10.00">exp: rcp26</text>
</g>
<!-- 5&#45;&gt;14 -->
<g id="edge30" class="edge">
<title>5&#45;&gt;14</title>
<path fill="none" stroke="grey" stroke-width="2" d="M639.73,-219.23C614.58,-208.81 581.7,-195.19 554.6,-183.96"/>
<polygon fill="grey" stroke="grey" stroke-width="2" points="555.85,-180.69 545.27,-180.1 553.17,-187.16 555.85,-180.69"/>
</g>
<!-- 17 -->
<g id="node18" class="node">
<title>17</title>
<path fill="none" stroke="#59d856" stroke-width="2" d="M654,-180C654,-180 582,-180 582,-180 576,-180 570,-174 570,-168 570,-168 570,-156 570,-156 570,-150 576,-144 582,-144 582,-144 654,-144 654,-144 660,-144 666,-150 666,-156 666,-156 666,-168 666,-168 666,-174 660,-180 654,-180"/>
<text text-anchor="middle" x="618" y="-165" font-family="sans" font-size="10.00">prepare_climate</text>
<text text-anchor="middle" x="618" y="-154" font-family="sans" font-size="10.00">exp: rcp85</text>
</g>
<!-- 5&#45;&gt;17 -->
<g id="edge34" class="edge">
<title>5&#45;&gt;17</title>
<path fill="none" stroke="grey" stroke-width="2" d="M664.54,-218.32C656.87,-209.2 647.3,-197.83 638.84,-187.77"/>
<polygon fill="grey" stroke="grey" stroke-width="2" points="641.47,-185.46 632.35,-180.06 636.11,-189.96 641.47,-185.46"/>
</g>
<!-- 19 -->
<g id="node20" class="node">
<title>19</title>
<path fill="none" stroke="#59d856" stroke-width="2" d="M768,-180C768,-180 696,-180 696,-180 690,-180 684,-174 684,-168 684,-168 684,-156 684,-156 684,-150 690,-144 696,-144 696,-144 768,-144 768,-144 774,-144 780,-150 780,-156 780,-156 780,-168 780,-168 780,-174 774,-180 768,-180"/>
<text text-anchor="middle" x="732" y="-165" font-family="sans" font-size="10.00">prepare_climate</text>
<text text-anchor="middle" x="732" y="-154" font-family="sans" font-size="10.00">exp: rcp26</text>
</g>
<!-- 5&#45;&gt;19 -->
<g id="edge37" class="edge">
<title>5&#45;&gt;19</title>
<path fill="none" stroke="grey" stroke-width="2" d="M691.56,-218.32C698.09,-209.38 706.21,-198.28 713.45,-188.37"/>
<polygon fill="grey" stroke="grey" stroke-width="2" points="716.45,-190.2 719.53,-180.06 710.8,-186.07 716.45,-190.2"/>
</g>
<!-- 22 -->
<g id="node23" class="node">
<title>22</title>
<path fill="none" stroke="#59d856" stroke-width="2" d="M882,-180C882,-180 810,-180 810,-180 804,-180 798,-174 798,-168 798,-168 798,-156 798,-156 798,-150 804,-144 810,-144 810,-144 882,-144 882,-144 888,-144 894,-150 894,-156 894,-156 894,-168 894,-168 894,-174 888,-180 882,-180"/>
<text text-anchor="middle" x="846" y="-165" font-family="sans" font-size="10.00">prepare_climate</text>
<text text-anchor="middle" x="846" y="-154" font-family="sans" font-size="10.00">exp: rcp85</text>
</g>
<!-- 5&#45;&gt;22 -->
<g id="edge41" class="edge">
<title>5&#45;&gt;22</title>
<path fill="none" stroke="grey" stroke-width="2" d="M718.15,-218.5C741.83,-208.22 772.22,-195.03 797.42,-184.09"/>
<polygon fill="grey" stroke="grey" stroke-width="2" points="799.02,-187.21 806.8,-180.02 796.24,-180.79 799.02,-187.21"/>
</g>
<!-- 24 -->
<g id="node25" class="node">
<title>24</title>
<path fill="none" stroke="#59d856" stroke-width="2" d="M996,-180C996,-180 924,-180 924,-180 918,-180 912,-174 912,-168 912,-168 912,-156 912,-156 912,-150 918,-144 924,-144 924,-144 996,-144 996,-144 1002,-144 1008,-150 1008,-156 1008,-156 1008,-168 1008,-168 1008,-174 1002,-180 996,-180"/>
<text text-anchor="middle" x="960" y="-165" font-family="sans" font-size="10.00">prepare_climate</text>
<text text-anchor="middle" x="960" y="-154" font-family="sans" font-size="10.00">exp: rcp26</text>
</g>
<!-- 5&#45;&gt;24 -->
<g id="edge44" class="edge">
<title>5&#45;&gt;24</title>
<path fill="none" stroke="grey" stroke-width="2" d="M718.08,-218.94C721.08,-217.88 724.07,-216.89 727,-216 800.43,-193.78 823.75,-198.96 902.05,-180.1"/>
<polygon fill="grey" stroke="grey" stroke-width="2" points="903.01,-183.47 911.88,-177.68 901.33,-176.67 903.01,-183.47"/>
</g>
<!-- 27 -->
<g id="node28" class="node">
<title>27</title>
<path fill="none" stroke="#59d856" stroke-width="2" d="M1110,-180C1110,-180 1038,-180 1038,-180 1032,-180 1026,-174 1026,-168 1026,-168 1026,-156 1026,-156 1026,-150 1032,-144 1038,-144 1038,-144 1110,-144 1110,-144 1116,-144 1122,-150 1122,-156 1122,-156 1122,-168 1122,-168 1122,-174 1116,-180 1110,-180"/>
<text text-anchor="middle" x="1074" y="-165" font-family="sans" font-size="10.00">prepare_climate</text>
<text text-anchor="middle" x="1074" y="-154" font-family="sans" font-size="10.00">exp: rcp85</text>
</g>
<!-- 5&#45;&gt;27 -->
<g id="edge48" class="edge">
<title>5&#45;&gt;27</title>
<path fill="none" stroke="grey" stroke-width="2" d="M718.01,-218.68C721.02,-217.68 724.04,-216.77 727,-216 849.5,-184.11 887.94,-205.5 1015.77,-180.03"/>
<polygon fill="grey" stroke="grey" stroke-width="2" points="1016.85,-183.38 1025.94,-177.95 1015.44,-176.53 1016.85,-183.38"/>
</g>
<!-- 29 -->
<g id="node30" class="node">
<title>29</title>
<path fill="none" stroke="#59d856" stroke-width="2" d="M1224,-180C1224,-180 1152,-180 1152,-180 1146,-180 1140,-174 1140,-168 1140,-168 1140,-156 1140,-156 1140,-150 1146,-144 1152,-144 1152,-144 1224,-144 1224,-144 1230,-144 1236,-150 1236,-156 1236,-156 1236,-168 1236,-168 1236,-174 1230,-180 1224,-180"/>
<text text-anchor="middle" x="1188" y="-165" font-family="sans" font-size="10.00">prepare_climate</text>
<text text-anchor="middle" x="1188" y="-154" font-family="sans" font-size="10.00">exp: rcp26</text>
</g>
<!-- 5&#45;&gt;29 -->
<g id="edge51" class="edge">
<title>5&#45;&gt;29</title>
<path fill="none" stroke="grey" stroke-width="2" d="M718.25,-218.48C721.18,-217.54 724.11,-216.7 727,-216 899.05,-174.38 952.05,-212.5 1130.01,-179.94"/>
<polygon fill="grey" stroke="grey" stroke-width="2" points="1130.78,-183.35 1139.97,-178.07 1129.49,-176.47 1130.78,-183.35"/>
</g>
<!-- 32 -->
<g id="node33" class="node">
<title>32</title>
<path fill="none" stroke="#59d856" stroke-width="2" d="M1338,-180C1338,-180 1266,-180 1266,-180 1260,-180 1254,-174 1254,-168 1254,-168 1254,-156 1254,-156 1254,-150 1260,-144 1266,-144 1266,-144 1338,-144 1338,-144 1344,-144 1350,-150 1350,-156 1350,-156 1350,-168 1350,-168 1350,-174 1344,-180 1338,-180"/>
<text text-anchor="middle" x="1302" y="-165" font-family="sans" font-size="10.00">prepare_climate</text>
<text text-anchor="middle" x="1302" y="-154" font-family="sans" font-size="10.00">exp: rcp85</text>
</g>
<!-- 5&#45;&gt;32 -->
<g id="edge55" class="edge">
<title>5&#45;&gt;32</title>
<path fill="none" stroke="grey" stroke-width="2" d="M717.96,-218.5C720.99,-217.54 724.02,-216.69 727,-216 948.64,-164.66 1016.03,-219.63 1244.05,-179.9"/>
<polygon fill="grey" stroke="grey" stroke-width="2" points="1244.75,-183.34 1253.98,-178.13 1243.52,-176.44 1244.75,-183.34"/>
</g>
<!-- 6 -->
<g id="node7" class="node">
<title>6</title>
<path fill="none" stroke="#d8ac56" stroke-width="2" d="M198,-108C198,-108 168,-108 168,-108 162,-108 156,-102 156,-96 156,-96 156,-84 156,-84 156,-78 162,-72 168,-72 168,-72 198,-72 198,-72 204,-72 210,-78 210,-84 210,-84 210,-96 210,-96 210,-102 204,-108 198,-108"/>
<text text-anchor="middle" x="183" y="-87.5" font-family="sans" font-size="10.00">troll</text>
</g>
<!-- 6&#45;&gt;0 -->
<g id="edge2" class="edge">
<title>6&#45;&gt;0</title>
<path fill="none" stroke="grey" stroke-width="2" d="M210.32,-82.44C225.24,-79.01 244.07,-74.93 261,-72 398.83,-48.18 564.23,-30.09 636.8,-22.68"/>
<polygon fill="grey" stroke="grey" stroke-width="2" points="637.22,-26.15 646.82,-21.66 636.52,-19.19 637.22,-26.15"/>
</g>
<!-- 7&#45;&gt;6 -->
<g id="edge18" class="edge">
<title>7&#45;&gt;6</title>
<path fill="none" stroke="grey" stroke-width="2" d="M167.19,-143.7C169.53,-135.9 172.35,-126.51 174.95,-117.83"/>
<polygon fill="grey" stroke="grey" stroke-width="2" points="178.35,-118.69 177.87,-108.1 171.64,-116.68 178.35,-118.69"/>
</g>
<!-- 8 -->
<g id="node9" class="node">
<title>8</title>
<path fill="none" stroke="#d8ac56" stroke-width="2" d="M312,-108C312,-108 282,-108 282,-108 276,-108 270,-102 270,-96 270,-96 270,-84 270,-84 270,-78 276,-72 282,-72 282,-72 312,-72 312,-72 318,-72 324,-78 324,-84 324,-84 324,-96 324,-96 324,-102 318,-108 312,-108"/>
<text text-anchor="middle" x="297" y="-87.5" font-family="sans" font-size="10.00">troll</text>
</g>
<!-- 8&#45;&gt;0 -->
<g id="edge3" class="edge">
<title>8&#45;&gt;0</title>
<path fill="none" stroke="grey" stroke-width="2" d="M324.02,-82.84C339.01,-79.49 358,-75.36 375,-72 468.97,-53.44 580.17,-34.53 636.8,-25.11"/>
<polygon fill="grey" stroke="grey" stroke-width="2" points="637.43,-28.56 646.72,-23.47 636.29,-21.65 637.43,-28.56"/>
</g>
<!-- 9&#45;&gt;8 -->
<g id="edge21" class="edge">
<title>9&#45;&gt;8</title>
<path fill="none" stroke="grey" stroke-width="2" d="M281.19,-143.7C283.53,-135.9 286.35,-126.51 288.95,-117.83"/>
<polygon fill="grey" stroke="grey" stroke-width="2" points="292.35,-118.69 291.87,-108.1 285.64,-116.68 292.35,-118.69"/>
</g>
<!-- 10&#45;&gt;9 -->
<g id="edge22" class="edge">
<title>10&#45;&gt;9</title>
<path fill="none" stroke="grey" stroke-width="2" d="M359.15,-215.88C344.49,-206.56 326.88,-195.36 311.65,-185.67"/>
<polygon fill="grey" stroke="grey" stroke-width="2" points="313.31,-182.58 302.99,-180.17 309.55,-188.49 313.31,-182.58"/>
</g>
<!-- 10&#45;&gt;12 -->
<g id="edge26" class="edge">
<title>10&#45;&gt;12</title>
<path fill="none" stroke="grey" stroke-width="2" d="M390,-215.69C390,-207.91 390,-198.84 390,-190.45"/>
<polygon fill="grey" stroke="grey" stroke-width="2" points="393.5,-190.32 390,-180.32 386.5,-190.32 393.5,-190.32"/>
</g>
<!-- 11 -->
<g id="node12" class="node">
<title>11</title>
<path fill="none" stroke="#d8ac56" stroke-width="2" d="M426,-108C426,-108 396,-108 396,-108 390,-108 384,-102 384,-96 384,-96 384,-84 384,-84 384,-78 390,-72 396,-72 396,-72 426,-72 426,-72 432,-72 438,-78 438,-84 438,-84 438,-96 438,-96 438,-102 432,-108 426,-108"/>
<text text-anchor="middle" x="411" y="-87.5" font-family="sans" font-size="10.00">troll</text>
</g>
<!-- 11&#45;&gt;0 -->
<g id="edge4" class="edge">
<title>11&#45;&gt;0</title>
<path fill="none" stroke="grey" stroke-width="2" d="M438.16,-81.77C485.62,-69.14 583.72,-43.03 637.23,-28.79"/>
<polygon fill="grey" stroke="grey" stroke-width="2" points="638.23,-32.14 646.99,-26.19 636.43,-25.38 638.23,-32.14"/>
</g>
<!-- 12&#45;&gt;11 -->
<g id="edge25" class="edge">
<title>12&#45;&gt;11</title>
<path fill="none" stroke="grey" stroke-width="2" d="M395.19,-143.7C397.53,-135.9 400.35,-126.51 402.95,-117.83"/>
<polygon fill="grey" stroke="grey" stroke-width="2" points="406.35,-118.69 405.87,-108.1 399.64,-116.68 406.35,-118.69"/>
</g>
<!-- 13 -->
<g id="node14" class="node">
<title>13</title>
<path fill="none" stroke="#d8ac56" stroke-width="2" d="M540,-108C540,-108 510,-108 510,-108 504,-108 498,-102 498,-96 498,-96 498,-84 498,-84 498,-78 504,-72 510,-72 510,-72 540,-72 540,-72 546,-72 552,-78 552,-84 552,-84 552,-96 552,-96 552,-102 546,-108 540,-108"/>
<text text-anchor="middle" x="525" y="-87.5" font-family="sans" font-size="10.00">troll</text>
</g>
<!-- 13&#45;&gt;0 -->
<g id="edge5" class="edge">
<title>13&#45;&gt;0</title>
<path fill="none" stroke="grey" stroke-width="2" d="M552.33,-76.16C576.27,-64.91 611.26,-48.48 637.58,-36.11"/>
<polygon fill="grey" stroke="grey" stroke-width="2" points="639.28,-39.18 646.84,-31.76 636.31,-32.84 639.28,-39.18"/>
</g>
<!-- 14&#45;&gt;13 -->
<g id="edge28" class="edge">
<title>14&#45;&gt;13</title>
<path fill="none" stroke="grey" stroke-width="2" d="M509.19,-143.7C511.53,-135.9 514.35,-126.51 516.95,-117.83"/>
<polygon fill="grey" stroke="grey" stroke-width="2" points="520.35,-118.69 519.87,-108.1 513.64,-116.68 520.35,-118.69"/>
</g>
<!-- 15&#45;&gt;14 -->
<g id="edge29" class="edge">
<title>15&#45;&gt;14</title>
<path fill="none" stroke="grey" stroke-width="2" d="M541.79,-215.69C535.77,-207.3 528.69,-197.42 522.29,-188.5"/>
<polygon fill="grey" stroke="grey" stroke-width="2" points="525.09,-186.41 516.42,-180.32 519.41,-190.49 525.09,-186.41"/>
</g>
<!-- 15&#45;&gt;17 -->
<g id="edge33" class="edge">
<title>15&#45;&gt;17</title>
<path fill="none" stroke="grey" stroke-width="2" d="M572.94,-215.69C580.26,-207.13 588.91,-197.02 596.66,-187.95"/>
<polygon fill="grey" stroke="grey" stroke-width="2" points="599.35,-190.19 603.19,-180.32 594.03,-185.64 599.35,-190.19"/>
</g>
<!-- 16 -->
<g id="node17" class="node">
<title>16</title>
<path fill="none" stroke="#d8ac56" stroke-width="2" d="M643,-108C643,-108 613,-108 613,-108 607,-108 601,-102 601,-96 601,-96 601,-84 601,-84 601,-78 607,-72 613,-72 613,-72 643,-72 643,-72 649,-72 655,-78 655,-84 655,-84 655,-96 655,-96 655,-102 649,-108 643,-108"/>
<text text-anchor="middle" x="628" y="-87.5" font-family="sans" font-size="10.00">troll</text>
</g>
<!-- 16&#45;&gt;0 -->
<g id="edge6" class="edge">
<title>16&#45;&gt;0</title>
<path fill="none" stroke="grey" stroke-width="2" d="M639.37,-71.7C644.72,-63.56 651.2,-53.69 657.11,-44.7"/>
<polygon fill="grey" stroke="grey" stroke-width="2" points="660.19,-46.38 662.76,-36.1 654.34,-42.54 660.19,-46.38"/>
</g>
<!-- 17&#45;&gt;16 -->
<g id="edge32" class="edge">
<title>17&#45;&gt;16</title>
<path fill="none" stroke="grey" stroke-width="2" d="M620.47,-143.7C621.57,-135.98 622.9,-126.71 624.13,-118.11"/>
<polygon fill="grey" stroke="grey" stroke-width="2" points="627.61,-118.5 625.56,-108.1 620.68,-117.51 627.61,-118.5"/>
</g>
<!-- 18 -->
<g id="node19" class="node">
<title>18</title>
<path fill="none" stroke="#d8ac56" stroke-width="2" d="M736,-108C736,-108 706,-108 706,-108 700,-108 694,-102 694,-96 694,-96 694,-84 694,-84 694,-78 700,-72 706,-72 706,-72 736,-72 736,-72 742,-72 748,-78 748,-84 748,-84 748,-96 748,-96 748,-102 742,-108 736,-108"/>
<text text-anchor="middle" x="721" y="-87.5" font-family="sans" font-size="10.00">troll</text>
</g>
<!-- 18&#45;&gt;0 -->
<g id="edge7" class="edge">
<title>18&#45;&gt;0</title>
<path fill="none" stroke="grey" stroke-width="2" d="M709.38,-71.7C703.86,-63.47 697.15,-53.48 691.07,-44.42"/>
<polygon fill="grey" stroke="grey" stroke-width="2" points="693.96,-42.46 685.48,-36.1 688.15,-46.36 693.96,-42.46"/>
</g>
<!-- 19&#45;&gt;18 -->
<g id="edge35" class="edge">
<title>19&#45;&gt;18</title>
<path fill="none" stroke="grey" stroke-width="2" d="M729.28,-143.7C728.07,-135.98 726.61,-126.71 725.26,-118.11"/>
<polygon fill="grey" stroke="grey" stroke-width="2" points="728.7,-117.44 723.69,-108.1 721.78,-118.53 728.7,-117.44"/>
</g>
<!-- 20&#45;&gt;19 -->
<g id="edge36" class="edge">
<title>20&#45;&gt;19</title>
<path fill="none" stroke="grey" stroke-width="2" d="M782.87,-215.69C774.52,-207.04 764.65,-196.81 755.83,-187.68"/>
<polygon fill="grey" stroke="grey" stroke-width="2" points="758.19,-185.08 748.72,-180.32 753.15,-189.94 758.19,-185.08"/>
</g>
<!-- 20&#45;&gt;22 -->
<g id="edge40" class="edge">
<title>20&#45;&gt;22</title>
<path fill="none" stroke="grey" stroke-width="2" d="M814.02,-215.69C819.01,-207.47 824.86,-197.83 830.19,-189.05"/>
<polygon fill="grey" stroke="grey" stroke-width="2" points="833.29,-190.68 835.49,-180.32 827.31,-187.05 833.29,-190.68"/>
</g>
<!-- 21 -->
<g id="node22" class="node">
<title>21</title>
<path fill="none" stroke="#d8ac56" stroke-width="2" d="M839,-108C839,-108 809,-108 809,-108 803,-108 797,-102 797,-96 797,-96 797,-84 797,-84 797,-78 803,-72 809,-72 809,-72 839,-72 839,-72 845,-72 851,-78 851,-84 851,-84 851,-96 851,-96 851,-102 845,-108 839,-108"/>
<text text-anchor="middle" x="824" y="-87.5" font-family="sans" font-size="10.00">troll</text>
</g>
<!-- 21&#45;&gt;0 -->
<g id="edge8" class="edge">
<title>21&#45;&gt;0</title>
<path fill="none" stroke="grey" stroke-width="2" d="M796.84,-76.32C772.7,-65.06 737.22,-48.5 710.59,-36.07"/>
<polygon fill="grey" stroke="grey" stroke-width="2" points="711.76,-32.76 701.21,-31.7 708.8,-39.1 711.76,-32.76"/>
</g>
<!-- 22&#45;&gt;21 -->
<g id="edge39" class="edge">
<title>22&#45;&gt;21</title>
<path fill="none" stroke="grey" stroke-width="2" d="M840.56,-143.7C838.11,-135.9 835.16,-126.51 832.43,-117.83"/>
<polygon fill="grey" stroke="grey" stroke-width="2" points="835.71,-116.59 829.38,-108.1 829.04,-118.69 835.71,-116.59"/>
</g>
<!-- 23 -->
<g id="node24" class="node">
<title>23</title>
<path fill="none" stroke="#d8ac56" stroke-width="2" d="M948,-108C948,-108 918,-108 918,-108 912,-108 906,-102 906,-96 906,-96 906,-84 906,-84 906,-78 912,-72 918,-72 918,-72 948,-72 948,-72 954,-72 960,-78 960,-84 960,-84 960,-96 960,-96 960,-102 954,-108 948,-108"/>
<text text-anchor="middle" x="933" y="-87.5" font-family="sans" font-size="10.00">troll</text>
</g>
<!-- 23&#45;&gt;0 -->
<g id="edge9" class="edge">
<title>23&#45;&gt;0</title>
<path fill="none" stroke="grey" stroke-width="2" d="M905.77,-81.64C859.14,-69.04 763.92,-43.3 711.2,-29.05"/>
<polygon fill="grey" stroke="grey" stroke-width="2" points="711.82,-25.6 701.25,-26.37 709.99,-32.35 711.82,-25.6"/>
</g>
<!-- 24&#45;&gt;23 -->
<g id="edge42" class="edge">
<title>24&#45;&gt;23</title>
<path fill="none" stroke="grey" stroke-width="2" d="M953.33,-143.7C950.29,-135.81 946.62,-126.3 943.24,-117.55"/>
<polygon fill="grey" stroke="grey" stroke-width="2" points="946.46,-116.17 939.6,-108.1 939.93,-118.69 946.46,-116.17"/>
</g>
<!-- 25&#45;&gt;24 -->
<g id="edge43" class="edge">
<title>25&#45;&gt;24</title>
<path fill="none" stroke="grey" stroke-width="2" d="M960,-215.69C960,-207.91 960,-198.84 960,-190.45"/>
<polygon fill="grey" stroke="grey" stroke-width="2" points="963.5,-190.32 960,-180.32 956.5,-190.32 963.5,-190.32"/>
</g>
<!-- 25&#45;&gt;27 -->
<g id="edge47" class="edge">
<title>25&#45;&gt;27</title>
<path fill="none" stroke="grey" stroke-width="2" d="M990.85,-215.88C1005.51,-206.56 1023.12,-195.36 1038.35,-185.67"/>
<polygon fill="grey" stroke="grey" stroke-width="2" points="1040.45,-188.49 1047.01,-180.17 1036.69,-182.58 1040.45,-188.49"/>
</g>
<!-- 26 -->
<g id="node27" class="node">
<title>26</title>
<path fill="none" stroke="#d8ac56" stroke-width="2" d="M1059,-108C1059,-108 1029,-108 1029,-108 1023,-108 1017,-102 1017,-96 1017,-96 1017,-84 1017,-84 1017,-78 1023,-72 1029,-72 1029,-72 1059,-72 1059,-72 1065,-72 1071,-78 1071,-84 1071,-84 1071,-96 1071,-96 1071,-102 1065,-108 1059,-108"/>
<text text-anchor="middle" x="1044" y="-87.5" font-family="sans" font-size="10.00">troll</text>
</g>
<!-- 26&#45;&gt;0 -->
<g id="edge10" class="edge">
<title>26&#45;&gt;0</title>
<path fill="none" stroke="grey" stroke-width="2" d="M1016.99,-82.57C1002.74,-79.25 984.96,-75.24 969,-72 876.78,-53.27 767.64,-34.56 711.5,-25.18"/>
<polygon fill="grey" stroke="grey" stroke-width="2" points="711.77,-21.68 701.33,-23.49 710.62,-28.58 711.77,-21.68"/>
</g>
<!-- 27&#45;&gt;26 -->
<g id="edge46" class="edge">
<title>27&#45;&gt;26</title>
<path fill="none" stroke="grey" stroke-width="2" d="M1066.58,-143.7C1063.21,-135.81 1059.13,-126.3 1055.38,-117.55"/>
<polygon fill="grey" stroke="grey" stroke-width="2" points="1058.49,-115.92 1051.33,-108.1 1052.05,-118.67 1058.49,-115.92"/>
</g>
<!-- 28 -->
<g id="node29" class="node">
<title>28</title>
<path fill="none" stroke="#d8ac56" stroke-width="2" d="M1172,-108C1172,-108 1142,-108 1142,-108 1136,-108 1130,-102 1130,-96 1130,-96 1130,-84 1130,-84 1130,-78 1136,-72 1142,-72 1142,-72 1172,-72 1172,-72 1178,-72 1184,-78 1184,-84 1184,-84 1184,-96 1184,-96 1184,-102 1178,-108 1172,-108"/>
<text text-anchor="middle" x="1157" y="-87.5" font-family="sans" font-size="10.00">troll</text>
</g>
<!-- 28&#45;&gt;0 -->
<g id="edge11" class="edge">
<title>28&#45;&gt;0</title>
<path fill="none" stroke="grey" stroke-width="2" d="M1129.68,-82.36C1115.01,-78.95 1096.59,-74.91 1080,-72 945.14,-48.36 783.38,-30.29 711.54,-22.79"/>
<polygon fill="grey" stroke="grey" stroke-width="2" points="711.51,-19.27 701.21,-21.72 710.79,-26.23 711.51,-19.27"/>
</g>
<!-- 29&#45;&gt;28 -->
<g id="edge49" class="edge">
<title>29&#45;&gt;28</title>
<path fill="none" stroke="grey" stroke-width="2" d="M1180.34,-143.7C1176.81,-135.73 1172.54,-126.1 1168.63,-117.26"/>
<polygon fill="grey" stroke="grey" stroke-width="2" points="1171.82,-115.83 1164.57,-108.1 1165.42,-118.67 1171.82,-115.83"/>
</g>
<!-- 30&#45;&gt;29 -->
<g id="edge50" class="edge">
<title>30&#45;&gt;29</title>
<path fill="none" stroke="grey" stroke-width="2" d="M1188,-215.69C1188,-207.91 1188,-198.84 1188,-190.45"/>
<polygon fill="grey" stroke="grey" stroke-width="2" points="1191.5,-190.32 1188,-180.32 1184.5,-190.32 1191.5,-190.32"/>
</g>
<!-- 30&#45;&gt;32 -->
<g id="edge54" class="edge">
<title>30&#45;&gt;32</title>
<path fill="none" stroke="grey" stroke-width="2" d="M1218.85,-215.88C1233.51,-206.56 1251.12,-195.36 1266.35,-185.67"/>
<polygon fill="grey" stroke="grey" stroke-width="2" points="1268.45,-188.49 1275.01,-180.17 1264.69,-182.58 1268.45,-188.49"/>
</g>
<!-- 31 -->
<g id="node32" class="node">
<title>31</title>
<path fill="none" stroke="#d8ac56" stroke-width="2" d="M1285,-108C1285,-108 1255,-108 1255,-108 1249,-108 1243,-102 1243,-96 1243,-96 1243,-84 1243,-84 1243,-78 1249,-72 1255,-72 1255,-72 1285,-72 1285,-72 1291,-72 1297,-78 1297,-84 1297,-84 1297,-96 1297,-96 1297,-102 1291,-108 1285,-108"/>
<text text-anchor="middle" x="1270" y="-87.5" font-family="sans" font-size="10.00">troll</text>
</g>
<!-- 31&#45;&gt;0 -->
<g id="edge12" class="edge">
<title>31&#45;&gt;0</title>
<path fill="none" stroke="grey" stroke-width="2" d="M1242.71,-82.17C1228.05,-78.7 1209.62,-74.67 1193,-72 1013.59,-43.13 796.62,-26.96 711.15,-21.31"/>
<polygon fill="grey" stroke="grey" stroke-width="2" points="711.37,-17.82 701.16,-20.66 710.91,-24.81 711.37,-17.82"/>
</g>
<!-- 32&#45;&gt;31 -->
<g id="edge53" class="edge">
<title>32&#45;&gt;31</title>
<path fill="none" stroke="grey" stroke-width="2" d="M1294.09,-143.7C1290.45,-135.73 1286.05,-126.1 1282.01,-117.26"/>
<polygon fill="grey" stroke="grey" stroke-width="2" points="1285.16,-115.74 1277.82,-108.1 1278.79,-118.65 1285.16,-115.74"/>
</g>
</g>
</svg>
