<?xml version="1.0" encoding="UTF-8" standalone="no"?>
<!DOCTYPE svg PUBLIC "-//W3C//DTD SVG 1.1//EN"
 "http://www.w3.org/Graphics/SVG/1.1/DTD/svg11.dtd">
<!-- Generated by graphviz version 2.43.0 (0)
 -->
<!-- Title: snakemake_dag Pages: 1 -->
<svg width="1036pt" height="553pt"
 viewBox="0.00 0.00 1035.50 553.00" xmlns="http://www.w3.org/2000/svg" xmlns:xlink="http://www.w3.org/1999/xlink">
<g id="graph0" class="graph" transform="scale(1 1) rotate(0) translate(4 549)">
<title>snakemake_dag</title>
<polygon fill="white" stroke="transparent" points="-4,4 -4,-549 1031.5,-549 1031.5,4 -4,4"/>
<!-- 0 -->
<g id="node1" class="node">
<title>0</title>
<path fill="none" stroke="#59d856" stroke-width="2" d="M450,-36C450,-36 420,-36 420,-36 414,-36 408,-30 408,-24 408,-24 408,-12 408,-12 408,-6 414,0 420,0 420,0 450,0 450,0 456,0 462,-6 462,-12 462,-12 462,-24 462,-24 462,-30 456,-36 450,-36"/>
<text text-anchor="middle" x="435" y="-15.5" font-family="sans" font-size="10.00">all</text>
</g>
<!-- 1 -->
<g id="node2" class="node">
<title>1</title>
<path fill="none" stroke="#d6d856" stroke-width="2" d="M409,-108C409,-108 309,-108 309,-108 303,-108 297,-102 297,-96 297,-96 297,-84 297,-84 297,-78 303,-72 309,-72 309,-72 409,-72 409,-72 415,-72 421,-78 421,-84 421,-84 421,-96 421,-96 421,-102 415,-108 409,-108"/>
<text text-anchor="middle" x="359" y="-87.5" font-family="sans" font-size="10.00">gather_period_current</text>
</g>
<!-- 1&#45;&gt;0 -->
<g id="edge1" class="edge">
<title>1&#45;&gt;0</title>
<path fill="none" stroke="grey" stroke-width="2" d="M377.79,-71.7C387.17,-63.05 398.68,-52.45 408.91,-43.03"/>
<polygon fill="grey" stroke="grey" stroke-width="2" points="411.45,-45.45 416.43,-36.1 406.7,-40.3 411.45,-45.45"/>
</g>
<!-- 2 -->
<g id="node3" class="node">
<title>2</title>
<path fill="none" stroke="#afd856" stroke-width="2" d="M172,-180C172,-180 56,-180 56,-180 50,-180 44,-174 44,-168 44,-168 44,-156 44,-156 44,-150 50,-144 56,-144 56,-144 172,-144 172,-144 178,-144 184,-150 184,-156 184,-156 184,-168 184,-168 184,-174 178,-180 172,-180"/>
<text text-anchor="middle" x="114" y="-159.5" font-family="sans" font-size="10.00">gather_repetition_current</text>
</g>
<!-- 2&#45;&gt;1 -->
<g id="edge3" class="edge">
<title>2&#45;&gt;1</title>
<path fill="none" stroke="grey" stroke-width="2" d="M173.62,-143.97C208.45,-134.01 252.58,-121.41 289.04,-110.99"/>
<polygon fill="grey" stroke="grey" stroke-width="2" points="290.46,-114.22 299.11,-108.11 288.54,-107.49 290.46,-114.22"/>
</g>
<!-- 3 -->
<g id="node4" class="node">
<title>3</title>
<path fill="none" stroke="#56d882" stroke-width="2" d="M129.5,-324C129.5,-324 84.5,-324 84.5,-324 78.5,-324 72.5,-318 72.5,-312 72.5,-312 72.5,-300 72.5,-300 72.5,-294 78.5,-288 84.5,-288 84.5,-288 129.5,-288 129.5,-288 135.5,-288 141.5,-294 141.5,-300 141.5,-300 141.5,-312 141.5,-312 141.5,-318 135.5,-324 129.5,-324"/>
<text text-anchor="middle" x="107" y="-309" font-family="sans" font-size="10.00">troll_warm</text>
<text text-anchor="middle" x="107" y="-298" font-family="sans" font-size="10.00">rep: 1</text>
</g>
<!-- 3&#45;&gt;2 -->
<g id="edge6" class="edge">
<title>3&#45;&gt;2</title>
<path fill="none" stroke="grey" stroke-width="2" d="M107.84,-287.87C109.04,-263.67 111.23,-219.21 112.65,-190.39"/>
<polygon fill="grey" stroke="grey" stroke-width="2" points="116.16,-190.35 113.15,-180.19 109.16,-190 116.16,-190.35"/>
</g>
<!-- 7 -->
<g id="node8" class="node">
<title>7</title>
<path fill="none" stroke="#56d8a9" stroke-width="2" d="M74,-252C74,-252 12,-252 12,-252 6,-252 0,-246 0,-240 0,-240 0,-228 0,-228 0,-222 6,-216 12,-216 12,-216 74,-216 74,-216 80,-216 86,-222 86,-228 86,-228 86,-240 86,-240 86,-246 80,-252 74,-252"/>
<text text-anchor="middle" x="43" y="-237" font-family="sans" font-size="10.00">troll_exp</text>
<text text-anchor="middle" x="43" y="-226" font-family="sans" font-size="10.00">exp: historical</text>
</g>
<!-- 3&#45;&gt;7 -->
<g id="edge13" class="edge">
<title>3&#45;&gt;7</title>
<path fill="none" stroke="grey" stroke-width="2" d="M91.18,-287.7C83.43,-279.22 73.96,-268.86 65.48,-259.58"/>
<polygon fill="grey" stroke="grey" stroke-width="2" points="67.97,-257.12 58.64,-252.1 62.8,-261.85 67.97,-257.12"/>
</g>
<!-- 4 -->
<g id="node5" class="node">
<title>4</title>
<path fill="none" stroke="#5682d8" stroke-width="2" d="M145.5,-396C145.5,-396 68.5,-396 68.5,-396 62.5,-396 56.5,-390 56.5,-384 56.5,-384 56.5,-372 56.5,-372 56.5,-366 62.5,-360 68.5,-360 68.5,-360 145.5,-360 145.5,-360 151.5,-360 157.5,-366 157.5,-372 157.5,-372 157.5,-384 157.5,-384 157.5,-390 151.5,-396 145.5,-396"/>
<text text-anchor="middle" x="107" y="-381" font-family="sans" font-size="10.00">sample_climate</text>
<text text-anchor="middle" x="107" y="-370" font-family="sans" font-size="10.00">climate: guyaflux</text>
</g>
<!-- 4&#45;&gt;3 -->
<g id="edge8" class="edge">
<title>4&#45;&gt;3</title>
<path fill="none" stroke="grey" stroke-width="2" d="M107,-359.7C107,-351.98 107,-342.71 107,-334.11"/>
<polygon fill="grey" stroke="grey" stroke-width="2" points="110.5,-334.1 107,-324.1 103.5,-334.1 110.5,-334.1"/>
</g>
<!-- 5 -->
<g id="node6" class="node">
<title>5</title>
<path fill="none" stroke="#56d8d8" stroke-width="2" d="M190.5,-545C190.5,-545 113.5,-545 113.5,-545 107.5,-545 101.5,-539 101.5,-533 101.5,-533 101.5,-521 101.5,-521 101.5,-515 107.5,-509 113.5,-509 113.5,-509 190.5,-509 190.5,-509 196.5,-509 202.5,-515 202.5,-521 202.5,-521 202.5,-533 202.5,-533 202.5,-539 196.5,-545 190.5,-545"/>
<text text-anchor="middle" x="152" y="-524.5" font-family="sans" font-size="10.00">prepare_guyaflux</text>
</g>
<!-- 5&#45;&gt;4 -->
<g id="edge9" class="edge">
<title>5&#45;&gt;4</title>
<path fill="none" stroke="grey" stroke-width="2" d="M143.53,-508.64C138.78,-498.44 133.03,-485.19 129,-473 121.7,-450.95 115.86,-425.23 112.03,-406.27"/>
<polygon fill="grey" stroke="grey" stroke-width="2" points="115.42,-405.38 110.07,-396.24 108.55,-406.72 115.42,-405.38"/>
</g>
<!-- 6 -->
<g id="node7" class="node">
<title>6</title>
<path fill="none" stroke="#80d856" stroke-width="2" d="M222,-473C222,-473 150,-473 150,-473 144,-473 138,-467 138,-461 138,-461 138,-444 138,-444 138,-438 144,-432 150,-432 150,-432 222,-432 222,-432 228,-432 234,-438 234,-444 234,-444 234,-461 234,-461 234,-467 228,-473 222,-473"/>
<text text-anchor="middle" x="186" y="-461" font-family="sans" font-size="10.00">select_years</text>
<text text-anchor="middle" x="186" y="-450" font-family="sans" font-size="10.00">period: 10&#45;years</text>
<text text-anchor="middle" x="186" y="-439" font-family="sans" font-size="10.00">type: current</text>
</g>
<!-- 5&#45;&gt;6 -->
<g id="edge11" class="edge">
<title>5&#45;&gt;6</title>
<path fill="none" stroke="grey" stroke-width="2" d="M160.06,-508.82C163.79,-500.86 168.32,-491.19 172.55,-482.18"/>
<polygon fill="grey" stroke="grey" stroke-width="2" points="175.72,-483.66 176.8,-473.12 169.38,-480.69 175.72,-483.66"/>
</g>
<!-- 5&#45;&gt;7 -->
<g id="edge12" class="edge">
<title>5&#45;&gt;7</title>
<path fill="none" stroke="grey" stroke-width="2" d="M131.5,-508.72C106.18,-485.92 64.31,-443.11 47,-396 30.63,-351.44 34.21,-295.16 38.49,-262.31"/>
<polygon fill="grey" stroke="grey" stroke-width="2" points="41.99,-262.51 39.93,-252.12 35.06,-261.53 41.99,-262.51"/>
</g>
<!-- 22 -->
<g id="node23" class="node">
<title>22</title>
<path fill="none" stroke="#80d856" stroke-width="2" d="M913,-473C913,-473 839,-473 839,-473 833,-473 827,-467 827,-461 827,-461 827,-444 827,-444 827,-438 833,-432 839,-432 839,-432 913,-432 913,-432 919,-432 925,-438 925,-444 925,-444 925,-461 925,-461 925,-467 919,-473 913,-473"/>
<text text-anchor="middle" x="876" y="-461" font-family="sans" font-size="10.00">select_years</text>
<text text-anchor="middle" x="876" y="-450" font-family="sans" font-size="10.00">period: full</text>
<text text-anchor="middle" x="876" y="-439" font-family="sans" font-size="10.00">type: projections</text>
</g>
<!-- 5&#45;&gt;22 -->
<g id="edge36" class="edge">
<title>5&#45;&gt;22</title>
<path fill="none" stroke="grey" stroke-width="2" d="M202.68,-522.17C303.84,-514.35 537.93,-495.38 734,-473 761.16,-469.9 791.16,-465.87 816.56,-462.28"/>
<polygon fill="grey" stroke="grey" stroke-width="2" points="817.38,-465.7 826.78,-460.82 816.39,-458.77 817.38,-465.7"/>
</g>
<!-- 6&#45;&gt;4 -->
<g id="edge10" class="edge">
<title>6&#45;&gt;4</title>
<path fill="none" stroke="grey" stroke-width="2" d="M164.41,-431.69C154.73,-422.8 143.22,-412.24 133.06,-402.92"/>
<polygon fill="grey" stroke="grey" stroke-width="2" points="135.34,-400.26 125.61,-396.08 130.61,-405.42 135.34,-400.26"/>
</g>
<!-- 10 -->
<g id="node11" class="node">
<title>10</title>
<path fill="none" stroke="#5682d8" stroke-width="2" d="M258.5,-396C258.5,-396 187.5,-396 187.5,-396 181.5,-396 175.5,-390 175.5,-384 175.5,-384 175.5,-372 175.5,-372 175.5,-366 181.5,-360 187.5,-360 187.5,-360 258.5,-360 258.5,-360 264.5,-360 270.5,-366 270.5,-372 270.5,-372 270.5,-384 270.5,-384 270.5,-390 264.5,-396 258.5,-396"/>
<text text-anchor="middle" x="223" y="-381" font-family="sans" font-size="10.00">sample_climate</text>
<text text-anchor="middle" x="223" y="-370" font-family="sans" font-size="10.00">climate: era</text>
</g>
<!-- 6&#45;&gt;10 -->
<g id="edge18" class="edge">
<title>6&#45;&gt;10</title>
<path fill="none" stroke="grey" stroke-width="2" d="M196.11,-431.69C200.26,-423.56 205.12,-414.03 209.56,-405.33"/>
<polygon fill="grey" stroke="grey" stroke-width="2" points="212.73,-406.82 214.16,-396.32 206.5,-403.64 212.73,-406.82"/>
</g>
<!-- 15 -->
<g id="node16" class="node">
<title>15</title>
<path fill="none" stroke="#5682d8" stroke-width="2" d="M552.5,-396C552.5,-396 339.5,-396 339.5,-396 333.5,-396 327.5,-390 327.5,-384 327.5,-384 327.5,-372 327.5,-372 327.5,-366 333.5,-360 339.5,-360 339.5,-360 552.5,-360 552.5,-360 558.5,-360 564.5,-366 564.5,-372 564.5,-372 564.5,-384 564.5,-384 564.5,-390 558.5,-396 552.5,-396"/>
<text text-anchor="middle" x="446" y="-381" font-family="sans" font-size="10.00">sample_climate</text>
<text text-anchor="middle" x="446" y="-370" font-family="sans" font-size="10.00">climate: MPI&#45;M&#45;MPI&#45;ESM&#45;MR_ICTP&#45;RegCM4&#45;7</text>
</g>
<!-- 6&#45;&gt;15 -->
<g id="edge25" class="edge">
<title>6&#45;&gt;15</title>
<path fill="none" stroke="grey" stroke-width="2" d="M234.07,-435.62C238.1,-434.37 242.11,-433.15 246,-432 286.01,-420.21 330.87,-408.21 367.96,-398.62"/>
<polygon fill="grey" stroke="grey" stroke-width="2" points="368.89,-401.99 377.7,-396.1 367.15,-395.21 368.89,-401.99"/>
</g>
<!-- 7&#45;&gt;2 -->
<g id="edge7" class="edge">
<title>7&#45;&gt;2</title>
<path fill="none" stroke="grey" stroke-width="2" d="M60.55,-215.7C69.23,-207.14 79.86,-196.66 89.35,-187.3"/>
<polygon fill="grey" stroke="grey" stroke-width="2" points="91.99,-189.62 96.65,-180.1 87.07,-184.63 91.99,-189.62"/>
</g>
<!-- 8 -->
<g id="node9" class="node">
<title>8</title>
<path fill="none" stroke="#afd856" stroke-width="2" d="M338,-180C338,-180 222,-180 222,-180 216,-180 210,-174 210,-168 210,-168 210,-156 210,-156 210,-150 216,-144 222,-144 222,-144 338,-144 338,-144 344,-144 350,-150 350,-156 350,-156 350,-168 350,-168 350,-174 344,-180 338,-180"/>
<text text-anchor="middle" x="280" y="-159.5" font-family="sans" font-size="10.00">gather_repetition_current</text>
</g>
<!-- 8&#45;&gt;1 -->
<g id="edge4" class="edge">
<title>8&#45;&gt;1</title>
<path fill="none" stroke="grey" stroke-width="2" d="M299.53,-143.7C309.38,-134.97 321.49,-124.24 332.2,-114.75"/>
<polygon fill="grey" stroke="grey" stroke-width="2" points="334.53,-117.36 339.7,-108.1 329.89,-112.12 334.53,-117.36"/>
</g>
<!-- 9 -->
<g id="node10" class="node">
<title>9</title>
<path fill="none" stroke="#56d882" stroke-width="2" d="M248.5,-324C248.5,-324 203.5,-324 203.5,-324 197.5,-324 191.5,-318 191.5,-312 191.5,-312 191.5,-300 191.5,-300 191.5,-294 197.5,-288 203.5,-288 203.5,-288 248.5,-288 248.5,-288 254.5,-288 260.5,-294 260.5,-300 260.5,-300 260.5,-312 260.5,-312 260.5,-318 254.5,-324 248.5,-324"/>
<text text-anchor="middle" x="226" y="-309" font-family="sans" font-size="10.00">troll_warm</text>
<text text-anchor="middle" x="226" y="-298" font-family="sans" font-size="10.00">rep: 1</text>
</g>
<!-- 9&#45;&gt;8 -->
<g id="edge14" class="edge">
<title>9&#45;&gt;8</title>
<path fill="none" stroke="grey" stroke-width="2" d="M227.76,-287.7C230.06,-269.34 235.04,-239.75 245,-216 248.99,-206.49 254.73,-196.86 260.42,-188.46"/>
<polygon fill="grey" stroke="grey" stroke-width="2" points="263.33,-190.4 266.25,-180.21 257.62,-186.36 263.33,-190.4"/>
</g>
<!-- 12 -->
<g id="node13" class="node">
<title>12</title>
<path fill="none" stroke="#56d8a9" stroke-width="2" d="M328,-252C328,-252 266,-252 266,-252 260,-252 254,-246 254,-240 254,-240 254,-228 254,-228 254,-222 260,-216 266,-216 266,-216 328,-216 328,-216 334,-216 340,-222 340,-228 340,-228 340,-240 340,-240 340,-246 334,-252 328,-252"/>
<text text-anchor="middle" x="297" y="-237" font-family="sans" font-size="10.00">troll_exp</text>
<text text-anchor="middle" x="297" y="-226" font-family="sans" font-size="10.00">exp: historical</text>
</g>
<!-- 9&#45;&gt;12 -->
<g id="edge20" class="edge">
<title>9&#45;&gt;12</title>
<path fill="none" stroke="grey" stroke-width="2" d="M243.55,-287.7C252.23,-279.14 262.86,-268.66 272.35,-259.3"/>
<polygon fill="grey" stroke="grey" stroke-width="2" points="274.99,-261.62 279.65,-252.1 270.07,-256.63 274.99,-261.62"/>
</g>
<!-- 10&#45;&gt;9 -->
<g id="edge16" class="edge">
<title>10&#45;&gt;9</title>
<path fill="none" stroke="grey" stroke-width="2" d="M223.74,-359.7C224.07,-351.98 224.47,-342.71 224.84,-334.11"/>
<polygon fill="grey" stroke="grey" stroke-width="2" points="228.34,-334.25 225.27,-324.1 221.34,-333.95 228.34,-334.25"/>
</g>
<!-- 11 -->
<g id="node12" class="node">
<title>11</title>
<path fill="none" stroke="#56a9d8" stroke-width="2" d="M318.5,-470.5C318.5,-470.5 267.5,-470.5 267.5,-470.5 261.5,-470.5 255.5,-464.5 255.5,-458.5 255.5,-458.5 255.5,-446.5 255.5,-446.5 255.5,-440.5 261.5,-434.5 267.5,-434.5 267.5,-434.5 318.5,-434.5 318.5,-434.5 324.5,-434.5 330.5,-440.5 330.5,-446.5 330.5,-446.5 330.5,-458.5 330.5,-458.5 330.5,-464.5 324.5,-470.5 318.5,-470.5"/>
<text text-anchor="middle" x="293" y="-450" font-family="sans" font-size="10.00">prepare_era</text>
</g>
<!-- 11&#45;&gt;10 -->
<g id="edge17" class="edge">
<title>11&#45;&gt;10</title>
<path fill="none" stroke="grey" stroke-width="2" d="M276.41,-434.32C267.52,-425.11 256.41,-413.6 246.63,-403.47"/>
<polygon fill="grey" stroke="grey" stroke-width="2" points="248.93,-400.82 239.47,-396.06 243.9,-405.68 248.93,-400.82"/>
</g>
<!-- 11&#45;&gt;12 -->
<g id="edge19" class="edge">
<title>11&#45;&gt;12</title>
<path fill="none" stroke="grey" stroke-width="2" d="M293.32,-434.15C294.01,-396.61 295.66,-307.58 296.49,-262.37"/>
<polygon fill="grey" stroke="grey" stroke-width="2" points="300,-262.2 296.68,-252.13 293,-262.07 300,-262.2"/>
</g>
<!-- 12&#45;&gt;8 -->
<g id="edge15" class="edge">
<title>12&#45;&gt;8</title>
<path fill="none" stroke="grey" stroke-width="2" d="M292.8,-215.7C290.9,-207.9 288.62,-198.51 286.52,-189.83"/>
<polygon fill="grey" stroke="grey" stroke-width="2" points="289.92,-189 284.15,-180.1 283.11,-190.65 289.92,-189"/>
</g>
<!-- 13 -->
<g id="node14" class="node">
<title>13</title>
<path fill="none" stroke="#afd856" stroke-width="2" d="M496,-180C496,-180 380,-180 380,-180 374,-180 368,-174 368,-168 368,-168 368,-156 368,-156 368,-150 374,-144 380,-144 380,-144 496,-144 496,-144 502,-144 508,-150 508,-156 508,-156 508,-168 508,-168 508,-174 502,-180 496,-180"/>
<text text-anchor="middle" x="438" y="-159.5" font-family="sans" font-size="10.00">gather_repetition_current</text>
</g>
<!-- 13&#45;&gt;1 -->
<g id="edge5" class="edge">
<title>13&#45;&gt;1</title>
<path fill="none" stroke="grey" stroke-width="2" d="M418.47,-143.7C408.62,-134.97 396.51,-124.24 385.8,-114.75"/>
<polygon fill="grey" stroke="grey" stroke-width="2" points="388.11,-112.12 378.3,-108.1 383.47,-117.36 388.11,-112.12"/>
</g>
<!-- 14 -->
<g id="node15" class="node">
<title>14</title>
<path fill="none" stroke="#56d882" stroke-width="2" d="M468.5,-324C468.5,-324 423.5,-324 423.5,-324 417.5,-324 411.5,-318 411.5,-312 411.5,-312 411.5,-300 411.5,-300 411.5,-294 417.5,-288 423.5,-288 423.5,-288 468.5,-288 468.5,-288 474.5,-288 480.5,-294 480.5,-300 480.5,-300 480.5,-312 480.5,-312 480.5,-318 474.5,-324 468.5,-324"/>
<text text-anchor="middle" x="446" y="-309" font-family="sans" font-size="10.00">troll_warm</text>
<text text-anchor="middle" x="446" y="-298" font-family="sans" font-size="10.00">rep: 1</text>
</g>
<!-- 14&#45;&gt;13 -->
<g id="edge21" class="edge">
<title>14&#45;&gt;13</title>
<path fill="none" stroke="grey" stroke-width="2" d="M442.35,-287.91C440.32,-277.57 438.02,-264.09 437,-252 435.26,-231.34 435.62,-207.89 436.35,-190.25"/>
<polygon fill="grey" stroke="grey" stroke-width="2" points="439.86,-190.25 436.84,-180.1 432.86,-189.92 439.86,-190.25"/>
</g>
<!-- 17 -->
<g id="node18" class="node">
<title>17</title>
<path fill="none" stroke="#56d8a9" stroke-width="2" d="M520,-252C520,-252 458,-252 458,-252 452,-252 446,-246 446,-240 446,-240 446,-228 446,-228 446,-222 452,-216 458,-216 458,-216 520,-216 520,-216 526,-216 532,-222 532,-228 532,-228 532,-240 532,-240 532,-246 526,-252 520,-252"/>
<text text-anchor="middle" x="489" y="-237" font-family="sans" font-size="10.00">troll_exp</text>
<text text-anchor="middle" x="489" y="-226" font-family="sans" font-size="10.00">exp: historical</text>
</g>
<!-- 14&#45;&gt;17 -->
<g id="edge27" class="edge">
<title>14&#45;&gt;17</title>
<path fill="none" stroke="grey" stroke-width="2" d="M456.63,-287.7C461.63,-279.56 467.69,-269.69 473.21,-260.7"/>
<polygon fill="grey" stroke="grey" stroke-width="2" points="476.24,-262.46 478.49,-252.1 470.28,-258.79 476.24,-262.46"/>
</g>
<!-- 15&#45;&gt;14 -->
<g id="edge23" class="edge">
<title>15&#45;&gt;14</title>
<path fill="none" stroke="grey" stroke-width="2" d="M446,-359.7C446,-351.98 446,-342.71 446,-334.11"/>
<polygon fill="grey" stroke="grey" stroke-width="2" points="449.5,-334.1 446,-324.1 442.5,-334.1 449.5,-334.1"/>
</g>
<!-- 16 -->
<g id="node17" class="node">
<title>16</title>
<path fill="none" stroke="#d8ac56" stroke-width="2" d="M713,-473C713,-473 587,-473 587,-473 581,-473 575,-467 575,-461 575,-461 575,-444 575,-444 575,-438 581,-432 587,-432 587,-432 713,-432 713,-432 719,-432 725,-438 725,-444 725,-444 725,-461 725,-461 725,-467 719,-473 713,-473"/>
<text text-anchor="middle" x="650" y="-461" font-family="sans" font-size="10.00">prepare_cordex</text>
<text text-anchor="middle" x="650" y="-450" font-family="sans" font-size="10.00">model: MPI&#45;M&#45;MPI&#45;ESM&#45;MR</text>
<text text-anchor="middle" x="650" y="-439" font-family="sans" font-size="10.00">rcm: ICTP&#45;RegCM4&#45;7</text>
</g>
<!-- 16&#45;&gt;15 -->
<g id="edge24" class="edge">
<title>16&#45;&gt;15</title>
<path fill="none" stroke="grey" stroke-width="2" d="M595.06,-431.98C566.75,-421.92 532.25,-409.65 503.57,-399.46"/>
<polygon fill="grey" stroke="grey" stroke-width="2" points="504.68,-396.14 494.09,-396.09 502.34,-402.74 504.68,-396.14"/>
</g>
<!-- 16&#45;&gt;17 -->
<g id="edge26" class="edge">
<title>16&#45;&gt;17</title>
<path fill="none" stroke="grey" stroke-width="2" d="M635.43,-431.91C606.18,-392.58 540.37,-304.07 507.88,-260.38"/>
<polygon fill="grey" stroke="grey" stroke-width="2" points="510.62,-258.21 501.84,-252.27 505,-262.38 510.62,-258.21"/>
</g>
<!-- 21 -->
<g id="node22" class="node">
<title>21</title>
<path fill="none" stroke="#5682d8" stroke-width="2" d="M1015.5,-396C1015.5,-396 802.5,-396 802.5,-396 796.5,-396 790.5,-390 790.5,-384 790.5,-384 790.5,-372 790.5,-372 790.5,-366 796.5,-360 802.5,-360 802.5,-360 1015.5,-360 1015.5,-360 1021.5,-360 1027.5,-366 1027.5,-372 1027.5,-372 1027.5,-384 1027.5,-384 1027.5,-390 1021.5,-396 1015.5,-396"/>
<text text-anchor="middle" x="909" y="-381" font-family="sans" font-size="10.00">sample_climate</text>
<text text-anchor="middle" x="909" y="-370" font-family="sans" font-size="10.00">climate: MPI&#45;M&#45;MPI&#45;ESM&#45;MR_ICTP&#45;RegCM4&#45;7</text>
</g>
<!-- 16&#45;&gt;21 -->
<g id="edge34" class="edge">
<title>16&#45;&gt;21</title>
<path fill="none" stroke="grey" stroke-width="2" d="M719.75,-431.98C756.47,-421.7 801.4,-409.12 838.27,-398.8"/>
<polygon fill="grey" stroke="grey" stroke-width="2" points="839.26,-402.16 847.95,-396.09 837.38,-395.41 839.26,-402.16"/>
</g>
<!-- 23 -->
<g id="node24" class="node">
<title>23</title>
<path fill="none" stroke="#56d8a9" stroke-width="2" d="M834,-252C834,-252 772,-252 772,-252 766,-252 760,-246 760,-240 760,-240 760,-228 760,-228 760,-222 766,-216 772,-216 772,-216 834,-216 834,-216 840,-216 846,-222 846,-228 846,-228 846,-240 846,-240 846,-246 840,-252 834,-252"/>
<text text-anchor="middle" x="803" y="-237" font-family="sans" font-size="10.00">troll_exp</text>
<text text-anchor="middle" x="803" y="-226" font-family="sans" font-size="10.00">exp: historical</text>
</g>
<!-- 16&#45;&gt;23 -->
<g id="edge37" class="edge">
<title>16&#45;&gt;23</title>
<path fill="none" stroke="grey" stroke-width="2" d="M675.42,-431.88C703.56,-408.88 748.46,-368.26 775,-324 786.54,-304.75 793.79,-280.26 798.02,-261.85"/>
<polygon fill="grey" stroke="grey" stroke-width="2" points="801.44,-262.56 800.11,-252.05 794.6,-261.1 801.44,-262.56"/>
</g>
<!-- 24 -->
<g id="node25" class="node">
<title>24</title>
<path fill="none" stroke="#56d8a9" stroke-width="2" d="M606,-252C606,-252 562,-252 562,-252 556,-252 550,-246 550,-240 550,-240 550,-228 550,-228 550,-222 556,-216 562,-216 562,-216 606,-216 606,-216 612,-216 618,-222 618,-228 618,-228 618,-240 618,-240 618,-246 612,-252 606,-252"/>
<text text-anchor="middle" x="584" y="-237" font-family="sans" font-size="10.00">troll_exp</text>
<text text-anchor="middle" x="584" y="-226" font-family="sans" font-size="10.00">exp: rcp26</text>
</g>
<!-- 16&#45;&gt;24 -->
<g id="edge39" class="edge">
<title>16&#45;&gt;24</title>
<path fill="none" stroke="grey" stroke-width="2" d="M645.85,-431.83C639.07,-400.83 624.62,-338.89 607,-288 603.98,-279.28 600.16,-269.98 596.51,-261.65"/>
<polygon fill="grey" stroke="grey" stroke-width="2" points="599.64,-260.09 592.35,-252.4 593.26,-262.96 599.64,-260.09"/>
</g>
<!-- 25 -->
<g id="node26" class="node">
<title>25</title>
<path fill="none" stroke="#56d8a9" stroke-width="2" d="M692,-252C692,-252 648,-252 648,-252 642,-252 636,-246 636,-240 636,-240 636,-228 636,-228 636,-222 642,-216 648,-216 648,-216 692,-216 692,-216 698,-216 704,-222 704,-228 704,-228 704,-240 704,-240 704,-246 698,-252 692,-252"/>
<text text-anchor="middle" x="670" y="-237" font-family="sans" font-size="10.00">troll_exp</text>
<text text-anchor="middle" x="670" y="-226" font-family="sans" font-size="10.00">exp: rcp85</text>
</g>
<!-- 16&#45;&gt;25 -->
<g id="edge41" class="edge">
<title>16&#45;&gt;25</title>
<path fill="none" stroke="grey" stroke-width="2" d="M651.81,-431.91C655.39,-393.15 663.38,-306.64 667.48,-262.32"/>
<polygon fill="grey" stroke="grey" stroke-width="2" points="670.97,-262.55 668.4,-252.27 664,-261.9 670.97,-262.55"/>
</g>
<!-- 17&#45;&gt;13 -->
<g id="edge22" class="edge">
<title>17&#45;&gt;13</title>
<path fill="none" stroke="grey" stroke-width="2" d="M476.39,-215.7C470.4,-207.47 463.12,-197.48 456.52,-188.42"/>
<polygon fill="grey" stroke="grey" stroke-width="2" points="459.18,-186.13 450.46,-180.1 453.52,-190.25 459.18,-186.13"/>
</g>
<!-- 18 -->
<g id="node19" class="node">
<title>18</title>
<path fill="none" stroke="#d85656" stroke-width="2" d="M648.5,-108C648.5,-108 529.5,-108 529.5,-108 523.5,-108 517.5,-102 517.5,-96 517.5,-96 517.5,-84 517.5,-84 517.5,-78 523.5,-72 529.5,-72 529.5,-72 648.5,-72 648.5,-72 654.5,-72 660.5,-78 660.5,-84 660.5,-84 660.5,-96 660.5,-96 660.5,-102 654.5,-108 648.5,-108"/>
<text text-anchor="middle" x="589" y="-87.5" font-family="sans" font-size="10.00">gather_period_projections</text>
</g>
<!-- 18&#45;&gt;0 -->
<g id="edge2" class="edge">
<title>18&#45;&gt;0</title>
<path fill="none" stroke="grey" stroke-width="2" d="M551.33,-71.88C526.96,-60.8 495.4,-46.46 471.31,-35.5"/>
<polygon fill="grey" stroke="grey" stroke-width="2" points="472.7,-32.29 462.14,-31.34 469.8,-38.66 472.7,-32.29"/>
</g>
<!-- 19 -->
<g id="node20" class="node">
<title>19</title>
<path fill="none" stroke="#d88556" stroke-width="2" d="M738,-180C738,-180 602,-180 602,-180 596,-180 590,-174 590,-168 590,-168 590,-156 590,-156 590,-150 596,-144 602,-144 602,-144 738,-144 738,-144 744,-144 750,-150 750,-156 750,-156 750,-168 750,-168 750,-174 744,-180 738,-180"/>
<text text-anchor="middle" x="670" y="-159.5" font-family="sans" font-size="10.00">gather_repetition_projections</text>
</g>
<!-- 19&#45;&gt;18 -->
<g id="edge28" class="edge">
<title>19&#45;&gt;18</title>
<path fill="none" stroke="grey" stroke-width="2" d="M649.98,-143.7C639.87,-134.97 627.46,-124.24 616.48,-114.75"/>
<polygon fill="grey" stroke="grey" stroke-width="2" points="618.65,-111.99 608.79,-108.1 614.07,-117.29 618.65,-111.99"/>
</g>
<!-- 20 -->
<g id="node21" class="node">
<title>20</title>
<path fill="none" stroke="#56d882" stroke-width="2" d="M754.5,-324C754.5,-324 709.5,-324 709.5,-324 703.5,-324 697.5,-318 697.5,-312 697.5,-312 697.5,-300 697.5,-300 697.5,-294 703.5,-288 709.5,-288 709.5,-288 754.5,-288 754.5,-288 760.5,-288 766.5,-294 766.5,-300 766.5,-300 766.5,-312 766.5,-312 766.5,-318 760.5,-324 754.5,-324"/>
<text text-anchor="middle" x="732" y="-309" font-family="sans" font-size="10.00">troll_warm</text>
<text text-anchor="middle" x="732" y="-298" font-family="sans" font-size="10.00">rep: 1</text>
</g>
<!-- 20&#45;&gt;19 -->
<g id="edge29" class="edge">
<title>20&#45;&gt;19</title>
<path fill="none" stroke="grey" stroke-width="2" d="M730.73,-287.84C728.83,-269.33 724.18,-239.38 713,-216 708.2,-205.95 701.13,-196.14 694.1,-187.75"/>
<polygon fill="grey" stroke="grey" stroke-width="2" points="696.68,-185.38 687.45,-180.17 691.42,-189.99 696.68,-185.38"/>
</g>
<!-- 20&#45;&gt;23 -->
<g id="edge38" class="edge">
<title>20&#45;&gt;23</title>
<path fill="none" stroke="grey" stroke-width="2" d="M749.55,-287.7C758.23,-279.14 768.86,-268.66 778.35,-259.3"/>
<polygon fill="grey" stroke="grey" stroke-width="2" points="780.99,-261.62 785.65,-252.1 776.07,-256.63 780.99,-261.62"/>
</g>
<!-- 20&#45;&gt;24 -->
<g id="edge40" class="edge">
<title>20&#45;&gt;24</title>
<path fill="none" stroke="grey" stroke-width="2" d="M697.3,-288.59C676.44,-278.72 649.72,-266.08 627.46,-255.56"/>
<polygon fill="grey" stroke="grey" stroke-width="2" points="628.76,-252.3 618.23,-251.19 625.77,-258.63 628.76,-252.3"/>
</g>
<!-- 20&#45;&gt;25 -->
<g id="edge42" class="edge">
<title>20&#45;&gt;25</title>
<path fill="none" stroke="grey" stroke-width="2" d="M716.67,-287.7C709.24,-279.3 700.18,-269.07 692.02,-259.86"/>
<polygon fill="grey" stroke="grey" stroke-width="2" points="694.4,-257.27 685.15,-252.1 689.16,-261.91 694.4,-257.27"/>
</g>
<!-- 21&#45;&gt;20 -->
<g id="edge33" class="edge">
<title>21&#45;&gt;20</title>
<path fill="none" stroke="grey" stroke-width="2" d="M865.7,-359.88C838.42,-349.09 803.3,-335.2 775.91,-324.36"/>
<polygon fill="grey" stroke="grey" stroke-width="2" points="777.15,-321.09 766.56,-320.67 774.57,-327.6 777.15,-321.09"/>
</g>
<!-- 22&#45;&gt;21 -->
<g id="edge35" class="edge">
<title>22&#45;&gt;21</title>
<path fill="none" stroke="grey" stroke-width="2" d="M885.02,-431.69C888.68,-423.65 892.96,-414.24 896.89,-405.61"/>
<polygon fill="grey" stroke="grey" stroke-width="2" points="900.16,-406.87 901.12,-396.32 893.79,-403.97 900.16,-406.87"/>
</g>
<!-- 23&#45;&gt;19 -->
<g id="edge30" class="edge">
<title>23&#45;&gt;19</title>
<path fill="none" stroke="grey" stroke-width="2" d="M770.46,-215.88C752.75,-206.55 730.65,-194.92 711.68,-184.94"/>
<polygon fill="grey" stroke="grey" stroke-width="2" points="713.14,-181.75 702.66,-180.19 709.88,-187.94 713.14,-181.75"/>
</g>
<!-- 24&#45;&gt;19 -->
<g id="edge31" class="edge">
<title>24&#45;&gt;19</title>
<path fill="none" stroke="grey" stroke-width="2" d="M605.26,-215.7C616.09,-206.88 629.42,-196.03 641.16,-186.47"/>
<polygon fill="grey" stroke="grey" stroke-width="2" points="643.44,-189.13 648.99,-180.1 639.02,-183.7 643.44,-189.13"/>
</g>
<!-- 25&#45;&gt;19 -->
<g id="edge32" class="edge">
<title>25&#45;&gt;19</title>
<path fill="none" stroke="grey" stroke-width="2" d="M670,-215.7C670,-207.98 670,-198.71 670,-190.11"/>
<polygon fill="grey" stroke="grey" stroke-width="2" points="673.5,-190.1 670,-180.1 666.5,-190.1 673.5,-190.1"/>
</g>
</g>
</svg>
