<?xml version="1.0" encoding="UTF-8" standalone="no"?>
<!DOCTYPE svg PUBLIC "-//W3C//DTD SVG 1.1//EN"
 "http://www.w3.org/Graphics/SVG/1.1/DTD/svg11.dtd">
<!-- Generated by graphviz version 2.43.0 (0)
 -->
<!-- Title: snakemake_dag Pages: 1 -->
<svg width="862pt" height="476pt"
 viewBox="0.00 0.00 862.00 476.00" xmlns="http://www.w3.org/2000/svg" xmlns:xlink="http://www.w3.org/1999/xlink">
<g id="graph0" class="graph" transform="scale(1 1) rotate(0) translate(4 472)">
<title>snakemake_dag</title>
<polygon fill="white" stroke="transparent" points="-4,4 -4,-472 858,-472 858,4 -4,4"/>
<!-- 0 -->
<g id="node1" class="node">
<title>0</title>
<path fill="none" stroke="#56d8c1" stroke-width="2" d="M386,-36C386,-36 356,-36 356,-36 350,-36 344,-30 344,-24 344,-24 344,-12 344,-12 344,-6 350,0 356,0 356,0 386,0 386,0 392,0 398,-6 398,-12 398,-12 398,-24 398,-24 398,-30 392,-36 386,-36"/>
<text text-anchor="middle" x="371" y="-15.5" font-family="sans" font-size="10.00">all</text>
</g>
<!-- 1 -->
<g id="node2" class="node">
<title>1</title>
<path fill="none" stroke="#d88d56" stroke-width="2" d="M391,-180C391,-180 351,-180 351,-180 345,-180 339,-174 339,-168 339,-168 339,-156 339,-156 339,-150 345,-144 351,-144 351,-144 391,-144 391,-144 397,-144 403,-150 403,-156 403,-156 403,-168 403,-168 403,-174 397,-180 391,-180"/>
<text text-anchor="middle" x="371" y="-159.5" font-family="sans" font-size="10.00">assemble</text>
</g>
<!-- 1&#45;&gt;0 -->
<g id="edge1" class="edge">
<title>1&#45;&gt;0</title>
<path fill="none" stroke="grey" stroke-width="2" d="M367.75,-143.89C365.95,-133.54 363.91,-120.06 363,-108 361.8,-92.04 361.8,-87.96 363,-72 363.64,-63.52 364.84,-54.34 366.12,-46.04"/>
<polygon fill="grey" stroke="grey" stroke-width="2" points="369.58,-46.55 367.75,-36.11 362.68,-45.41 369.58,-46.55"/>
</g>
<!-- 14 -->
<g id="node15" class="node">
<title>14</title>
<path fill="none" stroke="#59d856" stroke-width="2" d="M414,-108C414,-108 384,-108 384,-108 378,-108 372,-102 372,-96 372,-96 372,-84 372,-84 372,-78 378,-72 384,-72 384,-72 414,-72 414,-72 420,-72 426,-78 426,-84 426,-84 426,-96 426,-96 426,-102 420,-108 414,-108"/>
<text text-anchor="middle" x="399" y="-87.5" font-family="sans" font-size="10.00">plot</text>
</g>
<!-- 1&#45;&gt;14 -->
<g id="edge19" class="edge">
<title>1&#45;&gt;14</title>
<path fill="none" stroke="grey" stroke-width="2" d="M377.92,-143.7C381.07,-135.81 384.88,-126.3 388.38,-117.55"/>
<polygon fill="grey" stroke="grey" stroke-width="2" points="391.69,-118.69 392.16,-108.1 385.19,-116.09 391.69,-118.69"/>
</g>
<!-- 2 -->
<g id="node3" class="node">
<title>2</title>
<path fill="none" stroke="#56d88a" stroke-width="2" d="M350.5,-252C350.5,-252 303.5,-252 303.5,-252 297.5,-252 291.5,-246 291.5,-240 291.5,-240 291.5,-228 291.5,-228 291.5,-222 297.5,-216 303.5,-216 303.5,-216 350.5,-216 350.5,-216 356.5,-216 362.5,-222 362.5,-228 362.5,-228 362.5,-240 362.5,-240 362.5,-246 356.5,-252 350.5,-252"/>
<text text-anchor="middle" x="327" y="-231.5" font-family="sans" font-size="10.00">summarise</text>
</g>
<!-- 2&#45;&gt;1 -->
<g id="edge3" class="edge">
<title>2&#45;&gt;1</title>
<path fill="none" stroke="grey" stroke-width="2" d="M337.88,-215.7C342.99,-207.56 349.2,-197.69 354.84,-188.7"/>
<polygon fill="grey" stroke="grey" stroke-width="2" points="357.89,-190.43 360.25,-180.1 351.96,-186.71 357.89,-190.43"/>
</g>
<!-- 3 -->
<g id="node4" class="node">
<title>3</title>
<path fill="none" stroke="#88d856" stroke-width="2" d="M311,-324C311,-324 281,-324 281,-324 275,-324 269,-318 269,-312 269,-312 269,-300 269,-300 269,-294 275,-288 281,-288 281,-288 311,-288 311,-288 317,-288 323,-294 323,-300 323,-300 323,-312 323,-312 323,-318 317,-324 311,-324"/>
<text text-anchor="middle" x="296" y="-303.5" font-family="sans" font-size="10.00">spinup</text>
</g>
<!-- 3&#45;&gt;2 -->
<g id="edge5" class="edge">
<title>3&#45;&gt;2</title>
<path fill="none" stroke="grey" stroke-width="2" d="M303.66,-287.7C307.19,-279.73 311.46,-270.1 315.37,-261.26"/>
<polygon fill="grey" stroke="grey" stroke-width="2" points="318.58,-262.67 319.43,-252.1 312.18,-259.83 318.58,-262.67"/>
</g>
<!-- 4 -->
<g id="node5" class="node">
<title>4</title>
<path fill="none" stroke="#568ad8" stroke-width="2" d="M122,-396C122,-396 12,-396 12,-396 6,-396 0,-390 0,-384 0,-384 0,-372 0,-372 0,-366 6,-360 12,-360 12,-360 122,-360 122,-360 128,-360 134,-366 134,-372 134,-372 134,-384 134,-384 134,-390 128,-396 122,-396"/>
<text text-anchor="middle" x="67" y="-381" font-family="sans" font-size="10.00">prepare_spinup_climate</text>
<text text-anchor="middle" x="67" y="-370" font-family="sans" font-size="10.00">cell: 1</text>
</g>
<!-- 4&#45;&gt;3 -->
<g id="edge6" class="edge">
<title>4&#45;&gt;3</title>
<path fill="none" stroke="grey" stroke-width="2" d="M122.73,-359.97C165.08,-347.02 222.16,-329.57 259.02,-318.3"/>
<polygon fill="grey" stroke="grey" stroke-width="2" points="260.31,-321.57 268.85,-315.3 258.27,-314.87 260.31,-321.57"/>
</g>
<!-- 5 -->
<g id="node6" class="node">
<title>5</title>
<path fill="none" stroke="#56c1d8" stroke-width="2" d="M489.5,-468C489.5,-468 394.5,-468 394.5,-468 388.5,-468 382.5,-462 382.5,-456 382.5,-456 382.5,-444 382.5,-444 382.5,-438 388.5,-432 394.5,-432 394.5,-432 489.5,-432 489.5,-432 495.5,-432 501.5,-438 501.5,-444 501.5,-444 501.5,-456 501.5,-456 501.5,-462 495.5,-468 489.5,-468"/>
<text text-anchor="middle" x="442" y="-447.5" font-family="sans" font-size="10.00">prepare_spatial_data</text>
</g>
<!-- 5&#45;&gt;4 -->
<g id="edge9" class="edge">
<title>5&#45;&gt;4</title>
<path fill="none" stroke="grey" stroke-width="2" d="M382.29,-439.22C324.01,-429.5 232.61,-413.76 144.05,-396.17"/>
<polygon fill="grey" stroke="grey" stroke-width="2" points="144.59,-392.71 134.1,-394.18 143.22,-399.57 144.59,-392.71"/>
</g>
<!-- 7 -->
<g id="node8" class="node">
<title>7</title>
<path fill="none" stroke="#bed856" stroke-width="2" d="M558,-396C558,-396 468,-396 468,-396 462,-396 456,-390 456,-384 456,-384 456,-372 456,-372 456,-366 462,-360 468,-360 468,-360 558,-360 558,-360 564,-360 570,-366 570,-372 570,-372 570,-384 570,-384 570,-390 564,-396 558,-396"/>
<text text-anchor="middle" x="513" y="-381" font-family="sans" font-size="10.00">prepare_spinup_soil</text>
<text text-anchor="middle" x="513" y="-370" font-family="sans" font-size="10.00">cell: 1</text>
</g>
<!-- 5&#45;&gt;7 -->
<g id="edge11" class="edge">
<title>5&#45;&gt;7</title>
<path fill="none" stroke="grey" stroke-width="2" d="M459.55,-431.7C468.23,-423.14 478.86,-412.66 488.35,-403.3"/>
<polygon fill="grey" stroke="grey" stroke-width="2" points="490.99,-405.62 495.65,-396.1 486.07,-400.63 490.99,-405.62"/>
</g>
<!-- 11 -->
<g id="node12" class="node">
<title>11</title>
<path fill="none" stroke="#568ad8" stroke-width="2" d="M426,-396C426,-396 316,-396 316,-396 310,-396 304,-390 304,-384 304,-384 304,-372 304,-372 304,-366 310,-360 316,-360 316,-360 426,-360 426,-360 432,-360 438,-366 438,-372 438,-372 438,-384 438,-384 438,-390 432,-396 426,-396"/>
<text text-anchor="middle" x="371" y="-381" font-family="sans" font-size="10.00">prepare_spinup_climate</text>
<text text-anchor="middle" x="371" y="-370" font-family="sans" font-size="10.00">cell: 2</text>
</g>
<!-- 5&#45;&gt;11 -->
<g id="edge16" class="edge">
<title>5&#45;&gt;11</title>
<path fill="none" stroke="grey" stroke-width="2" d="M424.45,-431.7C415.77,-423.14 405.14,-412.66 395.65,-403.3"/>
<polygon fill="grey" stroke="grey" stroke-width="2" points="397.93,-400.63 388.35,-396.1 393.01,-405.62 397.93,-400.63"/>
</g>
<!-- 12 -->
<g id="node13" class="node">
<title>12</title>
<path fill="none" stroke="#bed856" stroke-width="2" d="M690,-396C690,-396 600,-396 600,-396 594,-396 588,-390 588,-384 588,-384 588,-372 588,-372 588,-366 594,-360 600,-360 600,-360 690,-360 690,-360 696,-360 702,-366 702,-372 702,-372 702,-384 702,-384 702,-390 696,-396 690,-396"/>
<text text-anchor="middle" x="645" y="-381" font-family="sans" font-size="10.00">prepare_spinup_soil</text>
<text text-anchor="middle" x="645" y="-370" font-family="sans" font-size="10.00">cell: 2</text>
</g>
<!-- 5&#45;&gt;12 -->
<g id="edge18" class="edge">
<title>5&#45;&gt;12</title>
<path fill="none" stroke="grey" stroke-width="2" d="M491.4,-431.97C519.89,-422.14 555.89,-409.73 585.87,-399.39"/>
<polygon fill="grey" stroke="grey" stroke-width="2" points="587.07,-402.68 595.38,-396.11 584.78,-396.06 587.07,-402.68"/>
</g>
<!-- 6 -->
<g id="node7" class="node">
<title>6</title>
<path fill="none" stroke="#d85656" stroke-width="2" d="M259.5,-468C259.5,-468 202.5,-468 202.5,-468 196.5,-468 190.5,-462 190.5,-456 190.5,-456 190.5,-444 190.5,-444 190.5,-438 196.5,-432 202.5,-432 202.5,-432 259.5,-432 259.5,-432 265.5,-432 271.5,-438 271.5,-444 271.5,-444 271.5,-456 271.5,-456 271.5,-462 265.5,-468 259.5,-468"/>
<text text-anchor="middle" x="231" y="-447.5" font-family="sans" font-size="10.00">spinup_years</text>
</g>
<!-- 6&#45;&gt;4 -->
<g id="edge10" class="edge">
<title>6&#45;&gt;4</title>
<path fill="none" stroke="grey" stroke-width="2" d="M190.88,-431.88C168.36,-422.26 140.08,-410.19 116.23,-400.01"/>
<polygon fill="grey" stroke="grey" stroke-width="2" points="117.56,-396.77 106.99,-396.07 114.81,-403.21 117.56,-396.77"/>
</g>
<!-- 6&#45;&gt;11 -->
<g id="edge17" class="edge">
<title>6&#45;&gt;11</title>
<path fill="none" stroke="grey" stroke-width="2" d="M265.25,-431.88C284.06,-422.47 307.58,-410.71 327.67,-400.67"/>
<polygon fill="grey" stroke="grey" stroke-width="2" points="329.24,-403.79 336.62,-396.19 326.11,-397.53 329.24,-403.79"/>
</g>
<!-- 7&#45;&gt;3 -->
<g id="edge7" class="edge">
<title>7&#45;&gt;3</title>
<path fill="none" stroke="grey" stroke-width="2" d="M460.19,-359.97C420.8,-347.26 367.97,-330.22 333,-318.94"/>
<polygon fill="grey" stroke="grey" stroke-width="2" points="333.79,-315.51 323.2,-315.77 331.64,-322.17 333.79,-315.51"/>
</g>
<!-- 8 -->
<g id="node9" class="node">
<title>8</title>
<path fill="none" stroke="#d8bc56" stroke-width="2" d="M274,-396C274,-396 164,-396 164,-396 158,-396 152,-390 152,-384 152,-384 152,-372 152,-372 152,-366 158,-360 164,-360 164,-360 274,-360 274,-360 280,-360 286,-366 286,-372 286,-372 286,-384 286,-384 286,-390 280,-396 274,-396"/>
<text text-anchor="middle" x="219" y="-381" font-family="sans" font-size="10.00">prepare_spinup_species</text>
<text text-anchor="middle" x="219" y="-370" font-family="sans" font-size="10.00">cell: 1</text>
</g>
<!-- 8&#45;&gt;3 -->
<g id="edge8" class="edge">
<title>8&#45;&gt;3</title>
<path fill="none" stroke="grey" stroke-width="2" d="M238.03,-359.7C247.54,-351.05 259.21,-340.45 269.57,-331.03"/>
<polygon fill="grey" stroke="grey" stroke-width="2" points="272.14,-333.42 277.19,-324.1 267.43,-328.24 272.14,-333.42"/>
</g>
<!-- 9 -->
<g id="node10" class="node">
<title>9</title>
<path fill="none" stroke="#56d88a" stroke-width="2" d="M455.5,-252C455.5,-252 408.5,-252 408.5,-252 402.5,-252 396.5,-246 396.5,-240 396.5,-240 396.5,-228 396.5,-228 396.5,-222 402.5,-216 408.5,-216 408.5,-216 455.5,-216 455.5,-216 461.5,-216 467.5,-222 467.5,-228 467.5,-228 467.5,-240 467.5,-240 467.5,-246 461.5,-252 455.5,-252"/>
<text text-anchor="middle" x="432" y="-231.5" font-family="sans" font-size="10.00">summarise</text>
</g>
<!-- 9&#45;&gt;1 -->
<g id="edge4" class="edge">
<title>9&#45;&gt;1</title>
<path fill="none" stroke="grey" stroke-width="2" d="M416.92,-215.7C409.61,-207.3 400.69,-197.07 392.66,-187.86"/>
<polygon fill="grey" stroke="grey" stroke-width="2" points="395.11,-185.34 385.91,-180.1 389.84,-189.94 395.11,-185.34"/>
</g>
<!-- 10 -->
<g id="node11" class="node">
<title>10</title>
<path fill="none" stroke="#88d856" stroke-width="2" d="M523,-324C523,-324 493,-324 493,-324 487,-324 481,-318 481,-312 481,-312 481,-300 481,-300 481,-294 487,-288 493,-288 493,-288 523,-288 523,-288 529,-288 535,-294 535,-300 535,-300 535,-312 535,-312 535,-318 529,-324 523,-324"/>
<text text-anchor="middle" x="508" y="-303.5" font-family="sans" font-size="10.00">spinup</text>
</g>
<!-- 10&#45;&gt;9 -->
<g id="edge12" class="edge">
<title>10&#45;&gt;9</title>
<path fill="none" stroke="grey" stroke-width="2" d="M489.21,-287.7C479.83,-279.05 468.32,-268.45 458.09,-259.03"/>
<polygon fill="grey" stroke="grey" stroke-width="2" points="460.3,-256.3 450.57,-252.1 455.55,-261.45 460.3,-256.3"/>
</g>
<!-- 11&#45;&gt;10 -->
<g id="edge13" class="edge">
<title>11&#45;&gt;10</title>
<path fill="none" stroke="grey" stroke-width="2" d="M404.51,-359.88C424.85,-349.49 450.8,-336.22 471.63,-325.58"/>
<polygon fill="grey" stroke="grey" stroke-width="2" points="473.49,-328.56 480.81,-320.9 470.31,-322.33 473.49,-328.56"/>
</g>
<!-- 12&#45;&gt;10 -->
<g id="edge14" class="edge">
<title>12&#45;&gt;10</title>
<path fill="none" stroke="grey" stroke-width="2" d="M611.49,-359.88C591.15,-349.49 565.2,-336.22 544.37,-325.58"/>
<polygon fill="grey" stroke="grey" stroke-width="2" points="545.69,-322.33 535.19,-320.9 542.51,-328.56 545.69,-322.33"/>
</g>
<!-- 13 -->
<g id="node14" class="node">
<title>13</title>
<path fill="none" stroke="#d8bc56" stroke-width="2" d="M842,-396C842,-396 732,-396 732,-396 726,-396 720,-390 720,-384 720,-384 720,-372 720,-372 720,-366 726,-360 732,-360 732,-360 842,-360 842,-360 848,-360 854,-366 854,-372 854,-372 854,-384 854,-384 854,-390 848,-396 842,-396"/>
<text text-anchor="middle" x="787" y="-381" font-family="sans" font-size="10.00">prepare_spinup_species</text>
<text text-anchor="middle" x="787" y="-370" font-family="sans" font-size="10.00">cell: 2</text>
</g>
<!-- 13&#45;&gt;10 -->
<g id="edge15" class="edge">
<title>13&#45;&gt;10</title>
<path fill="none" stroke="grey" stroke-width="2" d="M719.82,-360.14C664.92,-346.37 589.36,-327.41 544.9,-316.26"/>
<polygon fill="grey" stroke="grey" stroke-width="2" points="545.66,-312.84 535.1,-313.8 543.95,-319.63 545.66,-312.84"/>
</g>
<!-- 14&#45;&gt;0 -->
<g id="edge2" class="edge">
<title>14&#45;&gt;0</title>
<path fill="none" stroke="grey" stroke-width="2" d="M392.08,-71.7C388.93,-63.81 385.12,-54.3 381.62,-45.55"/>
<polygon fill="grey" stroke="grey" stroke-width="2" points="384.81,-44.09 377.84,-36.1 378.31,-46.69 384.81,-44.09"/>
</g>
</g>
</svg>
