<?xml version="1.0" encoding="UTF-8" standalone="no"?>
<!DOCTYPE svg PUBLIC "-//W3C//DTD SVG 1.1//EN"
 "http://www.w3.org/Graphics/SVG/1.1/DTD/svg11.dtd">
<!-- Generated by graphviz version 2.43.0 (0)
 -->
<!-- Title: snakemake_dag Pages: 1 -->
<svg width="380pt" height="420pt"
 viewBox="0.00 0.00 379.50 420.00" xmlns="http://www.w3.org/2000/svg" xmlns:xlink="http://www.w3.org/1999/xlink">
<g id="graph0" class="graph" transform="scale(1 1) rotate(0) translate(4 416)">
<title>snakemake_dag</title>
<polygon fill="white" stroke="transparent" points="-4,4 -4,-416 375.5,-416 375.5,4 -4,4"/>
<!-- 0 -->
<g id="node1" class="node">
<title>0</title>
<path fill="none" stroke="#569ad8" stroke-width="2" d="M165.5,-36C165.5,-36 135.5,-36 135.5,-36 129.5,-36 123.5,-30 123.5,-24 123.5,-24 123.5,-12 123.5,-12 123.5,-6 129.5,0 135.5,0 135.5,0 165.5,0 165.5,0 171.5,0 177.5,-6 177.5,-12 177.5,-12 177.5,-24 177.5,-24 177.5,-30 171.5,-36 165.5,-36"/>
<text text-anchor="middle" x="150.5" y="-15.5" font-family="sans" font-size="10.00">all</text>
</g>
<!-- 1 -->
<g id="node2" class="node">
<title>1</title>
<path fill="none" stroke="#97d856" stroke-width="2" d="M129.5,-108C129.5,-108 99.5,-108 99.5,-108 93.5,-108 87.5,-102 87.5,-96 87.5,-96 87.5,-84 87.5,-84 87.5,-78 93.5,-72 99.5,-72 99.5,-72 129.5,-72 129.5,-72 135.5,-72 141.5,-78 141.5,-84 141.5,-84 141.5,-96 141.5,-96 141.5,-102 135.5,-108 129.5,-108"/>
<text text-anchor="middle" x="114.5" y="-87.5" font-family="sans" font-size="10.00">run2</text>
</g>
<!-- 1&#45;&gt;0 -->
<g id="edge1" class="edge">
<title>1&#45;&gt;0</title>
<path fill="none" stroke="grey" stroke-width="2" d="M123.4,-71.7C127.5,-63.73 132.45,-54.1 136.99,-45.26"/>
<polygon fill="grey" stroke="grey" stroke-width="2" points="140.24,-46.6 141.7,-36.1 134.02,-43.4 140.24,-46.6"/>
</g>
<!-- 2 -->
<g id="node3" class="node">
<title>2</title>
<path fill="none" stroke="#d85656" stroke-width="2" d="M63,-268C63,-268 12,-268 12,-268 6,-268 0,-262 0,-256 0,-256 0,-244 0,-244 0,-238 6,-232 12,-232 12,-232 63,-232 63,-232 69,-232 75,-238 75,-244 75,-244 75,-256 75,-256 75,-262 69,-268 63,-268"/>
<text text-anchor="middle" x="37.5" y="-247.5" font-family="sans" font-size="10.00">prepare_run</text>
</g>
<!-- 2&#45;&gt;1 -->
<g id="edge3" class="edge">
<title>2&#45;&gt;1</title>
<path fill="none" stroke="grey" stroke-width="2" d="M41.76,-231.96C47.48,-210.62 58.78,-173.29 74.5,-144 79.65,-134.4 86.45,-124.67 92.98,-116.21"/>
<polygon fill="grey" stroke="grey" stroke-width="2" points="95.85,-118.22 99.35,-108.22 90.38,-113.86 95.85,-118.22"/>
</g>
<!-- 4 -->
<g id="node5" class="node">
<title>4</title>
<path fill="none" stroke="#d89556" stroke-width="2" d="M133.5,-196C133.5,-196 95.5,-196 95.5,-196 89.5,-196 83.5,-190 83.5,-184 83.5,-184 83.5,-156 83.5,-156 83.5,-150 89.5,-144 95.5,-144 95.5,-144 133.5,-144 133.5,-144 139.5,-144 145.5,-150 145.5,-156 145.5,-156 145.5,-184 145.5,-184 145.5,-190 139.5,-196 133.5,-196"/>
<text text-anchor="middle" x="114.5" y="-184" font-family="sans" font-size="10.00">run</text>
<text text-anchor="middle" x="114.5" y="-173" font-family="sans" font-size="10.00">a0: 0.2</text>
<text text-anchor="middle" x="114.5" y="-162" font-family="sans" font-size="10.00">b0: 0.02</text>
<text text-anchor="middle" x="114.5" y="-151" font-family="sans" font-size="10.00">delta: 0.2</text>
</g>
<!-- 2&#45;&gt;4 -->
<g id="edge6" class="edge">
<title>2&#45;&gt;4</title>
<path fill="none" stroke="grey" stroke-width="2" d="M54.59,-231.69C62.78,-223.39 72.87,-213.17 82.41,-203.5"/>
<polygon fill="grey" stroke="grey" stroke-width="2" points="85.03,-205.83 89.57,-196.26 80.05,-200.91 85.03,-205.83"/>
</g>
<!-- 3 -->
<g id="node4" class="node">
<title>3</title>
<path fill="none" stroke="#59d856" stroke-width="2" d="M93,-412C93,-412 38,-412 38,-412 32,-412 26,-406 26,-400 26,-400 26,-388 26,-388 26,-382 32,-376 38,-376 38,-376 93,-376 93,-376 99,-376 105,-382 105,-388 105,-388 105,-400 105,-400 105,-406 99,-412 93,-412"/>
<text text-anchor="middle" x="65.5" y="-397" font-family="sans" font-size="10.00">format</text>
<text text-anchor="middle" x="65.5" y="-386" font-family="sans" font-size="10.00">site: Paracou</text>
</g>
<!-- 3&#45;&gt;2 -->
<g id="edge5" class="edge">
<title>3&#45;&gt;2</title>
<path fill="none" stroke="grey" stroke-width="2" d="M60.51,-375.92C57.61,-365.59 54.04,-352.11 51.5,-340 47.18,-319.46 43.55,-296.01 41.06,-278.34"/>
<polygon fill="grey" stroke="grey" stroke-width="2" points="44.49,-277.59 39.67,-268.16 37.56,-278.54 44.49,-277.59"/>
</g>
<!-- 5 -->
<g id="node6" class="node">
<title>5</title>
<path fill="none" stroke="#d6d856" stroke-width="2" d="M135.5,-268C135.5,-268 105.5,-268 105.5,-268 99.5,-268 93.5,-262 93.5,-256 93.5,-256 93.5,-244 93.5,-244 93.5,-238 99.5,-232 105.5,-232 105.5,-232 135.5,-232 135.5,-232 141.5,-232 147.5,-238 147.5,-244 147.5,-244 147.5,-256 147.5,-256 147.5,-262 141.5,-268 135.5,-268"/>
<text text-anchor="middle" x="120.5" y="-247.5" font-family="sans" font-size="10.00">spinup</text>
</g>
<!-- 3&#45;&gt;5 -->
<g id="edge9" class="edge">
<title>3&#45;&gt;5</title>
<path fill="none" stroke="grey" stroke-width="2" d="M67.2,-375.67C69.45,-357.29 74.39,-327.69 84.5,-304 88.58,-294.43 94.49,-284.78 100.34,-276.39"/>
<polygon fill="grey" stroke="grey" stroke-width="2" points="103.28,-278.29 106.34,-268.15 97.62,-274.17 103.28,-278.29"/>
</g>
<!-- 6 -->
<g id="node7" class="node">
<title>6</title>
<path fill="none" stroke="#56d8d8" stroke-width="2" d="M173.5,-340C173.5,-340 105.5,-340 105.5,-340 99.5,-340 93.5,-334 93.5,-328 93.5,-328 93.5,-316 93.5,-316 93.5,-310 99.5,-304 105.5,-304 105.5,-304 173.5,-304 173.5,-304 179.5,-304 185.5,-310 185.5,-316 185.5,-316 185.5,-328 185.5,-328 185.5,-334 179.5,-340 173.5,-340"/>
<text text-anchor="middle" x="139.5" y="-319.5" font-family="sans" font-size="10.00">prepare_spinup</text>
</g>
<!-- 3&#45;&gt;6 -->
<g id="edge10" class="edge">
<title>3&#45;&gt;6</title>
<path fill="none" stroke="grey" stroke-width="2" d="M83.79,-375.7C92.93,-367.05 104.14,-356.45 114.1,-347.03"/>
<polygon fill="grey" stroke="grey" stroke-width="2" points="116.56,-349.52 121.42,-340.1 111.75,-344.43 116.56,-349.52"/>
</g>
<!-- 4&#45;&gt;1 -->
<g id="edge4" class="edge">
<title>4&#45;&gt;1</title>
<path fill="none" stroke="grey" stroke-width="2" d="M114.5,-143.89C114.5,-135.84 114.5,-126.88 114.5,-118.66"/>
<polygon fill="grey" stroke="grey" stroke-width="2" points="118,-118.41 114.5,-108.41 111,-118.41 118,-118.41"/>
</g>
<!-- 5&#45;&gt;4 -->
<g id="edge7" class="edge">
<title>5&#45;&gt;4</title>
<path fill="none" stroke="grey" stroke-width="2" d="M119.17,-231.69C118.59,-224.21 117.9,-215.16 117.22,-206.36"/>
<polygon fill="grey" stroke="grey" stroke-width="2" points="120.7,-205.96 116.44,-196.26 113.72,-206.5 120.7,-205.96"/>
</g>
<!-- 6&#45;&gt;5 -->
<g id="edge8" class="edge">
<title>6&#45;&gt;5</title>
<path fill="none" stroke="grey" stroke-width="2" d="M134.8,-303.7C132.69,-295.9 130.14,-286.51 127.78,-277.83"/>
<polygon fill="grey" stroke="grey" stroke-width="2" points="131.14,-276.84 125.14,-268.1 124.38,-278.67 131.14,-276.84"/>
</g>
<!-- 7 -->
<g id="node8" class="node">
<title>7</title>
<path fill="none" stroke="#97d856" stroke-width="2" d="M212.5,-108C212.5,-108 182.5,-108 182.5,-108 176.5,-108 170.5,-102 170.5,-96 170.5,-96 170.5,-84 170.5,-84 170.5,-78 176.5,-72 182.5,-72 182.5,-72 212.5,-72 212.5,-72 218.5,-72 224.5,-78 224.5,-84 224.5,-84 224.5,-96 224.5,-96 224.5,-102 218.5,-108 212.5,-108"/>
<text text-anchor="middle" x="197.5" y="-87.5" font-family="sans" font-size="10.00">run2</text>
</g>
<!-- 7&#45;&gt;0 -->
<g id="edge2" class="edge">
<title>7&#45;&gt;0</title>
<path fill="none" stroke="grey" stroke-width="2" d="M185.88,-71.7C180.36,-63.47 173.65,-53.48 167.57,-44.42"/>
<polygon fill="grey" stroke="grey" stroke-width="2" points="170.46,-42.46 161.98,-36.1 164.65,-46.36 170.46,-42.46"/>
</g>
<!-- 8 -->
<g id="node9" class="node">
<title>8</title>
<path fill="none" stroke="#d85656" stroke-width="2" d="M234,-268C234,-268 183,-268 183,-268 177,-268 171,-262 171,-256 171,-256 171,-244 171,-244 171,-238 177,-232 183,-232 183,-232 234,-232 234,-232 240,-232 246,-238 246,-244 246,-244 246,-256 246,-256 246,-262 240,-268 234,-268"/>
<text text-anchor="middle" x="208.5" y="-247.5" font-family="sans" font-size="10.00">prepare_run</text>
</g>
<!-- 8&#45;&gt;7 -->
<g id="edge11" class="edge">
<title>8&#45;&gt;7</title>
<path fill="none" stroke="grey" stroke-width="2" d="M207.3,-231.79C205.4,-204.48 201.68,-150.99 199.41,-118.38"/>
<polygon fill="grey" stroke="grey" stroke-width="2" points="202.88,-117.92 198.7,-108.19 195.9,-118.41 202.88,-117.92"/>
</g>
<!-- 10 -->
<g id="node11" class="node">
<title>10</title>
<path fill="none" stroke="#d89556" stroke-width="2" d="M275.5,-196C275.5,-196 237.5,-196 237.5,-196 231.5,-196 225.5,-190 225.5,-184 225.5,-184 225.5,-156 225.5,-156 225.5,-150 231.5,-144 237.5,-144 237.5,-144 275.5,-144 275.5,-144 281.5,-144 287.5,-150 287.5,-156 287.5,-156 287.5,-184 287.5,-184 287.5,-190 281.5,-196 275.5,-196"/>
<text text-anchor="middle" x="256.5" y="-184" font-family="sans" font-size="10.00">run</text>
<text text-anchor="middle" x="256.5" y="-173" font-family="sans" font-size="10.00">a0: 0.2</text>
<text text-anchor="middle" x="256.5" y="-162" font-family="sans" font-size="10.00">b0: 0.02</text>
<text text-anchor="middle" x="256.5" y="-151" font-family="sans" font-size="10.00">delta: 0.2</text>
</g>
<!-- 8&#45;&gt;10 -->
<g id="edge14" class="edge">
<title>8&#45;&gt;10</title>
<path fill="none" stroke="grey" stroke-width="2" d="M219.15,-231.69C224.01,-223.8 229.93,-214.17 235.62,-204.93"/>
<polygon fill="grey" stroke="grey" stroke-width="2" points="238.7,-206.61 240.96,-196.26 232.74,-202.94 238.7,-206.61"/>
</g>
<!-- 9 -->
<g id="node10" class="node">
<title>9</title>
<path fill="none" stroke="#59d856" stroke-width="2" d="M278,-412C278,-412 225,-412 225,-412 219,-412 213,-406 213,-400 213,-400 213,-388 213,-388 213,-382 219,-376 225,-376 225,-376 278,-376 278,-376 284,-376 290,-382 290,-388 290,-388 290,-400 290,-400 290,-406 284,-412 278,-412"/>
<text text-anchor="middle" x="251.5" y="-397" font-family="sans" font-size="10.00">format</text>
<text text-anchor="middle" x="251.5" y="-386" font-family="sans" font-size="10.00">site: Tapajos</text>
</g>
<!-- 9&#45;&gt;8 -->
<g id="edge13" class="edge">
<title>9&#45;&gt;8</title>
<path fill="none" stroke="grey" stroke-width="2" d="M246.31,-375.87C238.95,-351.56 225.4,-306.82 216.68,-278.01"/>
<polygon fill="grey" stroke="grey" stroke-width="2" points="219.95,-276.75 213.71,-268.19 213.25,-278.77 219.95,-276.75"/>
</g>
<!-- 11 -->
<g id="node12" class="node">
<title>11</title>
<path fill="none" stroke="#d6d856" stroke-width="2" d="M306.5,-268C306.5,-268 276.5,-268 276.5,-268 270.5,-268 264.5,-262 264.5,-256 264.5,-256 264.5,-244 264.5,-244 264.5,-238 270.5,-232 276.5,-232 276.5,-232 306.5,-232 306.5,-232 312.5,-232 318.5,-238 318.5,-244 318.5,-244 318.5,-256 318.5,-256 318.5,-262 312.5,-268 306.5,-268"/>
<text text-anchor="middle" x="291.5" y="-247.5" font-family="sans" font-size="10.00">spinup</text>
</g>
<!-- 9&#45;&gt;11 -->
<g id="edge17" class="edge">
<title>9&#45;&gt;11</title>
<path fill="none" stroke="grey" stroke-width="2" d="M254.31,-375.72C257.45,-357.63 263.09,-328.5 270.5,-304 273.14,-295.28 276.59,-285.99 279.93,-277.65"/>
<polygon fill="grey" stroke="grey" stroke-width="2" points="283.17,-278.98 283.75,-268.41 276.7,-276.31 283.17,-278.98"/>
</g>
<!-- 12 -->
<g id="node13" class="node">
<title>12</title>
<path fill="none" stroke="#56d8d8" stroke-width="2" d="M359.5,-340C359.5,-340 291.5,-340 291.5,-340 285.5,-340 279.5,-334 279.5,-328 279.5,-328 279.5,-316 279.5,-316 279.5,-310 285.5,-304 291.5,-304 291.5,-304 359.5,-304 359.5,-304 365.5,-304 371.5,-310 371.5,-316 371.5,-316 371.5,-328 371.5,-328 371.5,-334 365.5,-340 359.5,-340"/>
<text text-anchor="middle" x="325.5" y="-319.5" font-family="sans" font-size="10.00">prepare_spinup</text>
</g>
<!-- 9&#45;&gt;12 -->
<g id="edge18" class="edge">
<title>9&#45;&gt;12</title>
<path fill="none" stroke="grey" stroke-width="2" d="M269.79,-375.7C278.93,-367.05 290.14,-356.45 300.1,-347.03"/>
<polygon fill="grey" stroke="grey" stroke-width="2" points="302.56,-349.52 307.42,-340.1 297.75,-344.43 302.56,-349.52"/>
</g>
<!-- 10&#45;&gt;7 -->
<g id="edge12" class="edge">
<title>10&#45;&gt;7</title>
<path fill="none" stroke="grey" stroke-width="2" d="M237.51,-143.89C230.87,-135.12 223.42,-125.26 216.76,-116.46"/>
<polygon fill="grey" stroke="grey" stroke-width="2" points="219.49,-114.27 210.67,-108.41 213.91,-118.5 219.49,-114.27"/>
</g>
<!-- 11&#45;&gt;10 -->
<g id="edge15" class="edge">
<title>11&#45;&gt;10</title>
<path fill="none" stroke="grey" stroke-width="2" d="M283.73,-231.69C280.26,-223.96 276.05,-214.57 271.98,-205.5"/>
<polygon fill="grey" stroke="grey" stroke-width="2" points="275.12,-203.95 267.83,-196.26 268.73,-206.81 275.12,-203.95"/>
</g>
<!-- 12&#45;&gt;11 -->
<g id="edge16" class="edge">
<title>12&#45;&gt;11</title>
<path fill="none" stroke="grey" stroke-width="2" d="M317.1,-303.7C313.23,-295.73 308.55,-286.1 304.26,-277.26"/>
<polygon fill="grey" stroke="grey" stroke-width="2" points="307.33,-275.57 299.81,-268.1 301.03,-278.63 307.33,-275.57"/>
</g>
</g>
</svg>
