<?xml version="1.0" encoding="UTF-8" standalone="no"?>
<!DOCTYPE svg PUBLIC "-//W3C//DTD SVG 1.1//EN"
 "http://www.w3.org/Graphics/SVG/1.1/DTD/svg11.dtd">
<!-- Generated by graphviz version 2.43.0 (0)
 -->
<!-- Title: snakemake_dag Pages: 1 -->
<svg width="571pt" height="436pt"
 viewBox="0.00 0.00 571.00 436.00" xmlns="http://www.w3.org/2000/svg" xmlns:xlink="http://www.w3.org/1999/xlink">
<g id="graph0" class="graph" transform="scale(1 1) rotate(0) translate(4 432)">
<title>snakemake_dag</title>
<polygon fill="white" stroke="transparent" points="-4,4 -4,-432 567,-432 567,4 -4,4"/>
<!-- 0 -->
<g id="node1" class="node">
<title>0</title>
<path fill="none" stroke="#bed856" stroke-width="2" d="M300.5,-36C300.5,-36 270.5,-36 270.5,-36 264.5,-36 258.5,-30 258.5,-24 258.5,-24 258.5,-12 258.5,-12 258.5,-6 264.5,0 270.5,0 270.5,0 300.5,0 300.5,0 306.5,0 312.5,-6 312.5,-12 312.5,-12 312.5,-24 312.5,-24 312.5,-30 306.5,-36 300.5,-36"/>
<text text-anchor="middle" x="285.5" y="-15.5" font-family="sans" font-size="10.00">all</text>
</g>
<!-- 1 -->
<g id="node2" class="node">
<title>1</title>
<path fill="none" stroke="#59d856" stroke-width="2" d="M264.5,-108C264.5,-108 234.5,-108 234.5,-108 228.5,-108 222.5,-102 222.5,-96 222.5,-96 222.5,-84 222.5,-84 222.5,-78 228.5,-72 234.5,-72 234.5,-72 264.5,-72 264.5,-72 270.5,-72 276.5,-78 276.5,-84 276.5,-84 276.5,-96 276.5,-96 276.5,-102 270.5,-108 264.5,-108"/>
<text text-anchor="middle" x="249.5" y="-87.5" font-family="sans" font-size="10.00">post</text>
</g>
<!-- 1&#45;&gt;0 -->
<g id="edge1" class="edge">
<title>1&#45;&gt;0</title>
<path fill="none" stroke="grey" stroke-width="2" d="M258.4,-71.7C262.5,-63.73 267.45,-54.1 271.99,-45.26"/>
<polygon fill="grey" stroke="grey" stroke-width="2" points="275.24,-46.6 276.7,-36.1 269.02,-43.4 275.24,-46.6"/>
</g>
<!-- 2 -->
<g id="node3" class="node">
<title>2</title>
<path fill="none" stroke="#56d8c1" stroke-width="2" d="M398,-196C398,-196 287,-196 287,-196 281,-196 275,-190 275,-184 275,-184 275,-156 275,-156 275,-150 281,-144 287,-144 287,-144 398,-144 398,-144 404,-144 410,-150 410,-156 410,-156 410,-184 410,-184 410,-190 404,-196 398,-196"/>
<text text-anchor="middle" x="342.5" y="-184" font-family="sans" font-size="10.00">prepare_post</text>
<text text-anchor="middle" x="342.5" y="-173" font-family="sans" font-size="10.00">exp: rcp26</text>
<text text-anchor="middle" x="342.5" y="-162" font-family="sans" font-size="10.00">model: NCC&#45;NorESM1&#45;M</text>
<text text-anchor="middle" x="342.5" y="-151" font-family="sans" font-size="10.00">rcm: REMO2015</text>
</g>
<!-- 2&#45;&gt;1 -->
<g id="edge3" class="edge">
<title>2&#45;&gt;1</title>
<path fill="none" stroke="grey" stroke-width="2" d="M312.56,-143.89C301.37,-134.5 288.7,-123.88 277.67,-114.63"/>
<polygon fill="grey" stroke="grey" stroke-width="2" points="279.88,-111.91 269.97,-108.17 275.38,-117.28 279.88,-111.91"/>
</g>
<!-- 3 -->
<g id="node4" class="node">
<title>3</title>
<path fill="none" stroke="#d85656" stroke-width="2" d="M509.5,-276C509.5,-276 463.5,-276 463.5,-276 457.5,-276 451.5,-270 451.5,-264 451.5,-264 451.5,-252 451.5,-252 451.5,-246 457.5,-240 463.5,-240 463.5,-240 509.5,-240 509.5,-240 515.5,-240 521.5,-246 521.5,-252 521.5,-252 521.5,-264 521.5,-264 521.5,-270 515.5,-276 509.5,-276"/>
<text text-anchor="middle" x="486.5" y="-255.5" font-family="sans" font-size="10.00">post_years</text>
</g>
<!-- 3&#45;&gt;2 -->
<g id="edge5" class="edge">
<title>3&#45;&gt;2</title>
<path fill="none" stroke="grey" stroke-width="2" d="M457.71,-239.8C439.31,-228.82 414.95,-214.27 393.36,-201.38"/>
<polygon fill="grey" stroke="grey" stroke-width="2" points="395,-198.28 384.62,-196.16 391.41,-204.29 395,-198.28"/>
</g>
<!-- 11 -->
<g id="node12" class="node">
<title>11</title>
<path fill="none" stroke="#56d8c1" stroke-width="2" d="M551,-196C551,-196 440,-196 440,-196 434,-196 428,-190 428,-184 428,-184 428,-156 428,-156 428,-150 434,-144 440,-144 440,-144 551,-144 551,-144 557,-144 563,-150 563,-156 563,-156 563,-184 563,-184 563,-190 557,-196 551,-196"/>
<text text-anchor="middle" x="495.5" y="-184" font-family="sans" font-size="10.00">prepare_post</text>
<text text-anchor="middle" x="495.5" y="-173" font-family="sans" font-size="10.00">exp: rcp85</text>
<text text-anchor="middle" x="495.5" y="-162" font-family="sans" font-size="10.00">model: NCC&#45;NorESM1&#45;M</text>
<text text-anchor="middle" x="495.5" y="-151" font-family="sans" font-size="10.00">rcm: REMO2015</text>
</g>
<!-- 3&#45;&gt;11 -->
<g id="edge13" class="edge">
<title>3&#45;&gt;11</title>
<path fill="none" stroke="grey" stroke-width="2" d="M488.32,-239.6C489.32,-230.05 490.6,-217.86 491.79,-206.41"/>
<polygon fill="grey" stroke="grey" stroke-width="2" points="495.3,-206.51 492.86,-196.2 488.34,-205.79 495.3,-206.51"/>
</g>
<!-- 4 -->
<g id="node5" class="node">
<title>4</title>
<path fill="none" stroke="#56d88a" stroke-width="2" d="M172.5,-188C172.5,-188 142.5,-188 142.5,-188 136.5,-188 130.5,-182 130.5,-176 130.5,-176 130.5,-164 130.5,-164 130.5,-158 136.5,-152 142.5,-152 142.5,-152 172.5,-152 172.5,-152 178.5,-152 184.5,-158 184.5,-164 184.5,-164 184.5,-176 184.5,-176 184.5,-182 178.5,-188 172.5,-188"/>
<text text-anchor="middle" x="157.5" y="-167.5" font-family="sans" font-size="10.00">run</text>
</g>
<!-- 4&#45;&gt;1 -->
<g id="edge4" class="edge">
<title>4&#45;&gt;1</title>
<path fill="none" stroke="grey" stroke-width="2" d="M177.92,-151.69C190.66,-140.88 207.25,-126.82 221.25,-114.95"/>
<polygon fill="grey" stroke="grey" stroke-width="2" points="223.78,-117.4 229.14,-108.26 219.25,-112.06 223.78,-117.4"/>
</g>
<!-- 5 -->
<g id="node6" class="node">
<title>5</title>
<path fill="none" stroke="#88d856" stroke-width="2" d="M123,-284C123,-284 12,-284 12,-284 6,-284 0,-278 0,-272 0,-272 0,-244 0,-244 0,-238 6,-232 12,-232 12,-232 123,-232 123,-232 129,-232 135,-238 135,-244 135,-244 135,-272 135,-272 135,-278 129,-284 123,-284"/>
<text text-anchor="middle" x="67.5" y="-272" font-family="sans" font-size="10.00">prepare_run</text>
<text text-anchor="middle" x="67.5" y="-261" font-family="sans" font-size="10.00">exp: rcp26</text>
<text text-anchor="middle" x="67.5" y="-250" font-family="sans" font-size="10.00">model: NCC&#45;NorESM1&#45;M</text>
<text text-anchor="middle" x="67.5" y="-239" font-family="sans" font-size="10.00">rcm: REMO2015</text>
</g>
<!-- 5&#45;&gt;4 -->
<g id="edge6" class="edge">
<title>5&#45;&gt;4</title>
<path fill="none" stroke="grey" stroke-width="2" d="M94.02,-231.66C106.1,-220.12 120.33,-206.52 132.25,-195.13"/>
<polygon fill="grey" stroke="grey" stroke-width="2" points="134.89,-197.44 139.71,-188 130.06,-192.38 134.89,-197.44"/>
</g>
<!-- 6 -->
<g id="node7" class="node">
<title>6</title>
<path fill="none" stroke="#d88d56" stroke-width="2" d="M222,-278.5C222,-278.5 165,-278.5 165,-278.5 159,-278.5 153,-272.5 153,-266.5 153,-266.5 153,-249.5 153,-249.5 153,-243.5 159,-237.5 165,-237.5 165,-237.5 222,-237.5 222,-237.5 228,-237.5 234,-243.5 234,-249.5 234,-249.5 234,-266.5 234,-266.5 234,-272.5 228,-278.5 222,-278.5"/>
<text text-anchor="middle" x="193.5" y="-266.5" font-family="sans" font-size="10.00">spinup</text>
<text text-anchor="middle" x="193.5" y="-255.5" font-family="sans" font-size="10.00">rep: 1</text>
<text text-anchor="middle" x="193.5" y="-244.5" font-family="sans" font-size="10.00">richness: 500</text>
</g>
<!-- 6&#45;&gt;4 -->
<g id="edge7" class="edge">
<title>6&#45;&gt;4</title>
<path fill="none" stroke="grey" stroke-width="2" d="M185.33,-237.49C180.37,-225.64 173.98,-210.36 168.57,-197.44"/>
<polygon fill="grey" stroke="grey" stroke-width="2" points="171.75,-195.98 164.66,-188.11 165.3,-198.69 171.75,-195.98"/>
</g>
<!-- 12 -->
<g id="node13" class="node">
<title>12</title>
<path fill="none" stroke="#56d88a" stroke-width="2" d="M244.5,-188C244.5,-188 214.5,-188 214.5,-188 208.5,-188 202.5,-182 202.5,-176 202.5,-176 202.5,-164 202.5,-164 202.5,-158 208.5,-152 214.5,-152 214.5,-152 244.5,-152 244.5,-152 250.5,-152 256.5,-158 256.5,-164 256.5,-164 256.5,-176 256.5,-176 256.5,-182 250.5,-188 244.5,-188"/>
<text text-anchor="middle" x="229.5" y="-167.5" font-family="sans" font-size="10.00">run</text>
</g>
<!-- 6&#45;&gt;12 -->
<g id="edge15" class="edge">
<title>6&#45;&gt;12</title>
<path fill="none" stroke="grey" stroke-width="2" d="M201.67,-237.49C206.63,-225.64 213.02,-210.36 218.43,-197.44"/>
<polygon fill="grey" stroke="grey" stroke-width="2" points="221.7,-198.69 222.34,-188.11 215.25,-195.98 221.7,-198.69"/>
</g>
<!-- 7 -->
<g id="node8" class="node">
<title>7</title>
<path fill="none" stroke="#56c1d8" stroke-width="2" d="M174.5,-356C174.5,-356 106.5,-356 106.5,-356 100.5,-356 94.5,-350 94.5,-344 94.5,-344 94.5,-332 94.5,-332 94.5,-326 100.5,-320 106.5,-320 106.5,-320 174.5,-320 174.5,-320 180.5,-320 186.5,-326 186.5,-332 186.5,-332 186.5,-344 186.5,-344 186.5,-350 180.5,-356 174.5,-356"/>
<text text-anchor="middle" x="140.5" y="-335.5" font-family="sans" font-size="10.00">prepare_spinup</text>
</g>
<!-- 7&#45;&gt;6 -->
<g id="edge8" class="edge">
<title>7&#45;&gt;6</title>
<path fill="none" stroke="grey" stroke-width="2" d="M152.26,-319.69C158.76,-310.13 166.99,-298.01 174.39,-287.13"/>
<polygon fill="grey" stroke="grey" stroke-width="2" points="177.36,-288.97 180.09,-278.74 171.57,-285.04 177.36,-288.97"/>
</g>
<!-- 8 -->
<g id="node9" class="node">
<title>8</title>
<path fill="none" stroke="#568ad8" stroke-width="2" d="M169,-428C169,-428 112,-428 112,-428 106,-428 100,-422 100,-416 100,-416 100,-404 100,-404 100,-398 106,-392 112,-392 112,-392 169,-392 169,-392 175,-392 181,-398 181,-404 181,-404 181,-416 181,-416 181,-422 175,-428 169,-428"/>
<text text-anchor="middle" x="140.5" y="-407.5" font-family="sans" font-size="10.00">spinup_years</text>
</g>
<!-- 8&#45;&gt;7 -->
<g id="edge10" class="edge">
<title>8&#45;&gt;7</title>
<path fill="none" stroke="grey" stroke-width="2" d="M140.5,-391.7C140.5,-383.98 140.5,-374.71 140.5,-366.11"/>
<polygon fill="grey" stroke="grey" stroke-width="2" points="144,-366.1 140.5,-356.1 137,-366.1 144,-366.1"/>
</g>
<!-- 9 -->
<g id="node10" class="node">
<title>9</title>
<path fill="none" stroke="#d8bc56" stroke-width="2" d="M276.5,-356C276.5,-356 216.5,-356 216.5,-356 210.5,-356 204.5,-350 204.5,-344 204.5,-344 204.5,-332 204.5,-332 204.5,-326 210.5,-320 216.5,-320 216.5,-320 276.5,-320 276.5,-320 282.5,-320 288.5,-326 288.5,-332 288.5,-332 288.5,-344 288.5,-344 288.5,-350 282.5,-356 276.5,-356"/>
<text text-anchor="middle" x="246.5" y="-335.5" font-family="sans" font-size="10.00">sample_coms</text>
</g>
<!-- 9&#45;&gt;6 -->
<g id="edge9" class="edge">
<title>9&#45;&gt;6</title>
<path fill="none" stroke="grey" stroke-width="2" d="M234.74,-319.69C228.24,-310.13 220.01,-298.01 212.61,-287.13"/>
<polygon fill="grey" stroke="grey" stroke-width="2" points="215.43,-285.04 206.91,-278.74 209.64,-288.97 215.43,-285.04"/>
</g>
<!-- 10 -->
<g id="node11" class="node">
<title>10</title>
<path fill="none" stroke="#59d856" stroke-width="2" d="M336.5,-108C336.5,-108 306.5,-108 306.5,-108 300.5,-108 294.5,-102 294.5,-96 294.5,-96 294.5,-84 294.5,-84 294.5,-78 300.5,-72 306.5,-72 306.5,-72 336.5,-72 336.5,-72 342.5,-72 348.5,-78 348.5,-84 348.5,-84 348.5,-96 348.5,-96 348.5,-102 342.5,-108 336.5,-108"/>
<text text-anchor="middle" x="321.5" y="-87.5" font-family="sans" font-size="10.00">post</text>
</g>
<!-- 10&#45;&gt;0 -->
<g id="edge2" class="edge">
<title>10&#45;&gt;0</title>
<path fill="none" stroke="grey" stroke-width="2" d="M312.6,-71.7C308.5,-63.73 303.55,-54.1 299.01,-45.26"/>
<polygon fill="grey" stroke="grey" stroke-width="2" points="301.98,-43.4 294.3,-36.1 295.76,-46.6 301.98,-43.4"/>
</g>
<!-- 11&#45;&gt;10 -->
<g id="edge11" class="edge">
<title>11&#45;&gt;10</title>
<path fill="none" stroke="grey" stroke-width="2" d="M439.49,-143.89C412.77,-131.91 381.56,-117.93 357.96,-107.34"/>
<polygon fill="grey" stroke="grey" stroke-width="2" points="359.22,-104.07 348.67,-103.18 356.36,-110.46 359.22,-104.07"/>
</g>
<!-- 12&#45;&gt;10 -->
<g id="edge12" class="edge">
<title>12&#45;&gt;10</title>
<path fill="none" stroke="grey" stroke-width="2" d="M249.92,-151.69C262.66,-140.88 279.25,-126.82 293.25,-114.95"/>
<polygon fill="grey" stroke="grey" stroke-width="2" points="295.78,-117.4 301.14,-108.26 291.25,-112.06 295.78,-117.4"/>
</g>
<!-- 13 -->
<g id="node14" class="node">
<title>13</title>
<path fill="none" stroke="#88d856" stroke-width="2" d="M375,-284C375,-284 264,-284 264,-284 258,-284 252,-278 252,-272 252,-272 252,-244 252,-244 252,-238 258,-232 264,-232 264,-232 375,-232 375,-232 381,-232 387,-238 387,-244 387,-244 387,-272 387,-272 387,-278 381,-284 375,-284"/>
<text text-anchor="middle" x="319.5" y="-272" font-family="sans" font-size="10.00">prepare_run</text>
<text text-anchor="middle" x="319.5" y="-261" font-family="sans" font-size="10.00">exp: rcp85</text>
<text text-anchor="middle" x="319.5" y="-250" font-family="sans" font-size="10.00">model: NCC&#45;NorESM1&#45;M</text>
<text text-anchor="middle" x="319.5" y="-239" font-family="sans" font-size="10.00">rcm: REMO2015</text>
</g>
<!-- 13&#45;&gt;12 -->
<g id="edge14" class="edge">
<title>13&#45;&gt;12</title>
<path fill="none" stroke="grey" stroke-width="2" d="M292.98,-231.66C280.9,-220.12 266.67,-206.52 254.75,-195.13"/>
<polygon fill="grey" stroke="grey" stroke-width="2" points="256.94,-192.38 247.29,-188 252.11,-197.44 256.94,-192.38"/>
</g>
</g>
</svg>
