<?xml version="1.0" encoding="UTF-8" standalone="no"?>
<!DOCTYPE svg PUBLIC "-//W3C//DTD SVG 1.1//EN"
 "http://www.w3.org/Graphics/SVG/1.1/DTD/svg11.dtd">
<!-- Generated by graphviz version 2.43.0 (0)
 -->
<!-- Title: snakemake_dag Pages: 1 -->
<svg width="380pt" height="409pt"
 viewBox="0.00 0.00 379.50 409.00" xmlns="http://www.w3.org/2000/svg" xmlns:xlink="http://www.w3.org/1999/xlink">
<g id="graph0" class="graph" transform="scale(1 1) rotate(0) translate(4 405)">
<title>snakemake_dag</title>
<polygon fill="white" stroke="transparent" points="-4,4 -4,-405 375.5,-405 375.5,4 -4,4"/>
<!-- 0 -->
<g id="node1" class="node">
<title>0</title>
<path fill="none" stroke="#97d856" stroke-width="2" d="M165.5,-36C165.5,-36 135.5,-36 135.5,-36 129.5,-36 123.5,-30 123.5,-24 123.5,-24 123.5,-12 123.5,-12 123.5,-6 129.5,0 135.5,0 135.5,0 165.5,0 165.5,0 171.5,0 177.5,-6 177.5,-12 177.5,-12 177.5,-24 177.5,-24 177.5,-30 171.5,-36 165.5,-36"/>
<text text-anchor="middle" x="150.5" y="-15.5" font-family="sans" font-size="10.00">all</text>
</g>
<!-- 1 -->
<g id="node2" class="node">
<title>1</title>
<path fill="none" stroke="#d6d856" stroke-width="2" d="M129.5,-108C129.5,-108 99.5,-108 99.5,-108 93.5,-108 87.5,-102 87.5,-96 87.5,-96 87.5,-84 87.5,-84 87.5,-78 93.5,-72 99.5,-72 99.5,-72 129.5,-72 129.5,-72 135.5,-72 141.5,-78 141.5,-84 141.5,-84 141.5,-96 141.5,-96 141.5,-102 135.5,-108 129.5,-108"/>
<text text-anchor="middle" x="114.5" y="-87.5" font-family="sans" font-size="10.00">run2</text>
</g>
<!-- 1&#45;&gt;0 -->
<g id="edge1" class="edge">
<title>1&#45;&gt;0</title>
<path fill="none" stroke="grey" stroke-width="2" d="M123.4,-71.7C127.5,-63.73 132.45,-54.1 136.99,-45.26"/>
<polygon fill="grey" stroke="grey" stroke-width="2" points="140.24,-46.6 141.7,-36.1 134.02,-43.4 140.24,-46.6"/>
</g>
<!-- 2 -->
<g id="node3" class="node">
<title>2</title>
<path fill="none" stroke="#d85656" stroke-width="2" d="M63,-257C63,-257 12,-257 12,-257 6,-257 0,-251 0,-245 0,-245 0,-233 0,-233 0,-227 6,-221 12,-221 12,-221 63,-221 63,-221 69,-221 75,-227 75,-233 75,-233 75,-245 75,-245 75,-251 69,-257 63,-257"/>
<text text-anchor="middle" x="37.5" y="-236.5" font-family="sans" font-size="10.00">prepare_run</text>
</g>
<!-- 2&#45;&gt;1 -->
<g id="edge3" class="edge">
<title>2&#45;&gt;1</title>
<path fill="none" stroke="grey" stroke-width="2" d="M42.73,-220.73C48.94,-201.38 60.27,-169.4 74.5,-144 79.83,-134.5 86.67,-124.79 93.19,-116.32"/>
<polygon fill="grey" stroke="grey" stroke-width="2" points="96.06,-118.33 99.52,-108.32 90.57,-113.98 96.06,-118.33"/>
</g>
<!-- 4 -->
<g id="node5" class="node">
<title>4</title>
<path fill="none" stroke="#d89556" stroke-width="2" d="M133.5,-185C133.5,-185 95.5,-185 95.5,-185 89.5,-185 83.5,-179 83.5,-173 83.5,-173 83.5,-156 83.5,-156 83.5,-150 89.5,-144 95.5,-144 95.5,-144 133.5,-144 133.5,-144 139.5,-144 145.5,-150 145.5,-156 145.5,-156 145.5,-173 145.5,-173 145.5,-179 139.5,-185 133.5,-185"/>
<text text-anchor="middle" x="114.5" y="-173" font-family="sans" font-size="10.00">run</text>
<text text-anchor="middle" x="114.5" y="-162" font-family="sans" font-size="10.00">delta: 0.2</text>
<text text-anchor="middle" x="114.5" y="-151" font-family="sans" font-size="10.00">tau: 0.2</text>
</g>
<!-- 2&#45;&gt;4 -->
<g id="edge6" class="edge">
<title>2&#45;&gt;4</title>
<path fill="none" stroke="grey" stroke-width="2" d="M55.75,-220.82C64.82,-212.28 75.99,-201.76 86.15,-192.2"/>
<polygon fill="grey" stroke="grey" stroke-width="2" points="88.78,-194.52 93.66,-185.12 83.98,-189.43 88.78,-194.52"/>
</g>
<!-- 3 -->
<g id="node4" class="node">
<title>3</title>
<path fill="none" stroke="#569ad8" stroke-width="2" stroke-dasharray="5,2" d="M93,-401C93,-401 38,-401 38,-401 32,-401 26,-395 26,-389 26,-389 26,-377 26,-377 26,-371 32,-365 38,-365 38,-365 93,-365 93,-365 99,-365 105,-371 105,-377 105,-377 105,-389 105,-389 105,-395 99,-401 93,-401"/>
<text text-anchor="middle" x="65.5" y="-386" font-family="sans" font-size="10.00">format</text>
<text text-anchor="middle" x="65.5" y="-375" font-family="sans" font-size="10.00">site: Paracou</text>
</g>
<!-- 3&#45;&gt;2 -->
<g id="edge5" class="edge">
<title>3&#45;&gt;2</title>
<path fill="none" stroke="grey" stroke-width="2" d="M60.51,-364.92C57.61,-354.59 54.04,-341.11 51.5,-329 47.18,-308.46 43.55,-285.01 41.06,-267.34"/>
<polygon fill="grey" stroke="grey" stroke-width="2" points="44.49,-266.59 39.67,-257.16 37.56,-267.54 44.49,-266.59"/>
</g>
<!-- 5 -->
<g id="node6" class="node">
<title>5</title>
<path fill="none" stroke="#56d89a" stroke-width="2" stroke-dasharray="5,2" d="M135.5,-257C135.5,-257 105.5,-257 105.5,-257 99.5,-257 93.5,-251 93.5,-245 93.5,-245 93.5,-233 93.5,-233 93.5,-227 99.5,-221 105.5,-221 105.5,-221 135.5,-221 135.5,-221 141.5,-221 147.5,-227 147.5,-233 147.5,-233 147.5,-245 147.5,-245 147.5,-251 141.5,-257 135.5,-257"/>
<text text-anchor="middle" x="120.5" y="-236.5" font-family="sans" font-size="10.00">spinup</text>
</g>
<!-- 3&#45;&gt;5 -->
<g id="edge9" class="edge">
<title>3&#45;&gt;5</title>
<path fill="none" stroke="grey" stroke-width="2" d="M67.2,-364.67C69.45,-346.29 74.39,-316.69 84.5,-293 88.58,-283.43 94.49,-273.78 100.34,-265.39"/>
<polygon fill="grey" stroke="grey" stroke-width="2" points="103.28,-267.29 106.34,-257.15 97.62,-263.17 103.28,-267.29"/>
</g>
<!-- 6 -->
<g id="node7" class="node">
<title>6</title>
<path fill="none" stroke="#56d8d8" stroke-width="2" stroke-dasharray="5,2" d="M173.5,-329C173.5,-329 105.5,-329 105.5,-329 99.5,-329 93.5,-323 93.5,-317 93.5,-317 93.5,-305 93.5,-305 93.5,-299 99.5,-293 105.5,-293 105.5,-293 173.5,-293 173.5,-293 179.5,-293 185.5,-299 185.5,-305 185.5,-305 185.5,-317 185.5,-317 185.5,-323 179.5,-329 173.5,-329"/>
<text text-anchor="middle" x="139.5" y="-308.5" font-family="sans" font-size="10.00">prepare_spinup</text>
</g>
<!-- 3&#45;&gt;6 -->
<g id="edge10" class="edge">
<title>3&#45;&gt;6</title>
<path fill="none" stroke="grey" stroke-width="2" d="M83.79,-364.7C92.93,-356.05 104.14,-345.45 114.1,-336.03"/>
<polygon fill="grey" stroke="grey" stroke-width="2" points="116.56,-338.52 121.42,-329.1 111.75,-333.43 116.56,-338.52"/>
</g>
<!-- 4&#45;&gt;1 -->
<g id="edge4" class="edge">
<title>4&#45;&gt;1</title>
<path fill="none" stroke="grey" stroke-width="2" d="M114.5,-143.69C114.5,-135.91 114.5,-126.84 114.5,-118.45"/>
<polygon fill="grey" stroke="grey" stroke-width="2" points="118,-118.32 114.5,-108.32 111,-118.32 118,-118.32"/>
</g>
<!-- 5&#45;&gt;4 -->
<g id="edge7" class="edge">
<title>5&#45;&gt;4</title>
<path fill="none" stroke="grey" stroke-width="2" d="M119.08,-220.82C118.45,-213.2 117.69,-204 116.97,-195.32"/>
<polygon fill="grey" stroke="grey" stroke-width="2" points="120.44,-194.8 116.12,-185.12 113.46,-195.37 120.44,-194.8"/>
</g>
<!-- 6&#45;&gt;5 -->
<g id="edge8" class="edge">
<title>6&#45;&gt;5</title>
<path fill="none" stroke="grey" stroke-width="2" d="M134.8,-292.7C132.69,-284.9 130.14,-275.51 127.78,-266.83"/>
<polygon fill="grey" stroke="grey" stroke-width="2" points="131.14,-265.84 125.14,-257.1 124.38,-267.67 131.14,-265.84"/>
</g>
<!-- 7 -->
<g id="node8" class="node">
<title>7</title>
<path fill="none" stroke="#d6d856" stroke-width="2" d="M212.5,-108C212.5,-108 182.5,-108 182.5,-108 176.5,-108 170.5,-102 170.5,-96 170.5,-96 170.5,-84 170.5,-84 170.5,-78 176.5,-72 182.5,-72 182.5,-72 212.5,-72 212.5,-72 218.5,-72 224.5,-78 224.5,-84 224.5,-84 224.5,-96 224.5,-96 224.5,-102 218.5,-108 212.5,-108"/>
<text text-anchor="middle" x="197.5" y="-87.5" font-family="sans" font-size="10.00">run2</text>
</g>
<!-- 7&#45;&gt;0 -->
<g id="edge2" class="edge">
<title>7&#45;&gt;0</title>
<path fill="none" stroke="grey" stroke-width="2" d="M185.88,-71.7C180.36,-63.47 173.65,-53.48 167.57,-44.42"/>
<polygon fill="grey" stroke="grey" stroke-width="2" points="170.46,-42.46 161.98,-36.1 164.65,-46.36 170.46,-42.46"/>
</g>
<!-- 8 -->
<g id="node9" class="node">
<title>8</title>
<path fill="none" stroke="#d85656" stroke-width="2" d="M234,-257C234,-257 183,-257 183,-257 177,-257 171,-251 171,-245 171,-245 171,-233 171,-233 171,-227 177,-221 183,-221 183,-221 234,-221 234,-221 240,-221 246,-227 246,-233 246,-233 246,-245 246,-245 246,-251 240,-257 234,-257"/>
<text text-anchor="middle" x="208.5" y="-236.5" font-family="sans" font-size="10.00">prepare_run</text>
</g>
<!-- 8&#45;&gt;7 -->
<g id="edge11" class="edge">
<title>8&#45;&gt;7</title>
<path fill="none" stroke="grey" stroke-width="2" d="M207.22,-220.85C205.33,-195.62 201.78,-148.26 199.54,-118.24"/>
<polygon fill="grey" stroke="grey" stroke-width="2" points="203.01,-117.75 198.78,-108.04 196.03,-118.27 203.01,-117.75"/>
</g>
<!-- 10 -->
<g id="node11" class="node">
<title>10</title>
<path fill="none" stroke="#d89556" stroke-width="2" d="M275.5,-185C275.5,-185 237.5,-185 237.5,-185 231.5,-185 225.5,-179 225.5,-173 225.5,-173 225.5,-156 225.5,-156 225.5,-150 231.5,-144 237.5,-144 237.5,-144 275.5,-144 275.5,-144 281.5,-144 287.5,-150 287.5,-156 287.5,-156 287.5,-173 287.5,-173 287.5,-179 281.5,-185 275.5,-185"/>
<text text-anchor="middle" x="256.5" y="-173" font-family="sans" font-size="10.00">run</text>
<text text-anchor="middle" x="256.5" y="-162" font-family="sans" font-size="10.00">delta: 0.2</text>
<text text-anchor="middle" x="256.5" y="-151" font-family="sans" font-size="10.00">tau: 0.2</text>
</g>
<!-- 8&#45;&gt;10 -->
<g id="edge14" class="edge">
<title>8&#45;&gt;10</title>
<path fill="none" stroke="grey" stroke-width="2" d="M219.88,-220.82C225.25,-212.7 231.81,-202.79 237.89,-193.61"/>
<polygon fill="grey" stroke="grey" stroke-width="2" points="240.91,-195.39 243.51,-185.12 235.07,-191.53 240.91,-195.39"/>
</g>
<!-- 9 -->
<g id="node10" class="node">
<title>9</title>
<path fill="none" stroke="#569ad8" stroke-width="2" stroke-dasharray="5,2" d="M278,-401C278,-401 225,-401 225,-401 219,-401 213,-395 213,-389 213,-389 213,-377 213,-377 213,-371 219,-365 225,-365 225,-365 278,-365 278,-365 284,-365 290,-371 290,-377 290,-377 290,-389 290,-389 290,-395 284,-401 278,-401"/>
<text text-anchor="middle" x="251.5" y="-386" font-family="sans" font-size="10.00">format</text>
<text text-anchor="middle" x="251.5" y="-375" font-family="sans" font-size="10.00">site: Tapajos</text>
</g>
<!-- 9&#45;&gt;8 -->
<g id="edge13" class="edge">
<title>9&#45;&gt;8</title>
<path fill="none" stroke="grey" stroke-width="2" d="M246.31,-364.87C238.95,-340.56 225.4,-295.82 216.68,-267.01"/>
<polygon fill="grey" stroke="grey" stroke-width="2" points="219.95,-265.75 213.71,-257.19 213.25,-267.77 219.95,-265.75"/>
</g>
<!-- 11 -->
<g id="node12" class="node">
<title>11</title>
<path fill="none" stroke="#56d89a" stroke-width="2" stroke-dasharray="5,2" d="M306.5,-257C306.5,-257 276.5,-257 276.5,-257 270.5,-257 264.5,-251 264.5,-245 264.5,-245 264.5,-233 264.5,-233 264.5,-227 270.5,-221 276.5,-221 276.5,-221 306.5,-221 306.5,-221 312.5,-221 318.5,-227 318.5,-233 318.5,-233 318.5,-245 318.5,-245 318.5,-251 312.5,-257 306.5,-257"/>
<text text-anchor="middle" x="291.5" y="-236.5" font-family="sans" font-size="10.00">spinup</text>
</g>
<!-- 9&#45;&gt;11 -->
<g id="edge17" class="edge">
<title>9&#45;&gt;11</title>
<path fill="none" stroke="grey" stroke-width="2" d="M254.31,-364.72C257.45,-346.63 263.09,-317.5 270.5,-293 273.14,-284.28 276.59,-274.99 279.93,-266.65"/>
<polygon fill="grey" stroke="grey" stroke-width="2" points="283.17,-267.98 283.75,-257.41 276.7,-265.31 283.17,-267.98"/>
</g>
<!-- 12 -->
<g id="node13" class="node">
<title>12</title>
<path fill="none" stroke="#56d8d8" stroke-width="2" stroke-dasharray="5,2" d="M359.5,-329C359.5,-329 291.5,-329 291.5,-329 285.5,-329 279.5,-323 279.5,-317 279.5,-317 279.5,-305 279.5,-305 279.5,-299 285.5,-293 291.5,-293 291.5,-293 359.5,-293 359.5,-293 365.5,-293 371.5,-299 371.5,-305 371.5,-305 371.5,-317 371.5,-317 371.5,-323 365.5,-329 359.5,-329"/>
<text text-anchor="middle" x="325.5" y="-308.5" font-family="sans" font-size="10.00">prepare_spinup</text>
</g>
<!-- 9&#45;&gt;12 -->
<g id="edge18" class="edge">
<title>9&#45;&gt;12</title>
<path fill="none" stroke="grey" stroke-width="2" d="M269.79,-364.7C278.93,-356.05 290.14,-345.45 300.1,-336.03"/>
<polygon fill="grey" stroke="grey" stroke-width="2" points="302.56,-338.52 307.42,-329.1 297.75,-333.43 302.56,-338.52"/>
</g>
<!-- 10&#45;&gt;7 -->
<g id="edge12" class="edge">
<title>10&#45;&gt;7</title>
<path fill="none" stroke="grey" stroke-width="2" d="M240.38,-143.69C233.48,-135.21 225.35,-125.22 218.03,-116.23"/>
<polygon fill="grey" stroke="grey" stroke-width="2" points="220.62,-113.87 211.59,-108.32 215.19,-118.28 220.62,-113.87"/>
</g>
<!-- 11&#45;&gt;10 -->
<g id="edge15" class="edge">
<title>11&#45;&gt;10</title>
<path fill="none" stroke="grey" stroke-width="2" d="M283.21,-220.82C279.36,-212.86 274.7,-203.19 270.34,-194.18"/>
<polygon fill="grey" stroke="grey" stroke-width="2" points="273.47,-192.6 265.97,-185.12 267.17,-195.65 273.47,-192.6"/>
</g>
<!-- 12&#45;&gt;11 -->
<g id="edge16" class="edge">
<title>12&#45;&gt;11</title>
<path fill="none" stroke="grey" stroke-width="2" d="M317.1,-292.7C313.23,-284.73 308.55,-275.1 304.26,-266.26"/>
<polygon fill="grey" stroke="grey" stroke-width="2" points="307.33,-264.57 299.81,-257.1 301.03,-267.63 307.33,-264.57"/>
</g>
</g>
</svg>
