<?xml version="1.0" encoding="UTF-8" standalone="no"?>
<!DOCTYPE svg PUBLIC "-//W3C//DTD SVG 1.1//EN"
 "http://www.w3.org/Graphics/SVG/1.1/DTD/svg11.dtd">
<!-- Generated by graphviz version 2.43.0 (0)
 -->
<!-- Title: snakemake_dag Pages: 1 -->
<svg width="944pt" height="337pt"
 viewBox="0.00 0.00 943.50 337.00" xmlns="http://www.w3.org/2000/svg" xmlns:xlink="http://www.w3.org/1999/xlink">
<g id="graph0" class="graph" transform="scale(1 1) rotate(0) translate(4 333)">
<title>snakemake_dag</title>
<polygon fill="white" stroke="transparent" points="-4,4 -4,-333 939.5,-333 939.5,4 -4,4"/>
<!-- 0 -->
<g id="node1" class="node">
<title>0</title>
<path fill="none" stroke="#d8bc56" stroke-width="2" d="M487,-36C487,-36 457,-36 457,-36 451,-36 445,-30 445,-24 445,-24 445,-12 445,-12 445,-6 451,0 457,0 457,0 487,0 487,0 493,0 499,-6 499,-12 499,-12 499,-24 499,-24 499,-30 493,-36 487,-36"/>
<text text-anchor="middle" x="472" y="-15.5" font-family="sans" font-size="10.00">all</text>
</g>
<!-- 1 -->
<g id="node2" class="node">
<title>1</title>
<path fill="none" stroke="#56c1d8" stroke-width="2" d="M234,-108C234,-108 204,-108 204,-108 198,-108 192,-102 192,-96 192,-96 192,-84 192,-84 192,-78 198,-72 204,-72 204,-72 234,-72 234,-72 240,-72 246,-78 246,-84 246,-84 246,-96 246,-96 246,-102 240,-108 234,-108"/>
<text text-anchor="middle" x="219" y="-87.5" font-family="sans" font-size="10.00">run</text>
</g>
<!-- 1&#45;&gt;0 -->
<g id="edge1" class="edge">
<title>1&#45;&gt;0</title>
<path fill="none" stroke="grey" stroke-width="2" d="M246.08,-81.51C291.61,-68.91 383.57,-43.47 435.01,-29.23"/>
<polygon fill="grey" stroke="grey" stroke-width="2" points="436.03,-32.58 444.74,-26.54 434.17,-25.84 436.03,-32.58"/>
</g>
<!-- 2 -->
<g id="node3" class="node">
<title>2</title>
<path fill="none" stroke="#d85656" stroke-width="2" d="M142.5,-252C142.5,-252 91.5,-252 91.5,-252 85.5,-252 79.5,-246 79.5,-240 79.5,-240 79.5,-228 79.5,-228 79.5,-222 85.5,-216 91.5,-216 91.5,-216 142.5,-216 142.5,-216 148.5,-216 154.5,-222 154.5,-228 154.5,-228 154.5,-240 154.5,-240 154.5,-246 148.5,-252 142.5,-252"/>
<text text-anchor="middle" x="117" y="-231.5" font-family="sans" font-size="10.00">prepare_run</text>
</g>
<!-- 2&#45;&gt;1 -->
<g id="edge5" class="edge">
<title>2&#45;&gt;1</title>
<path fill="none" stroke="grey" stroke-width="2" d="M129.3,-215.87C147.07,-191.14 180.04,-145.24 200.67,-116.51"/>
<polygon fill="grey" stroke="grey" stroke-width="2" points="203.66,-118.35 206.65,-108.19 197.98,-114.27 203.66,-118.35"/>
</g>
<!-- 3 -->
<g id="node4" class="node">
<title>3</title>
<path fill="none" stroke="#bed856" stroke-width="2" stroke-dasharray="5,2" d="M122,-329C122,-329 12,-329 12,-329 6,-329 0,-323 0,-317 0,-317 0,-300 0,-300 0,-294 6,-288 12,-288 12,-288 122,-288 122,-288 128,-288 134,-294 134,-300 134,-300 134,-317 134,-317 134,-323 128,-329 122,-329"/>
<text text-anchor="middle" x="67" y="-317" font-family="sans" font-size="10.00">get_data</text>
<text text-anchor="middle" x="67" y="-306" font-family="sans" font-size="10.00">site: GF&#45;Guy_2004&#45;2014</text>
<text text-anchor="middle" x="67" y="-295" font-family="sans" font-size="10.00">type: Met</text>
</g>
<!-- 3&#45;&gt;2 -->
<g id="edge7" class="edge">
<title>3&#45;&gt;2</title>
<path fill="none" stroke="grey" stroke-width="2" d="M80.66,-287.69C86.39,-279.39 93.12,-269.63 99.22,-260.78"/>
<polygon fill="grey" stroke="grey" stroke-width="2" points="102.26,-262.54 105.06,-252.32 96.5,-258.56 102.26,-262.54"/>
</g>
<!-- 6 -->
<g id="node7" class="node">
<title>6</title>
<path fill="none" stroke="#56d88a" stroke-width="2" stroke-dasharray="5,2" d="M253,-252C253,-252 185,-252 185,-252 179,-252 173,-246 173,-240 173,-240 173,-228 173,-228 173,-222 179,-216 185,-216 185,-216 253,-216 253,-216 259,-216 265,-222 265,-228 265,-228 265,-240 265,-240 265,-246 259,-252 253,-252"/>
<text text-anchor="middle" x="219" y="-231.5" font-family="sans" font-size="10.00">prepare_spinup</text>
</g>
<!-- 3&#45;&gt;6 -->
<g id="edge10" class="edge">
<title>3&#45;&gt;6</title>
<path fill="none" stroke="grey" stroke-width="2" d="M108.13,-287.88C128.49,-278.17 153.11,-266.43 173.97,-256.48"/>
<polygon fill="grey" stroke="grey" stroke-width="2" points="175.74,-259.51 183.26,-252.05 172.73,-253.19 175.74,-259.51"/>
</g>
<!-- 4 -->
<g id="node5" class="node">
<title>4</title>
<path fill="none" stroke="#bed856" stroke-width="2" stroke-dasharray="5,2" d="M274,-329C274,-329 164,-329 164,-329 158,-329 152,-323 152,-317 152,-317 152,-300 152,-300 152,-294 158,-288 164,-288 164,-288 274,-288 274,-288 280,-288 286,-294 286,-300 286,-300 286,-317 286,-317 286,-323 280,-329 274,-329"/>
<text text-anchor="middle" x="219" y="-317" font-family="sans" font-size="10.00">get_data</text>
<text text-anchor="middle" x="219" y="-306" font-family="sans" font-size="10.00">site: GF&#45;Guy_2004&#45;2014</text>
<text text-anchor="middle" x="219" y="-295" font-family="sans" font-size="10.00">type: Flux</text>
</g>
<!-- 4&#45;&gt;2 -->
<g id="edge8" class="edge">
<title>4&#45;&gt;2</title>
<path fill="none" stroke="grey" stroke-width="2" d="M191.4,-287.88C178.52,-278.73 163.11,-267.77 149.66,-258.21"/>
<polygon fill="grey" stroke="grey" stroke-width="2" points="151.33,-255.11 141.15,-252.17 147.27,-260.81 151.33,-255.11"/>
</g>
<!-- 4&#45;&gt;6 -->
<g id="edge11" class="edge">
<title>4&#45;&gt;6</title>
<path fill="none" stroke="grey" stroke-width="2" d="M219,-287.69C219,-279.91 219,-270.84 219,-262.45"/>
<polygon fill="grey" stroke="grey" stroke-width="2" points="222.5,-262.32 219,-252.32 215.5,-262.32 222.5,-262.32"/>
</g>
<!-- 5 -->
<g id="node6" class="node">
<title>5</title>
<path fill="none" stroke="#59d856" stroke-width="2" stroke-dasharray="5,2" d="M234,-180C234,-180 204,-180 204,-180 198,-180 192,-174 192,-168 192,-168 192,-156 192,-156 192,-150 198,-144 204,-144 204,-144 234,-144 234,-144 240,-144 246,-150 246,-156 246,-156 246,-168 246,-168 246,-174 240,-180 234,-180"/>
<text text-anchor="middle" x="219" y="-159.5" font-family="sans" font-size="10.00">spinup</text>
</g>
<!-- 5&#45;&gt;1 -->
<g id="edge6" class="edge">
<title>5&#45;&gt;1</title>
<path fill="none" stroke="grey" stroke-width="2" d="M219,-143.7C219,-135.98 219,-126.71 219,-118.11"/>
<polygon fill="grey" stroke="grey" stroke-width="2" points="222.5,-118.1 219,-108.1 215.5,-118.1 222.5,-118.1"/>
</g>
<!-- 6&#45;&gt;5 -->
<g id="edge9" class="edge">
<title>6&#45;&gt;5</title>
<path fill="none" stroke="grey" stroke-width="2" d="M219,-215.7C219,-207.98 219,-198.71 219,-190.11"/>
<polygon fill="grey" stroke="grey" stroke-width="2" points="222.5,-190.1 219,-180.1 215.5,-190.1 222.5,-190.1"/>
</g>
<!-- 7 -->
<g id="node8" class="node">
<title>7</title>
<path fill="none" stroke="#56c1d8" stroke-width="2" d="M441,-108C441,-108 411,-108 411,-108 405,-108 399,-102 399,-96 399,-96 399,-84 399,-84 399,-78 405,-72 411,-72 411,-72 441,-72 441,-72 447,-72 453,-78 453,-84 453,-84 453,-96 453,-96 453,-102 447,-108 441,-108"/>
<text text-anchor="middle" x="426" y="-87.5" font-family="sans" font-size="10.00">run</text>
</g>
<!-- 7&#45;&gt;0 -->
<g id="edge2" class="edge">
<title>7&#45;&gt;0</title>
<path fill="none" stroke="grey" stroke-width="2" d="M437.37,-71.7C442.72,-63.56 449.2,-53.69 455.11,-44.7"/>
<polygon fill="grey" stroke="grey" stroke-width="2" points="458.19,-46.38 460.76,-36.1 452.34,-42.54 458.19,-46.38"/>
</g>
<!-- 8 -->
<g id="node9" class="node">
<title>8</title>
<path fill="none" stroke="#d85656" stroke-width="2" d="M396.5,-252C396.5,-252 345.5,-252 345.5,-252 339.5,-252 333.5,-246 333.5,-240 333.5,-240 333.5,-228 333.5,-228 333.5,-222 339.5,-216 345.5,-216 345.5,-216 396.5,-216 396.5,-216 402.5,-216 408.5,-222 408.5,-228 408.5,-228 408.5,-240 408.5,-240 408.5,-246 402.5,-252 396.5,-252"/>
<text text-anchor="middle" x="371" y="-231.5" font-family="sans" font-size="10.00">prepare_run</text>
</g>
<!-- 8&#45;&gt;7 -->
<g id="edge12" class="edge">
<title>8&#45;&gt;7</title>
<path fill="none" stroke="grey" stroke-width="2" d="M372.7,-215.67C374.95,-197.29 379.89,-167.69 390,-144 394.08,-134.43 399.99,-124.78 405.84,-116.39"/>
<polygon fill="grey" stroke="grey" stroke-width="2" points="408.78,-118.29 411.84,-108.15 403.12,-114.17 408.78,-118.29"/>
</g>
<!-- 9 -->
<g id="node10" class="node">
<title>9</title>
<path fill="none" stroke="#bed856" stroke-width="2" stroke-dasharray="5,2" d="M425.5,-329C425.5,-329 316.5,-329 316.5,-329 310.5,-329 304.5,-323 304.5,-317 304.5,-317 304.5,-300 304.5,-300 304.5,-294 310.5,-288 316.5,-288 316.5,-288 425.5,-288 425.5,-288 431.5,-288 437.5,-294 437.5,-300 437.5,-300 437.5,-317 437.5,-317 437.5,-323 431.5,-329 425.5,-329"/>
<text text-anchor="middle" x="371" y="-317" font-family="sans" font-size="10.00">get_data</text>
<text text-anchor="middle" x="371" y="-306" font-family="sans" font-size="10.00">site: BR&#45;Sa3_2001&#45;2003</text>
<text text-anchor="middle" x="371" y="-295" font-family="sans" font-size="10.00">type: Met</text>
</g>
<!-- 9&#45;&gt;8 -->
<g id="edge14" class="edge">
<title>9&#45;&gt;8</title>
<path fill="none" stroke="grey" stroke-width="2" d="M371,-287.69C371,-279.91 371,-270.84 371,-262.45"/>
<polygon fill="grey" stroke="grey" stroke-width="2" points="374.5,-262.32 371,-252.32 367.5,-262.32 374.5,-262.32"/>
</g>
<!-- 12 -->
<g id="node13" class="node">
<title>12</title>
<path fill="none" stroke="#56d88a" stroke-width="2" stroke-dasharray="5,2" d="M507,-252C507,-252 439,-252 439,-252 433,-252 427,-246 427,-240 427,-240 427,-228 427,-228 427,-222 433,-216 439,-216 439,-216 507,-216 507,-216 513,-216 519,-222 519,-228 519,-228 519,-240 519,-240 519,-246 513,-252 507,-252"/>
<text text-anchor="middle" x="473" y="-231.5" font-family="sans" font-size="10.00">prepare_spinup</text>
</g>
<!-- 9&#45;&gt;12 -->
<g id="edge17" class="edge">
<title>9&#45;&gt;12</title>
<path fill="none" stroke="grey" stroke-width="2" d="M398.6,-287.88C411.48,-278.73 426.89,-267.77 440.34,-258.21"/>
<polygon fill="grey" stroke="grey" stroke-width="2" points="442.73,-260.81 448.85,-252.17 438.67,-255.11 442.73,-260.81"/>
</g>
<!-- 10 -->
<g id="node11" class="node">
<title>10</title>
<path fill="none" stroke="#bed856" stroke-width="2" stroke-dasharray="5,2" d="M576.5,-329C576.5,-329 467.5,-329 467.5,-329 461.5,-329 455.5,-323 455.5,-317 455.5,-317 455.5,-300 455.5,-300 455.5,-294 461.5,-288 467.5,-288 467.5,-288 576.5,-288 576.5,-288 582.5,-288 588.5,-294 588.5,-300 588.5,-300 588.5,-317 588.5,-317 588.5,-323 582.5,-329 576.5,-329"/>
<text text-anchor="middle" x="522" y="-317" font-family="sans" font-size="10.00">get_data</text>
<text text-anchor="middle" x="522" y="-306" font-family="sans" font-size="10.00">site: BR&#45;Sa3_2001&#45;2003</text>
<text text-anchor="middle" x="522" y="-295" font-family="sans" font-size="10.00">type: Flux</text>
</g>
<!-- 10&#45;&gt;8 -->
<g id="edge15" class="edge">
<title>10&#45;&gt;8</title>
<path fill="none" stroke="grey" stroke-width="2" d="M481.14,-287.88C460.91,-278.17 436.46,-266.43 415.73,-256.48"/>
<polygon fill="grey" stroke="grey" stroke-width="2" points="417.03,-253.22 406.5,-252.05 414,-259.53 417.03,-253.22"/>
</g>
<!-- 10&#45;&gt;12 -->
<g id="edge18" class="edge">
<title>10&#45;&gt;12</title>
<path fill="none" stroke="grey" stroke-width="2" d="M508.61,-287.69C503,-279.39 496.4,-269.63 490.42,-260.78"/>
<polygon fill="grey" stroke="grey" stroke-width="2" points="493.21,-258.64 484.71,-252.32 487.41,-262.56 493.21,-258.64"/>
</g>
<!-- 11 -->
<g id="node12" class="node">
<title>11</title>
<path fill="none" stroke="#59d856" stroke-width="2" stroke-dasharray="5,2" d="M441,-180C441,-180 411,-180 411,-180 405,-180 399,-174 399,-168 399,-168 399,-156 399,-156 399,-150 405,-144 411,-144 411,-144 441,-144 441,-144 447,-144 453,-150 453,-156 453,-156 453,-168 453,-168 453,-174 447,-180 441,-180"/>
<text text-anchor="middle" x="426" y="-159.5" font-family="sans" font-size="10.00">spinup</text>
</g>
<!-- 11&#45;&gt;7 -->
<g id="edge13" class="edge">
<title>11&#45;&gt;7</title>
<path fill="none" stroke="grey" stroke-width="2" d="M426,-143.7C426,-135.98 426,-126.71 426,-118.11"/>
<polygon fill="grey" stroke="grey" stroke-width="2" points="429.5,-118.1 426,-108.1 422.5,-118.1 429.5,-118.1"/>
</g>
<!-- 12&#45;&gt;11 -->
<g id="edge16" class="edge">
<title>12&#45;&gt;11</title>
<path fill="none" stroke="grey" stroke-width="2" d="M461.38,-215.7C455.86,-207.47 449.15,-197.48 443.07,-188.42"/>
<polygon fill="grey" stroke="grey" stroke-width="2" points="445.96,-186.46 437.48,-180.1 440.15,-190.36 445.96,-186.46"/>
</g>
<!-- 13 -->
<g id="node14" class="node">
<title>13</title>
<path fill="none" stroke="#56c1d8" stroke-width="2" d="M534,-108C534,-108 504,-108 504,-108 498,-108 492,-102 492,-96 492,-96 492,-84 492,-84 492,-78 498,-72 504,-72 504,-72 534,-72 534,-72 540,-72 546,-78 546,-84 546,-84 546,-96 546,-96 546,-102 540,-108 534,-108"/>
<text text-anchor="middle" x="519" y="-87.5" font-family="sans" font-size="10.00">run</text>
</g>
<!-- 13&#45;&gt;0 -->
<g id="edge3" class="edge">
<title>13&#45;&gt;0</title>
<path fill="none" stroke="grey" stroke-width="2" d="M507.38,-71.7C501.86,-63.47 495.15,-53.48 489.07,-44.42"/>
<polygon fill="grey" stroke="grey" stroke-width="2" points="491.96,-42.46 483.48,-36.1 486.15,-46.36 491.96,-42.46"/>
</g>
<!-- 14 -->
<g id="node15" class="node">
<title>14</title>
<path fill="none" stroke="#d88d56" stroke-width="2" d="M555,-180C555,-180 483,-180 483,-180 477,-180 471,-174 471,-168 471,-168 471,-156 471,-156 471,-150 477,-144 483,-144 483,-144 555,-144 555,-144 561,-144 567,-150 567,-156 567,-156 567,-168 567,-168 567,-174 561,-180 555,-180"/>
<text text-anchor="middle" x="519" y="-159.5" font-family="sans" font-size="10.00">prepare_run_era</text>
</g>
<!-- 14&#45;&gt;13 -->
<g id="edge19" class="edge">
<title>14&#45;&gt;13</title>
<path fill="none" stroke="grey" stroke-width="2" d="M519,-143.7C519,-135.98 519,-126.71 519,-118.11"/>
<polygon fill="grey" stroke="grey" stroke-width="2" points="522.5,-118.1 519,-108.1 515.5,-118.1 522.5,-118.1"/>
</g>
<!-- 15 -->
<g id="node16" class="node">
<title>15</title>
<path fill="none" stroke="#59d856" stroke-width="2" stroke-dasharray="5,2" d="M680.5,-180C680.5,-180 597.5,-180 597.5,-180 591.5,-180 585.5,-174 585.5,-168 585.5,-168 585.5,-156 585.5,-156 585.5,-150 591.5,-144 597.5,-144 597.5,-144 680.5,-144 680.5,-144 686.5,-144 692.5,-150 692.5,-156 692.5,-156 692.5,-168 692.5,-168 692.5,-174 686.5,-180 680.5,-180"/>
<text text-anchor="middle" x="639" y="-165" font-family="sans" font-size="10.00">spinup</text>
<text text-anchor="middle" x="639" y="-154" font-family="sans" font-size="10.00">site: GF&#45;Guy&#45;ERA5</text>
</g>
<!-- 15&#45;&gt;13 -->
<g id="edge20" class="edge">
<title>15&#45;&gt;13</title>
<path fill="none" stroke="grey" stroke-width="2" d="M609.64,-143.88C593.1,-134.23 572.31,-122.1 554.81,-111.89"/>
<polygon fill="grey" stroke="grey" stroke-width="2" points="556.4,-108.77 546,-106.75 552.87,-114.81 556.4,-108.77"/>
</g>
<!-- 16 -->
<g id="node17" class="node">
<title>16</title>
<path fill="none" stroke="#88d856" stroke-width="2" stroke-dasharray="5,2" d="M683.5,-252C683.5,-252 594.5,-252 594.5,-252 588.5,-252 582.5,-246 582.5,-240 582.5,-240 582.5,-228 582.5,-228 582.5,-222 588.5,-216 594.5,-216 594.5,-216 683.5,-216 683.5,-216 689.5,-216 695.5,-222 695.5,-228 695.5,-228 695.5,-240 695.5,-240 695.5,-246 689.5,-252 683.5,-252"/>
<text text-anchor="middle" x="639" y="-231.5" font-family="sans" font-size="10.00">prepare_spinup_era</text>
</g>
<!-- 16&#45;&gt;15 -->
<g id="edge21" class="edge">
<title>16&#45;&gt;15</title>
<path fill="none" stroke="grey" stroke-width="2" d="M639,-215.7C639,-207.98 639,-198.71 639,-190.11"/>
<polygon fill="grey" stroke="grey" stroke-width="2" points="642.5,-190.1 639,-180.1 635.5,-190.1 642.5,-190.1"/>
</g>
<!-- 17 -->
<g id="node18" class="node">
<title>17</title>
<path fill="none" stroke="#56c1d8" stroke-width="2" d="M775,-108C775,-108 745,-108 745,-108 739,-108 733,-102 733,-96 733,-96 733,-84 733,-84 733,-78 739,-72 745,-72 745,-72 775,-72 775,-72 781,-72 787,-78 787,-84 787,-84 787,-96 787,-96 787,-102 781,-108 775,-108"/>
<text text-anchor="middle" x="760" y="-87.5" font-family="sans" font-size="10.00">run</text>
</g>
<!-- 17&#45;&gt;0 -->
<g id="edge4" class="edge">
<title>17&#45;&gt;0</title>
<path fill="none" stroke="grey" stroke-width="2" d="M732.91,-82.41C681.12,-69.83 568.04,-42.34 509.22,-28.05"/>
<polygon fill="grey" stroke="grey" stroke-width="2" points="509.78,-24.58 499.23,-25.62 508.12,-31.38 509.78,-24.58"/>
</g>
<!-- 18 -->
<g id="node19" class="node">
<title>18</title>
<path fill="none" stroke="#56d8c1" stroke-width="2" d="M797,-180C797,-180 723,-180 723,-180 717,-180 711,-174 711,-168 711,-168 711,-156 711,-156 711,-150 717,-144 723,-144 723,-144 797,-144 797,-144 803,-144 809,-150 809,-156 809,-156 809,-168 809,-168 809,-174 803,-180 797,-180"/>
<text text-anchor="middle" x="760" y="-159.5" font-family="sans" font-size="10.00">prepare_run_raw</text>
</g>
<!-- 18&#45;&gt;17 -->
<g id="edge22" class="edge">
<title>18&#45;&gt;17</title>
<path fill="none" stroke="grey" stroke-width="2" d="M760,-143.7C760,-135.98 760,-126.71 760,-118.11"/>
<polygon fill="grey" stroke="grey" stroke-width="2" points="763.5,-118.1 760,-108.1 756.5,-118.1 763.5,-118.1"/>
</g>
<!-- 19 -->
<g id="node20" class="node">
<title>19</title>
<path fill="none" stroke="#59d856" stroke-width="2" stroke-dasharray="5,2" d="M917,-180C917,-180 839,-180 839,-180 833,-180 827,-174 827,-168 827,-168 827,-156 827,-156 827,-150 833,-144 839,-144 839,-144 917,-144 917,-144 923,-144 929,-150 929,-156 929,-156 929,-168 929,-168 929,-174 923,-180 917,-180"/>
<text text-anchor="middle" x="878" y="-165" font-family="sans" font-size="10.00">spinup</text>
<text text-anchor="middle" x="878" y="-154" font-family="sans" font-size="10.00">site: GF&#45;Guy&#45;Raw</text>
</g>
<!-- 19&#45;&gt;17 -->
<g id="edge23" class="edge">
<title>19&#45;&gt;17</title>
<path fill="none" stroke="grey" stroke-width="2" d="M849.13,-143.88C833.24,-134.45 813.37,-122.66 796.42,-112.61"/>
<polygon fill="grey" stroke="grey" stroke-width="2" points="797.74,-109.32 787.35,-107.23 794.17,-115.34 797.74,-109.32"/>
</g>
<!-- 20 -->
<g id="node21" class="node">
<title>20</title>
<path fill="none" stroke="#568ad8" stroke-width="2" stroke-dasharray="5,2" d="M923.5,-252C923.5,-252 832.5,-252 832.5,-252 826.5,-252 820.5,-246 820.5,-240 820.5,-240 820.5,-228 820.5,-228 820.5,-222 826.5,-216 832.5,-216 832.5,-216 923.5,-216 923.5,-216 929.5,-216 935.5,-222 935.5,-228 935.5,-228 935.5,-240 935.5,-240 935.5,-246 929.5,-252 923.5,-252"/>
<text text-anchor="middle" x="878" y="-231.5" font-family="sans" font-size="10.00">prepare_spinup_raw</text>
</g>
<!-- 20&#45;&gt;19 -->
<g id="edge24" class="edge">
<title>20&#45;&gt;19</title>
<path fill="none" stroke="grey" stroke-width="2" d="M878,-215.7C878,-207.98 878,-198.71 878,-190.11"/>
<polygon fill="grey" stroke="grey" stroke-width="2" points="881.5,-190.1 878,-180.1 874.5,-190.1 881.5,-190.1"/>
</g>
</g>
</svg>
