<?xml version="1.0" encoding="UTF-8" standalone="no"?>
<!DOCTYPE svg PUBLIC "-//W3C//DTD SVG 1.1//EN"
 "http://www.w3.org/Graphics/SVG/1.1/DTD/svg11.dtd">
<!-- Generated by graphviz version 2.43.0 (0)
 -->
<!-- Title: snakemake_dag Pages: 1 -->
<svg width="732pt" height="337pt"
 viewBox="0.00 0.00 732.00 337.00" xmlns="http://www.w3.org/2000/svg" xmlns:xlink="http://www.w3.org/1999/xlink">
<g id="graph0" class="graph" transform="scale(1 1) rotate(0) translate(4 333)">
<title>snakemake_dag</title>
<polygon fill="white" stroke="transparent" points="-4,4 -4,-333 728,-333 728,4 -4,4"/>
<!-- 0 -->
<g id="node1" class="node">
<title>0</title>
<path fill="none" stroke="#56d8d8" stroke-width="2" d="M407.5,-36C407.5,-36 377.5,-36 377.5,-36 371.5,-36 365.5,-30 365.5,-24 365.5,-24 365.5,-12 365.5,-12 365.5,-6 371.5,0 377.5,0 377.5,0 407.5,0 407.5,0 413.5,0 419.5,-6 419.5,-12 419.5,-12 419.5,-24 419.5,-24 419.5,-30 413.5,-36 407.5,-36"/>
<text text-anchor="middle" x="392.5" y="-15.5" font-family="sans" font-size="10.00">all</text>
</g>
<!-- 1 -->
<g id="node2" class="node">
<title>1</title>
<path fill="none" stroke="#56d89a" stroke-width="2" d="M120.5,-108C120.5,-108 58.5,-108 58.5,-108 52.5,-108 46.5,-102 46.5,-96 46.5,-96 46.5,-84 46.5,-84 46.5,-78 52.5,-72 58.5,-72 58.5,-72 120.5,-72 120.5,-72 126.5,-72 132.5,-78 132.5,-84 132.5,-84 132.5,-96 132.5,-96 132.5,-102 126.5,-108 120.5,-108"/>
<text text-anchor="middle" x="89.5" y="-93" font-family="sans" font-size="10.00">troll_exp</text>
<text text-anchor="middle" x="89.5" y="-82" font-family="sans" font-size="10.00">exp: historical</text>
</g>
<!-- 1&#45;&gt;0 -->
<g id="edge1" class="edge">
<title>1&#45;&gt;0</title>
<path fill="none" stroke="grey" stroke-width="2" d="M132.59,-79.05C192.27,-65.26 299.08,-40.58 355.4,-27.57"/>
<polygon fill="grey" stroke="grey" stroke-width="2" points="356.35,-30.94 365.3,-25.28 354.77,-24.12 356.35,-30.94"/>
</g>
<!-- 2 -->
<g id="node3" class="node">
<title>2</title>
<path fill="none" stroke="#569ad8" stroke-width="2" d="M79,-180C79,-180 34,-180 34,-180 28,-180 22,-174 22,-168 22,-168 22,-156 22,-156 22,-150 28,-144 34,-144 34,-144 79,-144 79,-144 85,-144 91,-150 91,-156 91,-156 91,-168 91,-168 91,-174 85,-180 79,-180"/>
<text text-anchor="middle" x="56.5" y="-165" font-family="sans" font-size="10.00">troll_warm</text>
<text text-anchor="middle" x="56.5" y="-154" font-family="sans" font-size="10.00">rep: 1</text>
</g>
<!-- 2&#45;&gt;1 -->
<g id="edge7" class="edge">
<title>2&#45;&gt;1</title>
<path fill="none" stroke="grey" stroke-width="2" d="M64.66,-143.7C68.41,-135.73 72.95,-126.1 77.12,-117.26"/>
<polygon fill="grey" stroke="grey" stroke-width="2" points="80.34,-118.64 81.44,-108.1 74.01,-115.66 80.34,-118.64"/>
</g>
<!-- 3 -->
<g id="node4" class="node">
<title>3</title>
<path fill="none" stroke="#d6d856" stroke-width="2" d="M89,-252C89,-252 12,-252 12,-252 6,-252 0,-246 0,-240 0,-240 0,-228 0,-228 0,-222 6,-216 12,-216 12,-216 89,-216 89,-216 95,-216 101,-222 101,-228 101,-228 101,-240 101,-240 101,-246 95,-252 89,-252"/>
<text text-anchor="middle" x="50.5" y="-237" font-family="sans" font-size="10.00">sample_climate</text>
<text text-anchor="middle" x="50.5" y="-226" font-family="sans" font-size="10.00">climate: guyaflux</text>
</g>
<!-- 3&#45;&gt;2 -->
<g id="edge8" class="edge">
<title>3&#45;&gt;2</title>
<path fill="none" stroke="grey" stroke-width="2" d="M51.98,-215.7C52.64,-207.98 53.44,-198.71 54.18,-190.11"/>
<polygon fill="grey" stroke="grey" stroke-width="2" points="57.67,-190.37 55.03,-180.1 50.69,-189.77 57.67,-190.37"/>
</g>
<!-- 4 -->
<g id="node5" class="node">
<title>4</title>
<path fill="none" stroke="#97d856" stroke-width="2" d="M89,-326.5C89,-326.5 12,-326.5 12,-326.5 6,-326.5 0,-320.5 0,-314.5 0,-314.5 0,-302.5 0,-302.5 0,-296.5 6,-290.5 12,-290.5 12,-290.5 89,-290.5 89,-290.5 95,-290.5 101,-296.5 101,-302.5 101,-302.5 101,-314.5 101,-314.5 101,-320.5 95,-326.5 89,-326.5"/>
<text text-anchor="middle" x="50.5" y="-306" font-family="sans" font-size="10.00">prepare_guyaflux</text>
</g>
<!-- 4&#45;&gt;3 -->
<g id="edge9" class="edge">
<title>4&#45;&gt;3</title>
<path fill="none" stroke="grey" stroke-width="2" d="M50.5,-290.32C50.5,-281.92 50.5,-271.62 50.5,-262.19"/>
<polygon fill="grey" stroke="grey" stroke-width="2" points="54,-262.06 50.5,-252.06 47,-262.06 54,-262.06"/>
</g>
<!-- 5 -->
<g id="node6" class="node">
<title>5</title>
<path fill="none" stroke="#59d856" stroke-width="2" d="M301.5,-329C301.5,-329 229.5,-329 229.5,-329 223.5,-329 217.5,-323 217.5,-317 217.5,-317 217.5,-300 217.5,-300 217.5,-294 223.5,-288 229.5,-288 229.5,-288 301.5,-288 301.5,-288 307.5,-288 313.5,-294 313.5,-300 313.5,-300 313.5,-317 313.5,-317 313.5,-323 307.5,-329 301.5,-329"/>
<text text-anchor="middle" x="265.5" y="-317" font-family="sans" font-size="10.00">select_years</text>
<text text-anchor="middle" x="265.5" y="-306" font-family="sans" font-size="10.00">period: 10&#45;years</text>
<text text-anchor="middle" x="265.5" y="-295" font-family="sans" font-size="10.00">type: current</text>
</g>
<!-- 5&#45;&gt;3 -->
<g id="edge10" class="edge">
<title>5&#45;&gt;3</title>
<path fill="none" stroke="grey" stroke-width="2" d="M217.3,-290.99C214.33,-289.98 211.37,-288.97 208.5,-288 176.25,-277.07 140.26,-264.99 110.78,-255.13"/>
<polygon fill="grey" stroke="grey" stroke-width="2" points="111.64,-251.72 101.05,-251.87 109.42,-258.36 111.64,-251.72"/>
</g>
<!-- 8 -->
<g id="node9" class="node">
<title>8</title>
<path fill="none" stroke="#d6d856" stroke-width="2" d="M202,-252C202,-252 131,-252 131,-252 125,-252 119,-246 119,-240 119,-240 119,-228 119,-228 119,-222 125,-216 131,-216 131,-216 202,-216 202,-216 208,-216 214,-222 214,-228 214,-228 214,-240 214,-240 214,-246 208,-252 202,-252"/>
<text text-anchor="middle" x="166.5" y="-237" font-family="sans" font-size="10.00">sample_climate</text>
<text text-anchor="middle" x="166.5" y="-226" font-family="sans" font-size="10.00">climate: era</text>
</g>
<!-- 5&#45;&gt;8 -->
<g id="edge14" class="edge">
<title>5&#45;&gt;8</title>
<path fill="none" stroke="grey" stroke-width="2" d="M238.71,-287.88C226.21,-278.73 211.25,-267.77 198.2,-258.21"/>
<polygon fill="grey" stroke="grey" stroke-width="2" points="200.08,-255.25 189.94,-252.17 195.94,-260.9 200.08,-255.25"/>
</g>
<!-- 12 -->
<g id="node13" class="node">
<title>12</title>
<path fill="none" stroke="#d6d856" stroke-width="2" d="M457,-252C457,-252 244,-252 244,-252 238,-252 232,-246 232,-240 232,-240 232,-228 232,-228 232,-222 238,-216 244,-216 244,-216 457,-216 457,-216 463,-216 469,-222 469,-228 469,-228 469,-240 469,-240 469,-246 463,-252 457,-252"/>
<text text-anchor="middle" x="350.5" y="-237" font-family="sans" font-size="10.00">sample_climate</text>
<text text-anchor="middle" x="350.5" y="-226" font-family="sans" font-size="10.00">climate: MPI&#45;M&#45;MPI&#45;ESM&#45;MR_ICTP&#45;RegCM4&#45;7</text>
</g>
<!-- 5&#45;&gt;12 -->
<g id="edge18" class="edge">
<title>5&#45;&gt;12</title>
<path fill="none" stroke="grey" stroke-width="2" d="M288.73,-287.69C299.25,-278.72 311.77,-268.04 322.78,-258.65"/>
<polygon fill="grey" stroke="grey" stroke-width="2" points="325.14,-261.23 330.48,-252.08 320.6,-255.9 325.14,-261.23"/>
</g>
<!-- 6 -->
<g id="node7" class="node">
<title>6</title>
<path fill="none" stroke="#56d89a" stroke-width="2" d="M247.5,-108C247.5,-108 185.5,-108 185.5,-108 179.5,-108 173.5,-102 173.5,-96 173.5,-96 173.5,-84 173.5,-84 173.5,-78 179.5,-72 185.5,-72 185.5,-72 247.5,-72 247.5,-72 253.5,-72 259.5,-78 259.5,-84 259.5,-84 259.5,-96 259.5,-96 259.5,-102 253.5,-108 247.5,-108"/>
<text text-anchor="middle" x="216.5" y="-93" font-family="sans" font-size="10.00">troll_exp</text>
<text text-anchor="middle" x="216.5" y="-82" font-family="sans" font-size="10.00">exp: historical</text>
</g>
<!-- 6&#45;&gt;0 -->
<g id="edge2" class="edge">
<title>6&#45;&gt;0</title>
<path fill="none" stroke="grey" stroke-width="2" d="M259.55,-71.88C289.14,-60.11 327.99,-44.66 356.05,-33.5"/>
<polygon fill="grey" stroke="grey" stroke-width="2" points="357.49,-36.69 365.49,-29.74 354.9,-30.19 357.49,-36.69"/>
</g>
<!-- 7 -->
<g id="node8" class="node">
<title>7</title>
<path fill="none" stroke="#569ad8" stroke-width="2" d="M199,-180C199,-180 154,-180 154,-180 148,-180 142,-174 142,-168 142,-168 142,-156 142,-156 142,-150 148,-144 154,-144 154,-144 199,-144 199,-144 205,-144 211,-150 211,-156 211,-156 211,-168 211,-168 211,-174 205,-180 199,-180"/>
<text text-anchor="middle" x="176.5" y="-165" font-family="sans" font-size="10.00">troll_warm</text>
<text text-anchor="middle" x="176.5" y="-154" font-family="sans" font-size="10.00">rep: 1</text>
</g>
<!-- 7&#45;&gt;6 -->
<g id="edge11" class="edge">
<title>7&#45;&gt;6</title>
<path fill="none" stroke="grey" stroke-width="2" d="M186.39,-143.7C190.99,-135.64 196.56,-125.89 201.65,-116.98"/>
<polygon fill="grey" stroke="grey" stroke-width="2" points="204.8,-118.52 206.73,-108.1 198.73,-115.05 204.8,-118.52"/>
</g>
<!-- 8&#45;&gt;7 -->
<g id="edge12" class="edge">
<title>8&#45;&gt;7</title>
<path fill="none" stroke="grey" stroke-width="2" d="M168.97,-215.7C170.07,-207.98 171.4,-198.71 172.63,-190.11"/>
<polygon fill="grey" stroke="grey" stroke-width="2" points="176.11,-190.5 174.06,-180.1 169.18,-189.51 176.11,-190.5"/>
</g>
<!-- 9 -->
<g id="node10" class="node">
<title>9</title>
<path fill="none" stroke="#d85656" stroke-width="2" d="M187,-326.5C187,-326.5 136,-326.5 136,-326.5 130,-326.5 124,-320.5 124,-314.5 124,-314.5 124,-302.5 124,-302.5 124,-296.5 130,-290.5 136,-290.5 136,-290.5 187,-290.5 187,-290.5 193,-290.5 199,-296.5 199,-302.5 199,-302.5 199,-314.5 199,-314.5 199,-320.5 193,-326.5 187,-326.5"/>
<text text-anchor="middle" x="161.5" y="-306" font-family="sans" font-size="10.00">prepare_era</text>
</g>
<!-- 9&#45;&gt;8 -->
<g id="edge13" class="edge">
<title>9&#45;&gt;8</title>
<path fill="none" stroke="grey" stroke-width="2" d="M162.68,-290.32C163.26,-281.92 163.97,-271.62 164.63,-262.19"/>
<polygon fill="grey" stroke="grey" stroke-width="2" points="168.13,-262.28 165.32,-252.06 161.14,-261.79 168.13,-262.28"/>
</g>
<!-- 10 -->
<g id="node11" class="node">
<title>10</title>
<path fill="none" stroke="#56d89a" stroke-width="2" d="M371.5,-108C371.5,-108 309.5,-108 309.5,-108 303.5,-108 297.5,-102 297.5,-96 297.5,-96 297.5,-84 297.5,-84 297.5,-78 303.5,-72 309.5,-72 309.5,-72 371.5,-72 371.5,-72 377.5,-72 383.5,-78 383.5,-84 383.5,-84 383.5,-96 383.5,-96 383.5,-102 377.5,-108 371.5,-108"/>
<text text-anchor="middle" x="340.5" y="-93" font-family="sans" font-size="10.00">troll_exp</text>
<text text-anchor="middle" x="340.5" y="-82" font-family="sans" font-size="10.00">exp: historical</text>
</g>
<!-- 10&#45;&gt;0 -->
<g id="edge3" class="edge">
<title>10&#45;&gt;0</title>
<path fill="none" stroke="grey" stroke-width="2" d="M353.35,-71.7C359.53,-63.39 367.04,-53.28 373.82,-44.14"/>
<polygon fill="grey" stroke="grey" stroke-width="2" points="376.64,-46.22 379.79,-36.1 371.02,-42.04 376.64,-46.22"/>
</g>
<!-- 11 -->
<g id="node12" class="node">
<title>11</title>
<path fill="none" stroke="#569ad8" stroke-width="2" d="M368,-180C368,-180 323,-180 323,-180 317,-180 311,-174 311,-168 311,-168 311,-156 311,-156 311,-150 317,-144 323,-144 323,-144 368,-144 368,-144 374,-144 380,-150 380,-156 380,-156 380,-168 380,-168 380,-174 374,-180 368,-180"/>
<text text-anchor="middle" x="345.5" y="-165" font-family="sans" font-size="10.00">troll_warm</text>
<text text-anchor="middle" x="345.5" y="-154" font-family="sans" font-size="10.00">rep: 1</text>
</g>
<!-- 11&#45;&gt;10 -->
<g id="edge15" class="edge">
<title>11&#45;&gt;10</title>
<path fill="none" stroke="grey" stroke-width="2" d="M344.26,-143.7C343.71,-135.98 343.05,-126.71 342.44,-118.11"/>
<polygon fill="grey" stroke="grey" stroke-width="2" points="345.93,-117.83 341.72,-108.1 338.94,-118.33 345.93,-117.83"/>
</g>
<!-- 12&#45;&gt;11 -->
<g id="edge16" class="edge">
<title>12&#45;&gt;11</title>
<path fill="none" stroke="grey" stroke-width="2" d="M349.26,-215.7C348.71,-207.98 348.05,-198.71 347.44,-190.11"/>
<polygon fill="grey" stroke="grey" stroke-width="2" points="350.93,-189.83 346.72,-180.1 343.94,-190.33 350.93,-189.83"/>
</g>
<!-- 13 -->
<g id="node14" class="node">
<title>13</title>
<path fill="none" stroke="#d89556" stroke-width="2" d="M498.5,-329C498.5,-329 372.5,-329 372.5,-329 366.5,-329 360.5,-323 360.5,-317 360.5,-317 360.5,-300 360.5,-300 360.5,-294 366.5,-288 372.5,-288 372.5,-288 498.5,-288 498.5,-288 504.5,-288 510.5,-294 510.5,-300 510.5,-300 510.5,-317 510.5,-317 510.5,-323 504.5,-329 498.5,-329"/>
<text text-anchor="middle" x="435.5" y="-317" font-family="sans" font-size="10.00">prepare_cordex</text>
<text text-anchor="middle" x="435.5" y="-306" font-family="sans" font-size="10.00">model: MPI&#45;M&#45;MPI&#45;ESM&#45;MR</text>
<text text-anchor="middle" x="435.5" y="-295" font-family="sans" font-size="10.00">rcm: ICTP&#45;RegCM4&#45;7</text>
</g>
<!-- 13&#45;&gt;12 -->
<g id="edge17" class="edge">
<title>13&#45;&gt;12</title>
<path fill="none" stroke="grey" stroke-width="2" d="M412.27,-287.69C401.75,-278.72 389.23,-268.04 378.22,-258.65"/>
<polygon fill="grey" stroke="grey" stroke-width="2" points="380.4,-255.9 370.52,-252.08 375.86,-261.23 380.4,-255.9"/>
</g>
<!-- 16 -->
<g id="node17" class="node">
<title>16</title>
<path fill="none" stroke="#d6d856" stroke-width="2" d="M712,-252C712,-252 499,-252 499,-252 493,-252 487,-246 487,-240 487,-240 487,-228 487,-228 487,-222 493,-216 499,-216 499,-216 712,-216 712,-216 718,-216 724,-222 724,-228 724,-228 724,-240 724,-240 724,-246 718,-252 712,-252"/>
<text text-anchor="middle" x="605.5" y="-237" font-family="sans" font-size="10.00">sample_climate</text>
<text text-anchor="middle" x="605.5" y="-226" font-family="sans" font-size="10.00">climate: MPI&#45;M&#45;MPI&#45;ESM&#45;MR_ICTP&#45;RegCM4&#45;7</text>
</g>
<!-- 13&#45;&gt;16 -->
<g id="edge21" class="edge">
<title>13&#45;&gt;16</title>
<path fill="none" stroke="grey" stroke-width="2" d="M481.5,-287.88C504.58,-278.04 532.55,-266.11 556.08,-256.08"/>
<polygon fill="grey" stroke="grey" stroke-width="2" points="557.71,-259.19 565.53,-252.05 554.96,-252.75 557.71,-259.19"/>
</g>
<!-- 14 -->
<g id="node15" class="node">
<title>14</title>
<path fill="none" stroke="#56d89a" stroke-width="2" d="M475.5,-108C475.5,-108 413.5,-108 413.5,-108 407.5,-108 401.5,-102 401.5,-96 401.5,-96 401.5,-84 401.5,-84 401.5,-78 407.5,-72 413.5,-72 413.5,-72 475.5,-72 475.5,-72 481.5,-72 487.5,-78 487.5,-84 487.5,-84 487.5,-96 487.5,-96 487.5,-102 481.5,-108 475.5,-108"/>
<text text-anchor="middle" x="444.5" y="-93" font-family="sans" font-size="10.00">troll_exp</text>
<text text-anchor="middle" x="444.5" y="-82" font-family="sans" font-size="10.00">exp: historical</text>
</g>
<!-- 14&#45;&gt;0 -->
<g id="edge4" class="edge">
<title>14&#45;&gt;0</title>
<path fill="none" stroke="grey" stroke-width="2" d="M431.65,-71.7C425.47,-63.39 417.96,-53.28 411.18,-44.14"/>
<polygon fill="grey" stroke="grey" stroke-width="2" points="413.98,-42.04 405.21,-36.1 408.36,-46.22 413.98,-42.04"/>
</g>
<!-- 15 -->
<g id="node16" class="node">
<title>15</title>
<path fill="none" stroke="#569ad8" stroke-width="2" d="M595,-180C595,-180 550,-180 550,-180 544,-180 538,-174 538,-168 538,-168 538,-156 538,-156 538,-150 544,-144 550,-144 550,-144 595,-144 595,-144 601,-144 607,-150 607,-156 607,-156 607,-168 607,-168 607,-174 601,-180 595,-180"/>
<text text-anchor="middle" x="572.5" y="-165" font-family="sans" font-size="10.00">troll_warm</text>
<text text-anchor="middle" x="572.5" y="-154" font-family="sans" font-size="10.00">rep: 1</text>
</g>
<!-- 15&#45;&gt;14 -->
<g id="edge19" class="edge">
<title>15&#45;&gt;14</title>
<path fill="none" stroke="grey" stroke-width="2" d="M541.19,-143.88C524.3,-134.64 503.25,-123.13 485.12,-113.21"/>
<polygon fill="grey" stroke="grey" stroke-width="2" points="486.39,-109.92 475.93,-108.19 483.03,-116.06 486.39,-109.92"/>
</g>
<!-- 18 -->
<g id="node19" class="node">
<title>18</title>
<path fill="none" stroke="#56d89a" stroke-width="2" d="M561.5,-108C561.5,-108 517.5,-108 517.5,-108 511.5,-108 505.5,-102 505.5,-96 505.5,-96 505.5,-84 505.5,-84 505.5,-78 511.5,-72 517.5,-72 517.5,-72 561.5,-72 561.5,-72 567.5,-72 573.5,-78 573.5,-84 573.5,-84 573.5,-96 573.5,-96 573.5,-102 567.5,-108 561.5,-108"/>
<text text-anchor="middle" x="539.5" y="-93" font-family="sans" font-size="10.00">troll_exp</text>
<text text-anchor="middle" x="539.5" y="-82" font-family="sans" font-size="10.00">exp: rcp26</text>
</g>
<!-- 15&#45;&gt;18 -->
<g id="edge23" class="edge">
<title>15&#45;&gt;18</title>
<path fill="none" stroke="grey" stroke-width="2" d="M564.34,-143.7C560.59,-135.73 556.05,-126.1 551.88,-117.26"/>
<polygon fill="grey" stroke="grey" stroke-width="2" points="554.99,-115.66 547.56,-108.1 548.66,-118.64 554.99,-115.66"/>
</g>
<!-- 19 -->
<g id="node20" class="node">
<title>19</title>
<path fill="none" stroke="#56d89a" stroke-width="2" d="M647.5,-108C647.5,-108 603.5,-108 603.5,-108 597.5,-108 591.5,-102 591.5,-96 591.5,-96 591.5,-84 591.5,-84 591.5,-78 597.5,-72 603.5,-72 603.5,-72 647.5,-72 647.5,-72 653.5,-72 659.5,-78 659.5,-84 659.5,-84 659.5,-96 659.5,-96 659.5,-102 653.5,-108 647.5,-108"/>
<text text-anchor="middle" x="625.5" y="-93" font-family="sans" font-size="10.00">troll_exp</text>
<text text-anchor="middle" x="625.5" y="-82" font-family="sans" font-size="10.00">exp: rcp85</text>
</g>
<!-- 15&#45;&gt;19 -->
<g id="edge24" class="edge">
<title>15&#45;&gt;19</title>
<path fill="none" stroke="grey" stroke-width="2" d="M585.6,-143.7C591.89,-135.39 599.55,-125.28 606.46,-116.14"/>
<polygon fill="grey" stroke="grey" stroke-width="2" points="609.3,-118.19 612.55,-108.1 603.72,-113.96 609.3,-118.19"/>
</g>
<!-- 16&#45;&gt;15 -->
<g id="edge20" class="edge">
<title>16&#45;&gt;15</title>
<path fill="none" stroke="grey" stroke-width="2" d="M597.34,-215.7C593.59,-207.73 589.05,-198.1 584.88,-189.26"/>
<polygon fill="grey" stroke="grey" stroke-width="2" points="587.99,-187.66 580.56,-180.1 581.66,-190.64 587.99,-187.66"/>
</g>
<!-- 17 -->
<g id="node18" class="node">
<title>17</title>
<path fill="none" stroke="#59d856" stroke-width="2" d="M642.5,-329C642.5,-329 568.5,-329 568.5,-329 562.5,-329 556.5,-323 556.5,-317 556.5,-317 556.5,-300 556.5,-300 556.5,-294 562.5,-288 568.5,-288 568.5,-288 642.5,-288 642.5,-288 648.5,-288 654.5,-294 654.5,-300 654.5,-300 654.5,-317 654.5,-317 654.5,-323 648.5,-329 642.5,-329"/>
<text text-anchor="middle" x="605.5" y="-317" font-family="sans" font-size="10.00">select_years</text>
<text text-anchor="middle" x="605.5" y="-306" font-family="sans" font-size="10.00">period: full</text>
<text text-anchor="middle" x="605.5" y="-295" font-family="sans" font-size="10.00">type: projections</text>
</g>
<!-- 17&#45;&gt;16 -->
<g id="edge22" class="edge">
<title>17&#45;&gt;16</title>
<path fill="none" stroke="grey" stroke-width="2" d="M605.5,-287.69C605.5,-279.91 605.5,-270.84 605.5,-262.45"/>
<polygon fill="grey" stroke="grey" stroke-width="2" points="609,-262.32 605.5,-252.32 602,-262.32 609,-262.32"/>
</g>
<!-- 18&#45;&gt;0 -->
<g id="edge5" class="edge">
<title>18&#45;&gt;0</title>
<path fill="none" stroke="grey" stroke-width="2" d="M505.41,-72.76C482.45,-61.83 452.2,-47.43 428.8,-36.28"/>
<polygon fill="grey" stroke="grey" stroke-width="2" points="430.08,-33.02 419.55,-31.88 427.07,-39.34 430.08,-33.02"/>
</g>
<!-- 19&#45;&gt;0 -->
<g id="edge6" class="edge">
<title>19&#45;&gt;0</title>
<path fill="none" stroke="grey" stroke-width="2" d="M591.35,-75.13C588.37,-74.03 585.39,-72.97 582.5,-72 529.91,-54.32 467.78,-37.79 429.25,-28.04"/>
<polygon fill="grey" stroke="grey" stroke-width="2" points="430.07,-24.63 419.51,-25.59 428.36,-31.42 430.07,-24.63"/>
</g>
</g>
</svg>
