<?xml version="1.0" encoding="UTF-8" standalone="no"?>
<!DOCTYPE svg PUBLIC "-//W3C//DTD SVG 1.1//EN"
 "http://www.w3.org/Graphics/SVG/1.1/DTD/svg11.dtd">
<!-- Generated by graphviz version 2.43.0 (0)
 -->
<!-- Title: snakemake_dag Pages: 1 -->
<svg width="627pt" height="332pt"
 viewBox="0.00 0.00 626.50 332.00" xmlns="http://www.w3.org/2000/svg" xmlns:xlink="http://www.w3.org/1999/xlink">
<g id="graph0" class="graph" transform="scale(1 1) rotate(0) translate(4 328)">
<title>snakemake_dag</title>
<polygon fill="white" stroke="transparent" points="-4,4 -4,-328 622.5,-328 622.5,4 -4,4"/>
<!-- 0 -->
<g id="node1" class="node">
<title>0</title>
<path fill="none" stroke="#78d856" stroke-width="2" d="M274.5,-36C274.5,-36 244.5,-36 244.5,-36 238.5,-36 232.5,-30 232.5,-24 232.5,-24 232.5,-12 232.5,-12 232.5,-6 238.5,0 244.5,0 244.5,0 274.5,0 274.5,0 280.5,0 286.5,-6 286.5,-12 286.5,-12 286.5,-24 286.5,-24 286.5,-30 280.5,-36 274.5,-36"/>
<text text-anchor="middle" x="259.5" y="-15.5" font-family="sans" font-size="10.00">all</text>
</g>
<!-- 1 -->
<g id="node2" class="node">
<title>1</title>
<path fill="none" stroke="#56a2d8" stroke-width="2" d="M145.5,-108C145.5,-108 115.5,-108 115.5,-108 109.5,-108 103.5,-102 103.5,-96 103.5,-96 103.5,-84 103.5,-84 103.5,-78 109.5,-72 115.5,-72 115.5,-72 145.5,-72 145.5,-72 151.5,-72 157.5,-78 157.5,-84 157.5,-84 157.5,-96 157.5,-96 157.5,-102 151.5,-108 145.5,-108"/>
<text text-anchor="middle" x="130.5" y="-87.5" font-family="sans" font-size="10.00">run</text>
</g>
<!-- 1&#45;&gt;0 -->
<g id="edge1" class="edge">
<title>1&#45;&gt;0</title>
<path fill="none" stroke="grey" stroke-width="2" d="M157.54,-74.33C176.72,-63.92 202.66,-49.84 223.58,-38.49"/>
<polygon fill="grey" stroke="grey" stroke-width="2" points="225.37,-41.5 232.49,-33.65 222.03,-35.35 225.37,-41.5"/>
</g>
<!-- 2 -->
<g id="node3" class="node">
<title>2</title>
<path fill="none" stroke="#c6d856" stroke-width="2" d="M63,-180C63,-180 12,-180 12,-180 6,-180 0,-174 0,-168 0,-168 0,-156 0,-156 0,-150 6,-144 12,-144 12,-144 63,-144 63,-144 69,-144 75,-150 75,-156 75,-156 75,-168 75,-168 75,-174 69,-180 63,-180"/>
<text text-anchor="middle" x="37.5" y="-159.5" font-family="sans" font-size="10.00">prepare_run</text>
</g>
<!-- 2&#45;&gt;1 -->
<g id="edge4" class="edge">
<title>2&#45;&gt;1</title>
<path fill="none" stroke="grey" stroke-width="2" d="M60.49,-143.7C72.31,-134.8 86.89,-123.82 99.68,-114.2"/>
<polygon fill="grey" stroke="grey" stroke-width="2" points="101.89,-116.91 107.78,-108.1 97.68,-111.32 101.89,-116.91"/>
</g>
<!-- 3 -->
<g id="node4" class="node">
<title>3</title>
<path fill="none" stroke="#d8a456" stroke-width="2" d="M97,-324C97,-324 44,-324 44,-324 38,-324 32,-318 32,-312 32,-312 32,-300 32,-300 32,-294 38,-288 44,-288 44,-288 97,-288 97,-288 103,-288 109,-294 109,-300 109,-300 109,-312 109,-312 109,-318 103,-324 97,-324"/>
<text text-anchor="middle" x="70.5" y="-309" font-family="sans" font-size="10.00">format</text>
<text text-anchor="middle" x="70.5" y="-298" font-family="sans" font-size="10.00">site: GF&#45;Guy</text>
</g>
<!-- 3&#45;&gt;2 -->
<g id="edge6" class="edge">
<title>3&#45;&gt;2</title>
<path fill="none" stroke="grey" stroke-width="2" d="M65.75,-287.87C62.94,-277.51 59.37,-264.03 56.5,-252 51.58,-231.38 46.6,-207.93 42.97,-190.28"/>
<polygon fill="grey" stroke="grey" stroke-width="2" points="46.33,-189.22 40.9,-180.12 39.47,-190.61 46.33,-189.22"/>
</g>
<!-- 4 -->
<g id="node5" class="node">
<title>4</title>
<path fill="none" stroke="#d85656" stroke-width="2" d="M145.5,-180C145.5,-180 115.5,-180 115.5,-180 109.5,-180 103.5,-174 103.5,-168 103.5,-168 103.5,-156 103.5,-156 103.5,-150 109.5,-144 115.5,-144 115.5,-144 145.5,-144 145.5,-144 151.5,-144 157.5,-150 157.5,-156 157.5,-156 157.5,-168 157.5,-168 157.5,-174 151.5,-180 145.5,-180"/>
<text text-anchor="middle" x="130.5" y="-159.5" font-family="sans" font-size="10.00">spinup</text>
</g>
<!-- 3&#45;&gt;4 -->
<g id="edge8" class="edge">
<title>3&#45;&gt;4</title>
<path fill="none" stroke="grey" stroke-width="2" d="M71.87,-287.89C73.86,-269.42 78.6,-239.5 89.5,-216 94.05,-206.19 100.71,-196.51 107.34,-188.16"/>
<polygon fill="grey" stroke="grey" stroke-width="2" points="110.17,-190.23 113.88,-180.3 104.79,-185.75 110.17,-190.23"/>
</g>
<!-- 5 -->
<g id="node6" class="node">
<title>5</title>
<path fill="none" stroke="#56d8c9" stroke-width="2" d="M178.5,-252C178.5,-252 110.5,-252 110.5,-252 104.5,-252 98.5,-246 98.5,-240 98.5,-240 98.5,-228 98.5,-228 98.5,-222 104.5,-216 110.5,-216 110.5,-216 178.5,-216 178.5,-216 184.5,-216 190.5,-222 190.5,-228 190.5,-228 190.5,-240 190.5,-240 190.5,-246 184.5,-252 178.5,-252"/>
<text text-anchor="middle" x="144.5" y="-231.5" font-family="sans" font-size="10.00">prepare_spinup</text>
</g>
<!-- 3&#45;&gt;5 -->
<g id="edge9" class="edge">
<title>3&#45;&gt;5</title>
<path fill="none" stroke="grey" stroke-width="2" d="M88.79,-287.7C97.93,-279.05 109.14,-268.45 119.1,-259.03"/>
<polygon fill="grey" stroke="grey" stroke-width="2" points="121.56,-261.52 126.42,-252.1 116.75,-256.43 121.56,-261.52"/>
</g>
<!-- 4&#45;&gt;1 -->
<g id="edge5" class="edge">
<title>4&#45;&gt;1</title>
<path fill="none" stroke="grey" stroke-width="2" d="M130.5,-143.7C130.5,-135.98 130.5,-126.71 130.5,-118.11"/>
<polygon fill="grey" stroke="grey" stroke-width="2" points="134,-118.1 130.5,-108.1 127,-118.1 134,-118.1"/>
</g>
<!-- 5&#45;&gt;4 -->
<g id="edge7" class="edge">
<title>5&#45;&gt;4</title>
<path fill="none" stroke="grey" stroke-width="2" d="M141.04,-215.7C139.5,-207.98 137.64,-198.71 135.92,-190.11"/>
<polygon fill="grey" stroke="grey" stroke-width="2" points="139.31,-189.22 133.92,-180.1 132.45,-190.6 139.31,-189.22"/>
</g>
<!-- 6 -->
<g id="node7" class="node">
<title>6</title>
<path fill="none" stroke="#56a2d8" stroke-width="2" d="M274.5,-108C274.5,-108 244.5,-108 244.5,-108 238.5,-108 232.5,-102 232.5,-96 232.5,-96 232.5,-84 232.5,-84 232.5,-78 238.5,-72 244.5,-72 244.5,-72 274.5,-72 274.5,-72 280.5,-72 286.5,-78 286.5,-84 286.5,-84 286.5,-96 286.5,-96 286.5,-102 280.5,-108 274.5,-108"/>
<text text-anchor="middle" x="259.5" y="-87.5" font-family="sans" font-size="10.00">run</text>
</g>
<!-- 6&#45;&gt;0 -->
<g id="edge2" class="edge">
<title>6&#45;&gt;0</title>
<path fill="none" stroke="grey" stroke-width="2" d="M259.5,-71.7C259.5,-63.98 259.5,-54.71 259.5,-46.11"/>
<polygon fill="grey" stroke="grey" stroke-width="2" points="263,-46.1 259.5,-36.1 256,-46.1 263,-46.1"/>
</g>
<!-- 7 -->
<g id="node8" class="node">
<title>7</title>
<path fill="none" stroke="#c6d856" stroke-width="2" d="M244,-180C244,-180 193,-180 193,-180 187,-180 181,-174 181,-168 181,-168 181,-156 181,-156 181,-150 187,-144 193,-144 193,-144 244,-144 244,-144 250,-144 256,-150 256,-156 256,-156 256,-168 256,-168 256,-174 250,-180 244,-180"/>
<text text-anchor="middle" x="218.5" y="-159.5" font-family="sans" font-size="10.00">prepare_run</text>
</g>
<!-- 7&#45;&gt;6 -->
<g id="edge10" class="edge">
<title>7&#45;&gt;6</title>
<path fill="none" stroke="grey" stroke-width="2" d="M228.63,-143.7C233.35,-135.64 239.06,-125.89 244.28,-116.98"/>
<polygon fill="grey" stroke="grey" stroke-width="2" points="247.45,-118.5 249.48,-108.1 241.41,-114.96 247.45,-118.5"/>
</g>
<!-- 8 -->
<g id="node9" class="node">
<title>8</title>
<path fill="none" stroke="#d8a456" stroke-width="2" d="M282.5,-324C282.5,-324 230.5,-324 230.5,-324 224.5,-324 218.5,-318 218.5,-312 218.5,-312 218.5,-300 218.5,-300 218.5,-294 224.5,-288 230.5,-288 230.5,-288 282.5,-288 282.5,-288 288.5,-288 294.5,-294 294.5,-300 294.5,-300 294.5,-312 294.5,-312 294.5,-318 288.5,-324 282.5,-324"/>
<text text-anchor="middle" x="256.5" y="-309" font-family="sans" font-size="10.00">format</text>
<text text-anchor="middle" x="256.5" y="-298" font-family="sans" font-size="10.00">site: BR&#45;Sa1</text>
</g>
<!-- 8&#45;&gt;7 -->
<g id="edge12" class="edge">
<title>8&#45;&gt;7</title>
<path fill="none" stroke="grey" stroke-width="2" d="M251.92,-287.87C245.41,-263.56 233.44,-218.82 225.73,-190.01"/>
<polygon fill="grey" stroke="grey" stroke-width="2" points="229.07,-188.94 223.1,-180.19 222.3,-190.75 229.07,-188.94"/>
</g>
<!-- 9 -->
<g id="node10" class="node">
<title>9</title>
<path fill="none" stroke="#d85656" stroke-width="2" d="M316.5,-180C316.5,-180 286.5,-180 286.5,-180 280.5,-180 274.5,-174 274.5,-168 274.5,-168 274.5,-156 274.5,-156 274.5,-150 280.5,-144 286.5,-144 286.5,-144 316.5,-144 316.5,-144 322.5,-144 328.5,-150 328.5,-156 328.5,-156 328.5,-168 328.5,-168 328.5,-174 322.5,-180 316.5,-180"/>
<text text-anchor="middle" x="301.5" y="-159.5" font-family="sans" font-size="10.00">spinup</text>
</g>
<!-- 8&#45;&gt;9 -->
<g id="edge14" class="edge">
<title>8&#45;&gt;9</title>
<path fill="none" stroke="grey" stroke-width="2" d="M258.87,-287.93C261.68,-269.76 267.08,-240.34 275.5,-216 278.62,-206.99 282.9,-197.54 287.09,-189.14"/>
<polygon fill="grey" stroke="grey" stroke-width="2" points="290.23,-190.69 291.72,-180.2 284.01,-187.48 290.23,-190.69"/>
</g>
<!-- 10 -->
<g id="node11" class="node">
<title>10</title>
<path fill="none" stroke="#56d8c9" stroke-width="2" d="M364.5,-252C364.5,-252 296.5,-252 296.5,-252 290.5,-252 284.5,-246 284.5,-240 284.5,-240 284.5,-228 284.5,-228 284.5,-222 290.5,-216 296.5,-216 296.5,-216 364.5,-216 364.5,-216 370.5,-216 376.5,-222 376.5,-228 376.5,-228 376.5,-240 376.5,-240 376.5,-246 370.5,-252 364.5,-252"/>
<text text-anchor="middle" x="330.5" y="-231.5" font-family="sans" font-size="10.00">prepare_spinup</text>
</g>
<!-- 8&#45;&gt;10 -->
<g id="edge15" class="edge">
<title>8&#45;&gt;10</title>
<path fill="none" stroke="grey" stroke-width="2" d="M274.79,-287.7C283.93,-279.05 295.14,-268.45 305.1,-259.03"/>
<polygon fill="grey" stroke="grey" stroke-width="2" points="307.56,-261.52 312.42,-252.1 302.75,-256.43 307.56,-261.52"/>
</g>
<!-- 9&#45;&gt;6 -->
<g id="edge11" class="edge">
<title>9&#45;&gt;6</title>
<path fill="none" stroke="grey" stroke-width="2" d="M291.12,-143.7C286.24,-135.56 280.31,-125.69 274.92,-116.7"/>
<polygon fill="grey" stroke="grey" stroke-width="2" points="277.91,-114.88 269.76,-108.1 271.91,-118.48 277.91,-114.88"/>
</g>
<!-- 10&#45;&gt;9 -->
<g id="edge13" class="edge">
<title>10&#45;&gt;9</title>
<path fill="none" stroke="grey" stroke-width="2" d="M323.33,-215.7C320.07,-207.81 316.13,-198.3 312.5,-189.55"/>
<polygon fill="grey" stroke="grey" stroke-width="2" points="315.65,-188 308.59,-180.1 309.18,-190.68 315.65,-188"/>
</g>
<!-- 11 -->
<g id="node12" class="node">
<title>11</title>
<path fill="none" stroke="#56a2d8" stroke-width="2" d="M447.5,-108C447.5,-108 417.5,-108 417.5,-108 411.5,-108 405.5,-102 405.5,-96 405.5,-96 405.5,-84 405.5,-84 405.5,-78 411.5,-72 417.5,-72 417.5,-72 447.5,-72 447.5,-72 453.5,-72 459.5,-78 459.5,-84 459.5,-84 459.5,-96 459.5,-96 459.5,-102 453.5,-108 447.5,-108"/>
<text text-anchor="middle" x="432.5" y="-87.5" font-family="sans" font-size="10.00">run</text>
</g>
<!-- 11&#45;&gt;0 -->
<g id="edge3" class="edge">
<title>11&#45;&gt;0</title>
<path fill="none" stroke="grey" stroke-width="2" d="M405.47,-78.06C376.1,-66.18 329.01,-47.12 296.28,-33.88"/>
<polygon fill="grey" stroke="grey" stroke-width="2" points="297.21,-30.48 286.63,-29.98 294.58,-36.97 297.21,-30.48"/>
</g>
<!-- 12 -->
<g id="node13" class="node">
<title>12</title>
<path fill="none" stroke="#c6d856" stroke-width="2" d="M458,-252C458,-252 407,-252 407,-252 401,-252 395,-246 395,-240 395,-240 395,-228 395,-228 395,-222 401,-216 407,-216 407,-216 458,-216 458,-216 464,-216 470,-222 470,-228 470,-228 470,-240 470,-240 470,-246 464,-252 458,-252"/>
<text text-anchor="middle" x="432.5" y="-231.5" font-family="sans" font-size="10.00">prepare_run</text>
</g>
<!-- 12&#45;&gt;11 -->
<g id="edge16" class="edge">
<title>12&#45;&gt;11</title>
<path fill="none" stroke="grey" stroke-width="2" d="M432.5,-215.87C432.5,-191.67 432.5,-147.21 432.5,-118.39"/>
<polygon fill="grey" stroke="grey" stroke-width="2" points="436,-118.19 432.5,-108.19 429,-118.19 436,-118.19"/>
</g>
<!-- 13 -->
<g id="node14" class="node">
<title>13</title>
<path fill="none" stroke="#d8a456" stroke-width="2" d="M524.5,-324C524.5,-324 472.5,-324 472.5,-324 466.5,-324 460.5,-318 460.5,-312 460.5,-312 460.5,-300 460.5,-300 460.5,-294 466.5,-288 472.5,-288 472.5,-288 524.5,-288 524.5,-288 530.5,-288 536.5,-294 536.5,-300 536.5,-300 536.5,-312 536.5,-312 536.5,-318 530.5,-324 524.5,-324"/>
<text text-anchor="middle" x="498.5" y="-309" font-family="sans" font-size="10.00">format</text>
<text text-anchor="middle" x="498.5" y="-298" font-family="sans" font-size="10.00">site: BR&#45;Sa3</text>
</g>
<!-- 13&#45;&gt;12 -->
<g id="edge18" class="edge">
<title>13&#45;&gt;12</title>
<path fill="none" stroke="grey" stroke-width="2" d="M482.19,-287.7C474.19,-279.22 464.43,-268.86 455.68,-259.58"/>
<polygon fill="grey" stroke="grey" stroke-width="2" points="458.03,-256.98 448.63,-252.1 452.94,-261.78 458.03,-256.98"/>
</g>
<!-- 14 -->
<g id="node15" class="node">
<title>14</title>
<path fill="none" stroke="#d85656" stroke-width="2" d="M513.5,-180C513.5,-180 483.5,-180 483.5,-180 477.5,-180 471.5,-174 471.5,-168 471.5,-168 471.5,-156 471.5,-156 471.5,-150 477.5,-144 483.5,-144 483.5,-144 513.5,-144 513.5,-144 519.5,-144 525.5,-150 525.5,-156 525.5,-156 525.5,-168 525.5,-168 525.5,-174 519.5,-180 513.5,-180"/>
<text text-anchor="middle" x="498.5" y="-159.5" font-family="sans" font-size="10.00">spinup</text>
</g>
<!-- 13&#45;&gt;14 -->
<g id="edge20" class="edge">
<title>13&#45;&gt;14</title>
<path fill="none" stroke="grey" stroke-width="2" d="M498.5,-287.87C498.5,-263.67 498.5,-219.21 498.5,-190.39"/>
<polygon fill="grey" stroke="grey" stroke-width="2" points="502,-190.19 498.5,-180.19 495,-190.19 502,-190.19"/>
</g>
<!-- 15 -->
<g id="node16" class="node">
<title>15</title>
<path fill="none" stroke="#56d8c9" stroke-width="2" d="M606.5,-252C606.5,-252 538.5,-252 538.5,-252 532.5,-252 526.5,-246 526.5,-240 526.5,-240 526.5,-228 526.5,-228 526.5,-222 532.5,-216 538.5,-216 538.5,-216 606.5,-216 606.5,-216 612.5,-216 618.5,-222 618.5,-228 618.5,-228 618.5,-240 618.5,-240 618.5,-246 612.5,-252 606.5,-252"/>
<text text-anchor="middle" x="572.5" y="-231.5" font-family="sans" font-size="10.00">prepare_spinup</text>
</g>
<!-- 13&#45;&gt;15 -->
<g id="edge21" class="edge">
<title>13&#45;&gt;15</title>
<path fill="none" stroke="grey" stroke-width="2" d="M516.79,-287.7C525.93,-279.05 537.14,-268.45 547.1,-259.03"/>
<polygon fill="grey" stroke="grey" stroke-width="2" points="549.56,-261.52 554.42,-252.1 544.75,-256.43 549.56,-261.52"/>
</g>
<!-- 14&#45;&gt;11 -->
<g id="edge17" class="edge">
<title>14&#45;&gt;11</title>
<path fill="none" stroke="grey" stroke-width="2" d="M482.19,-143.7C474.19,-135.22 464.43,-124.86 455.68,-115.58"/>
<polygon fill="grey" stroke="grey" stroke-width="2" points="458.03,-112.98 448.63,-108.1 452.94,-117.78 458.03,-112.98"/>
</g>
<!-- 15&#45;&gt;14 -->
<g id="edge19" class="edge">
<title>15&#45;&gt;14</title>
<path fill="none" stroke="grey" stroke-width="2" d="M554.21,-215.7C545.07,-207.05 533.86,-196.45 523.9,-187.03"/>
<polygon fill="grey" stroke="grey" stroke-width="2" points="526.25,-184.43 516.58,-180.1 521.44,-189.52 526.25,-184.43"/>
</g>
</g>
</svg>
