<?xml version="1.0" encoding="UTF-8" standalone="no"?>
<!DOCTYPE svg PUBLIC "-//W3C//DTD SVG 1.1//EN"
 "http://www.w3.org/Graphics/SVG/1.1/DTD/svg11.dtd">
<!-- Generated by graphviz version 2.43.0 (0)
 -->
<!-- Title: snakemake_dag Pages: 1 -->
<svg width="369pt" height="353pt"
 viewBox="0.00 0.00 369.00 353.00" xmlns="http://www.w3.org/2000/svg" xmlns:xlink="http://www.w3.org/1999/xlink">
<g id="graph0" class="graph" transform="scale(1 1) rotate(0) translate(4 349)">
<title>snakemake_dag</title>
<polygon fill="white" stroke="transparent" points="-4,4 -4,-349 365,-349 365,4 -4,4"/>
<!-- 0 -->
<g id="node1" class="node">
<title>0</title>
<path fill="none" stroke="#56a9d8" stroke-width="2" d="M195.5,-36C195.5,-36 165.5,-36 165.5,-36 159.5,-36 153.5,-30 153.5,-24 153.5,-24 153.5,-12 153.5,-12 153.5,-6 159.5,0 165.5,0 165.5,0 195.5,0 195.5,0 201.5,0 207.5,-6 207.5,-12 207.5,-12 207.5,-24 207.5,-24 207.5,-30 201.5,-36 195.5,-36"/>
<text text-anchor="middle" x="180.5" y="-15.5" font-family="sans" font-size="10.00">all</text>
</g>
<!-- 1 -->
<g id="node2" class="node">
<title>1</title>
<path fill="none" stroke="#59d856" stroke-width="2" d="M159.5,-108C159.5,-108 129.5,-108 129.5,-108 123.5,-108 117.5,-102 117.5,-96 117.5,-96 117.5,-84 117.5,-84 117.5,-78 123.5,-72 129.5,-72 129.5,-72 159.5,-72 159.5,-72 165.5,-72 171.5,-78 171.5,-84 171.5,-84 171.5,-96 171.5,-96 171.5,-102 165.5,-108 159.5,-108"/>
<text text-anchor="middle" x="144.5" y="-87.5" font-family="sans" font-size="10.00">run</text>
</g>
<!-- 1&#45;&gt;0 -->
<g id="edge1" class="edge">
<title>1&#45;&gt;0</title>
<path fill="none" stroke="grey" stroke-width="2" d="M153.4,-71.7C157.5,-63.73 162.45,-54.1 166.99,-45.26"/>
<polygon fill="grey" stroke="grey" stroke-width="2" points="170.24,-46.6 171.7,-36.1 164.02,-43.4 170.24,-46.6"/>
</g>
<!-- 2 -->
<g id="node3" class="node">
<title>2</title>
<path fill="none" stroke="#afd856" stroke-width="2" d="M123,-196C123,-196 12,-196 12,-196 6,-196 0,-190 0,-184 0,-184 0,-156 0,-156 0,-150 6,-144 12,-144 12,-144 123,-144 123,-144 129,-144 135,-150 135,-156 135,-156 135,-184 135,-184 135,-190 129,-196 123,-196"/>
<text text-anchor="middle" x="67.5" y="-184" font-family="sans" font-size="10.00">prepare_run</text>
<text text-anchor="middle" x="67.5" y="-173" font-family="sans" font-size="10.00">exp: rcp26</text>
<text text-anchor="middle" x="67.5" y="-162" font-family="sans" font-size="10.00">model: NCC&#45;NorESM1&#45;M</text>
<text text-anchor="middle" x="67.5" y="-151" font-family="sans" font-size="10.00">rcm: REMO2015</text>
</g>
<!-- 2&#45;&gt;1 -->
<g id="edge3" class="edge">
<title>2&#45;&gt;1</title>
<path fill="none" stroke="grey" stroke-width="2" d="M92.29,-143.89C101.22,-134.84 111.28,-124.65 120.17,-115.65"/>
<polygon fill="grey" stroke="grey" stroke-width="2" points="122.78,-117.99 127.31,-108.41 117.8,-113.07 122.78,-117.99"/>
</g>
<!-- 3 -->
<g id="node4" class="node">
<title>3</title>
<path fill="none" stroke="#d85656" stroke-width="2" d="M195.5,-188C195.5,-188 165.5,-188 165.5,-188 159.5,-188 153.5,-182 153.5,-176 153.5,-176 153.5,-164 153.5,-164 153.5,-158 159.5,-152 165.5,-152 165.5,-152 195.5,-152 195.5,-152 201.5,-152 207.5,-158 207.5,-164 207.5,-164 207.5,-176 207.5,-176 207.5,-182 201.5,-188 195.5,-188"/>
<text text-anchor="middle" x="180.5" y="-167.5" font-family="sans" font-size="10.00">spinup</text>
</g>
<!-- 3&#45;&gt;1 -->
<g id="edge4" class="edge">
<title>3&#45;&gt;1</title>
<path fill="none" stroke="grey" stroke-width="2" d="M172.51,-151.69C167.9,-141.69 162,-128.91 156.8,-117.65"/>
<polygon fill="grey" stroke="grey" stroke-width="2" points="159.84,-115.88 152.47,-108.26 153.48,-118.81 159.84,-115.88"/>
</g>
<!-- 6 -->
<g id="node7" class="node">
<title>6</title>
<path fill="none" stroke="#59d856" stroke-width="2" d="M231.5,-108C231.5,-108 201.5,-108 201.5,-108 195.5,-108 189.5,-102 189.5,-96 189.5,-96 189.5,-84 189.5,-84 189.5,-78 195.5,-72 201.5,-72 201.5,-72 231.5,-72 231.5,-72 237.5,-72 243.5,-78 243.5,-84 243.5,-84 243.5,-96 243.5,-96 243.5,-102 237.5,-108 231.5,-108"/>
<text text-anchor="middle" x="216.5" y="-87.5" font-family="sans" font-size="10.00">run</text>
</g>
<!-- 3&#45;&gt;6 -->
<g id="edge8" class="edge">
<title>3&#45;&gt;6</title>
<path fill="none" stroke="grey" stroke-width="2" d="M188.49,-151.69C193.1,-141.69 199,-128.91 204.2,-117.65"/>
<polygon fill="grey" stroke="grey" stroke-width="2" points="207.52,-118.81 208.53,-108.26 201.16,-115.88 207.52,-118.81"/>
</g>
<!-- 4 -->
<g id="node5" class="node">
<title>4</title>
<path fill="none" stroke="#56d8a9" stroke-width="2" d="M236,-273C236,-273 125,-273 125,-273 119,-273 113,-267 113,-261 113,-261 113,-244 113,-244 113,-238 119,-232 125,-232 125,-232 236,-232 236,-232 242,-232 248,-238 248,-244 248,-244 248,-261 248,-261 248,-267 242,-273 236,-273"/>
<text text-anchor="middle" x="180.5" y="-261" font-family="sans" font-size="10.00">prepare_spinup</text>
<text text-anchor="middle" x="180.5" y="-250" font-family="sans" font-size="10.00">model: NCC&#45;NorESM1&#45;M</text>
<text text-anchor="middle" x="180.5" y="-239" font-family="sans" font-size="10.00">rcm: REMO2015</text>
</g>
<!-- 4&#45;&gt;3 -->
<g id="edge5" class="edge">
<title>4&#45;&gt;3</title>
<path fill="none" stroke="grey" stroke-width="2" d="M180.5,-231.6C180.5,-221.61 180.5,-209.36 180.5,-198.49"/>
<polygon fill="grey" stroke="grey" stroke-width="2" points="184,-198.22 180.5,-188.22 177,-198.22 184,-198.22"/>
</g>
<!-- 5 -->
<g id="node6" class="node">
<title>5</title>
<path fill="none" stroke="#d8ac56" stroke-width="2" d="M209,-345C209,-345 152,-345 152,-345 146,-345 140,-339 140,-333 140,-333 140,-321 140,-321 140,-315 146,-309 152,-309 152,-309 209,-309 209,-309 215,-309 221,-315 221,-321 221,-321 221,-333 221,-333 221,-339 215,-345 209,-345"/>
<text text-anchor="middle" x="180.5" y="-324.5" font-family="sans" font-size="10.00">spinup_years</text>
</g>
<!-- 5&#45;&gt;4 -->
<g id="edge6" class="edge">
<title>5&#45;&gt;4</title>
<path fill="none" stroke="grey" stroke-width="2" d="M180.5,-308.82C180.5,-301.2 180.5,-292 180.5,-283.32"/>
<polygon fill="grey" stroke="grey" stroke-width="2" points="184,-283.12 180.5,-273.12 177,-283.12 184,-283.12"/>
</g>
<!-- 6&#45;&gt;0 -->
<g id="edge2" class="edge">
<title>6&#45;&gt;0</title>
<path fill="none" stroke="grey" stroke-width="2" d="M207.6,-71.7C203.5,-63.73 198.55,-54.1 194.01,-45.26"/>
<polygon fill="grey" stroke="grey" stroke-width="2" points="196.98,-43.4 189.3,-36.1 190.76,-46.6 196.98,-43.4"/>
</g>
<!-- 7 -->
<g id="node8" class="node">
<title>7</title>
<path fill="none" stroke="#afd856" stroke-width="2" d="M349,-196C349,-196 238,-196 238,-196 232,-196 226,-190 226,-184 226,-184 226,-156 226,-156 226,-150 232,-144 238,-144 238,-144 349,-144 349,-144 355,-144 361,-150 361,-156 361,-156 361,-184 361,-184 361,-190 355,-196 349,-196"/>
<text text-anchor="middle" x="293.5" y="-184" font-family="sans" font-size="10.00">prepare_run</text>
<text text-anchor="middle" x="293.5" y="-173" font-family="sans" font-size="10.00">exp: rcp85</text>
<text text-anchor="middle" x="293.5" y="-162" font-family="sans" font-size="10.00">model: NCC&#45;NorESM1&#45;M</text>
<text text-anchor="middle" x="293.5" y="-151" font-family="sans" font-size="10.00">rcm: REMO2015</text>
</g>
<!-- 7&#45;&gt;6 -->
<g id="edge7" class="edge">
<title>7&#45;&gt;6</title>
<path fill="none" stroke="grey" stroke-width="2" d="M268.71,-143.89C259.78,-134.84 249.72,-124.65 240.83,-115.65"/>
<polygon fill="grey" stroke="grey" stroke-width="2" points="243.2,-113.07 233.69,-108.41 238.22,-117.99 243.2,-113.07"/>
</g>
</g>
</svg>
