<?xml version="1.0" encoding="UTF-8" standalone="no"?>
<!DOCTYPE svg PUBLIC "-//W3C//DTD SVG 1.1//EN"
 "http://www.w3.org/Graphics/SVG/1.1/DTD/svg11.dtd">
<!-- Generated by graphviz version 2.43.0 (0)
 -->
<!-- Title: snakemake_dag Pages: 1 -->
<svg width="1134pt" height="188pt"
 viewBox="0.00 0.00 1133.50 188.00" xmlns="http://www.w3.org/2000/svg" xmlns:xlink="http://www.w3.org/1999/xlink">
<g id="graph0" class="graph" transform="scale(1 1) rotate(0) translate(4 184)">
<title>snakemake_dag</title>
<polygon fill="white" stroke="transparent" points="-4,4 -4,-184 1129.5,-184 1129.5,4 -4,4"/>
<!-- 0 -->
<g id="node1" class="node">
<title>0</title>
<path fill="none" stroke="#afd856" stroke-width="2" d="M581,-36C581,-36 551,-36 551,-36 545,-36 539,-30 539,-24 539,-24 539,-12 539,-12 539,-6 545,0 551,0 551,0 581,0 581,0 587,0 593,-6 593,-12 593,-12 593,-24 593,-24 593,-30 587,-36 581,-36"/>
<text text-anchor="middle" x="566" y="-15.5" font-family="sans" font-size="10.00">all</text>
</g>
<!-- 1 -->
<g id="node2" class="node">
<title>1</title>
<path fill="none" stroke="#56d8a9" stroke-width="2" d="M80,-108C80,-108 12,-108 12,-108 6,-108 0,-102 0,-96 0,-96 0,-84 0,-84 0,-78 6,-72 12,-72 12,-72 80,-72 80,-72 86,-72 92,-78 92,-84 92,-84 92,-96 92,-96 92,-102 86,-108 80,-108"/>
<text text-anchor="middle" x="46" y="-93" font-family="sans" font-size="10.00">spinup</text>
<text text-anchor="middle" x="46" y="-82" font-family="sans" font-size="10.00">site: Acarouany</text>
</g>
<!-- 1&#45;&gt;0 -->
<g id="edge1" class="edge">
<title>1&#45;&gt;0</title>
<path fill="none" stroke="grey" stroke-width="2" d="M92.05,-74.08C95.06,-73.32 98.07,-72.62 101,-72 257.84,-39.12 449.01,-25.45 528.52,-20.9"/>
<polygon fill="grey" stroke="grey" stroke-width="2" points="529.2,-24.37 538.99,-20.32 528.81,-17.38 529.2,-24.37"/>
</g>
<!-- 2 -->
<g id="node3" class="node">
<title>2</title>
<path fill="none" stroke="#d85656" stroke-width="2" d="M591,-180C591,-180 541,-180 541,-180 535,-180 529,-174 529,-168 529,-168 529,-156 529,-156 529,-150 535,-144 541,-144 541,-144 591,-144 591,-144 597,-144 603,-150 603,-156 603,-156 603,-168 603,-168 603,-174 597,-180 591,-180"/>
<text text-anchor="middle" x="566" y="-159.5" font-family="sans" font-size="10.00">extract_soil</text>
</g>
<!-- 2&#45;&gt;1 -->
<g id="edge11" class="edge">
<title>2&#45;&gt;1</title>
<path fill="none" stroke="grey" stroke-width="2" d="M528.86,-159.12C451.17,-154.68 265.87,-141.48 102.29,-108.04"/>
<polygon fill="grey" stroke="grey" stroke-width="2" points="102.55,-104.52 92.05,-105.92 101.13,-111.38 102.55,-104.52"/>
</g>
<!-- 3 -->
<g id="node4" class="node">
<title>3</title>
<path fill="none" stroke="#56d8a9" stroke-width="2" d="M173.5,-108C173.5,-108 122.5,-108 122.5,-108 116.5,-108 110.5,-102 110.5,-96 110.5,-96 110.5,-84 110.5,-84 110.5,-78 116.5,-72 122.5,-72 122.5,-72 173.5,-72 173.5,-72 179.5,-72 185.5,-78 185.5,-84 185.5,-84 185.5,-96 185.5,-96 185.5,-102 179.5,-108 173.5,-108"/>
<text text-anchor="middle" x="148" y="-93" font-family="sans" font-size="10.00">spinup</text>
<text text-anchor="middle" x="148" y="-82" font-family="sans" font-size="10.00">site: BAFOG</text>
</g>
<!-- 2&#45;&gt;3 -->
<g id="edge12" class="edge">
<title>2&#45;&gt;3</title>
<path fill="none" stroke="grey" stroke-width="2" d="M528.92,-158.24C463.3,-152.8 322.49,-138.7 195.64,-107.86"/>
<polygon fill="grey" stroke="grey" stroke-width="2" points="196.31,-104.41 185.76,-105.41 194.62,-111.21 196.31,-104.41"/>
</g>
<!-- 4 -->
<g id="node5" class="node">
<title>4</title>
<path fill="none" stroke="#56d8a9" stroke-width="2" d="M270,-108C270,-108 216,-108 216,-108 210,-108 204,-102 204,-96 204,-96 204,-84 204,-84 204,-78 210,-72 216,-72 216,-72 270,-72 270,-72 276,-72 282,-78 282,-84 282,-84 282,-96 282,-96 282,-102 276,-108 270,-108"/>
<text text-anchor="middle" x="243" y="-93" font-family="sans" font-size="10.00">spinup</text>
<text text-anchor="middle" x="243" y="-82" font-family="sans" font-size="10.00">site: Laussat</text>
</g>
<!-- 2&#45;&gt;4 -->
<g id="edge13" class="edge">
<title>2&#45;&gt;4</title>
<path fill="none" stroke="grey" stroke-width="2" d="M528.68,-155.63C477.28,-147.83 381.77,-131.93 291.94,-108.04"/>
<polygon fill="grey" stroke="grey" stroke-width="2" points="292.71,-104.63 282.14,-105.4 290.88,-111.39 292.71,-104.63"/>
</g>
<!-- 5 -->
<g id="node6" class="node">
<title>5</title>
<path fill="none" stroke="#56d8a9" stroke-width="2" d="M411.5,-108C411.5,-108 312.5,-108 312.5,-108 306.5,-108 300.5,-102 300.5,-96 300.5,-96 300.5,-84 300.5,-84 300.5,-78 306.5,-72 312.5,-72 312.5,-72 411.5,-72 411.5,-72 417.5,-72 423.5,-78 423.5,-84 423.5,-84 423.5,-96 423.5,-96 423.5,-102 417.5,-108 411.5,-108"/>
<text text-anchor="middle" x="362" y="-93" font-family="sans" font-size="10.00">spinup</text>
<text text-anchor="middle" x="362" y="-82" font-family="sans" font-size="10.00">site: Montagne Plomb</text>
</g>
<!-- 2&#45;&gt;5 -->
<g id="edge14" class="edge">
<title>2&#45;&gt;5</title>
<path fill="none" stroke="grey" stroke-width="2" d="M528.58,-148.16C498.62,-137.88 456.02,-123.26 421.4,-111.38"/>
<polygon fill="grey" stroke="grey" stroke-width="2" points="422.46,-108.05 411.87,-108.11 420.19,-114.67 422.46,-108.05"/>
</g>
<!-- 6 -->
<g id="node7" class="node">
<title>6</title>
<path fill="none" stroke="#56d8a9" stroke-width="2" d="M552,-108C552,-108 454,-108 454,-108 448,-108 442,-102 442,-96 442,-96 442,-84 442,-84 442,-78 448,-72 454,-72 454,-72 552,-72 552,-72 558,-72 564,-78 564,-84 564,-84 564,-96 564,-96 564,-102 558,-108 552,-108"/>
<text text-anchor="middle" x="503" y="-93" font-family="sans" font-size="10.00">spinup</text>
<text text-anchor="middle" x="503" y="-82" font-family="sans" font-size="10.00">site: Montagne Tortue</text>
</g>
<!-- 2&#45;&gt;6 -->
<g id="edge15" class="edge">
<title>2&#45;&gt;6</title>
<path fill="none" stroke="grey" stroke-width="2" d="M550.43,-143.7C542.8,-135.22 533.48,-124.86 525.12,-115.58"/>
<polygon fill="grey" stroke="grey" stroke-width="2" points="527.69,-113.2 518.39,-108.1 522.48,-117.88 527.69,-113.2"/>
</g>
<!-- 7 -->
<g id="node8" class="node">
<title>7</title>
<path fill="none" stroke="#56d8a9" stroke-width="2" d="M663.5,-108C663.5,-108 594.5,-108 594.5,-108 588.5,-108 582.5,-102 582.5,-96 582.5,-96 582.5,-84 582.5,-84 582.5,-78 588.5,-72 594.5,-72 594.5,-72 663.5,-72 663.5,-72 669.5,-72 675.5,-78 675.5,-84 675.5,-84 675.5,-96 675.5,-96 675.5,-102 669.5,-108 663.5,-108"/>
<text text-anchor="middle" x="629" y="-93" font-family="sans" font-size="10.00">spinup</text>
<text text-anchor="middle" x="629" y="-82" font-family="sans" font-size="10.00">site: Nouragues</text>
</g>
<!-- 2&#45;&gt;7 -->
<g id="edge16" class="edge">
<title>2&#45;&gt;7</title>
<path fill="none" stroke="grey" stroke-width="2" d="M581.57,-143.7C589.2,-135.22 598.52,-124.86 606.88,-115.58"/>
<polygon fill="grey" stroke="grey" stroke-width="2" points="609.52,-117.88 613.61,-108.1 604.31,-113.2 609.52,-117.88"/>
</g>
<!-- 8 -->
<g id="node9" class="node">
<title>8</title>
<path fill="none" stroke="#56d8a9" stroke-width="2" d="M760.5,-108C760.5,-108 705.5,-108 705.5,-108 699.5,-108 693.5,-102 693.5,-96 693.5,-96 693.5,-84 693.5,-84 693.5,-78 699.5,-72 705.5,-72 705.5,-72 760.5,-72 760.5,-72 766.5,-72 772.5,-78 772.5,-84 772.5,-84 772.5,-96 772.5,-96 772.5,-102 766.5,-108 760.5,-108"/>
<text text-anchor="middle" x="733" y="-93" font-family="sans" font-size="10.00">spinup</text>
<text text-anchor="middle" x="733" y="-82" font-family="sans" font-size="10.00">site: Paracou</text>
</g>
<!-- 2&#45;&gt;8 -->
<g id="edge17" class="edge">
<title>2&#45;&gt;8</title>
<path fill="none" stroke="grey" stroke-width="2" d="M603.06,-145.46C626.94,-135.46 658.25,-122.33 684.15,-111.48"/>
<polygon fill="grey" stroke="grey" stroke-width="2" points="685.55,-114.68 693.42,-107.59 682.84,-108.23 685.55,-114.68"/>
</g>
<!-- 9 -->
<g id="node10" class="node">
<title>9</title>
<path fill="none" stroke="#56d8a9" stroke-width="2" d="M909.5,-108C909.5,-108 802.5,-108 802.5,-108 796.5,-108 790.5,-102 790.5,-96 790.5,-96 790.5,-84 790.5,-84 790.5,-78 796.5,-72 802.5,-72 802.5,-72 909.5,-72 909.5,-72 915.5,-72 921.5,-78 921.5,-84 921.5,-84 921.5,-96 921.5,-96 921.5,-102 915.5,-108 909.5,-108"/>
<text text-anchor="middle" x="856" y="-93" font-family="sans" font-size="10.00">spinup</text>
<text text-anchor="middle" x="856" y="-82" font-family="sans" font-size="10.00">site: Régina St Georges</text>
</g>
<!-- 2&#45;&gt;9 -->
<g id="edge18" class="edge">
<title>2&#45;&gt;9</title>
<path fill="none" stroke="grey" stroke-width="2" d="M603.02,-152.06C647.53,-141.32 723.36,-123.02 780.42,-109.24"/>
<polygon fill="grey" stroke="grey" stroke-width="2" points="781.58,-112.56 790.48,-106.81 779.94,-105.76 781.58,-112.56"/>
</g>
<!-- 10 -->
<g id="node11" class="node">
<title>10</title>
<path fill="none" stroke="#56d8a9" stroke-width="2" d="M1020.5,-108C1020.5,-108 951.5,-108 951.5,-108 945.5,-108 939.5,-102 939.5,-96 939.5,-96 939.5,-84 939.5,-84 939.5,-78 945.5,-72 951.5,-72 951.5,-72 1020.5,-72 1020.5,-72 1026.5,-72 1032.5,-78 1032.5,-84 1032.5,-84 1032.5,-96 1032.5,-96 1032.5,-102 1026.5,-108 1020.5,-108"/>
<text text-anchor="middle" x="986" y="-93" font-family="sans" font-size="10.00">spinup</text>
<text text-anchor="middle" x="986" y="-82" font-family="sans" font-size="10.00">site: Risquetout</text>
</g>
<!-- 2&#45;&gt;10 -->
<g id="edge19" class="edge">
<title>2&#45;&gt;10</title>
<path fill="none" stroke="grey" stroke-width="2" d="M603.13,-157.54C667.76,-151.1 805.14,-135.56 929.27,-108.22"/>
<polygon fill="grey" stroke="grey" stroke-width="2" points="930.33,-111.57 939.33,-105.97 928.8,-104.73 930.33,-111.57"/>
</g>
<!-- 11 -->
<g id="node12" class="node">
<title>11</title>
<path fill="none" stroke="#56d8a9" stroke-width="2" d="M1113.5,-108C1113.5,-108 1062.5,-108 1062.5,-108 1056.5,-108 1050.5,-102 1050.5,-96 1050.5,-96 1050.5,-84 1050.5,-84 1050.5,-78 1056.5,-72 1062.5,-72 1062.5,-72 1113.5,-72 1113.5,-72 1119.5,-72 1125.5,-78 1125.5,-84 1125.5,-84 1125.5,-96 1125.5,-96 1125.5,-102 1119.5,-108 1113.5,-108"/>
<text text-anchor="middle" x="1088" y="-93" font-family="sans" font-size="10.00">spinup</text>
<text text-anchor="middle" x="1088" y="-82" font-family="sans" font-size="10.00">site: default</text>
</g>
<!-- 2&#45;&gt;11 -->
<g id="edge20" class="edge">
<title>2&#45;&gt;11</title>
<path fill="none" stroke="grey" stroke-width="2" d="M603.25,-159.92C682.58,-156.98 873.92,-146.4 1040.4,-108.08"/>
<polygon fill="grey" stroke="grey" stroke-width="2" points="1041.38,-111.44 1050.32,-105.75 1039.79,-104.63 1041.38,-111.44"/>
</g>
<!-- 3&#45;&gt;0 -->
<g id="edge2" class="edge">
<title>3&#45;&gt;0</title>
<path fill="none" stroke="grey" stroke-width="2" d="M185.76,-74.59C188.86,-73.64 191.97,-72.76 195,-72 314.85,-42.1 460.97,-27.4 528.49,-21.8"/>
<polygon fill="grey" stroke="grey" stroke-width="2" points="528.95,-25.27 538.63,-20.98 528.38,-18.3 528.95,-25.27"/>
</g>
<!-- 4&#45;&gt;0 -->
<g id="edge3" class="edge">
<title>4&#45;&gt;0</title>
<path fill="none" stroke="grey" stroke-width="2" d="M282.14,-74.6C285.12,-73.67 288.1,-72.79 291,-72 374.8,-49.22 475.51,-32.43 528.76,-24.36"/>
<polygon fill="grey" stroke="grey" stroke-width="2" points="529.39,-27.81 538.76,-22.86 528.35,-20.88 529.39,-27.81"/>
</g>
<!-- 5&#45;&gt;0 -->
<g id="edge4" class="edge">
<title>5&#45;&gt;0</title>
<path fill="none" stroke="grey" stroke-width="2" d="M411.64,-71.97C447.88,-59.53 496.2,-42.95 529.06,-31.67"/>
<polygon fill="grey" stroke="grey" stroke-width="2" points="530.41,-34.91 538.73,-28.36 528.14,-28.29 530.41,-34.91"/>
</g>
<!-- 6&#45;&gt;0 -->
<g id="edge5" class="edge">
<title>6&#45;&gt;0</title>
<path fill="none" stroke="grey" stroke-width="2" d="M518.57,-71.7C526.2,-63.22 535.52,-52.86 543.88,-43.58"/>
<polygon fill="grey" stroke="grey" stroke-width="2" points="546.52,-45.88 550.61,-36.1 541.31,-41.2 546.52,-45.88"/>
</g>
<!-- 7&#45;&gt;0 -->
<g id="edge6" class="edge">
<title>7&#45;&gt;0</title>
<path fill="none" stroke="grey" stroke-width="2" d="M613.43,-71.7C605.8,-63.22 596.48,-52.86 588.12,-43.58"/>
<polygon fill="grey" stroke="grey" stroke-width="2" points="590.69,-41.2 581.39,-36.1 585.48,-45.88 590.69,-41.2"/>
</g>
<!-- 8&#45;&gt;0 -->
<g id="edge7" class="edge">
<title>8&#45;&gt;0</title>
<path fill="none" stroke="grey" stroke-width="2" d="M693.42,-72.41C665.85,-60.85 629.34,-45.55 602.47,-34.29"/>
<polygon fill="grey" stroke="grey" stroke-width="2" points="603.62,-30.97 593.04,-30.33 600.91,-37.43 603.62,-30.97"/>
</g>
<!-- 9&#45;&gt;0 -->
<g id="edge8" class="edge">
<title>9&#45;&gt;0</title>
<path fill="none" stroke="grey" stroke-width="2" d="M790.19,-73.12C732.28,-59.14 650.05,-39.29 602.95,-27.92"/>
<polygon fill="grey" stroke="grey" stroke-width="2" points="603.72,-24.5 593.18,-25.56 602.08,-31.31 603.72,-24.5"/>
</g>
<!-- 10&#45;&gt;0 -->
<g id="edge9" class="edge">
<title>10&#45;&gt;0</title>
<path fill="none" stroke="grey" stroke-width="2" d="M939.33,-74.03C936.52,-73.3 933.73,-72.62 931,-72 812.72,-45.3 669.7,-29.1 603.27,-22.48"/>
<polygon fill="grey" stroke="grey" stroke-width="2" points="603.57,-18.99 593.28,-21.5 602.89,-25.96 603.57,-18.99"/>
</g>
<!-- 11&#45;&gt;0 -->
<g id="edge10" class="edge">
<title>11&#45;&gt;0</title>
<path fill="none" stroke="grey" stroke-width="2" d="M1050.32,-74.25C1047.53,-73.41 1044.73,-72.65 1042,-72 881.71,-34.06 684.45,-23.1 603.43,-20.08"/>
<polygon fill="grey" stroke="grey" stroke-width="2" points="603.35,-16.58 593.23,-19.72 603.1,-23.57 603.35,-16.58"/>
</g>
</g>
</svg>
